<svg width="73" height="73" viewBox="0 0 73 73" fill="none" xmlns="http://www.w3.org/2000/svg">
<path d="M71 2.66797H38V31.668H71V2.66797Z" fill="#F1F3F6"/>
<path d="M47.3044 40.0684H50.5044C50.5044 40.0684 51.4794 38.1484 51.9154 37.3524L61.3544 20.2394C61.8014 19.4394 63.7614 16.3394 63.7614 16.3394H20.0424L17.5634 11.0684H8.94238V16.3424H14.2154L23.7074 36.3554C23.6904 36.5204 23.7074 50.0814 23.7074 50.0814H51.1274V44.8074H28.7954L29.0324 40.0684H47.3044ZM22.5424 21.6154H54.5804L47.3044 34.7994H28.7954L22.5424 21.6154ZM23.7554 53.2564C22.7122 53.2562 21.6925 53.5653 20.825 54.1447C19.9576 54.7241 19.2815 55.5477 18.8821 56.5114C18.4828 57.4751 18.3782 58.5355 18.5816 59.5587C18.785 60.5818 19.2872 61.5216 20.0247 62.2593C20.7623 62.997 21.702 63.4994 22.7251 63.7029C23.7482 63.9065 24.8087 63.8021 25.7724 63.403C26.7362 63.0038 27.5599 62.3279 28.1395 61.4605C28.719 60.5932 29.0284 59.5735 29.0284 58.5304C29.0294 57.8379 28.8939 57.152 28.6295 56.512C28.3652 55.872 27.9772 55.2904 27.4878 54.8005C26.9984 54.3106 26.4171 53.9221 25.7774 53.6571C25.1376 53.3921 24.4518 53.256 23.7594 53.2564H23.7554ZM51.1224 53.2564C50.0792 53.2562 49.0595 53.5653 48.192 54.1447C47.3246 54.7241 46.6485 55.5477 46.2491 56.5114C45.8498 57.4751 45.7452 58.5355 45.9486 59.5587C46.152 60.5818 46.6542 61.5216 47.3917 62.2593C48.1293 62.997 49.069 63.4994 50.0921 63.7029C51.1152 63.9065 52.1757 63.8021 53.1394 63.403C54.1032 63.0038 54.9269 62.3279 55.5065 61.4605C56.086 60.5932 56.3954 59.5735 56.3954 58.5304C56.3964 57.838 56.2609 57.1522 55.9966 56.5122C55.7323 55.8723 55.3444 55.2907 54.8551 54.8009C54.3658 54.311 53.7847 53.9224 53.1451 53.6574C52.5054 53.3924 51.8198 53.2561 51.1274 53.2564H51.1224Z" fill="#A6B6CC"/>
</svg>
