<svg width="63" height="63" viewBox="0 0 63 63" fill="none" xmlns="http://www.w3.org/2000/svg">
<path d="M54.4862 29.1001C56.331 27.8037 57.5526 25.6472 57.5526 23.2165C57.5526 19.24 54.3366 16.024 50.3601 16.024C46.3837 16.024 43.1676 19.24 43.1676 23.2165C43.1676 25.6472 44.3767 27.8037 46.2341 29.1001C44.651 29.6486 43.205 30.4963 41.9834 31.5932C40.3006 30.1597 38.3186 29.0627 36.1496 28.4145C38.7798 26.819 40.5499 23.9145 40.5499 20.6112C40.5499 15.5752 36.4737 11.499 31.4377 11.499C26.4017 11.499 22.3255 15.5877 22.3255 20.6112C22.3255 23.9145 24.0831 26.819 26.7258 28.4145C24.5817 29.0627 22.6247 30.1472 20.9543 31.5558C19.7327 30.4838 18.3116 29.6486 16.7535 29.1126C18.5983 27.8162 19.8199 25.6597 19.8199 23.2289C19.8199 19.2525 16.6039 16.0364 12.6274 16.0364C8.65097 16.0364 5.4349 19.2525 5.4349 23.2289C5.4349 25.6597 6.64404 27.8162 8.50138 29.1126C3.55263 30.8204 0 35.5198 0 41.042V41.8647C0 41.8896 0.0249307 41.9145 0.0498615 41.9145H15.295C15.2078 42.6001 15.1579 43.3107 15.1579 44.0212V44.8688C15.1579 48.5337 18.1247 51.5004 21.7895 51.5004H41.1108C44.7756 51.5004 47.7424 48.5337 47.7424 44.8688V44.0212C47.7424 43.3107 47.6925 42.6001 47.6053 41.9145H62.9501C62.9751 41.9145 63 41.8896 63 41.8647V41.042C62.9751 35.5073 59.4349 30.8079 54.4862 29.1001ZM45.162 23.204C45.162 20.337 47.4931 18.0059 50.3601 18.0059C53.2271 18.0059 55.5582 20.337 55.5582 23.204C55.5582 26.0337 53.277 28.3397 50.4598 28.4021C50.4224 28.4021 50.3975 28.4021 50.3601 28.4021C50.3227 28.4021 50.2978 28.4021 50.2604 28.4021C47.4308 28.3522 45.162 26.0461 45.162 23.204ZM24.295 20.6112C24.295 16.6846 27.4862 13.4935 31.4127 13.4935C35.3393 13.4935 38.5305 16.6846 38.5305 20.6112C38.5305 24.4007 35.5512 27.5046 31.8241 27.7165C31.687 27.7165 31.5499 27.7165 31.4127 27.7165C31.2756 27.7165 31.1385 27.7165 31.0014 27.7165C27.2742 27.5046 24.295 24.4007 24.295 20.6112ZM7.39197 23.204C7.39197 20.337 9.72299 18.0059 12.59 18.0059C15.4571 18.0059 17.7881 20.337 17.7881 23.204C17.7881 26.0337 15.5069 28.3397 12.6898 28.4021C12.6524 28.4021 12.6274 28.4021 12.59 28.4021C12.5526 28.4021 12.5277 28.4021 12.4903 28.4021C9.67313 28.3522 7.39197 26.0461 7.39197 23.204ZM15.644 39.9076H2.01939C2.58033 34.5974 7.06787 30.4339 12.5152 30.3965C12.5402 30.3965 12.5651 30.3965 12.59 30.3965C12.615 30.3965 12.6399 30.3965 12.6648 30.3965C15.2576 30.409 17.626 31.3688 19.4585 32.927C17.6634 34.8716 16.3296 37.265 15.644 39.9076ZM45.723 44.8688C45.723 47.4242 43.6413 49.506 41.0859 49.506H21.7645C19.2091 49.506 17.1274 47.4242 17.1274 44.8688V44.0212C17.1274 36.2802 23.3102 29.9478 31.0014 29.7234C31.1385 29.7359 31.2881 29.7359 31.4252 29.7359C31.5623 29.7359 31.7119 29.7359 31.849 29.7234C39.5402 29.9478 45.723 36.2802 45.723 44.0212V44.8688ZM47.2064 39.9076C46.5208 37.2774 45.2119 34.9215 43.4294 32.9769C45.2742 31.3813 47.6676 30.4215 50.2853 30.3965C50.3102 30.3965 50.3352 30.3965 50.3601 30.3965C50.385 30.3965 50.41 30.3965 50.4349 30.3965C55.8823 30.4339 60.3698 34.5974 60.9307 39.9076H47.2064Z" fill="#FF1212"/>
</svg>
