<svg width="43" height="38" viewBox="0 0 43 38" fill="none" xmlns="http://www.w3.org/2000/svg">
<g clip-path="url(#clip0_4248_6142)">
<path d="M37.9697 5.36621H35.4543V7.54458H37.9697V5.36621Z" fill="#FF1212"/>
<path d="M32.9385 5.36621H30.423V7.54458H32.9385V5.36621Z" fill="#FF1212"/>
<path d="M27.9082 5.36621H25.3928V7.54458H27.9082V5.36621Z" fill="#FF1212"/>
<path d="M43 0.0839844V37.9502H0.102829V0.0839844H43ZM2.2812 2.26236V10.4814H40.8216V2.26236H2.2812ZM40.8216 35.688V12.6597H2.2812V35.688H40.8216Z" fill="#FF1212"/>
<path d="M27.2784 16.5361L33.1895 24.0478L27.2784 31.5595L25.7222 30.0053L30.4099 24.0478L25.7222 18.0904L27.2784 16.5361Z" fill="#FF1212"/>
<path d="M17.4648 18.0904L12.7772 24.0478L17.4648 30.0053L15.8249 31.5595L9.91384 24.0478L15.8249 16.5361L17.4648 18.0904Z" fill="#FF1212"/>
<path d="M22.3896 16.5029H20.2951V31.5931H22.3896V16.5029Z" fill="#FF1212"/>
</g>
<defs>
<clipPath id="clip0_4248_6142">
<rect width="42.8972" height="37.95" fill="white" transform="matrix(-1 0 0 1 43 0)"/>
</clipPath>
</defs>
</svg>
