<svg width="48" height="48" viewBox="0 0 48 48" fill="none" xmlns="http://www.w3.org/2000/svg">
<g clip-path="url(#clip0_4248_6128)">
<path d="M13.7627 26.8125C13.2452 26.8125 12.8252 27.2325 12.8252 27.75C12.8252 28.2675 13.2452 28.6875 13.7627 28.6875C14.2802 28.6875 14.7002 28.2675 14.7002 27.75C14.7002 27.2325 14.2802 26.8125 13.7627 26.8125Z" fill="#FF1212"/>
<path d="M13.7627 30.5625C13.2449 30.5625 12.8252 30.9822 12.8252 31.5V43.3125C12.8252 43.8303 13.2449 44.25 13.7627 44.25C14.2805 44.25 14.7002 43.8303 14.7002 43.3125V31.5C14.7002 30.9822 14.2804 30.5625 13.7627 30.5625Z" fill="#FF1212"/>
<path d="M39.7682 0.704646C39.691 0.40324 39.4692 0.159771 39.1763 0.0548644C38.8833 -0.0499482 38.5575 -0.00279192 38.3065 0.180958C37.3697 0.86674 32.6576 4.39427 31.8901 6.50196C31.4338 7.75737 31.5375 9.12771 32.15 10.2885C31.0007 11.9372 29.8101 14.2137 28.7624 16.4379V0.937521C28.7624 0.41974 28.3426 2.05843e-05 27.8249 2.05843e-05H20.3249C19.8071 2.05843e-05 19.3874 0.41974 19.3874 0.937521V19.3125H19.2191L17.6178 13.0829C17.6171 13.0798 17.6163 13.0767 17.6154 13.0737L16.1595 7.64084C16.1594 7.64065 16.1594 7.64046 16.1593 7.64028C16.1508 7.60906 16.1406 7.57831 16.129 7.54803C16.1254 7.53874 16.1211 7.52984 16.1173 7.52065C16.1085 7.49956 16.0993 7.47874 16.0889 7.45831C16.0838 7.44837 16.0783 7.43881 16.0728 7.42906C16.0622 7.40984 16.0511 7.3909 16.0391 7.37243C16.033 7.36315 16.0267 7.35406 16.0203 7.34496C16.0075 7.32668 15.994 7.30896 15.9798 7.29152C15.9759 7.28674 15.9727 7.28149 15.9687 7.27681L10.4056 0.721802C10.1727 0.447396 9.80331 0.330583 9.45503 0.421052C9.10675 0.511521 8.84097 0.793427 8.77113 1.14649L7.09019 9.64212C7.08897 9.6484 7.08869 9.65478 7.08756 9.66096C7.08325 9.68543 7.07969 9.7099 7.07734 9.73446C7.07631 9.74487 7.07566 9.75528 7.075 9.76568C7.07359 9.78912 7.07303 9.81237 7.07331 9.83571C7.07341 9.84659 7.0735 9.85746 7.07406 9.86834C7.07519 9.89225 7.07753 9.91596 7.08053 9.93968C7.08175 9.94943 7.0825 9.95909 7.084 9.96875C7.08916 10.0018 7.09572 10.0346 7.10434 10.0669L8.55859 15.4943L9.53416 19.3536C8.96509 19.4506 8.44056 19.7197 8.02384 20.1364C7.49256 20.6678 7.19987 21.374 7.19987 22.1249C7.19987 23.3471 7.98372 24.3892 9.07487 24.7762V43.3125C9.07487 45.8972 11.1777 48 13.7624 48H32.5124C35.0971 48 37.1999 45.8972 37.1999 43.3125V24.7778C37.5906 24.6399 37.949 24.4153 38.2509 24.1136C38.7823 23.5822 39.0749 22.876 39.0749 22.125C39.0749 20.7552 38.0901 19.6115 36.7915 19.3632C37.403 16.8784 37.8341 14.4091 37.9932 12.4717C39.2448 11.9877 40.2319 10.994 40.7002 9.70793C41.4693 7.59612 40.0589 1.83762 39.7682 0.704646ZM33.3975 11.7896C33.7851 12.0945 34.2206 12.3382 34.692 12.5097C35.1425 12.6737 35.6108 12.7667 36.0817 12.7883C35.8938 14.6575 35.4631 16.9846 34.8713 19.3125H29.5122C30.9438 16.0684 32.2662 13.5087 33.3975 11.7896ZM21.2624 1.87502H26.8874V4.03127H25.0124C24.4947 4.03127 24.0749 4.45099 24.0749 4.96877C24.0749 5.48656 24.4947 5.90627 25.0124 5.90627H26.8874V7.78128H25.0124C24.4947 7.78128 24.0749 8.20099 24.0749 8.71878C24.0749 9.23656 24.4947 9.65628 25.0124 9.65628H26.8874V11.5313H25.0124C24.4947 11.5313 24.0749 11.951 24.0749 12.4688C24.0749 12.9866 24.4947 13.4063 25.0124 13.4063H26.8874V15.2813H25.0124C24.4947 15.2813 24.0749 15.701 24.0749 16.2188C24.0749 16.7366 24.4947 17.1563 25.0124 17.1563H26.8874V19.3125H21.2624V1.87502ZM10.2333 3.41655L14.0795 7.94862C13.5014 8.67903 12.7075 9.2029 11.7911 9.44834C10.8783 9.69293 9.93278 9.63743 9.06972 9.2974L10.2333 3.41655ZM9.38734 11.3432C9.80266 11.4302 10.2257 11.4747 10.651 11.4747C11.193 11.4747 11.7387 11.4035 12.2763 11.2595C13.2361 11.0024 14.1006 10.5303 14.8201 9.88634L15.8031 13.5545L17.2832 19.3125H11.4576L10.3746 15.0281C10.3736 15.0237 10.3725 15.0194 10.3713 15.0152L9.38734 11.3432ZM35.3249 43.3125C35.3249 44.8634 34.0632 46.125 32.5124 46.125H13.7624C12.2116 46.125 10.9499 44.8634 10.9499 43.3125V24.9375H35.3249V43.3125ZM37.1999 22.125C37.1999 22.3752 37.1023 22.6106 36.9251 22.7877C36.7478 22.9649 36.5125 23.0625 36.2624 23.0625H10.0124C9.49544 23.0625 9.07487 22.642 9.07487 22.125C9.07487 21.8749 9.17247 21.6395 9.34966 21.4624C9.52694 21.2851 9.76225 21.1875 10.0124 21.1875H18.486C18.4878 21.1875 18.4896 21.1877 18.4914 21.1877C18.4926 21.1877 18.4938 21.1875 18.4951 21.1875H28.0786C28.0801 21.1875 28.0817 21.1877 28.0832 21.1877C28.0842 21.1877 28.0852 21.1875 28.0863 21.1875H35.5929C35.594 21.1875 35.5953 21.1877 35.5964 21.1877C35.5983 21.1877 35.6 21.1875 35.6019 21.1875H36.2625C36.7792 21.1875 37.1999 21.6081 37.1999 22.125ZM38.9383 9.06649C38.6074 9.97512 37.8453 10.6423 36.8973 10.8516C36.3785 10.9673 35.8378 10.9314 35.3333 10.7479C34.8107 10.5576 34.3608 10.221 34.0324 9.77487C34.0323 9.77468 34.0322 9.7745 34.0321 9.77431C33.4716 9.01371 33.3297 8.0299 33.6519 7.14312C34.0033 6.17824 36.2901 4.1208 38.2804 2.55583C38.8279 5.04377 39.289 8.1034 38.9383 9.06649Z" fill="#FF1212"/>
</g>
<defs>
<clipPath id="clip0_4248_6128">
<rect width="48" height="48" fill="white"/>
</clipPath>
</defs>
</svg>
