<svg width="46" height="46" viewBox="0 0 46 46" fill="none" xmlns="http://www.w3.org/2000/svg">
<g clip-path="url(#clip0_4248_6160)">
<path d="M40.7027 32.4626C40.4504 32.358 40.16 32.4158 39.9669 32.6089L32.5884 39.9874C32.3953 40.1806 32.3375 40.4709 32.4421 40.7232C32.5465 40.9756 32.7928 41.14 33.0659 41.14H40.4444C40.8173 41.14 41.1196 40.8378 41.1196 40.4648V33.0863C41.1195 32.8133 40.955 32.5671 40.7027 32.4626ZM34.6956 39.7897L39.769 34.7163V39.7897H34.6956Z" fill="#FF1212"/>
<path d="M45.5833 21.64C45.331 21.5354 45.0406 21.5932 44.8475 21.7863L42.8254 23.8084V10.0595C42.8254 9.68654 42.523 9.38431 42.1502 9.38431H36.9625L38.8456 7.50118C38.8459 7.50091 38.8462 7.50055 38.8465 7.50028L40.6609 5.68579C41.0497 5.29704 41.2638 4.7799 41.2638 4.23005C41.2638 3.68021 41.0497 3.16324 40.6609 2.77431L38.5627 0.676095C38.174 0.28734 37.6568 0.0732422 37.107 0.0732422C36.5571 0.0732422 36.0401 0.28734 35.6512 0.676095L33.8359 2.49148L31.6422 4.68511L26.9431 9.38422H5.9854V2.70477C5.9854 2.33183 5.68308 2.02959 5.31023 2.02959C2.38221 2.02977 0 4.41181 0 7.34V36.0169C0 36.0668 0.00575001 36.1153 0.0159922 36.162C0.10925 37.4045 0.646786 38.5589 1.54514 39.4352C2.50539 40.3717 3.773 40.8875 5.11455 40.8875H25.7461L21.8605 44.7732C21.6674 44.9664 21.6096 45.2567 21.7141 45.509C21.8186 45.7613 22.0649 45.9258 22.3379 45.9258H45.3249C45.6978 45.9258 46.0001 45.6236 46.0001 45.2506V22.2638C46.0001 21.9908 45.8355 21.7445 45.5833 21.64ZM36.6063 1.63105C36.8823 1.35487 37.332 1.35487 37.608 1.63105L39.7063 3.72935C39.9824 4.00544 39.9824 4.45493 39.7063 4.73111L38.3684 6.06907L35.2682 2.969L36.6063 1.63105ZM34.3134 3.92386L37.4134 7.02384L36.1746 8.2627L33.0747 5.16272L34.3134 3.92386ZM44.6499 29.8504H43.4042C43.0313 29.8504 42.7291 30.1526 42.7291 30.5256C42.7291 30.8985 43.0313 31.2008 43.4042 31.2008H44.6499V33.2354H43.4042C43.0313 33.2354 42.7291 33.5376 42.7291 33.9105C42.7291 34.2835 43.0313 34.5857 43.4042 34.5857H44.6499V36.6202H43.4042C43.0313 36.6202 42.7291 36.9225 42.7291 37.2954C42.7291 37.6683 43.0313 37.9706 43.4042 37.9706H44.6499V40.0052H43.4042C43.0313 40.0052 42.7291 40.3075 42.7291 40.6804C42.7291 41.0533 43.0313 41.3555 43.4042 41.3555H44.6499V44.5757H23.9678L30.7877 37.7559C31.0514 37.4922 31.0514 37.0648 30.7877 36.8011C30.7574 36.7708 30.7249 36.7446 30.6909 36.7212C30.428 36.5412 30.0663 36.5677 29.8328 36.8011L27.0965 39.5374H5.11464C3.06691 39.5374 1.41846 37.9387 1.35359 35.8946C1.35745 35.7663 1.36742 35.6391 1.38342 35.5133C1.38351 35.5126 1.3836 35.5119 1.38369 35.5112C1.39123 35.4514 1.40031 35.392 1.41064 35.3329C1.41181 35.3261 1.41307 35.3194 1.41423 35.3126C1.42367 35.2599 1.43427 35.2074 1.44586 35.1551C1.44909 35.1406 1.45251 35.126 1.45592 35.1116C1.46616 35.0674 1.47721 35.0234 1.48907 34.9797C1.49554 34.956 1.50228 34.9325 1.5092 34.9089C1.51908 34.8746 1.52932 34.8403 1.54019 34.8065C1.55107 34.7726 1.56266 34.7391 1.57442 34.7056C1.5826 34.6821 1.59069 34.6587 1.59949 34.6354C1.61593 34.5912 1.63336 34.5474 1.65133 34.504C1.65645 34.4916 1.66148 34.4789 1.66678 34.4664C1.68987 34.4125 1.71386 34.3592 1.7392 34.3066C1.74028 34.3043 1.74127 34.3021 1.74234 34.2998C2.27045 33.207 3.28613 32.3922 4.50504 32.1393C4.50846 32.1386 4.51187 32.1378 4.51529 32.1371C4.57117 32.1257 4.62759 32.1159 4.68437 32.1068C4.69381 32.1053 4.70324 32.1034 4.71285 32.102C4.76415 32.0942 4.81599 32.088 4.86783 32.0822C4.88239 32.0806 4.89685 32.0783 4.9115 32.0769C4.96154 32.0719 5.01203 32.0686 5.06253 32.0654C5.07852 32.0644 5.09451 32.0627 5.1105 32.0619C5.17663 32.0586 5.24329 32.0569 5.31023 32.0569C5.68308 32.0569 5.9854 31.7546 5.9854 31.3817V26.4862C5.9854 26.1132 5.68308 25.811 5.31023 25.811C4.93737 25.811 4.63505 26.1132 4.63505 26.4862V30.749C3.49493 30.8932 2.43666 31.4017 1.60219 32.2166C1.51441 32.3023 1.43121 32.3914 1.35017 32.482V7.34C1.35017 5.3867 2.77204 3.759 4.63496 3.43754V10.0595V23.7856V23.7857C4.63496 24.1585 4.93728 24.4608 5.31014 24.4608C5.68299 24.4608 5.98531 24.1585 5.98531 23.7857V23.7856V10.7347H25.5929L21.8604 14.4671C21.5967 14.7309 21.5967 15.1583 21.8604 15.422C22.1241 15.6856 22.5515 15.6856 22.8151 15.422L27.7002 10.5369C27.7004 10.5367 27.7005 10.5366 27.7007 10.5365L32.1197 6.11749L35.2195 9.21756L34.8559 9.58125C34.8556 9.58152 34.8552 9.58178 34.855 9.58205L21.2411 23.1961L18.1411 20.0961L20.8246 17.4127C21.0883 17.1489 21.0883 16.7215 20.8246 16.4578C20.5609 16.1942 20.1334 16.1942 19.8698 16.4578L16.7088 19.6187C16.6919 19.6356 16.6761 19.6535 16.6613 19.6718C16.6563 19.6779 16.6519 19.6845 16.6473 19.6908C16.6377 19.7035 16.6284 19.7163 16.6197 19.7296C16.6147 19.7373 16.6103 19.7452 16.6056 19.7532C16.5981 19.7658 16.5909 19.7785 16.5844 19.7916C16.5801 19.8 16.5762 19.8085 16.5723 19.8173C16.5662 19.8306 16.5607 19.844 16.5555 19.8575C16.5537 19.8623 16.5514 19.8668 16.5497 19.8715L15.2343 23.5978L14.3375 26.1385C14.3256 26.1723 14.3171 26.2066 14.3107 26.2412H12.0653C11.6925 26.2412 11.3901 26.5434 11.3901 26.9164C11.3901 27.2893 11.6925 27.5915 12.0653 27.5915H30.7631C31.136 27.5915 31.4383 27.2893 31.4383 26.9164C31.4383 26.5434 31.136 26.2412 30.7631 26.2412H17.3482L21.4658 24.7877C21.4692 24.7864 21.4724 24.7847 21.4758 24.7835C21.4918 24.7775 21.5076 24.7709 21.5231 24.7638C21.5293 24.7609 21.5355 24.7582 21.5415 24.7553C21.5577 24.7472 21.5736 24.7383 21.5892 24.7288C21.5943 24.7257 21.5995 24.7229 21.6044 24.7198C21.6207 24.7093 21.6365 24.6979 21.652 24.6859C21.6559 24.6829 21.6599 24.6803 21.6637 24.6773C21.6825 24.6622 21.7009 24.6459 21.7183 24.6285L35.6122 10.7348H41.4749V25.1588L31.8171 34.8168C31.5534 35.0806 31.5534 35.508 31.8171 35.7716C31.8335 35.7881 31.8507 35.8035 31.8684 35.818C31.9922 35.9189 32.1434 35.9694 32.2945 35.9694C32.4456 35.9694 32.5969 35.9189 32.7206 35.818C32.7383 35.8036 32.7555 35.7881 32.7719 35.7716C32.7722 35.7714 32.7719 35.7716 32.7722 35.7714L44.6499 23.8936V29.8504ZM20.0062 23.8707L18.0722 24.5535L16.7837 23.2649L17.4664 21.3309L20.0062 23.8707Z" fill="#FF1212"/>
</g>
<defs>
<clipPath id="clip0_4248_6160">
<rect width="46" height="46" fill="white"/>
</clipPath>
</defs>
</svg>
