<svg width="19" height="19" viewBox="0 0 19 19" fill="none" xmlns="http://www.w3.org/2000/svg">
<path d="M13.2 9.984C13.5243 9.98506 13.8428 9.8988 14.1222 9.73428C14.4016 9.56977 14.6316 9.33305 14.788 9.049L18.037 3.159C18.1147 3.02159 18.1549 2.86616 18.1536 2.7083C18.1522 2.55045 18.1094 2.39572 18.0293 2.25966C17.9493 2.12359 17.8349 2.01097 17.6976 1.9331C17.5602 1.85523 17.4049 1.81484 17.247 1.816H3.821L2.968 0H0V1.815H1.815L5.082 8.7L3.857 10.918C3.70352 11.1946 3.62489 11.5065 3.62886 11.8228C3.63283 12.1392 3.71928 12.449 3.87966 12.7217C4.04004 12.9943 4.2688 13.2205 4.54332 13.3777C4.81785 13.5349 5.12865 13.6177 5.445 13.618H16.335V11.8H5.445L6.445 9.985L13.2 9.984ZM4.683 3.63H15.709L13.209 8.168H6.834L4.683 3.63ZM5.445 14.521C5.08607 14.521 4.7352 14.6274 4.43674 14.8268C4.13829 15.0262 3.90566 15.3096 3.76825 15.6412C3.63085 15.9728 3.59485 16.3377 3.6648 16.6897C3.73475 17.0418 3.90752 17.3652 4.16125 17.619C4.41498 17.8729 4.73829 18.0459 5.0903 18.116C5.44231 18.1861 5.80721 18.1503 6.13888 18.0131C6.47054 17.8759 6.75408 17.6434 6.95363 17.3451C7.15319 17.0467 7.2598 16.6959 7.26 16.337C7.2604 16.0985 7.21373 15.8623 7.12267 15.6418C7.03161 15.4214 6.89794 15.2211 6.72934 15.0524C6.56074 14.8837 6.3605 14.7499 6.14011 14.6587C5.91972 14.5675 5.68351 14.5207 5.445 14.521ZM14.52 14.521C14.161 14.521 13.8101 14.6274 13.5116 14.8269C13.2132 15.0263 12.9805 15.3098 12.8432 15.6414C12.7058 15.9731 12.6698 16.338 12.7399 16.6901C12.8099 17.0422 12.9828 17.3656 13.2366 17.6194C13.4904 17.8732 13.8138 18.0461 14.1659 18.1161C14.518 18.1862 14.8829 18.1502 15.2146 18.0128C15.5462 17.8755 15.8297 17.6428 16.0291 17.3444C16.2286 17.0459 16.335 16.695 16.335 16.336C16.3353 16.0976 16.2885 15.8614 16.1974 15.6411C16.1063 15.4208 15.9726 15.2206 15.804 15.052C15.6354 14.8834 15.4352 14.7497 15.2149 14.6586C14.9946 14.5675 14.7584 14.5207 14.52 14.521Z" fill="#2E93EE"/>
</svg>
