<svg width="676" height="610" viewBox="0 0 676 610" fill="none" xmlns="http://www.w3.org/2000/svg">
<g opacity="0.7">
<path d="M110.208 201.82V191.919C110.208 190.951 109.423 190.166 108.455 190.166H105.905C105.16 190.166 104.499 189.659 104.333 188.931C103.451 185.086 101.949 181.478 99.9221 178.226C99.5183 177.578 99.5946 176.74 100.135 176.2L101.927 174.408C102.611 173.723 102.611 172.613 101.927 171.929L94.926 164.928C94.2411 164.243 93.1311 164.243 92.4462 164.928L90.6563 166.718C90.1153 167.259 89.2787 167.335 88.6296 166.931C85.3781 164.903 81.7691 163.399 77.9234 162.516C77.197 162.349 76.6899 161.689 76.6899 160.943V158.403C76.6899 157.435 75.9045 156.649 74.9366 156.649H65.0351C64.0672 156.649 63.2818 157.435 63.2818 158.403V160.943C63.2818 161.689 62.7747 162.35 62.0473 162.516C58.2007 163.399 54.5908 164.903 51.3392 166.931C50.6901 167.335 49.8535 167.259 49.3126 166.718L47.5245 164.93C46.8396 164.245 45.7297 164.245 45.0448 164.93L38.0442 171.931C37.3593 172.615 37.3593 173.725 38.0442 174.41L39.8342 176.2C40.3752 176.741 40.4515 177.578 40.0467 178.227C38.021 181.479 36.5179 185.088 35.636 188.933C35.4688 189.66 34.8091 190.168 34.0624 190.168H31.517C30.5481 190.168 29.7637 190.953 29.7637 191.921V201.822C29.7637 202.79 30.549 203.576 31.517 203.576H34.0633C34.8091 203.576 35.4698 204.082 35.636 204.809C36.5198 208.655 38.0229 212.263 40.0486 215.513C40.4534 216.162 40.3761 216.999 39.8361 217.54L38.0442 219.332C37.3593 220.017 37.3593 221.127 38.0442 221.812L45.0448 228.813C45.7287 229.498 46.8396 229.498 47.5245 228.813L49.3183 227.019C49.8593 226.478 50.6959 226.402 51.345 226.806C54.5956 228.831 58.2026 230.331 62.0482 231.214C62.7756 231.381 63.2828 232.041 63.2828 232.786V235.34C63.2828 236.308 64.0681 237.094 65.0361 237.094H74.9375C75.9064 237.094 76.6908 236.308 76.6908 235.34V232.785C76.6908 232.04 77.198 231.379 77.9254 231.213C81.77 230.331 85.3771 228.83 88.6277 226.805C89.2759 226.401 90.1134 226.477 90.6534 227.017L92.4482 228.812C93.1331 229.497 94.243 229.497 94.9279 228.812L101.928 221.811C102.613 221.126 102.612 220.016 101.928 219.331L100.135 217.538C99.5937 216.997 99.5174 216.161 99.9221 215.511C101.948 212.261 103.45 208.653 104.333 204.808C104.5 204.081 105.16 203.575 105.905 203.575H108.456C109.424 203.574 110.208 202.788 110.208 201.82ZM69.983 224.787C54.5647 224.787 42.083 212.28 42.083 196.862C42.083 181.467 54.5647 168.96 69.983 168.96C85.4012 168.96 97.8838 181.467 97.8838 196.862C97.8838 212.28 85.4022 224.787 69.983 224.787Z" stroke="#E5D7FF" stroke-width="0.7896" stroke-miterlimit="10"/>
<path d="M146.677 263.52V256.787C146.677 256.128 146.143 255.595 145.484 255.595H143.752C143.244 255.595 142.795 255.25 142.682 254.755C142.081 252.142 141.059 249.688 139.682 247.477C139.407 247.035 139.459 246.466 139.827 246.098L141.046 244.88C141.512 244.414 141.512 243.659 141.046 243.193L136.286 238.433C135.82 237.967 135.065 237.967 134.599 238.433L133.381 239.65C133.014 240.018 132.445 240.07 132.003 239.795C129.793 238.416 127.339 237.394 124.723 236.793C124.229 236.679 123.884 236.231 123.884 235.723V233.995C123.884 233.337 123.35 232.803 122.691 232.803H115.959C115.301 232.803 114.767 233.337 114.767 233.995V235.723C114.767 236.23 114.422 236.679 113.927 236.792C111.311 237.392 108.857 238.415 106.645 239.794C106.204 240.069 105.635 240.017 105.267 239.649L104.052 238.434C103.586 237.968 102.83 237.968 102.365 238.434L97.6054 243.194C97.1399 243.66 97.1399 244.414 97.6054 244.881L98.8228 246.098C99.1909 246.466 99.243 247.035 98.9673 247.477C97.589 249.688 96.5673 252.141 95.9678 254.756C95.8541 255.251 95.4059 255.596 94.898 255.596H93.1669C92.5086 255.596 91.9746 256.13 91.9746 256.788V263.52C91.9746 264.179 92.5086 264.713 93.1669 264.713H94.8989C95.4059 264.713 95.8551 265.057 95.9678 265.552C96.5693 268.167 97.591 270.62 98.9683 272.83C99.243 273.272 99.1909 273.84 98.8237 274.208L97.6044 275.428C97.1389 275.893 97.1389 276.649 97.6044 277.114L102.364 281.875C102.829 282.34 103.585 282.34 104.051 281.875L105.271 280.654C105.638 280.287 106.208 280.234 106.648 280.51C108.858 281.886 111.311 282.907 113.926 283.506C114.421 283.62 114.766 284.068 114.766 284.576V286.313C114.766 286.971 115.3 287.505 115.958 287.505H122.69C123.349 287.505 123.883 286.971 123.883 286.313V284.576C123.883 284.069 124.228 283.62 124.722 283.506C127.336 282.907 129.789 281.886 131.999 280.51C132.441 280.235 133.009 280.287 133.377 280.654L134.598 281.876C135.063 282.341 135.819 282.341 136.285 281.876L141.045 277.115C141.511 276.65 141.511 275.895 141.045 275.429L139.825 274.209C139.457 273.842 139.405 273.273 139.68 272.831C141.058 270.621 142.079 268.168 142.68 265.553C142.793 265.059 143.242 264.714 143.749 264.714H145.483C146.143 264.713 146.677 264.179 146.677 263.52ZM119.325 278.066C109.433 278.066 101.424 270.042 101.424 260.149C101.424 250.272 109.433 242.248 119.325 242.248C129.218 242.248 137.226 250.272 137.226 260.149C137.226 270.042 129.218 278.066 119.325 278.066Z" fill="#F4EEFE"/>
<path d="M675.462 224.243V211.041C675.462 209.75 674.415 208.703 673.125 208.703H669.726C668.731 208.703 667.85 208.027 667.629 207.057C666.453 201.931 664.45 197.12 661.748 192.783C661.209 191.919 661.311 190.802 662.031 190.082L664.42 187.693C665.333 186.78 665.333 185.3 664.42 184.387L655.086 175.053C654.173 174.14 652.693 174.14 651.78 175.053L649.393 177.439C648.672 178.161 647.557 178.262 646.691 177.723C642.356 175.019 637.544 173.014 632.416 171.837C631.448 171.614 630.771 170.734 630.771 169.74V166.352C630.771 165.062 629.724 164.015 628.434 164.015H615.232C613.941 164.015 612.894 165.062 612.894 166.352V169.74C612.894 170.734 612.218 171.615 611.248 171.837C606.119 173.014 601.306 175.019 596.971 177.723C596.105 178.262 594.99 178.161 594.268 177.439L591.884 175.055C590.971 174.142 589.491 174.142 588.578 175.055L579.244 184.389C578.331 185.303 578.331 186.783 579.244 187.696L581.63 190.082C582.352 190.804 582.454 191.919 581.914 192.785C579.213 197.121 577.209 201.933 576.033 207.059C575.81 208.029 574.93 208.706 573.935 208.706H570.541C569.249 208.706 568.203 209.753 568.203 211.043V224.245C568.203 225.536 569.25 226.583 570.541 226.583H573.936C574.93 226.583 575.811 227.258 576.033 228.228C577.211 233.355 579.215 238.166 581.916 242.5C582.456 243.364 582.353 244.481 581.633 245.202L579.244 247.591C578.331 248.505 578.331 249.985 579.244 250.898L588.578 260.233C589.49 261.146 590.971 261.146 591.884 260.233L594.276 257.841C594.997 257.12 596.113 257.018 596.978 257.557C601.312 260.256 606.122 262.257 611.249 263.434C612.219 263.657 612.895 264.536 612.895 265.531V268.936C612.895 270.227 613.942 271.274 615.233 271.274H628.435C629.727 271.274 630.773 270.227 630.773 268.936V265.529C630.773 264.535 631.449 263.654 632.419 263.432C637.545 262.257 642.354 260.255 646.688 257.555C647.553 257.017 648.669 257.119 649.389 257.839L651.782 260.232C652.696 261.145 654.176 261.145 655.089 260.232L664.423 250.896C665.336 249.983 665.335 248.503 664.423 247.59L662.031 245.2C661.31 244.478 661.208 243.363 661.748 242.497C664.449 238.163 666.451 233.353 667.629 228.226C667.851 227.257 668.731 226.582 669.726 226.582H673.126C674.416 226.58 675.462 225.533 675.462 224.243ZM621.829 254.865C601.271 254.865 584.629 238.189 584.629 217.631C584.629 197.105 601.271 180.429 621.829 180.429C642.387 180.429 659.03 197.105 659.03 217.631C659.03 238.189 642.388 254.865 621.829 254.865Z" stroke="#E5D7FF" stroke-miterlimit="10"/>
<path opacity="0.4" d="M36.8214 532.889C40.2825 532.889 43.0882 530.083 43.0882 526.622C43.0882 523.161 40.2825 520.355 36.8214 520.355C33.3604 520.355 30.5547 523.161 30.5547 526.622C30.5547 530.083 33.3604 532.889 36.8214 532.889Z" fill="#A4AFFF"/>
<path opacity="0.4" d="M183.321 58.0452C186.782 58.0452 189.588 55.2395 189.588 51.7785C189.588 48.3175 186.782 45.5117 183.321 45.5117C179.86 45.5117 177.055 48.3175 177.055 51.7785C177.055 55.2395 179.86 58.0452 183.321 58.0452Z" fill="#A4AFFF"/>
<path opacity="0.4" d="M534.537 253.062C537.299 253.062 539.537 250.824 539.537 248.063C539.537 245.301 537.299 243.062 534.537 243.062C531.776 243.062 529.537 245.301 529.537 248.063C529.537 250.824 531.776 253.062 534.537 253.062Z" fill="#A4AFFF"/>
<path opacity="0.4" d="M139.216 438.524C142.677 438.524 145.483 435.719 145.483 432.258C145.483 428.796 142.677 425.991 139.216 425.991C135.755 425.991 132.949 428.796 132.949 432.258C132.949 435.719 135.755 438.524 139.216 438.524Z" fill="#A4AFFF"/>
<path d="M398.359 102.65C398.359 105.558 396.001 107.916 393.092 107.916C390.183 107.916 387.825 105.558 387.825 102.65C387.825 99.7408 390.183 97.3828 393.092 97.3828C396.001 97.3828 398.359 99.7408 398.359 102.65Z" stroke="#E5D7FF" stroke-width="2"/>
<path opacity="0.4" d="M476.997 135.596C478.905 134.559 479.611 132.172 478.574 130.265C477.537 128.357 475.151 127.651 473.243 128.688C471.335 129.725 470.629 132.111 471.666 134.019C472.703 135.926 475.09 136.632 476.997 135.596Z" fill="#A4AFFF"/>
<path opacity="0.4" d="M241.133 105.158C243.304 105.158 245.064 103.398 245.064 101.227C245.064 99.0559 243.304 97.2959 241.133 97.2959C238.962 97.2959 237.202 99.0559 237.202 101.227C237.202 103.398 238.962 105.158 241.133 105.158Z" fill="#A4AFFF"/>
<path opacity="0.4" d="M46.7182 294.545C48.8893 294.545 50.6492 292.785 50.6492 290.614C50.6492 288.443 48.8893 286.683 46.7182 286.683C44.5471 286.683 42.7871 288.443 42.7871 290.614C42.7871 292.785 44.5471 294.545 46.7182 294.545Z" fill="#A4AFFF"/>
<path opacity="0.4" d="M139.14 204.772C141.311 204.772 143.071 203.012 143.071 200.841C143.071 198.67 141.311 196.91 139.14 196.91C136.969 196.91 135.209 198.67 135.209 200.841C135.209 203.012 136.969 204.772 139.14 204.772Z" fill="#A4AFFF"/>
<path opacity="0.4" d="M260.472 558.913C263.933 558.913 266.739 556.107 266.739 552.646C266.739 549.185 263.933 546.379 260.472 546.379C257.011 546.379 254.205 549.185 254.205 552.646C254.205 556.107 257.011 558.913 260.472 558.913Z" fill="#A4AFFF"/>
<path opacity="0.4" d="M532.359 576.453C535.82 576.453 538.625 573.648 538.625 570.187C538.625 566.726 535.82 563.92 532.359 563.92C528.897 563.92 526.092 566.726 526.092 570.187C526.092 573.648 528.897 576.453 532.359 576.453Z" fill="#A4AFFF"/>
<path opacity="0.4" d="M135.693 338.061C139.155 338.061 141.96 335.256 141.96 331.795C141.96 328.334 139.155 325.528 135.693 325.528C132.232 325.528 129.427 328.334 129.427 331.795C129.427 335.256 132.232 338.061 135.693 338.061Z" fill="#A4AFFF"/>
<path opacity="0.4" d="M585.694 384.967C590.325 384.967 594.079 381.212 594.079 376.581C594.079 371.949 590.325 368.195 585.694 368.195C581.062 368.195 577.308 371.949 577.308 376.581C577.308 381.212 581.062 384.967 585.694 384.967Z" fill="#A4AFFF"/>
<path d="M101.208 363.982C101.208 366.744 98.9694 368.982 96.208 368.982C93.4466 368.982 91.208 366.744 91.208 363.982C91.208 361.221 93.4466 358.982 96.208 358.982C98.9694 358.982 101.208 361.221 101.208 363.982Z" stroke="#E5D7FF" stroke-width="2"/>
<path d="M60.6631 199.751L76.3045 188.24L78.4383 207.546L60.6631 199.751Z" fill="#E5D7FF"/>
<path d="M586.098 324.932L586.928 309.083L600.245 317.732L586.098 324.932Z" stroke="#E5D7FF" stroke-width="2"/>
<path d="M385.086 534.267L397.153 545.543L381.356 550.355L385.086 534.267Z" fill="#E5D7FF"/>
<path d="M74.816 417.917L67.4305 413.653L74.816 409.382V417.917Z" stroke="#E5D7FF" stroke-width="2"/>
<path d="M538.623 89.1264L557.85 92.1674L545.614 107.301L538.623 89.1264Z" fill="#E5D7FF"/>
<path opacity="0.5" d="M225.323 506.292L219.711 489.701L206.878 494.053C205.271 491.63 203.367 489.479 201.216 487.599L207.224 475.435L191.524 467.671L185.516 479.836C182.722 479.292 179.854 479.094 176.961 479.267L172.609 466.435L156.018 472.047L160.37 484.88C157.972 486.487 155.796 488.391 153.917 490.542L141.752 484.533L133.988 500.234L146.153 506.242C145.609 509.036 145.411 511.904 145.584 514.797L132.752 519.149L138.364 535.74L151.197 531.388C152.804 533.811 154.708 535.962 156.859 537.841L150.851 550.006L166.551 557.77L172.56 545.605C175.354 546.149 178.222 546.347 181.115 546.174L185.466 559.006L202.057 553.393L197.705 540.561C200.104 538.954 202.279 537.05 204.159 534.899L216.323 540.907L224.087 525.207L211.922 519.198C212.466 516.404 212.664 513.536 212.491 510.643L225.323 506.292ZM183.587 526.121C176.194 528.619 168.159 524.663 165.661 517.27C163.164 509.877 167.12 501.841 174.513 499.344C181.906 496.847 189.942 500.803 192.439 508.196C194.936 515.588 190.98 523.599 183.587 526.121Z" fill="#F4EDFF"/>
<path d="M572.622 515.34H550.528C549.19 515.34 548.104 514.257 548.104 512.919C548.104 511.58 549.19 510.495 550.528 510.495H572.622C573.96 510.495 575.044 511.58 575.044 512.919C575.044 514.255 573.96 515.34 572.622 515.34Z" fill="#D5BFFE"/>
<path d="M594.876 526.093H550.529C549.191 526.093 548.105 525.008 548.105 523.67C548.105 522.332 549.191 521.248 550.529 521.248H594.876C596.214 521.248 597.299 522.332 597.299 523.67C597.298 525.008 596.214 526.093 594.876 526.093Z" fill="#D5BFFE"/>
<path d="M555.766 536.847H550.529C549.191 536.847 548.105 535.762 548.105 534.424C548.105 533.086 549.191 532 550.529 532H555.766C557.105 532 558.19 533.086 558.19 534.424C558.188 535.762 557.105 536.847 555.766 536.847Z" fill="#D5BFFE"/>
<path d="M594.875 536.847H563.996C562.658 536.847 561.574 535.762 561.574 534.424C561.574 533.086 562.658 532 563.996 532H594.875C596.213 532 597.299 533.086 597.299 534.424C597.297 535.762 596.213 536.847 594.875 536.847Z" fill="#D5BFFE"/>
<path d="M594.877 515.34H581.485C580.147 515.34 579.063 514.257 579.063 512.919C579.063 511.58 580.147 510.495 581.485 510.495H594.877C596.215 510.495 597.3 511.58 597.3 512.919C597.299 514.255 596.215 515.34 594.877 515.34Z" fill="#D5BFFE"/>
</g>
<g filter="url(#filter0_d_4248_17746)">
<path d="M332.45 130.562L304.374 130.546C300.609 130.545 297.556 133.727 297.556 137.654L297.553 142.736C297.553 146.663 294.499 149.845 290.736 149.843L236.009 149.811C232.243 149.81 229.193 146.623 229.193 142.696L229.194 137.614C229.195 133.687 226.142 130.501 222.378 130.5L212.503 130.494L187.929 130.48C175.726 130.474 165.827 140.341 165.824 152.518L165.754 506.084C165.751 518.255 175.636 528.124 187.832 528.132L332.355 528.215C344.558 528.224 354.457 518.354 354.46 506.177L354.53 152.609C354.53 140.438 344.648 130.57 332.45 130.562Z" fill="#F8F8F8"/>
<path d="M298.056 137.654V137.654C298.056 133.983 300.905 131.045 304.373 131.046L332.45 131.062C344.373 131.07 354.03 140.715 354.03 152.609L353.96 506.177C353.957 518.077 344.283 527.724 332.355 527.715L187.833 527.632C175.911 527.624 166.251 517.978 166.254 506.084L166.324 152.518C166.327 140.618 176.001 130.974 187.928 130.98L212.503 130.994L222.377 131L222.377 131C225.846 131.001 228.695 133.943 228.694 137.614L228.693 142.696V142.696C228.693 146.879 231.947 150.31 236.009 150.311C236.009 150.311 236.009 150.311 236.009 150.311L290.736 150.343C294.795 150.346 298.053 146.919 298.053 142.736C298.053 142.736 298.053 142.736 298.053 142.736L298.056 137.654Z" stroke="#2D3E95"/>
</g>
<path d="M330.293 166.098H309.754C309.135 166.098 308.632 165.566 308.632 164.91C308.632 164.255 309.135 163.724 309.754 163.724H330.293C330.913 163.724 331.416 164.255 331.416 164.91C331.415 165.566 330.913 166.098 330.293 166.098Z" fill="#D5BFFE"/>
<path d="M330.293 172.035H309.754C309.135 172.035 308.632 171.503 308.632 170.847C308.632 170.191 309.135 169.66 309.754 169.66H330.293C330.913 169.66 331.416 170.191 331.416 170.847C331.415 171.503 330.913 172.035 330.293 172.035Z" fill="#D5BFFE"/>
<path d="M330.293 177.971H309.754C309.135 177.971 308.632 177.439 308.632 176.783C308.632 176.127 309.135 175.596 309.754 175.596H330.293C330.913 175.596 331.416 176.127 331.416 176.783C331.415 177.439 330.913 177.971 330.293 177.971Z" fill="#D5BFFE"/>
<path d="M331.768 257.518H241.159C238.425 257.518 236.207 256.986 236.207 256.33C236.207 255.675 238.425 255.144 241.159 255.144H331.768C334.502 255.144 336.719 255.675 336.719 256.33C336.716 256.986 334.502 257.518 331.768 257.518Z" fill="#D5BFFE"/>
<path d="M317.074 267.016H240.013C237.688 267.016 235.802 266.484 235.802 265.828C235.802 265.173 237.688 264.642 240.013 264.642H317.074C319.399 264.642 321.285 265.173 321.285 265.828C321.282 266.484 319.399 267.016 317.074 267.016Z" fill="#D5BFFE"/>
<path d="M296.756 274.14H238.96C237.216 274.14 235.802 273.608 235.802 272.952C235.802 272.296 237.216 271.765 238.96 271.765H296.756C298.5 271.765 299.914 272.296 299.914 272.952C299.912 273.608 298.5 274.14 296.756 274.14Z" fill="#D5BFFE"/>
<path d="M296.756 282.451H238.96C237.216 282.451 235.802 281.919 235.802 281.263C235.802 280.607 237.216 280.076 238.96 280.076H296.756C298.5 280.076 299.914 280.607 299.914 281.263C299.912 281.919 298.5 282.451 296.756 282.451Z" fill="#D5BFFE"/>
<rect x="190.687" y="251.582" width="32.0563" height="32.0563" fill="#E5D7FF"/>
<path d="M331.768 302.634H241.159C238.425 302.634 236.207 302.102 236.207 301.447C236.207 300.791 238.425 300.26 241.159 300.26H331.768C334.502 300.26 336.719 300.791 336.719 301.447C336.716 302.102 334.502 302.634 331.768 302.634Z" fill="#D5BFFE"/>
<path d="M317.074 312.132H240.013C237.688 312.132 235.802 311.6 235.802 310.945C235.802 310.289 237.688 309.758 240.013 309.758H317.074C319.399 309.758 321.285 310.289 321.285 310.945C321.282 311.6 319.399 312.132 317.074 312.132Z" fill="#D5BFFE"/>
<path d="M296.756 319.256H238.96C237.216 319.256 235.802 318.724 235.802 318.068C235.802 317.412 237.216 316.881 238.96 316.881H296.756C298.5 316.881 299.914 317.412 299.914 318.068C299.912 318.724 298.5 319.256 296.756 319.256Z" fill="#D5BFFE"/>
<path d="M296.756 327.567H238.96C237.216 327.567 235.802 327.035 235.802 326.379C235.802 325.723 237.216 325.192 238.96 325.192H296.756C298.5 325.192 299.914 325.723 299.914 326.379C299.912 327.035 298.5 327.567 296.756 327.567Z" fill="#D5BFFE"/>
<rect x="190.687" y="296.698" width="32.0563" height="32.0563" fill="#E5D7FF"/>
<path d="M331.768 347.75H241.159C238.425 347.75 236.207 347.218 236.207 346.562C236.207 345.907 238.425 345.375 241.159 345.375H331.768C334.502 345.375 336.719 345.907 336.719 346.562C336.716 347.218 334.502 347.75 331.768 347.75Z" fill="#D5BFFE"/>
<path d="M317.074 357.248H240.013C237.688 357.248 235.802 356.716 235.802 356.06C235.802 355.405 237.688 354.874 240.013 354.874H317.074C319.399 354.874 321.285 355.405 321.285 356.06C321.282 356.716 319.399 357.248 317.074 357.248Z" fill="#D5BFFE"/>
<path d="M296.756 364.372H238.96C237.216 364.372 235.802 363.84 235.802 363.184C235.802 362.528 237.216 361.997 238.96 361.997H296.756C298.5 361.997 299.914 362.528 299.914 363.184C299.912 363.84 298.5 364.372 296.756 364.372Z" fill="#D5BFFE"/>
<path d="M296.756 372.683H238.96C237.216 372.683 235.802 372.151 235.802 371.495C235.802 370.839 237.216 370.308 238.96 370.308H296.756C298.5 370.308 299.914 370.839 299.914 371.495C299.912 372.151 298.5 372.683 296.756 372.683Z" fill="#D5BFFE"/>
<rect x="190.687" y="341.814" width="32.0563" height="32.0563" fill="#E5D7FF"/>
<path d="M331.768 392.867H241.159C238.425 392.867 236.207 392.335 236.207 391.679C236.207 391.023 238.425 390.492 241.159 390.492H331.768C334.502 390.492 336.719 391.023 336.719 391.679C336.716 392.335 334.502 392.867 331.768 392.867Z" fill="#D5BFFE"/>
<path d="M317.074 402.365H240.013C237.688 402.365 235.802 401.833 235.802 401.177C235.802 400.521 237.688 399.99 240.013 399.99H317.074C319.399 399.99 321.285 400.521 321.285 401.177C321.282 401.833 319.399 402.365 317.074 402.365Z" fill="#D5BFFE"/>
<path d="M296.756 409.488H238.96C237.216 409.488 235.802 408.956 235.802 408.301C235.802 407.645 237.216 407.114 238.96 407.114H296.756C298.5 407.114 299.914 407.645 299.914 408.301C299.912 408.956 298.5 409.488 296.756 409.488Z" fill="#D5BFFE"/>
<path d="M296.756 417.799H238.96C237.216 417.799 235.802 417.267 235.802 416.612C235.802 415.956 237.216 415.425 238.96 415.425H296.756C298.5 415.425 299.914 415.956 299.914 416.612C299.912 417.267 298.5 417.799 296.756 417.799Z" fill="#D5BFFE"/>
<rect x="190.687" y="386.93" width="32.0563" height="32.0563" fill="#E5D7FF"/>
<path d="M331.768 437.983H241.159C238.425 437.983 236.207 437.451 236.207 436.795C236.207 436.139 238.425 435.608 241.159 435.608H331.768C334.502 435.608 336.719 436.139 336.719 436.795C336.716 437.451 334.502 437.983 331.768 437.983Z" fill="#D5BFFE"/>
<path d="M317.074 447.481H240.013C237.688 447.481 235.802 446.949 235.802 446.293C235.802 445.637 237.688 445.106 240.013 445.106H317.074C319.399 445.106 321.285 445.637 321.285 446.293C321.282 446.949 319.399 447.481 317.074 447.481Z" fill="#D5BFFE"/>
<path d="M296.756 454.605H238.96C237.216 454.605 235.802 454.073 235.802 453.417C235.802 452.761 237.216 452.23 238.96 452.23H296.756C298.5 452.23 299.914 452.761 299.914 453.417C299.912 454.073 298.5 454.605 296.756 454.605Z" fill="#D5BFFE"/>
<path d="M296.756 462.916H238.96C237.216 462.916 235.802 462.384 235.802 461.728C235.802 461.072 237.216 460.541 238.96 460.541H296.756C298.5 460.541 299.914 461.072 299.914 461.728C299.912 462.384 298.5 462.916 296.756 462.916Z" fill="#D5BFFE"/>
<rect x="190.687" y="432.046" width="32.0563" height="32.0563" fill="#E5D7FF"/>
<path d="M331.768 483.099H241.159C238.425 483.099 236.207 482.567 236.207 481.911C236.207 481.256 238.425 480.725 241.159 480.725H331.768C334.502 480.725 336.719 481.256 336.719 481.911C336.716 482.567 334.502 483.099 331.768 483.099Z" fill="#D5BFFE"/>
<path d="M317.074 492.597H240.013C237.688 492.597 235.802 492.065 235.802 491.409C235.802 490.754 237.688 490.223 240.013 490.223H317.074C319.399 490.223 321.285 490.754 321.285 491.409C321.282 492.065 319.399 492.597 317.074 492.597Z" fill="#D5BFFE"/>
<path d="M296.756 499.721H238.96C237.216 499.721 235.802 499.189 235.802 498.533C235.802 497.877 237.216 497.346 238.96 497.346H296.756C298.5 497.346 299.914 497.877 299.914 498.533C299.912 499.189 298.5 499.721 296.756 499.721Z" fill="#D5BFFE"/>
<path d="M296.756 508.032H238.96C237.216 508.032 235.802 507.5 235.802 506.844C235.802 506.188 237.216 505.657 238.96 505.657H296.756C298.5 505.657 299.914 506.188 299.914 506.844C299.912 507.5 298.5 508.032 296.756 508.032Z" fill="#D5BFFE"/>
<rect x="190.687" y="477.163" width="32.0563" height="32.0563" fill="#E5D7FF"/>
<rect x="190.687" y="188.656" width="146.034" height="51.0526" fill="#E5D7FF"/>
<path d="M320.989 200.839H206.928C203.487 200.839 200.695 200.237 200.695 199.496C200.695 198.755 203.487 198.154 206.928 198.154H320.989C324.431 198.154 327.223 198.755 327.223 199.496C327.218 200.237 324.431 200.839 320.989 200.839Z" fill="#F8F8F8"/>
<path d="M302.493 210.337H205.487C202.56 210.337 200.186 209.735 200.186 208.994C200.186 208.253 202.56 207.652 205.487 207.652H302.493C305.42 207.652 307.794 208.253 307.794 208.994C307.79 209.735 305.42 210.337 302.493 210.337Z" fill="#F8F8F8"/>
<path d="M276.916 219.835H204.161C201.966 219.835 200.186 219.234 200.186 218.493C200.186 217.751 201.966 217.151 204.161 217.151H276.916C279.111 217.151 280.892 217.751 280.892 218.493C280.889 219.234 279.111 219.835 276.916 219.835Z" fill="#F8F8F8"/>
<path d="M276.916 229.333H204.161C201.966 229.333 200.186 228.732 200.186 227.991C200.186 227.249 201.966 226.649 204.161 226.649H276.916C279.111 226.649 280.892 227.249 280.892 227.991C280.889 228.732 279.111 229.333 276.916 229.333Z" fill="#F8F8F8"/>
<path d="M192.428 174.529C192.434 174.523 192.546 174.516 192.755 174.506C193.013 174.498 193.312 174.487 193.666 174.477C194.525 174.457 195.648 174.429 197.028 174.397L196.935 174.492C196.923 173.747 196.91 172.933 196.896 172.055C196.901 171.601 196.857 171.174 196.901 170.651C196.991 170.13 197.457 169.668 198.029 169.615C198.571 169.604 199.047 169.58 199.635 169.607C200.242 169.681 200.756 170.263 200.738 170.905C200.751 172.043 200.764 173.23 200.778 174.461L200.623 174.308C201.985 174.294 203.402 174.28 204.864 174.265L204.702 174.429C204.687 172.722 204.672 170.955 204.655 169.145C204.651 168.694 204.648 168.245 204.643 167.8C204.642 167.384 204.389 167.107 204.047 166.798C203.419 166.179 202.8 165.569 202.193 164.97C201.586 164.371 200.989 163.783 200.405 163.205C200.112 162.916 199.824 162.631 199.538 162.349C199.24 162.061 199.006 161.765 198.66 161.695C198.326 161.604 197.956 161.676 197.688 161.881C197.43 162.098 197.157 162.405 196.898 162.657C196.376 163.183 195.868 163.696 195.376 164.193C194.419 165.186 193.422 166.096 192.698 166.953C192.393 167.427 192.507 168.007 192.484 168.536C192.483 169.06 192.482 169.559 192.481 170.029C192.476 170.946 192.47 171.748 192.466 172.437C192.459 173.052 192.453 173.56 192.449 173.976C192.443 174.33 192.436 174.521 192.428 174.529C192.42 174.537 192.411 174.362 192.399 174.018C192.387 173.609 192.374 173.108 192.356 172.504C192.341 171.81 192.322 171 192.301 170.077C192.292 169.597 192.282 169.089 192.273 168.553C192.269 168.282 192.265 168.004 192.26 167.719C192.257 167.418 192.335 167.106 192.494 166.831C193.278 165.869 194.215 165.019 195.179 163.996C195.667 163.496 196.171 162.979 196.69 162.449C196.961 162.181 197.185 161.915 197.508 161.638C197.847 161.378 198.313 161.284 198.738 161.395C199.189 161.494 199.482 161.866 199.756 162.123C200.044 162.405 200.333 162.688 200.627 162.976C201.213 163.55 201.811 164.138 202.42 164.735C203.03 165.332 203.649 165.941 204.279 166.559C204.427 166.717 204.606 166.85 204.751 167.072C204.889 167.283 204.967 167.534 204.974 167.786C204.978 168.234 204.983 168.685 204.986 169.139C205 170.948 205.013 172.715 205.027 174.423L205.028 174.586L204.865 174.587C203.404 174.597 201.986 174.606 200.624 174.614H200.469V174.46C200.463 173.229 200.456 172.04 200.45 170.904C200.467 170.391 200.068 169.939 199.592 169.875C199.104 169.85 198.529 169.867 198.054 169.87C197.598 169.908 197.218 170.274 197.14 170.694C197.098 171.12 197.13 171.618 197.12 172.05C197.12 172.929 197.121 173.743 197.122 174.487V174.584H197.028C195.626 174.574 194.484 174.566 193.61 174.56C193.264 174.554 192.971 174.549 192.719 174.544C192.522 174.54 192.421 174.535 192.428 174.529Z" fill="#F8F8F8"/>
<path d="M192.428 174.529C192.434 174.523 192.546 174.516 192.755 174.506C193.013 174.498 193.312 174.487 193.666 174.477C194.525 174.457 195.648 174.429 197.028 174.397L196.935 174.492C196.923 173.747 196.91 172.933 196.896 172.055C196.901 171.601 196.857 171.174 196.901 170.651C196.991 170.13 197.457 169.668 198.029 169.615C198.571 169.604 199.047 169.58 199.635 169.607C200.242 169.681 200.756 170.263 200.738 170.905C200.751 172.043 200.764 173.23 200.778 174.461L200.623 174.308C201.985 174.294 203.402 174.28 204.864 174.265L204.702 174.429C204.687 172.722 204.672 170.955 204.655 169.145C204.651 168.694 204.648 168.245 204.643 167.8C204.642 167.384 204.389 167.107 204.047 166.798C203.419 166.179 202.8 165.569 202.193 164.97C201.586 164.371 200.989 163.783 200.405 163.205C200.112 162.916 199.824 162.631 199.538 162.349C199.24 162.061 199.006 161.765 198.66 161.695C198.326 161.604 197.956 161.676 197.688 161.881C197.43 162.098 197.157 162.405 196.898 162.657C196.376 163.183 195.868 163.696 195.376 164.193C194.419 165.186 193.422 166.096 192.698 166.953C192.393 167.427 192.507 168.007 192.484 168.536C192.483 169.06 192.482 169.559 192.481 170.029C192.476 170.946 192.47 171.748 192.466 172.437C192.459 173.052 192.453 173.56 192.449 173.976C192.443 174.33 192.436 174.521 192.428 174.529ZM192.428 174.529C192.42 174.537 192.411 174.362 192.399 174.018C192.387 173.609 192.374 173.108 192.356 172.504C192.341 171.81 192.322 171 192.301 170.077C192.292 169.597 192.282 169.089 192.273 168.553C192.269 168.282 192.265 168.004 192.26 167.719C192.257 167.418 192.335 167.106 192.494 166.831C193.278 165.869 194.215 165.019 195.179 163.996C195.667 163.496 196.171 162.979 196.69 162.449C196.961 162.181 197.185 161.915 197.508 161.638C197.847 161.378 198.313 161.284 198.738 161.395C199.189 161.494 199.482 161.866 199.756 162.123C200.044 162.405 200.333 162.688 200.627 162.976C201.213 163.55 201.811 164.138 202.42 164.735C203.03 165.332 203.649 165.941 204.279 166.559C204.427 166.717 204.606 166.85 204.751 167.072C204.889 167.283 204.967 167.534 204.974 167.786C204.978 168.234 204.983 168.685 204.986 169.139C205 170.948 205.013 172.715 205.027 174.423L205.028 174.586L204.865 174.587C203.404 174.597 201.986 174.606 200.624 174.614H200.469V174.46C200.463 173.229 200.456 172.04 200.45 170.904C200.467 170.391 200.068 169.939 199.592 169.875C199.104 169.85 198.529 169.867 198.054 169.87C197.598 169.908 197.218 170.274 197.14 170.694C197.098 171.12 197.13 171.618 197.12 172.05C197.12 172.929 197.121 173.743 197.122 174.487V174.584H197.028C195.626 174.574 194.484 174.566 193.61 174.56C193.264 174.554 192.971 174.549 192.719 174.544C192.522 174.54 192.421 174.535 192.428 174.529Z" stroke="#2D3E95" stroke-width="0.5"/>
<g filter="url(#filter1_d_4248_17746)">
<path d="M478.054 575.306L338.571 575.223C321.795 575.215 308.202 561.61 308.205 544.834L308.274 195.145C308.278 178.359 321.89 164.756 338.675 164.767L478.158 164.849C494.934 164.859 508.527 178.463 508.524 195.238L508.455 544.927C508.452 561.712 494.839 575.314 478.054 575.306Z" fill="#F8F8F8"/>
<path d="M478.054 574.806L338.571 574.723C322.071 574.715 308.702 561.334 308.705 544.834L308.774 195.145C308.777 178.635 322.166 165.257 338.675 165.267L478.158 165.349C494.658 165.358 508.027 178.739 508.024 195.238L507.955 544.927C507.952 561.435 494.563 574.814 478.054 574.806Z" stroke="#2D3E95" stroke-opacity="0.5"/>
</g>
<path d="M478.011 177.217L450.968 177.201C447.342 177.2 444.401 180.272 444.401 184.063L444.398 188.968C444.398 192.759 441.456 195.832 437.832 195.83L385.118 195.799C381.491 195.798 378.552 192.721 378.552 188.93L378.554 184.025C378.555 180.234 375.614 177.157 371.988 177.156L362.477 177.15L338.806 177.137C327.052 177.131 317.517 186.657 317.515 198.412L317.447 539.732C317.445 551.481 326.966 561.009 338.714 561.016L477.92 561.097C489.674 561.105 499.209 551.577 499.211 539.822L499.279 198.5C499.279 186.751 489.76 177.224 478.011 177.217Z" fill="#EFE7FF"/>
<path d="M470.36 267.526H348.852C342.151 267.526 336.72 261.831 336.72 254.805C336.72 247.779 342.151 242.083 348.852 242.083H470.36C477.062 242.083 482.493 247.779 482.493 254.805C482.494 261.831 477.062 267.526 470.36 267.526Z" fill="white" stroke="#D5BFFE" stroke-miterlimit="10"/>
<path d="M467.368 258.802C469.362 258.802 470.979 257.186 470.979 255.192C470.979 253.198 469.362 251.581 467.368 251.581C465.374 251.581 463.758 253.198 463.758 255.192C463.758 257.186 465.374 258.802 467.368 258.802Z" stroke="#F27190" stroke-width="1.6716" stroke-miterlimit="10"/>
<path d="M469.92 257.744L471.913 259.738" stroke="#F27190" stroke-width="1.6716" stroke-miterlimit="10" stroke-linecap="round"/>
<path d="M477.803 291.949H387.194C384.46 291.949 382.242 291.417 382.242 290.761C382.242 290.105 384.46 289.574 387.194 289.574H477.803C480.537 289.574 482.754 290.105 482.754 290.761C482.751 291.417 480.537 291.949 477.803 291.949Z" fill="white"/>
<path d="M463.109 301.447H386.048C383.723 301.447 381.837 300.915 381.837 300.259C381.837 299.603 383.723 299.072 386.048 299.072H463.109C465.434 299.072 467.32 299.603 467.32 300.259C467.317 300.915 465.434 301.447 463.109 301.447Z" fill="white"/>
<path d="M442.791 308.57H384.995C383.251 308.57 381.837 308.038 381.837 307.383C381.837 306.727 383.251 306.196 384.995 306.196H442.791C444.535 306.196 445.949 306.727 445.949 307.383C445.947 308.038 444.535 308.57 442.791 308.57Z" fill="white"/>
<path d="M442.791 316.881H384.995C383.251 316.881 381.837 316.349 381.837 315.694C381.837 315.038 383.251 314.507 384.995 314.507H442.791C444.535 314.507 445.949 315.038 445.949 315.694C445.947 316.349 444.535 316.881 442.791 316.881Z" fill="white"/>
<rect x="336.72" y="286.012" width="32.0563" height="32.0563" fill="white"/>
<path d="M477.803 337.065H387.194C384.46 337.065 382.242 336.533 382.242 335.877C382.242 335.221 384.46 334.69 387.194 334.69H477.803C480.537 334.69 482.754 335.221 482.754 335.877C482.751 336.533 480.537 337.065 477.803 337.065Z" fill="white"/>
<path d="M463.109 346.563H386.048C383.723 346.563 381.837 346.031 381.837 345.375C381.837 344.72 383.723 344.188 386.048 344.188H463.109C465.434 344.188 467.32 344.72 467.32 345.375C467.317 346.031 465.434 346.563 463.109 346.563Z" fill="white"/>
<path d="M442.791 353.687H384.995C383.251 353.687 381.837 353.155 381.837 352.499C381.837 351.843 383.251 351.312 384.995 351.312H442.791C444.535 351.312 445.949 351.843 445.949 352.499C445.947 353.155 444.535 353.687 442.791 353.687Z" fill="white"/>
<path d="M442.791 361.998H384.995C383.251 361.998 381.837 361.466 381.837 360.81C381.837 360.154 383.251 359.623 384.995 359.623H442.791C444.535 359.623 445.949 360.154 445.949 360.81C445.947 361.466 444.535 361.998 442.791 361.998Z" fill="white"/>
<rect x="336.72" y="331.128" width="32.0563" height="32.0563" fill="white"/>
<path d="M477.803 382.181H387.194C384.46 382.181 382.242 381.649 382.242 380.993C382.242 380.338 384.46 379.807 387.194 379.807H477.803C480.537 379.807 482.754 380.338 482.754 380.993C482.751 381.649 480.537 382.181 477.803 382.181Z" fill="white"/>
<path d="M463.109 391.679H386.048C383.723 391.679 381.837 391.147 381.837 390.492C381.837 389.836 383.723 389.305 386.048 389.305H463.109C465.434 389.305 467.32 389.836 467.32 390.492C467.317 391.147 465.434 391.679 463.109 391.679Z" fill="white"/>
<path d="M442.791 398.803H384.995C383.251 398.803 381.837 398.271 381.837 397.615C381.837 396.959 383.251 396.428 384.995 396.428H442.791C444.535 396.428 445.949 396.959 445.949 397.615C445.947 398.271 444.535 398.803 442.791 398.803Z" fill="white"/>
<path d="M442.791 407.114H384.995C383.251 407.114 381.837 406.582 381.837 405.926C381.837 405.27 383.251 404.739 384.995 404.739H442.791C444.535 404.739 445.949 405.27 445.949 405.926C445.947 406.582 444.535 407.114 442.791 407.114Z" fill="white"/>
<rect x="336.72" y="376.245" width="32.0563" height="32.0563" fill="white"/>
<path d="M477.803 427.297H387.194C384.46 427.297 382.242 426.765 382.242 426.109C382.242 425.453 384.46 424.922 387.194 424.922H477.803C480.537 424.922 482.754 425.453 482.754 426.109C482.751 426.765 480.537 427.297 477.803 427.297Z" fill="white"/>
<path d="M463.109 436.795H386.048C383.723 436.795 381.837 436.263 381.837 435.607C381.837 434.951 383.723 434.42 386.048 434.42H463.109C465.434 434.42 467.32 434.951 467.32 435.607C467.317 436.263 465.434 436.795 463.109 436.795Z" fill="white"/>
<path d="M442.791 443.918H384.995C383.251 443.918 381.837 443.387 381.837 442.731C381.837 442.075 383.251 441.544 384.995 441.544H442.791C444.535 441.544 445.949 442.075 445.949 442.731C445.947 443.387 444.535 443.918 442.791 443.918Z" fill="white"/>
<path d="M442.791 452.23H384.995C383.251 452.23 381.837 451.698 381.837 451.042C381.837 450.386 383.251 449.855 384.995 449.855H442.791C444.535 449.855 445.949 450.386 445.949 451.042C445.947 451.698 444.535 452.23 442.791 452.23Z" fill="white"/>
<rect x="336.72" y="421.361" width="32.0563" height="32.0563" fill="white"/>
<path d="M477.803 472.413H387.194C384.46 472.413 382.242 471.881 382.242 471.225C382.242 470.57 384.46 470.039 387.194 470.039H477.803C480.537 470.039 482.754 470.57 482.754 471.225C482.751 471.881 480.537 472.413 477.803 472.413Z" fill="white"/>
<path d="M463.109 481.911H386.048C383.723 481.911 381.837 481.379 381.837 480.723C381.837 480.068 383.723 479.537 386.048 479.537H463.109C465.434 479.537 467.32 480.068 467.32 480.723C467.317 481.379 465.434 481.911 463.109 481.911Z" fill="white"/>
<path d="M442.791 489.035H384.995C383.251 489.035 381.837 488.503 381.837 487.847C381.837 487.191 383.251 486.66 384.995 486.66H442.791C444.535 486.66 445.949 487.191 445.949 487.847C445.947 488.503 444.535 489.035 442.791 489.035Z" fill="white"/>
<path d="M442.791 497.346H384.995C383.251 497.346 381.837 496.814 381.837 496.158C381.837 495.502 383.251 494.971 384.995 494.971H442.791C444.535 494.971 445.949 495.502 445.949 496.158C445.947 496.814 444.535 497.346 442.791 497.346Z" fill="white"/>
<rect x="336.72" y="466.477" width="32.0563" height="32.0563" fill="white"/>
<path d="M477.803 517.53H387.194C384.46 517.53 382.242 516.998 382.242 516.342C382.242 515.686 384.46 515.155 387.194 515.155H477.803C480.537 515.155 482.754 515.686 482.754 516.342C482.751 516.998 480.537 517.53 477.803 517.53Z" fill="white"/>
<path d="M463.109 527.028H386.048C383.723 527.028 381.837 526.496 381.837 525.84C381.837 525.184 383.723 524.653 386.048 524.653H463.109C465.434 524.653 467.32 525.184 467.32 525.84C467.317 526.496 465.434 527.028 463.109 527.028Z" fill="white"/>
<path d="M442.791 534.151H384.995C383.251 534.151 381.837 533.619 381.837 532.964C381.837 532.308 383.251 531.777 384.995 531.777H442.791C444.535 531.777 445.949 532.308 445.949 532.964C445.947 533.619 444.535 534.151 442.791 534.151Z" fill="white"/>
<path d="M442.791 542.462H384.995C383.251 542.462 381.837 541.931 381.837 541.275C381.837 540.619 383.251 540.088 384.995 540.088H442.791C444.535 540.088 445.949 540.619 445.949 541.275C445.947 541.931 444.535 542.462 442.791 542.462Z" fill="white"/>
<rect x="336.72" y="511.594" width="32.0563" height="32.0563" fill="white"/>
<path d="M477.514 211.214H456.975C456.355 211.214 455.853 210.682 455.853 210.027C455.853 209.371 456.355 208.84 456.975 208.84H477.514C478.134 208.84 478.636 209.371 478.636 210.027C478.635 210.682 478.134 211.214 477.514 211.214Z" fill="#D5BFFE"/>
<path d="M477.514 217.151H456.975C456.355 217.151 455.853 216.619 455.853 215.963C455.853 215.307 456.355 214.776 456.975 214.776H477.514C478.134 214.776 478.636 215.307 478.636 215.963C478.635 216.619 478.134 217.151 477.514 217.151Z" fill="#D5BFFE"/>
<path d="M477.514 223.087H456.975C456.355 223.087 455.853 222.555 455.853 221.899C455.853 221.243 456.355 220.712 456.975 220.712H477.514C478.134 220.712 478.636 221.243 478.636 221.899C478.635 222.555 478.134 223.087 477.514 223.087Z" fill="#D5BFFE"/>
<path d="M339.649 222.02C339.655 222.014 339.767 222.007 339.976 221.997C340.233 221.989 340.532 221.978 340.886 221.967C341.746 221.947 342.869 221.92 344.249 221.888L344.156 221.983C344.144 221.237 344.131 220.424 344.117 219.545C344.122 219.092 344.078 218.664 344.122 218.142C344.212 217.621 344.677 217.159 345.249 217.106C345.792 217.095 346.268 217.071 346.856 217.097C347.463 217.172 347.977 217.754 347.959 218.396C347.972 219.534 347.985 220.721 347.999 221.952L347.844 221.799C349.205 221.785 350.623 221.77 352.085 221.756L351.923 221.92C351.908 220.213 351.892 218.446 351.876 216.635C351.872 216.184 351.868 215.735 351.864 215.29C351.863 214.875 351.61 214.598 351.268 214.288C350.64 213.67 350.021 213.059 349.413 212.461C348.807 211.861 348.209 211.274 347.625 210.696C347.333 210.407 347.045 210.122 346.758 209.84C346.46 209.552 346.227 209.255 345.881 209.185C345.546 209.095 345.177 209.166 344.909 209.372C344.651 209.589 344.378 209.895 344.119 210.148C343.597 210.674 343.089 211.187 342.597 211.683C341.64 212.677 340.643 213.587 339.919 214.444C339.613 214.917 339.727 215.498 339.705 216.026C339.704 216.551 339.703 217.05 339.701 217.52C339.697 218.437 339.691 219.239 339.687 219.928C339.68 220.543 339.674 221.051 339.669 221.466C339.663 221.82 339.656 222.011 339.649 222.02C339.641 222.028 339.631 221.852 339.619 221.509C339.608 221.1 339.594 220.599 339.577 219.994C339.561 219.301 339.542 218.491 339.522 217.567C339.513 217.088 339.503 216.58 339.494 216.044C339.49 215.772 339.485 215.494 339.481 215.21C339.478 214.909 339.555 214.597 339.714 214.321C340.499 213.36 341.436 212.51 342.4 211.486C342.888 210.986 343.391 210.47 343.91 209.939C344.182 209.672 344.405 209.406 344.728 209.128C345.068 208.868 345.533 208.775 345.958 208.886C346.409 208.985 346.703 209.356 346.977 209.614C347.264 209.895 347.554 210.179 347.847 210.466C348.434 211.041 349.032 211.629 349.641 212.226C350.25 212.823 350.87 213.432 351.499 214.05C351.648 214.207 351.827 214.34 351.972 214.562C352.11 214.774 352.188 215.024 352.195 215.277C352.199 215.725 352.203 216.176 352.207 216.63C352.221 218.439 352.234 220.206 352.247 221.914L352.248 222.077L352.086 222.078C350.624 222.087 349.207 222.097 347.845 222.105H347.689V221.951C347.683 220.72 347.676 219.531 347.67 218.395C347.688 217.882 347.289 217.43 346.813 217.366C346.325 217.341 345.749 217.357 345.274 217.361C344.818 217.399 344.439 217.765 344.36 218.185C344.319 218.611 344.351 219.109 344.341 219.541C344.341 220.419 344.341 221.234 344.342 221.978V222.074H344.249C342.846 222.065 341.704 222.057 340.83 222.051C340.485 222.045 340.192 222.04 339.94 222.035C339.743 222.03 339.642 222.026 339.649 222.02Z" fill="#F8F8F8"/>
<path d="M339.649 222.02C339.655 222.014 339.767 222.007 339.976 221.997C340.233 221.989 340.532 221.978 340.886 221.967C341.746 221.947 342.869 221.92 344.249 221.888L344.156 221.983C344.144 221.237 344.131 220.424 344.117 219.545C344.122 219.092 344.078 218.664 344.122 218.142C344.212 217.621 344.677 217.159 345.249 217.106C345.792 217.095 346.268 217.071 346.856 217.097C347.463 217.172 347.977 217.754 347.959 218.396C347.972 219.534 347.985 220.721 347.999 221.952L347.844 221.799C349.205 221.785 350.623 221.77 352.085 221.756L351.923 221.92C351.908 220.213 351.892 218.446 351.876 216.635C351.872 216.184 351.868 215.735 351.864 215.29C351.863 214.875 351.61 214.598 351.268 214.288C350.64 213.67 350.021 213.059 349.413 212.461C348.807 211.861 348.209 211.274 347.625 210.696C347.333 210.407 347.045 210.122 346.758 209.84C346.46 209.552 346.227 209.255 345.881 209.185C345.546 209.095 345.177 209.166 344.909 209.372C344.651 209.589 344.378 209.895 344.119 210.148C343.597 210.674 343.089 211.187 342.597 211.683C341.64 212.677 340.643 213.587 339.919 214.444C339.613 214.917 339.727 215.498 339.705 216.026C339.704 216.551 339.703 217.05 339.701 217.52C339.697 218.437 339.691 219.239 339.687 219.928C339.68 220.543 339.674 221.051 339.669 221.466C339.663 221.82 339.656 222.011 339.649 222.02ZM339.649 222.02C339.641 222.028 339.631 221.852 339.619 221.509C339.608 221.1 339.594 220.599 339.577 219.994C339.561 219.301 339.542 218.491 339.522 217.567C339.513 217.088 339.503 216.58 339.494 216.044C339.49 215.772 339.485 215.494 339.481 215.21C339.478 214.909 339.555 214.597 339.714 214.321C340.499 213.36 341.436 212.51 342.4 211.486C342.888 210.986 343.391 210.47 343.91 209.939C344.182 209.672 344.405 209.406 344.728 209.128C345.068 208.868 345.533 208.775 345.958 208.886C346.409 208.985 346.703 209.356 346.977 209.614C347.264 209.895 347.554 210.179 347.847 210.466C348.434 211.041 349.032 211.629 349.641 212.226C350.25 212.823 350.87 213.432 351.499 214.05C351.648 214.207 351.827 214.34 351.972 214.562C352.11 214.774 352.188 215.024 352.195 215.277C352.199 215.725 352.203 216.176 352.207 216.63C352.221 218.439 352.234 220.206 352.247 221.914L352.248 222.077L352.086 222.078C350.624 222.087 349.207 222.097 347.845 222.105H347.689V221.951C347.683 220.72 347.676 219.531 347.67 218.395C347.688 217.882 347.289 217.43 346.813 217.366C346.325 217.341 345.749 217.357 345.274 217.361C344.818 217.399 344.439 217.765 344.36 218.185C344.319 218.611 344.351 219.109 344.341 219.541C344.341 220.419 344.341 221.234 344.342 221.978V222.074H344.249C342.846 222.065 341.704 222.057 340.83 222.051C340.485 222.045 340.192 222.04 339.94 222.035C339.743 222.03 339.642 222.026 339.649 222.02Z" stroke="#2D3E95" stroke-width="0.5"/>
<g filter="url(#filter2_d_4248_17746)">
<path d="M635.762 400H459.289V475.249H635.762V400Z" fill="white"/>
</g>
<path d="M501.749 420.174H468.506V466.477H501.749V420.174Z" fill="#E5D7FF"/>
<path d="M543.304 420.174H510.061V466.477H543.304V420.174Z" fill="#E5D7FF"/>
<path d="M584.858 420.174H551.614V466.477H584.858V420.174Z" fill="#E5D7FF"/>
<path d="M626.412 420.174H593.169V466.477H626.412V420.174Z" fill="#E5D7FF"/>
<path d="M635.762 411.872H459.289V413.059H635.762V411.872Z" fill="#E5D7FF"/>
<path d="M465.038 407.811C465.745 407.811 466.319 407.237 466.319 406.53C466.319 405.822 465.745 405.249 465.038 405.249C464.33 405.249 463.757 405.822 463.757 406.53C463.757 407.237 464.33 407.811 465.038 407.811Z" fill="#E5D7FF"/>
<path d="M469.962 407.811C470.669 407.811 471.243 407.237 471.243 406.53C471.243 405.822 470.669 405.249 469.962 405.249C469.254 405.249 468.681 405.822 468.681 406.53C468.681 407.237 469.254 407.811 469.962 407.811Z" fill="#E5D7FF"/>
<path d="M474.287 407.811C474.994 407.811 475.568 407.237 475.568 406.53C475.568 405.822 474.994 405.249 474.287 405.249C473.579 405.249 473.006 405.822 473.006 406.53C473.006 407.237 473.579 407.811 474.287 407.811Z" fill="#E5D7FF"/>
<g filter="url(#filter3_d_4248_17746)">
<path d="M225.148 445.946H69.2441V551.278H225.148V445.946Z" fill="white"/>
</g>
<path d="M127.76 466.477H85.0186V512.781H127.76V466.477Z" fill="#E5D7FF"/>
<path d="M210.869 466.477H133.696V470.039H210.869V466.477Z" fill="#E5D7FF"/>
<path d="M202.558 487.848H133.696V491.41H202.558V487.848Z" fill="#E5D7FF"/>
<path d="M202.558 477.163H133.696V480.724H202.558V477.163Z" fill="#E5D7FF"/>
<path d="M187.123 498.534H133.696V502.096H187.123V498.534Z" fill="#E5D7FF"/>
<path d="M187.123 509.219H133.696V512.781H187.123V509.219Z" fill="#E5D7FF"/>
<path d="M224.971 458.176H68.6787V459.363H224.971V458.176Z" fill="#E5D7FF"/>
<path d="M74.4266 454.114C75.1341 454.114 75.7076 453.54 75.7076 452.833C75.7076 452.125 75.1341 451.552 74.4266 451.552C73.7191 451.552 73.1455 452.125 73.1455 452.833C73.1455 453.54 73.7191 454.114 74.4266 454.114Z" fill="#E5D7FF"/>
<path d="M79.3504 454.114C80.0579 454.114 80.6315 453.54 80.6315 452.833C80.6315 452.125 80.0579 451.552 79.3504 451.552C78.6429 451.552 78.0693 452.125 78.0693 452.833C78.0693 453.54 78.6429 454.114 79.3504 454.114Z" fill="#E5D7FF"/>
<path d="M83.6756 454.114C84.3831 454.114 84.9567 453.54 84.9567 452.833C84.9567 452.125 84.3831 451.552 83.6756 451.552C82.9681 451.552 82.3945 452.125 82.3945 452.833C82.3945 453.54 82.9681 454.114 83.6756 454.114Z" fill="#E5D7FF"/>
<path d="M104.794 522.441H85.25V542.162H104.794V522.441Z" fill="#E5D7FF"/>
<path d="M140.237 522.441H120.693V542.162H140.237V522.441Z" fill="#E5D7FF"/>
<path d="M175.679 522.441H156.136V542.162H175.679V522.441Z" fill="#E5D7FF"/>
<path d="M211.125 522.441H191.581V542.162H211.125V522.441Z" fill="#E5D7FF"/>
<g filter="url(#filter4_d_4248_17746)">
<path d="M196.473 261.089H20V336.338H196.473V261.089Z" fill="white"/>
</g>
<path d="M69.584 281.263H24.4678V327.567H69.584V281.263Z" fill="#E5D7FF"/>
<path d="M189.497 281.263H74.332V284.825H189.497V281.263Z" fill="#E5D7FF"/>
<path d="M177.624 302.634H74.332V306.196H177.624V302.634Z" fill="#E5D7FF"/>
<path d="M177.624 291.948H74.332V295.51H177.624V291.948Z" fill="#E5D7FF"/>
<path d="M153.879 313.319H74.332V316.881H153.879V313.319Z" fill="#E5D7FF"/>
<path d="M153.879 324.005H74.332V327.567H153.879V324.005Z" fill="#E5D7FF"/>
<path d="M196.473 272.961H20V274.149H196.473V272.961Z" fill="#E5D7FF"/>
<path d="M25.7488 268.9C26.4564 268.9 27.0299 268.326 27.0299 267.619C27.0299 266.911 26.4564 266.338 25.7488 266.338C25.0413 266.338 24.4678 266.911 24.4678 267.619C24.4678 268.326 25.0413 268.9 25.7488 268.9Z" fill="#E5D7FF"/>
<path d="M30.6727 268.9C31.3802 268.9 31.9537 268.326 31.9537 267.619C31.9537 266.911 31.3802 266.338 30.6727 266.338C29.9652 266.338 29.3916 266.911 29.3916 267.619C29.3916 268.326 29.9652 268.9 30.6727 268.9Z" fill="#E5D7FF"/>
<path d="M34.9979 268.9C35.7054 268.9 36.2789 268.326 36.2789 267.619C36.2789 266.911 35.7054 266.338 34.9979 266.338C34.2903 266.338 33.7168 266.911 33.7168 267.619C33.7168 268.326 34.2903 268.9 34.9979 268.9Z" fill="#E5D7FF"/>
<g filter="url(#filter5_d_4248_17746)">
<path d="M452.643 26H276.17V101.249H452.643V26Z" fill="white"/>
</g>
<path d="M325.754 46.1743H280.638V92.4778H325.754V46.1743Z" fill="#E5D7FF"/>
<path d="M445.667 46.1743H330.502V49.7361H445.667V46.1743Z" fill="#E5D7FF"/>
<path d="M445.667 67.5449H330.502V71.1067H445.667V67.5449Z" fill="#E5D7FF"/>
<path d="M445.667 56.8599H330.502V60.4217H445.667V56.8599Z" fill="#E5D7FF"/>
<path d="M445.667 78.2305H330.502V81.7923H445.667V78.2305Z" fill="#E5D7FF"/>
<path d="M445.667 88.916H330.502V92.4778H445.667V88.916Z" fill="#E5D7FF"/>
<path d="M452.643 37.8726H276.17V39.0598H452.643V37.8726Z" fill="#E5D7FF"/>
<path d="M281.919 33.8112C282.626 33.8112 283.2 33.2376 283.2 32.5301C283.2 31.8226 282.626 31.249 281.919 31.249C281.211 31.249 280.638 31.8226 280.638 32.5301C280.638 33.2376 281.211 33.8112 281.919 33.8112Z" fill="#E5D7FF"/>
<path d="M286.843 33.8112C287.55 33.8112 288.124 33.2376 288.124 32.5301C288.124 31.8226 287.55 31.249 286.843 31.249C286.135 31.249 285.562 31.8226 285.562 32.5301C285.562 33.2376 286.135 33.8112 286.843 33.8112Z" fill="#E5D7FF"/>
<path d="M291.168 33.8112C291.875 33.8112 292.449 33.2376 292.449 32.5301C292.449 31.8226 291.875 31.249 291.168 31.249C290.46 31.249 289.887 31.8226 289.887 32.5301C289.887 33.2376 290.46 33.8112 291.168 33.8112Z" fill="#E5D7FF"/>
<g filter="url(#filter6_d_4248_17746)">
<path d="M187.662 86.6782H110.57V163.77H187.662V86.6782Z" fill="white"/>
</g>
<path d="M140.287 132.881C140.6 132.873 142.164 132.766 142.394 132.7C142.197 132.486 138.806 132.618 136.797 128.618C136.443 127.91 136.18 127.169 136.27 126.346C136.509 124.247 138.978 123.877 140.55 124.823C143.514 126.601 145.761 132.338 149.909 132.848C152.954 133.219 156.872 131.449 158.815 129.112C158.765 129.103 158.749 129.095 158.732 129.103C158.699 129.112 158.666 129.12 158.642 129.128C155.901 130.124 150.88 129.926 147.555 127.91C144.46 126.033 143.184 123.078 143.291 121.77C143.439 120.017 145.176 119.86 146.246 120.156C147.431 120.477 148.254 121.605 149.448 122.412C150.732 123.268 152.156 123.539 153.67 123.259C154.897 123.037 156.502 122.247 156.675 122.066C156.584 122.058 156.526 122.058 156.469 122.05C155.959 122 155.448 121.984 154.946 121.91C145.793 120.552 144.337 108.444 134.163 107.662C130.517 107.382 125.982 108.329 122.945 110.543C122.879 110.592 122.821 110.642 122.764 110.691C122.772 110.707 122.772 110.716 122.78 110.732C122.846 110.732 122.912 110.724 122.978 110.716C123.496 110.633 124.007 110.65 124.517 110.74C126.476 111.094 128.443 112.642 129.118 117.037C129.554 119.86 129.06 121.218 129.776 124.124C131.34 130.47 137.266 132.98 140.287 132.881ZM128.961 109.884C128.887 109.802 128.887 109.786 128.854 109.72C129.85 109.506 130.846 109.382 131.867 109.325C131.776 110.535 130.04 111.078 128.961 109.884ZM145.168 138.733C141.645 138.832 137.596 136.536 135.003 133.68C134.624 133.268 133.62 132.017 133.472 131.754L133.505 131.721C134.048 132.058 135.62 133.252 138.015 133.943C140.007 134.519 141.974 134.462 143.909 133.671C145.777 132.906 147.283 133.63 147.456 133.91C145.933 134.223 145.802 134.272 145.481 134.56C145.061 134.923 145.102 135.523 146.057 135.976C148.213 136.997 151.242 135.746 154.057 138.067C154.255 138.231 154.724 138.709 154.889 138.947C154.88 138.964 154.864 138.972 154.856 138.989C154.461 138.865 153.506 138.371 151.547 138.223C149.514 138.058 147.736 138.659 145.168 138.733ZM159.555 117.992C160.905 117.564 162.955 116.889 165.029 117.72C166.354 118.255 167.185 119.259 167.671 120.568C167.959 121.342 168.091 122.189 168.091 122.93C168.074 122.93 168.058 122.93 168.041 122.938C168.025 122.906 168.008 122.864 168 122.831C167.589 121.021 165.539 119.226 162.436 120.37C158.304 121.901 151.703 121.169 147.876 116.42C147.818 116.346 147.678 116.28 147.769 116.156C147.777 116.14 147.942 116.206 148.016 116.263C149.506 117.366 151.168 118.066 152.979 118.42C155.489 118.922 157.473 118.658 159.555 117.992ZM168.008 127.663C165.342 127.679 165.226 131.787 159.481 132.964C157.983 133.268 156.296 133.342 155.786 133.309V133.276C156.016 133.153 156.996 133.062 158.23 131.91C158.88 131.309 159.49 130.667 160.107 130.025C161.712 128.363 163.514 126.552 166.848 126.815C168.749 126.963 169.26 127.49 169.819 127.86C169.844 127.877 169.852 127.902 169.877 127.935C169.836 127.935 169.819 127.943 169.803 127.935C169.227 127.712 168.626 127.663 168.008 127.663ZM166.996 125.679C166.988 125.696 166.988 125.712 166.98 125.729C164.601 125.367 163.029 125.078 161.341 126.058C159.942 126.873 158.757 127.745 156.238 128.066C154.008 128.346 152.526 128.264 150.798 127.408C150.773 127.391 150.748 127.375 150.715 127.358C150.715 127.342 150.724 127.334 150.724 127.317C152.773 127.63 153.72 127.737 155.292 126.84C157.127 125.778 158.592 124.65 161.16 124.288C163.597 123.951 165.383 124.494 166.996 125.679ZM144.872 112.551C144.822 112.502 144.781 112.452 144.699 112.362C145.324 112.362 147.143 112.263 149.094 113.053C150.715 113.712 151.744 114.782 153.226 115.761C154.14 116.362 155.152 116.527 156.222 116.428C156.576 116.395 156.922 116.329 157.275 116.288C157.308 116.28 157.35 116.288 157.399 116.313C157.35 116.346 157.3 116.387 157.251 116.411C156.584 116.741 155.876 116.93 155.144 116.996C152.995 117.21 151.004 116.691 149.102 115.728C147.514 114.913 146.106 113.843 144.872 112.551ZM175.441 132.173C175.153 132.429 173.572 133.128 171.926 132.61C170.914 132.289 170.321 131.383 169.325 130.626C168.502 130.001 167.605 129.976 167.012 129.935C167.062 129.869 167.087 129.836 167.111 129.819C168.329 129.062 169.622 128.815 171.004 129.284C172.033 129.63 172.585 130.396 173.507 131.276C174.396 132.132 175.235 132.091 175.408 132.141C175.416 132.132 175.424 132.141 175.441 132.173ZM157.95 143.45C158.131 143.548 158.082 143.573 158.074 143.614C156.551 143.499 155.284 142.989 154.222 141.787C152.428 139.754 150.79 139.491 150.222 139.342C150.263 139.326 150.287 139.31 150.312 139.31C151.39 139.318 152.46 139.367 153.514 139.631C155.596 140.157 156.395 141.721 156.938 142.536C157.201 142.931 157.539 143.219 157.95 143.45Z" fill="#FF1212"/>
<g filter="url(#filter7_d_4248_17746)">
<path d="M549.856 283.614H472.764V360.706H549.856V283.614Z" fill="white"/>
</g>
<path d="M499.074 302.111H501.141V304.375H503.401V297.614H501.141V299.848H499.074V297.614H496.814V304.375H499.074V302.111Z" fill="#FF1212"/>
<path d="M506.371 304.375H508.631V299.857H510.619V297.614H504.383V299.857H506.371V304.375Z" fill="#FF1212"/>
<path d="M513.82 301.026L515.377 303.428H515.414L516.968 301.026V304.375H519.219V297.614H516.863L515.414 299.993L513.966 297.614H511.61V304.375H513.82V301.026Z" fill="#FF1212"/>
<path d="M525.782 302.142H522.604V297.614H520.345V304.375H525.782V302.142Z" fill="#FF1212"/>
<path d="M493.555 307.341L496.786 343.588L511.293 347.614L525.812 343.59L529.049 307.341H493.555ZM522.038 319.195H511.302H505.026L505.432 323.748H511.302H521.634L520.415 337.4L511.302 339.925L511.295 339.927L502.188 337.4L501.552 330.259H506.014L506.345 333.963L511.296 335.302L511.303 335.299L516.259 333.961L516.775 328.195H511.303H501.368L500.167 314.751H511.302H522.435L522.038 319.195Z" fill="#FF1212"/>
<g filter="url(#filter8_d_4248_17746)">
<path d="M632.049 149.55H554.957V226.642H632.049V149.55Z" fill="white"/>
</g>
<path d="M611.39 175.068C611.898 174.43 612.201 173.608 612.201 172.732C612.201 170.655 610.514 168.967 608.437 168.967C607.55 168.967 606.739 169.27 606.1 169.778C602.422 167.161 597.912 165.614 593.055 165.614C580.626 165.614 570.555 175.685 570.555 188.114C570.555 200.543 580.626 210.614 593.055 210.614C605.484 210.614 615.555 200.543 615.555 188.114C615.555 183.257 614.008 178.746 611.39 175.068ZM607.745 202.804C605.841 204.708 603.612 206.211 601.135 207.26C598.572 208.342 595.856 208.894 593.044 208.894C590.242 208.894 587.516 208.342 584.953 207.26C582.475 206.211 580.258 204.718 578.343 202.804C576.439 200.9 574.936 198.671 573.886 196.194C572.805 193.631 572.253 190.915 572.253 188.103C572.253 185.301 572.805 182.575 573.886 180.012C574.936 177.534 576.428 175.317 578.343 173.402C580.258 171.488 582.475 169.995 584.953 168.946C587.516 167.864 590.231 167.312 593.044 167.312C595.846 167.312 598.572 167.864 601.135 168.946C602.509 169.53 603.807 170.254 605.019 171.109C604.791 171.596 604.662 172.137 604.662 172.721C604.662 174.798 606.349 176.485 608.426 176.485C608.999 176.485 609.54 176.355 610.038 176.128C610.892 177.34 611.617 178.638 612.201 180.012C613.283 182.575 613.835 185.29 613.835 188.103C613.835 190.905 613.283 193.631 612.201 196.194C611.152 198.671 609.659 200.9 607.745 202.804Z" fill="#FF1212"/>
<path d="M593.053 198.51C598.794 198.51 603.448 193.855 603.448 188.114C603.448 182.373 598.794 177.719 593.053 177.719C587.311 177.719 582.657 182.373 582.657 188.114C582.657 193.855 587.311 198.51 593.053 198.51Z" fill="#FF1212"/>
<defs>
<filter id="filter0_d_4248_17746" x="145.754" y="104.48" width="248.775" height="457.735" filterUnits="userSpaceOnUse" color-interpolation-filters="sRGB">
<feFlood flood-opacity="0" result="BackgroundImageFix"/>
<feColorMatrix in="SourceAlpha" type="matrix" values="0 0 0 0 0 0 0 0 0 0 0 0 0 0 0 0 0 0 127 0" result="hardAlpha"/>
<feOffset dx="10" dy="4"/>
<feGaussianBlur stdDeviation="15"/>
<feComposite in2="hardAlpha" operator="out"/>
<feColorMatrix type="matrix" values="0 0 0 0 0 0 0 0 0 0 0 0 0 0 0 0 0 0 0.17 0"/>
<feBlend mode="normal" in2="BackgroundImageFix" result="effect1_dropShadow_4248_17746"/>
<feBlend mode="normal" in="SourceGraphic" in2="effect1_dropShadow_4248_17746" result="shape"/>
</filter>
<filter id="filter1_d_4248_17746" x="288.205" y="138.767" width="260.318" height="470.539" filterUnits="userSpaceOnUse" color-interpolation-filters="sRGB">
<feFlood flood-opacity="0" result="BackgroundImageFix"/>
<feColorMatrix in="SourceAlpha" type="matrix" values="0 0 0 0 0 0 0 0 0 0 0 0 0 0 0 0 0 0 127 0" result="hardAlpha"/>
<feOffset dx="10" dy="4"/>
<feGaussianBlur stdDeviation="15"/>
<feComposite in2="hardAlpha" operator="out"/>
<feColorMatrix type="matrix" values="0 0 0 0 0 0 0 0 0 0 0 0 0 0 0 0 0 0 0.17 0"/>
<feBlend mode="normal" in2="BackgroundImageFix" result="effect1_dropShadow_4248_17746"/>
<feBlend mode="normal" in="SourceGraphic" in2="effect1_dropShadow_4248_17746" result="shape"/>
</filter>
<filter id="filter2_d_4248_17746" x="439.289" y="374" width="236.474" height="135.249" filterUnits="userSpaceOnUse" color-interpolation-filters="sRGB">
<feFlood flood-opacity="0" result="BackgroundImageFix"/>
<feColorMatrix in="SourceAlpha" type="matrix" values="0 0 0 0 0 0 0 0 0 0 0 0 0 0 0 0 0 0 127 0" result="hardAlpha"/>
<feOffset dx="10" dy="4"/>
<feGaussianBlur stdDeviation="15"/>
<feComposite in2="hardAlpha" operator="out"/>
<feColorMatrix type="matrix" values="0 0 0 0 0 0 0 0 0 0 0 0 0 0 0 0 0 0 0.17 0"/>
<feBlend mode="normal" in2="BackgroundImageFix" result="effect1_dropShadow_4248_17746"/>
<feBlend mode="normal" in="SourceGraphic" in2="effect1_dropShadow_4248_17746" result="shape"/>
</filter>
<filter id="filter3_d_4248_17746" x="49.2441" y="419.946" width="215.904" height="165.332" filterUnits="userSpaceOnUse" color-interpolation-filters="sRGB">
<feFlood flood-opacity="0" result="BackgroundImageFix"/>
<feColorMatrix in="SourceAlpha" type="matrix" values="0 0 0 0 0 0 0 0 0 0 0 0 0 0 0 0 0 0 127 0" result="hardAlpha"/>
<feOffset dx="10" dy="4"/>
<feGaussianBlur stdDeviation="15"/>
<feComposite in2="hardAlpha" operator="out"/>
<feColorMatrix type="matrix" values="0 0 0 0 0 0 0 0 0 0 0 0 0 0 0 0 0 0 0.17 0"/>
<feBlend mode="normal" in2="BackgroundImageFix" result="effect1_dropShadow_4248_17746"/>
<feBlend mode="normal" in="SourceGraphic" in2="effect1_dropShadow_4248_17746" result="shape"/>
</filter>
<filter id="filter4_d_4248_17746" x="0" y="235.089" width="236.474" height="135.249" filterUnits="userSpaceOnUse" color-interpolation-filters="sRGB">
<feFlood flood-opacity="0" result="BackgroundImageFix"/>
<feColorMatrix in="SourceAlpha" type="matrix" values="0 0 0 0 0 0 0 0 0 0 0 0 0 0 0 0 0 0 127 0" result="hardAlpha"/>
<feOffset dx="10" dy="4"/>
<feGaussianBlur stdDeviation="15"/>
<feComposite in2="hardAlpha" operator="out"/>
<feColorMatrix type="matrix" values="0 0 0 0 0 0 0 0 0 0 0 0 0 0 0 0 0 0 0.17 0"/>
<feBlend mode="normal" in2="BackgroundImageFix" result="effect1_dropShadow_4248_17746"/>
<feBlend mode="normal" in="SourceGraphic" in2="effect1_dropShadow_4248_17746" result="shape"/>
</filter>
<filter id="filter5_d_4248_17746" x="256.17" y="0" width="236.474" height="135.249" filterUnits="userSpaceOnUse" color-interpolation-filters="sRGB">
<feFlood flood-opacity="0" result="BackgroundImageFix"/>
<feColorMatrix in="SourceAlpha" type="matrix" values="0 0 0 0 0 0 0 0 0 0 0 0 0 0 0 0 0 0 127 0" result="hardAlpha"/>
<feOffset dx="10" dy="4"/>
<feGaussianBlur stdDeviation="15"/>
<feComposite in2="hardAlpha" operator="out"/>
<feColorMatrix type="matrix" values="0 0 0 0 0 0 0 0 0 0 0 0 0 0 0 0 0 0 0.17 0"/>
<feBlend mode="normal" in2="BackgroundImageFix" result="effect1_dropShadow_4248_17746"/>
<feBlend mode="normal" in="SourceGraphic" in2="effect1_dropShadow_4248_17746" result="shape"/>
</filter>
<filter id="filter6_d_4248_17746" x="90.5703" y="60.6782" width="137.092" height="137.092" filterUnits="userSpaceOnUse" color-interpolation-filters="sRGB">
<feFlood flood-opacity="0" result="BackgroundImageFix"/>
<feColorMatrix in="SourceAlpha" type="matrix" values="0 0 0 0 0 0 0 0 0 0 0 0 0 0 0 0 0 0 127 0" result="hardAlpha"/>
<feOffset dx="10" dy="4"/>
<feGaussianBlur stdDeviation="15"/>
<feComposite in2="hardAlpha" operator="out"/>
<feColorMatrix type="matrix" values="0 0 0 0 0 0 0 0 0 0 0 0 0 0 0 0 0 0 0.17 0"/>
<feBlend mode="normal" in2="BackgroundImageFix" result="effect1_dropShadow_4248_17746"/>
<feBlend mode="normal" in="SourceGraphic" in2="effect1_dropShadow_4248_17746" result="shape"/>
</filter>
<filter id="filter7_d_4248_17746" x="452.764" y="257.614" width="137.092" height="137.092" filterUnits="userSpaceOnUse" color-interpolation-filters="sRGB">
<feFlood flood-opacity="0" result="BackgroundImageFix"/>
<feColorMatrix in="SourceAlpha" type="matrix" values="0 0 0 0 0 0 0 0 0 0 0 0 0 0 0 0 0 0 127 0" result="hardAlpha"/>
<feOffset dx="10" dy="4"/>
<feGaussianBlur stdDeviation="15"/>
<feComposite in2="hardAlpha" operator="out"/>
<feColorMatrix type="matrix" values="0 0 0 0 0 0 0 0 0 0 0 0 0 0 0 0 0 0 0.17 0"/>
<feBlend mode="normal" in2="BackgroundImageFix" result="effect1_dropShadow_4248_17746"/>
<feBlend mode="normal" in="SourceGraphic" in2="effect1_dropShadow_4248_17746" result="shape"/>
</filter>
<filter id="filter8_d_4248_17746" x="534.957" y="123.55" width="137.092" height="137.092" filterUnits="userSpaceOnUse" color-interpolation-filters="sRGB">
<feFlood flood-opacity="0" result="BackgroundImageFix"/>
<feColorMatrix in="SourceAlpha" type="matrix" values="0 0 0 0 0 0 0 0 0 0 0 0 0 0 0 0 0 0 127 0" result="hardAlpha"/>
<feOffset dx="10" dy="4"/>
<feGaussianBlur stdDeviation="15"/>
<feComposite in2="hardAlpha" operator="out"/>
<feColorMatrix type="matrix" values="0 0 0 0 0 0 0 0 0 0 0 0 0 0 0 0 0 0 0.17 0"/>
<feBlend mode="normal" in2="BackgroundImageFix" result="effect1_dropShadow_4248_17746"/>
<feBlend mode="normal" in="SourceGraphic" in2="effect1_dropShadow_4248_17746" result="shape"/>
</filter>
</defs>
</svg>
