<svg xmlns="http://www.w3.org/2000/svg" xmlns:xlink="http://www.w3.org/1999/xlink" viewBox="0 0 266.23 119.6"><defs><radialGradient id="b2d22292-3f31-44a6-8cad-c21a6f9624e1" cx="261" cy="482.84" r="13.24" gradientTransform="matrix(0.69, -0.59, 0.89, 1.05, -518.81, -302.76)" gradientUnits="userSpaceOnUse"><stop offset="0" stop-color="#fff"/><stop offset="0.14" stop-color="#e2e2e2"/><stop offset="0.43" stop-color="#999"/><stop offset="0.87" stop-color="#262626"/><stop offset="1"/></radialGradient><radialGradient id="a7f966c7-b2ce-4127-9910-688861623fc9" cx="77.95" cy="440.45" r="8.03" gradientTransform="matrix(0.94, -0.34, 0.38, 1.05, -149.62, -383.21)" gradientUnits="userSpaceOnUse"><stop offset="0" stop-color="#fff"/><stop offset="0.21" stop-color="#c4c4c4"/><stop offset="0.6" stop-color="#5c5c5c"/><stop offset="0.87" stop-color="#1a1a1a"/><stop offset="1"/></radialGradient><radialGradient id="e9350f1b-1d2e-4048-b388-850d22d55d59" cx="-1604.91" cy="-500.85" r="6.66" gradientTransform="matrix(-0.69, -0.59, -0.89, 1.05, -1434.6, -302.76)" xlink:href="#b2d22292-3f31-44a6-8cad-c21a6f9624e1"/><radialGradient id="a841a5ed-3698-443c-b8c7-69ffb52d3592" cx="-1978.04" cy="-171.69" r="4.04" gradientTransform="matrix(-0.94, -0.34, -0.38, 1.05, -1803.79, -383.21)" xlink:href="#a7f966c7-b2ce-4127-9910-688861623fc9"/><radialGradient id="a41b93ee-b925-4e6c-b2c6-a6fd649bbdd8" cx="167.37" cy="455.86" r="8.24" xlink:href="#b2d22292-3f31-44a6-8cad-c21a6f9624e1"/><radialGradient id="a40b4f90-3059-4920-8221-2bed863b951c" cx="-14.54" cy="435.57" r="4.99" xlink:href="#a7f966c7-b2ce-4127-9910-688861623fc9"/><radialGradient id="a429a4e4-1d58-434f-a216-dd80e1bad45c" cx="-1616.24" cy="-557.33" r="10.83" gradientTransform="matrix(-0.69, -0.59, -0.89, 1.05, -1434.6, -302.76)" xlink:href="#b2d22292-3f31-44a6-8cad-c21a6f9624e1"/><radialGradient id="ba0a0e37-0732-4e7e-94da-595687c67b78" cx="-2014.65" cy="-233.83" r="6.57" gradientTransform="matrix(-0.94, -0.34, -0.38, 1.05, -1803.79, -383.21)" xlink:href="#a7f966c7-b2ce-4127-9910-688861623fc9"/><radialGradient id="a1001a7b-ecc5-4367-bf84-aba5cd1df237" cx="-1692.86" cy="-579.41" r="6.74" gradientTransform="matrix(-0.69, -0.59, -0.89, 1.05, -1434.6, -302.76)" xlink:href="#b2d22292-3f31-44a6-8cad-c21a6f9624e1"/><radialGradient id="f7888e61-7ee3-4e64-838f-ed2a53196131" cx="-2090.32" cy="-237.82" r="4.09" gradientTransform="matrix(-0.94, -0.34, -0.38, 1.05, -1803.79, -383.21)" xlink:href="#a7f966c7-b2ce-4127-9910-688861623fc9"/><radialGradient id="a84e31db-8b29-4f02-8ead-75cfb02a38cf" cx="-1529.24" cy="-479.05" r="10.7" gradientTransform="matrix(-0.69, -0.59, -0.89, 1.05, -1434.6, -302.76)" xlink:href="#b2d22292-3f31-44a6-8cad-c21a6f9624e1"/><radialGradient id="ab33ac5c-5c3b-4d93-a0d9-082aeffeeed1" cx="-1903.3" cy="-167.75" r="6.49" gradientTransform="matrix(-0.94, -0.34, -0.38, 1.05, -1803.79, -383.21)" xlink:href="#a7f966c7-b2ce-4127-9910-688861623fc9"/><clipPath id="a7645e99-d099-46c3-a1af-7e5410ba7906" transform="translate(7.14)"><path id="b94eafdf-ea4a-4bf0-aa9f-4956505c6719" data-name="SVGID" d="M79.94,47.57a18.86,18.86,0,0,0-5.4.79,18.86,18.86,0,0,0-17.94-13c-9.64,0-18.12,6-19.46,15-2-2.08-5-3.09-8.92-3.09A12.31,12.31,0,0,0,15.91,59.5a12,12,0,0,0,.16,1.91A12.25,12.25,0,1,0,12.25,85.3H79.94a18.87,18.87,0,1,0,0-37.73Z" fill="none"/></clipPath><linearGradient id="bb7c96cb-11bb-4486-9920-69c7eadcdea2" x1="97.34" y1="51.02" x2="-0.01" y2="81.8" gradientUnits="userSpaceOnUse"><stop offset="0" stop-color="#dbdee0"/><stop offset="1" stop-color="#d7dadd"/></linearGradient><linearGradient id="b9f14740-8f18-420b-800b-ca89b4fb9ce7" x1="95.92" y1="46.53" x2="-1.43" y2="77.31" gradientUnits="userSpaceOnUse"><stop offset="0" stop-color="#c0c5c8"/><stop offset="1" stop-color="#d7dadd"/></linearGradient><linearGradient id="e44135aa-e82a-41f5-b699-5c8138518276" x1="100.15" y1="59.91" x2="2.8" y2="90.69" xlink:href="#b9f14740-8f18-420b-800b-ca89b4fb9ce7"/><linearGradient id="a766ce17-c778-4719-8dde-249c70e86f05" x1="5.3" y1="80.22" x2="91.72" y2="53.08" gradientUnits="userSpaceOnUse"><stop offset="0" stop-color="#c0c5c8"/><stop offset="0.21" stop-color="#bec3c6"/><stop offset="0.3" stop-color="#b7bcbf"/><stop offset="0.34" stop-color="#afb4b7"/><stop offset="1" stop-color="#d7dadd"/></linearGradient><linearGradient id="bca6afd9-7522-4ad5-8525-7040cc58357c" x1="5.3" y1="80.22" x2="91.72" y2="53.08" xlink:href="#b9f14740-8f18-420b-800b-ca89b4fb9ce7"/><linearGradient id="ffc3a9c7-ee1a-4746-a3b4-78c658ff51bd" x1="66.54" y1="61.36" x2="10.24" y2="81.81" gradientUnits="userSpaceOnUse"><stop offset="0" stop-color="#c0c5c8"/><stop offset="0.36" stop-color="#798488"/><stop offset="1" stop-color="#d7dadd"/></linearGradient><mask id="b8fab6ac-f31b-4353-aa00-9a01c8792df9" x="83.13" y="35.31" width="29.82" height="31.83" maskUnits="userSpaceOnUse"><g transform="translate(7.14)"><path d="M100.06,43.47c6.5,7.68,7.67,17.37,2.61,21.65S88.24,66.66,81.74,59s-7.66-17.36-2.6-21.65S93.56,35.8,100.06,43.47Z" fill="url(#b2d22292-3f31-44a6-8cad-c21a6f9624e1)" style="mix-blend-mode:multiply"/></g></mask><radialGradient id="a4c540e9-d39d-43fc-8d26-6c1c2eb855d1" cx="261" cy="482.84" r="13.24" gradientTransform="matrix(0.69, -0.59, 0.89, 1.05, -518.81, -302.76)" gradientUnits="userSpaceOnUse"><stop offset="0" stop-color="#eaead0"/><stop offset="1"/></radialGradient><mask id="fea97df6-2056-4780-8773-4bf383fc1425" x="89.69" y="42.97" width="16.86" height="16.95" maskUnits="userSpaceOnUse"><g transform="translate(7.14)"><path d="M98.9,48.57a8.42,8.42,0,1,1-10.81-5.1A8.46,8.46,0,0,1,98.9,48.57Z" fill="url(#a7f966c7-b2ce-4127-9910-688861623fc9)"/></g></mask><radialGradient id="a21e18c5-b36c-4f86-9531-309a6f4d792a" cx="77.95" cy="440.45" r="8.03" gradientTransform="matrix(0.94, -0.34, 0.38, 1.05, -149.62, -383.21)" gradientUnits="userSpaceOnUse"><stop offset="0" stop-color="#f9eda3"/><stop offset="0.13" stop-color="#dfd592"/><stop offset="0.41" stop-color="#9e9667"/><stop offset="0.81" stop-color="#353323"/><stop offset="1"/></radialGradient><mask id="e643d098-3974-4be2-b57f-07959d6c2c77" x="0" y="67.85" width="18.56" height="19.81" maskUnits="userSpaceOnUse"><g transform="translate(7.14)"><path d="M7.84,72.93c4,4.77,4.77,10.8,1.62,13.47s-9,.95-13-3.82S-8.33,71.77-5.18,69.11,3.79,68.15,7.84,72.93Z" fill="url(#a41b93ee-b925-4e6c-b2c6-a6fd649bbdd8)" style="mix-blend-mode:multiply"/></g></mask><radialGradient id="e3a936c4-fa02-41fc-a457-aca73a483c65" cx="167.37" cy="455.86" r="8.24" xlink:href="#a4c540e9-d39d-43fc-8d26-6c1c2eb855d1"/><mask id="b3b6a3f2-a550-44db-a1eb-d833250420cc" x="4.08" y="72.61" width="10.49" height="10.55" maskUnits="userSpaceOnUse"><g transform="translate(7.14)"><path d="M7.11,76.1A5.24,5.24,0,1,1,.39,72.93,5.25,5.25,0,0,1,7.11,76.1Z" fill="url(#a40b4f90-3059-4920-8221-2bed863b951c)"/></g></mask><radialGradient id="a825a42a-2be3-45bc-80d4-82b19dbf3015" cx="-14.54" cy="435.57" r="4.99" xlink:href="#a21e18c5-b36c-4f86-9531-309a6f4d792a"/><radialGradient id="a3988672-b19a-40ee-b4ec-fdfdff2b6c10" cx="58.07" cy="60.31" r="39.15" gradientUnits="userSpaceOnUse"><stop offset="0" stop-color="#eaeae0"/><stop offset="1" stop-color="#6e5058"/></radialGradient><clipPath id="a08ce458-aa21-4ccf-b3b5-617b02036455" transform="translate(7.14)"><path id="a7ef110f-3bc9-4c42-aa17-eb9c855fc193" data-name="SVGID" d="M187.84,56a15.34,15.34,0,0,1,4.42.65,15.44,15.44,0,0,1,14.68-10.68c7.89,0,14.83,4.93,15.92,12.25,1.6-1.7,4.09-2.53,7.3-2.53a10,10,0,0,1,9.94,11.64,9.87,9.87,0,0,1,3.13-.51,10,10,0,0,1,0,20H187.84a15.44,15.44,0,0,1,0-30.87Z" fill="none"/></clipPath><linearGradient id="b3f0c3e8-4ec5-48a3-a2da-52c61a45e05a" x1="-2127.01" y1="58.78" x2="-2206.67" y2="83.96" gradientTransform="matrix(-1, 0, 0, 1, -1953.41, 0)" xlink:href="#bb7c96cb-11bb-4486-9920-69c7eadcdea2"/><linearGradient id="a89f23fc-9463-4109-bed6-d0e4b9f129c7" x1="-2128.17" y1="55.1" x2="-2207.83" y2="80.29" gradientTransform="matrix(-1, 0, 0, 1, -1953.41, 0)" xlink:href="#b9f14740-8f18-420b-800b-ca89b4fb9ce7"/><linearGradient id="b408bcf9-c54a-4f92-88ed-36dbd50c0c54" x1="-2124.71" y1="66.05" x2="-2204.37" y2="91.23" gradientTransform="matrix(-1, 0, 0, 1, -1953.41, 0)" xlink:href="#b9f14740-8f18-420b-800b-ca89b4fb9ce7"/><linearGradient id="a7b14e92-2fbf-4c97-88e2-8b0b07cf538a" x1="-2202.32" y1="82.66" x2="-2131.61" y2="60.46" gradientTransform="matrix(-1, 0, 0, 1, -1953.41, 0)" xlink:href="#a766ce17-c778-4719-8dde-249c70e86f05"/><linearGradient id="a8f6bb5c-ff70-448c-ae68-e1039363adb0" x1="-2202.32" y1="82.66" x2="-2131.61" y2="60.46" gradientTransform="matrix(-1, 0, 0, 1, -1953.41, 0)" xlink:href="#b9f14740-8f18-420b-800b-ca89b4fb9ce7"/><mask id="bdc0a622-57ef-4ef9-927c-c8318fe9287c" x="173.81" y="45.92" width="24.4" height="26.04" maskUnits="userSpaceOnUse"><g transform="translate(7.14)"><path d="M171.38,52.6c-5.32,6.28-6.27,14.21-2.13,17.71s11.8,1.26,17.12-5,6.27-14.21,2.13-17.71S176.7,46.32,171.38,52.6Z" fill="url(#a429a4e4-1d58-434f-a216-dd80e1bad45c)" style="mix-blend-mode:multiply"/></g></mask><radialGradient id="e99407a8-55ba-4855-a5bc-7470e16daea8" cx="-1616.24" cy="-557.33" r="10.83" gradientTransform="matrix(-0.69, -0.59, -0.89, 1.05, -1434.6, -302.76)" xlink:href="#a4c540e9-d39d-43fc-8d26-6c1c2eb855d1"/><mask id="fe28b9a1-88a0-4f2d-9281-c448a127cc81" x="179.05" y="52.19" width="13.8" height="13.87" maskUnits="userSpaceOnUse"><g transform="translate(7.14)"><path d="M172.33,56.77a6.89,6.89,0,1,0,8.85-4.17A6.92,6.92,0,0,0,172.33,56.77Z" fill="url(#ba0a0e37-0732-4e7e-94da-595687c67b78)"/></g></mask><radialGradient id="ecc2b5ab-019a-45dc-9cc8-7812e921a7ca" cx="-2014.65" cy="-233.83" r="6.57" gradientTransform="matrix(-0.94, -0.34, -0.38, 1.05, -1803.79, -383.21)" xlink:href="#a21e18c5-b36c-4f86-9531-309a6f4d792a"/><mask id="b936a9b3-5760-439e-b9fa-c32a1ada3ae8" x="251.05" y="72.54" width="15.18" height="16.21" maskUnits="userSpaceOnUse"><g transform="translate(7.14)"><path d="M246.84,76.7c-3.31,3.91-3.9,8.84-1.33,11s7.35.78,10.66-3.13,3.9-8.84,1.32-11S250.15,72.79,246.84,76.7Z" fill="url(#a1001a7b-ecc5-4367-bf84-aba5cd1df237)" style="mix-blend-mode:multiply"/></g></mask><radialGradient id="e550f9c8-bdb7-434b-b486-7ce31f442c1a" cx="-1692.86" cy="-579.41" r="6.74" gradientTransform="matrix(-0.69, -0.59, -0.89, 1.05, -1434.6, -302.76)" xlink:href="#a4c540e9-d39d-43fc-8d26-6c1c2eb855d1"/><mask id="e5c160c8-cee9-4c4d-be50-f29e2812a459" x="254.31" y="76.44" width="8.58" height="8.63" maskUnits="userSpaceOnUse"><g transform="translate(7.14)"><path d="M247.43,79.29a4.29,4.29,0,1,0,5.51-2.59A4.31,4.31,0,0,0,247.43,79.29Z" fill="url(#f7888e61-7ee3-4e64-838f-ed2a53196131)"/></g></mask><radialGradient id="fdf81a1e-93c5-4ccd-8082-d28cfe8bfc56" cx="-2090.32" cy="-237.82" r="4.09" gradientTransform="matrix(-0.94, -0.34, -0.38, 1.05, -1803.79, -383.21)" xlink:href="#a21e18c5-b36c-4f86-9531-309a6f4d792a"/><radialGradient id="a62190f5-48f8-465b-b28b-485557f7698e" cx="-2159.14" cy="66.37" r="32.03" gradientTransform="matrix(-1, 0, 0, 1, -1953.41, 0)" xlink:href="#a3988672-b19a-40ee-b4ec-fdfdff2b6c10"/><clipPath id="a66629a8-5bbf-4d5b-ade5-cd4eebc76b4a" transform="translate(7.14)"><path id="bd143094-7543-43fb-97ad-20614ba2d7d8" data-name="SVGID" d="M58,87.21a15,15,0,0,1,4.36.64,15.24,15.24,0,0,1,14.5-10.54c7.79,0,14.64,4.86,15.72,12.09,1.58-1.68,4-2.5,7.21-2.5a10,10,0,0,1,9.95,9.95,9.69,9.69,0,0,1-.14,1.54,9.9,9.9,0,1,1,3.09,19.31H58a15.25,15.25,0,1,1,0-30.49Z" fill="none"/></clipPath><linearGradient id="b2e6fba3-c3eb-4a46-b5e5-1a548f523635" x1="-1997.31" y1="90" x2="-2075.97" y2="114.87" gradientTransform="matrix(-1, 0, 0, 1, -1953.41, 0)" xlink:href="#bb7c96cb-11bb-4486-9920-69c7eadcdea2"/><linearGradient id="be2ce0d9-6dd1-4a9c-86a3-f037d8d31a6a" x1="-1998.46" y1="86.37" x2="-2077.12" y2="111.24" gradientTransform="matrix(-1, 0, 0, 1, -1953.41, 0)" xlink:href="#b9f14740-8f18-420b-800b-ca89b4fb9ce7"/><linearGradient id="b2d81667-9867-4875-8fe9-a2aac5b29b04" x1="-1995.04" y1="97.18" x2="-2073.71" y2="122.05" gradientTransform="matrix(-1, 0, 0, 1, -1953.41, 0)" xlink:href="#b9f14740-8f18-420b-800b-ca89b4fb9ce7"/><linearGradient id="eae46b25-d26b-44ae-88f1-1bd7f23f3992" x1="-2071.68" y1="113.59" x2="-2001.85" y2="91.66" gradientTransform="matrix(-1, 0, 0, 1, -1953.41, 0)" xlink:href="#a766ce17-c778-4719-8dde-249c70e86f05"/><linearGradient id="b0ad1562-818f-4789-8be7-b05b631d6e80" x1="-2071.68" y1="113.59" x2="-2001.85" y2="91.66" gradientTransform="matrix(-1, 0, 0, 1, -1953.41, 0)" xlink:href="#b9f14740-8f18-420b-800b-ca89b4fb9ce7"/><mask id="a51faa54-c14f-495d-b92a-6007856617e7" x="44.2" y="77.31" width="24.1" height="25.72" maskUnits="userSpaceOnUse"><g transform="translate(7.14)"><path d="M41.71,83.9c-5.25,6.2-6.19,14-2.11,17.49s11.66,1.24,16.91-5,6.19-14,2.11-17.49S47,77.7,41.71,83.9Z" fill="url(#a84e31db-8b29-4f02-8ead-75cfb02a38cf)" style="mix-blend-mode:multiply"/></g></mask><radialGradient id="b198169e-29ca-4e81-bb3b-d4b754b526aa" cx="-1529.24" cy="-479.05" r="10.7" gradientTransform="matrix(-0.69, -0.59, -0.89, 1.05, -1434.6, -302.76)" xlink:href="#a4c540e9-d39d-43fc-8d26-6c1c2eb855d1"/><mask id="b6c6e41b-e698-41df-8f77-2c883e282332" x="49.37" y="83.49" width="13.62" height="13.69" maskUnits="userSpaceOnUse"><g transform="translate(7.14)"><path d="M42.65,88a6.8,6.8,0,1,0,8.73-4.12A6.83,6.83,0,0,0,42.65,88Z" fill="url(#ab33ac5c-5c3b-4d93-a0d9-082aeffeeed1)"/></g></mask><radialGradient id="fc8752e8-cf34-4528-b8a5-64ffe031b546" cx="-1903.3" cy="-167.75" r="6.49" gradientTransform="matrix(-0.94, -0.34, -0.38, 1.05, -1803.79, -383.21)" xlink:href="#a21e18c5-b36c-4f86-9531-309a6f4d792a"/><mask id="e0fda8c4-0a22-443b-a7a3-3424e74a1b4f" x="120.48" y="103.6" width="14.99" height="16" maskUnits="userSpaceOnUse"><g transform="translate(7.14)"><path d="M116.23,107.7c-3.27,3.86-3.85,8.73-1.31,10.88s7.25.77,10.52-3.08,3.85-8.74,1.31-10.89S119.5,103.84,116.23,107.7Z" fill="url(#e9350f1b-1d2e-4048-b388-850d22d55d59)" style="mix-blend-mode:multiply"/></g></mask><radialGradient id="aa70edd8-56c6-4c52-bf58-44896ff6a3c1" cx="-1604.91" cy="-500.85" r="6.66" gradientTransform="matrix(-0.69, -0.59, -0.89, 1.05, -1434.6, -302.76)" xlink:href="#a4c540e9-d39d-43fc-8d26-6c1c2eb855d1"/><mask id="eb0f88ca-42d3-4738-82e1-96a90c1948b9" x="123.7" y="107.44" width="8.48" height="8.52" maskUnits="userSpaceOnUse"><g transform="translate(7.14)"><path d="M116.81,110.26a4.24,4.24,0,1,0,5.44-2.56A4.25,4.25,0,0,0,116.81,110.26Z" fill="url(#a841a5ed-3698-443c-b8c7-69ffb52d3592)"/></g></mask><radialGradient id="a749dbfd-f958-4436-805b-50e318362d9a" cx="-1978.04" cy="-171.69" r="4.04" gradientTransform="matrix(-0.94, -0.34, -0.38, 1.05, -1803.79, -383.21)" xlink:href="#a21e18c5-b36c-4f86-9531-309a6f4d792a"/><radialGradient id="b255ac32-7936-4427-81b1-701e4c782fba" cx="-2029.04" cy="97.5" r="31.63" gradientTransform="matrix(-1, 0, 0, 1, -1953.41, 0)" xlink:href="#a3988672-b19a-40ee-b4ec-fdfdff2b6c10"/></defs><title>img-servidores-linux</title><g style="isolation:isolate"><g id="bdc0880b-9582-48cc-a21f-271392fd8964" data-name="Capa 2"><g id="a71e1d22-c87f-462e-a785-43fa6f007f14" data-name="OBJECTS"><g clip-path="url(#a7645e99-d099-46c3-a1af-7e5410ba7906)"><path d="M79.94,47.57a18.86,18.86,0,0,0-5.4.79,18.86,18.86,0,0,0-17.94-13c-9.64,0-18.12,6-19.46,15-2-2.08-5-3.09-8.92-3.09A12.31,12.31,0,0,0,15.91,59.5a12,12,0,0,0,.16,1.91A12.25,12.25,0,1,0,12.25,85.3H79.94a18.87,18.87,0,1,0,0-37.73Z" transform="translate(7.14)" fill="url(#bb7c96cb-11bb-4486-9920-69c7eadcdea2)"/><path d="M55.73,60.24a234.12,234.12,0,0,0,11.7-21.48,18.69,18.69,0,0,0-6-2.8C59.4,39.79,57.1,43.51,55,47.39c-3.94,7.42-8.1,14.72-12.41,21.93-3.2,5.35-6.45,10.66-9.7,16h8.26C45.32,76.59,50.78,68.48,55.73,60.24Z" transform="translate(7.14)" opacity="0.55" fill="url(#b9f14740-8f18-420b-800b-ca89b4fb9ce7)" style="mix-blend-mode:screen"/><path d="M80.06,71.16c2.58-4.58,5.4-9.13,7.65-13.88,1-2.13,1.91-4.28,2.89-6.39a18.81,18.81,0,0,0-7.32-3C78.36,55.6,73,63.05,68.54,71c-2.66,4.73-5.12,9.48-7.45,14.3H74.76C76.28,80.49,77.59,75.56,80.06,71.16Z" transform="translate(7.14)" opacity="0.55" fill="url(#e44135aa-e82a-41f5-b699-5c8138518276)" style="mix-blend-mode:screen"/><path d="M78.15,49.89A19.05,19.05,0,0,0,73,50.6a18.41,18.41,0,0,0-17-12.37,18.16,18.16,0,0,0-17.7,15.55,12.47,12.47,0,0,0-9.49-4c-5.56,0-11.1,5-11.1,11a22.83,22.83,0,0,0,.15,2.5,12.27,12.27,0,0,0-3.61-.55c-6.4,0-11.24,3.63-11.24,9.67S7.73,82.87,14.13,82.87h64C88,82.87,96,75.33,96,66S88,49.89,78.15,49.89Z" transform="translate(7.14)" fill="#5c6067"/><path d="M77.48,51.06a18.56,18.56,0,0,0-5,.69c-2.27-6.51-8.83-12.41-16.58-12.41-8.91,0-15.94,8.38-17,16.4a13.15,13.15,0,0,0-9.4-4.51C23.25,51.23,19,56.45,19,62.29a21.21,21.21,0,0,0,.15,2.41,12,12,0,0,0-3.53-.53c-6.25,0-11.43,2.32-11.43,8.14s4.53,10,10.78,10H77.48c9.63,0,17.43-7.26,17.43-16.22S87.11,51.06,77.48,51.06Z" transform="translate(7.14)" fill="url(#a766ce17-c778-4719-8dde-249c70e86f05)"/><path d="M77.48,51.06a18.56,18.56,0,0,0-5,.69c-2.27-6.51-8.83-12.41-16.58-12.41-8.91,0-15.94,8.38-17,16.4a13.15,13.15,0,0,0-9.4-4.51C23.25,51.23,19,56.45,19,62.29a21.21,21.21,0,0,0,.15,2.41,12,12,0,0,0-3.53-.53c-6.25,0-11.43,2.32-11.43,8.14s4.53,10,10.78,10H77.48c9.63,0,17.43-7.26,17.43-16.22S87.11,51.06,77.48,51.06Z" transform="translate(7.14)" opacity="0.55" fill="url(#bca6afd9-7522-4ad5-8525-7040cc58357c)" style="mix-blend-mode:screen"/><path d="M38.94,55.67s0,0,0,.07a13.15,13.15,0,0,0-9.4-4.51C23.25,51.23,19,56.45,19,62.29a21.21,21.21,0,0,0,.15,2.41,12,12,0,0,0-3.53-.53c-6.25,0-11.43,2.32-11.43,8.14s4.53,10,10.78,10H75.62C64.37,61.36,40.69,56.18,38.94,55.67Z" transform="translate(7.14)" opacity="0.32" fill="url(#ffc3a9c7-ee1a-4746-a3b4-78c658ff51bd)" style="mix-blend-mode:multiply"/><g mask="url(#b8fab6ac-f31b-4353-aa00-9a01c8792df9)"><path d="M100.06,43.47c6.5,7.68,7.67,17.37,2.61,21.65S88.24,66.66,81.74,59s-7.66-17.36-2.6-21.65S93.56,35.8,100.06,43.47Z" transform="translate(7.14)" fill="url(#a4c540e9-d39d-43fc-8d26-6c1c2eb855d1)" style="mix-blend-mode:screen"/></g><g mask="url(#fea97df6-2056-4780-8773-4bf383fc1425)"><path d="M98.9,48.57a8.42,8.42,0,1,1-10.81-5.1A8.46,8.46,0,0,1,98.9,48.57Z" transform="translate(7.14)" fill="url(#a21e18c5-b36c-4f86-9531-309a6f4d792a)" style="mix-blend-mode:screen"/></g><g mask="url(#e643d098-3974-4be2-b57f-07959d6c2c77)"><path d="M7.84,72.93c4,4.77,4.77,10.8,1.62,13.47s-9,.95-13-3.82S-8.33,71.77-5.18,69.11,3.79,68.15,7.84,72.93Z" transform="translate(7.14)" fill="url(#e3a936c4-fa02-41fc-a457-aca73a483c65)" style="mix-blend-mode:screen"/></g><g mask="url(#b3b6a3f2-a550-44db-a1eb-d833250420cc)"><path d="M7.11,76.1A5.24,5.24,0,1,1,.39,72.93,5.25,5.25,0,0,1,7.11,76.1Z" transform="translate(7.14)" fill="url(#a825a42a-2be3-45bc-80d4-82b19dbf3015)" style="mix-blend-mode:screen"/></g><path d="M79.94,47.57a18.86,18.86,0,0,0-5.4.79,18.86,18.86,0,0,0-17.94-13c-9.64,0-18.12,6-19.46,15-2-2.08-5-3.09-8.92-3.09A12.31,12.31,0,0,0,15.91,59.5a12,12,0,0,0,.16,1.91A12.25,12.25,0,1,0,12.25,85.3H79.94a18.87,18.87,0,1,0,0-37.73Z" transform="translate(7.14)" opacity="0.55" fill="url(#a3988672-b19a-40ee-b4ec-fdfdff2b6c10)" style="mix-blend-mode:overlay"/></g><g clip-path="url(#a08ce458-aa21-4ccf-b3b5-617b02036455)"><path d="M187.84,56a15.34,15.34,0,0,1,4.42.65,15.44,15.44,0,0,1,14.68-10.68c7.89,0,14.83,4.93,15.92,12.25,1.6-1.7,4.09-2.53,7.3-2.53a10,10,0,0,1,9.94,11.64,9.87,9.87,0,0,1,3.13-.51,10,10,0,0,1,0,20H187.84a15.44,15.44,0,0,1,0-30.87Z" transform="translate(7.14)" fill="url(#b3f0c3e8-4ec5-48a3-a2da-52c61a45e05a)"/><path d="M207.65,66.32a190.7,190.7,0,0,1-9.57-17.58A15.45,15.45,0,0,1,203,46.45c1.7,3.14,3.58,6.18,5.27,9.35,3.23,6.08,6.63,12,10.15,18,2.62,4.38,5.28,8.72,7.94,13.07h-6.76C216.17,79.69,211.7,73.06,207.65,66.32Z" transform="translate(7.14)" opacity="0.55" fill="url(#a89f23fc-9463-4109-bed6-d0e4b9f129c7)" style="mix-blend-mode:screen"/><path d="M187.74,75.26c-2.11-3.75-4.41-7.47-6.25-11.37-.82-1.73-1.56-3.49-2.37-5.22a15.41,15.41,0,0,1,6-2.47c4,6.32,8.41,12.41,12.07,18.92,2.17,3.87,4.18,7.76,6.09,11.7H192.08C190.84,82.88,189.77,78.85,187.74,75.26Z" transform="translate(7.14)" opacity="0.55" fill="url(#b408bcf9-c54a-4f92-88ed-36dbd50c0c54)" style="mix-blend-mode:screen"/><path d="M189.31,57.85a15.46,15.46,0,0,1,4.18.58,15.05,15.05,0,0,1,13.88-10.12A14.85,14.85,0,0,1,221.86,61a10.19,10.19,0,0,1,7.76-3.28,9.4,9.4,0,0,1,9.09,9,17.36,17.36,0,0,1-.13,2,9.91,9.91,0,0,1,3-.45c5.23,0,9.19,3,9.19,7.91s-3.8,8.53-9,8.53H189.31c-8.06,0-14.6-6.17-14.6-13.79S181.25,57.85,189.31,57.85Z" transform="translate(7.14)" fill="#5c6067"/><path d="M189.86,58.81a15.17,15.17,0,0,1,4.08.56c1.86-5.33,7.22-10.15,13.56-10.15,7.29,0,13.05,6.85,13.9,13.42A10.74,10.74,0,0,1,229.09,59c5.14,0,8.64,4.26,8.64,9a18.28,18.28,0,0,1-.12,2,9.81,9.81,0,0,1,2.89-.43c5.11,0,9.35,1.89,9.35,6.65s-3.71,8.2-8.82,8.2H189.86c-7.88,0-14.26-6-14.26-13.28S182,58.81,189.86,58.81Z" transform="translate(7.14)" fill="url(#a7b14e92-2fbf-4c97-88e2-8b0b07cf538a)"/><path d="M189.86,58.81a15.17,15.17,0,0,1,4.08.56c1.86-5.33,7.22-10.15,13.56-10.15,7.29,0,13.05,6.85,13.9,13.42A10.74,10.74,0,0,1,229.09,59c5.14,0,8.64,4.26,8.64,9a18.28,18.28,0,0,1-.12,2,9.81,9.81,0,0,1,2.89-.43c5.11,0,9.35,1.89,9.35,6.65s-3.71,8.2-8.82,8.2H189.86c-7.88,0-14.26-6-14.26-13.28S182,58.81,189.86,58.81Z" transform="translate(7.14)" opacity="0.55" fill="url(#a8f6bb5c-ff70-448c-ae68-e1039363adb0)" style="mix-blend-mode:screen"/><g mask="url(#bdc0a622-57ef-4ef9-927c-c8318fe9287c)"><path d="M171.38,52.6c-5.32,6.28-6.27,14.21-2.13,17.71s11.8,1.26,17.12-5,6.27-14.21,2.13-17.71S176.7,46.32,171.38,52.6Z" transform="translate(7.14)" fill="url(#e99407a8-55ba-4855-a5bc-7470e16daea8)" style="mix-blend-mode:screen"/></g><g mask="url(#fe28b9a1-88a0-4f2d-9281-c448a127cc81)"><path d="M172.33,56.77a6.89,6.89,0,1,0,8.85-4.17A6.92,6.92,0,0,0,172.33,56.77Z" transform="translate(7.14)" fill="url(#ecc2b5ab-019a-45dc-9cc8-7812e921a7ca)" style="mix-blend-mode:screen"/></g><g mask="url(#b936a9b3-5760-439e-b9fa-c32a1ada3ae8)"><path d="M246.84,76.7c-3.31,3.91-3.9,8.84-1.33,11s7.35.78,10.66-3.13,3.9-8.84,1.32-11S250.15,72.79,246.84,76.7Z" transform="translate(7.14)" fill="url(#e550f9c8-bdb7-434b-b486-7ce31f442c1a)" style="mix-blend-mode:screen"/></g><g mask="url(#e5c160c8-cee9-4c4d-be50-f29e2812a459)"><path d="M247.43,79.29a4.29,4.29,0,1,0,5.51-2.59A4.31,4.31,0,0,0,247.43,79.29Z" transform="translate(7.14)" fill="url(#fdf81a1e-93c5-4ccd-8082-d28cfe8bfc56)" style="mix-blend-mode:screen"/></g><path d="M187.84,56a15.34,15.34,0,0,1,4.42.65,15.44,15.44,0,0,1,14.68-10.68c7.89,0,14.83,4.93,15.92,12.25,1.6-1.7,4.09-2.53,7.3-2.53a10,10,0,0,1,9.94,11.64,9.87,9.87,0,0,1,3.13-.51,10,10,0,0,1,0,20H187.84a15.44,15.44,0,0,1,0-30.87Z" transform="translate(7.14)" opacity="0.55" fill="url(#a62190f5-48f8-465b-b28b-485557f7698e)" style="mix-blend-mode:overlay"/></g><rect x="164.32" y="14.76" width="51.14" height="71.92" fill="#d8d8d9"/><path d="M207.56,20.54H157.93c-2.71,0-4.91,1.82-4.91,4.07v9.23c0,2.24,2.2,4.06,4.91,4.06h49.63c2.71,0,4.91-1.82,4.91-4.06V24.61C212.47,22.36,210.27,20.54,207.56,20.54Z" transform="translate(7.14)" fill="#595964"/><path d="M207.56,42.09H157.93c-2.71,0-4.91,1.82-4.91,4.07v9.23c0,2.25,2.2,4.07,4.91,4.07h49.63c2.71,0,4.91-1.82,4.91-4.07V46.16C212.47,43.91,210.27,42.09,207.56,42.09Z" transform="translate(7.14)" fill="#595964"/><path d="M207.56,63.65H157.93c-2.71,0-4.91,1.82-4.91,4.06v9.23c0,2.25,2.2,4.07,4.91,4.07h49.63c2.71,0,4.91-1.82,4.91-4.07V67.71C212.47,65.47,210.27,63.65,207.56,63.65Z" transform="translate(7.14)" fill="#595964"/><path d="M196.31,25.42a2.15,2.15,0,1,0,2.16,2.15A2.15,2.15,0,0,0,196.31,25.42Z" transform="translate(7.14)" fill="#f1e8d3"/><path d="M202.66,25.42a2.15,2.15,0,1,0,2.15,2.15A2.15,2.15,0,0,0,202.66,25.42Z" transform="translate(7.14)" fill="#a32933"/><path d="M196.31,45.49a2.16,2.16,0,1,0,2.16,2.16A2.16,2.16,0,0,0,196.31,45.49Z" transform="translate(7.14)" fill="#f1e8d3"/><path d="M202.66,45.49a2.16,2.16,0,1,0,2.15,2.16A2.16,2.16,0,0,0,202.66,45.49Z" transform="translate(7.14)" fill="#a32933"/><path d="M196.31,65.57a2.16,2.16,0,1,0,2.16,2.15A2.15,2.15,0,0,0,196.31,65.57Z" transform="translate(7.14)" fill="#f1e8d3"/><path d="M202.66,65.57a2.16,2.16,0,1,0,2.15,2.15A2.15,2.15,0,0,0,202.66,65.57Z" transform="translate(7.14)" fill="#a32933"/><rect x="163.39" y="13.76" width="51.14" height="71.92" fill="#d8d8d9"/><path d="M206.63,19.54H157c-2.71,0-4.91,1.82-4.91,4.07v9.23c0,2.25,2.2,4.07,4.91,4.07h49.63c2.71,0,4.91-1.82,4.91-4.07V23.61C211.54,21.36,209.34,19.54,206.63,19.54Z" transform="translate(7.14)" fill="#595964"/><path d="M206.63,41.1H157c-2.71,0-4.91,1.82-4.91,4.06v9.23c0,2.25,2.2,4.07,4.91,4.07h49.63c2.71,0,4.91-1.82,4.91-4.07V45.16C211.54,42.92,209.34,41.1,206.63,41.1Z" transform="translate(7.14)" fill="#595964"/><path d="M206.63,62.65H157c-2.71,0-4.91,1.82-4.91,4.07V76c0,2.24,2.2,4.07,4.91,4.07h49.63c2.71,0,4.91-1.83,4.91-4.07V66.72C211.54,64.47,209.34,62.65,206.63,62.65Z" transform="translate(7.14)" fill="#595964"/><path d="M195.38,24.42a2.16,2.16,0,1,0,2.16,2.16A2.16,2.16,0,0,0,195.38,24.42Z" transform="translate(7.14)" fill="#f1e8d3"/><path d="M201.73,24.42a2.16,2.16,0,1,0,2.15,2.16A2.16,2.16,0,0,0,201.73,24.42Z" transform="translate(7.14)" fill="#a32933"/><path d="M195.38,44.5a2.15,2.15,0,1,0,2.16,2.15A2.15,2.15,0,0,0,195.38,44.5Z" transform="translate(7.14)" fill="#f1e8d3"/><path d="M201.73,44.5a2.15,2.15,0,1,0,2.15,2.15A2.15,2.15,0,0,0,201.73,44.5Z" transform="translate(7.14)" fill="#a32933"/><path d="M195.38,64.57a2.16,2.16,0,1,0,2.16,2.16A2.16,2.16,0,0,0,195.38,64.57Z" transform="translate(7.14)" fill="#f1e8d3"/><path d="M201.73,64.57a2.16,2.16,0,1,0,2.15,2.16A2.16,2.16,0,0,0,201.73,64.57Z" transform="translate(7.14)" fill="#a32933"/><rect x="69.63" y="13.76" width="51.14" height="71.92" fill="#d8d8d9"/><path d="M112.87,19.54H63.25c-2.72,0-4.91,1.82-4.91,4.07v9.23c0,2.25,2.19,4.07,4.91,4.07h49.62c2.72,0,4.91-1.82,4.91-4.07V23.61C117.78,21.36,115.59,19.54,112.87,19.54Z" transform="translate(7.14)" fill="#595964"/><path d="M112.87,41.1H63.25c-2.72,0-4.91,1.82-4.91,4.06v9.23c0,2.25,2.19,4.07,4.91,4.07h49.62c2.72,0,4.91-1.82,4.91-4.07V45.16C117.78,42.92,115.59,41.1,112.87,41.1Z" transform="translate(7.14)" fill="#595964"/><path d="M112.87,62.65H63.25c-2.72,0-4.91,1.82-4.91,4.07V76c0,2.24,2.19,4.07,4.91,4.07h49.62c2.72,0,4.91-1.83,4.91-4.07V66.72C117.78,64.47,115.59,62.65,112.87,62.65Z" transform="translate(7.14)" fill="#595964"/><path d="M101.63,24.42a2.16,2.16,0,1,0,2.15,2.16A2.16,2.16,0,0,0,101.63,24.42Z" transform="translate(7.14)" fill="#f1e8d3"/><path d="M108,24.42a2.16,2.16,0,1,0,2.16,2.16A2.16,2.16,0,0,0,108,24.42Z" transform="translate(7.14)" fill="#a32933"/><path d="M101.63,44.5a2.15,2.15,0,1,0,2.15,2.15A2.16,2.16,0,0,0,101.63,44.5Z" transform="translate(7.14)" fill="#f1e8d3"/><path d="M108,44.5a2.15,2.15,0,1,0,2.16,2.15A2.15,2.15,0,0,0,108,44.5Z" transform="translate(7.14)" fill="#a32933"/><path d="M101.63,64.57a2.16,2.16,0,1,0,2.15,2.16A2.16,2.16,0,0,0,101.63,64.57Z" transform="translate(7.14)" fill="#f1e8d3"/><path d="M108,64.57a2.16,2.16,0,1,0,2.16,2.16A2.16,2.16,0,0,0,108,64.57Z" transform="translate(7.14)" fill="#a32933"/><path d="M156.25,13.76v5.85c-2.35.3-4.16,2-4.16,4v9.23c0,2,1.81,3.7,4.16,4v4.32c-2.35.3-4.16,2-4.16,4v9.23c0,2,1.81,3.71,4.16,4v4.32c-2.35.3-4.16,2-4.16,4V76c0,2,1.81,3.7,4.16,4v5.73h34.54V83.52c0-3.21-2.84-5.86-6.55-6.33V70.41c3.71-.47,6.55-3.12,6.55-6.33V49.53c0-3.21-2.84-5.86-6.55-6.33V36.42c3.71-.48,6.55-3.12,6.55-6.33V15.53a5.29,5.29,0,0,0-.33-1.77Z" transform="translate(7.14)" fill="#595964" opacity="0.54" style="mix-blend-mode:multiply"/><rect x="101.75" width="80.65" height="113.42" fill="#c5c5c7"/><path d="M174.07,9.12H95.8c-4.27,0-7.74,2.87-7.74,6.41V30.09c0,3.54,3.47,6.41,7.74,6.41h78.27c4.28,0,7.75-2.87,7.75-6.41V15.53C181.82,12,178.35,9.12,174.07,9.12Z" transform="translate(7.14)" fill="#383944"/><path d="M174.07,43.11H95.8c-4.27,0-7.74,2.87-7.74,6.42V64.08c0,3.54,3.47,6.42,7.74,6.42h78.27c4.28,0,7.75-2.88,7.75-6.42V49.53C181.82,46,178.35,43.11,174.07,43.11Z" transform="translate(7.14)" fill="#383944"/><path d="M174.07,77.11H95.8c-4.27,0-7.74,2.87-7.74,6.41V98.08c0,3.54,3.47,6.41,7.74,6.41h78.27c4.28,0,7.75-2.87,7.75-6.41V83.52C181.82,80,178.35,77.11,174.07,77.11Z" transform="translate(7.14)" fill="#383944"/><path d="M156.33,16.81a3.4,3.4,0,1,0,3.4,3.4A3.4,3.4,0,0,0,156.33,16.81Z" transform="translate(7.14)" fill="#f1e8d3"/><path d="M166.34,16.81a3.4,3.4,0,1,0,3.4,3.4A3.4,3.4,0,0,0,166.34,16.81Z" transform="translate(7.14)" fill="#a32933"/><path d="M156.33,48.47a3.4,3.4,0,1,0,3.4,3.4A3.4,3.4,0,0,0,156.33,48.47Z" transform="translate(7.14)" fill="#f1e8d3"/><path d="M166.34,48.47a3.4,3.4,0,1,0,3.4,3.4A3.4,3.4,0,0,0,166.34,48.47Z" transform="translate(7.14)" fill="#a32933"/><path d="M156.33,80.14a3.4,3.4,0,1,0,3.4,3.39A3.39,3.39,0,0,0,156.33,80.14Z" transform="translate(7.14)" fill="#f1e8d3"/><path d="M166.34,80.14a3.4,3.4,0,1,0,3.4,3.39A3.39,3.39,0,0,0,166.34,80.14Z" transform="translate(7.14)" fill="#a32933"/><path d="M56.49,14.58H53.74V11.84a.83.83,0,0,0-.83-.83h0a.83.83,0,0,0-.83.83v2.74H49.32a.83.83,0,0,0-.83.83v0a.83.83,0,0,0,.83.83h2.74V19a.83.83,0,0,0,.83.83h0a.83.83,0,0,0,.83-.83V16.26h2.75a.83.83,0,0,0,.83-.83v0A.83.83,0,0,0,56.49,14.58Z" transform="translate(7.14)" fill="#fff"/><path d="M239.67,38.14h-2.74V35.4a.83.83,0,0,0-.83-.83h0a.83.83,0,0,0-.83.83v2.74H232.5a.84.84,0,0,0-.83.84h0a.83.83,0,0,0,.83.83h2.75v2.75a.83.83,0,0,0,.83.83h0a.83.83,0,0,0,.83-.83V39.82h2.74a.83.83,0,0,0,.83-.83h0A.84.84,0,0,0,239.67,38.14Z" transform="translate(7.14)" fill="#fff"/><path d="M27.9,96.79H25.16V94a.83.83,0,0,0-.83-.83h0a.83.83,0,0,0-.83.83v2.75H20.74a.84.84,0,0,0-.84.83v0a.84.84,0,0,0,.84.83h2.74v2.74a.83.83,0,0,0,.83.83h0a.83.83,0,0,0,.83-.83V98.47H27.9a.84.84,0,0,0,.84-.83v0A.84.84,0,0,0,27.9,96.79Z" transform="translate(7.14)" fill="#fff"/><path d="M218.12,104.87h-2.74v-2.74a.84.84,0,0,0-.84-.83h0a.83.83,0,0,0-.83.83v2.74H211a.83.83,0,0,0-.83.83v0a.83.83,0,0,0,.83.83h2.75v2.75a.83.83,0,0,0,.83.83h0a.84.84,0,0,0,.84-.83v-2.75h2.74a.83.83,0,0,0,.83-.83v0A.83.83,0,0,0,218.12,104.87Z" transform="translate(7.14)" fill="#fff"/><g clip-path="url(#a66629a8-5bbf-4d5b-ade5-cd4eebc76b4a)"><path d="M58,87.21a15,15,0,0,1,4.36.64,15.24,15.24,0,0,1,14.5-10.54c7.79,0,14.64,4.86,15.72,12.09,1.58-1.68,4-2.5,7.21-2.5a10,10,0,0,1,9.95,9.95,9.69,9.69,0,0,1-.14,1.54,9.9,9.9,0,1,1,3.09,19.31H58a15.25,15.25,0,1,1,0-30.49Z" transform="translate(7.14)" fill="url(#b2e6fba3-c3eb-4a46-b5e5-1a548f523635)"/><path d="M77.53,97.45a189.73,189.73,0,0,1-9.46-17.36,15.17,15.17,0,0,1,4.81-2.26c1.69,3.09,3.54,6.1,5.21,9.23,3.18,6,6.54,11.9,10,17.73,2.58,4.32,5.21,8.61,7.83,12.91H89.28C85.94,110.66,81.53,104.1,77.53,97.45Z" transform="translate(7.14)" opacity="0.55" fill="url(#be2ce0d9-6dd1-4a9c-86a3-f037d8d31a6a)" style="mix-blend-mode:screen"/><path d="M57.87,106.27c-2.09-3.7-4.36-7.37-6.18-11.22-.81-1.71-1.54-3.45-2.34-5.16a15.19,15.19,0,0,1,5.92-2.43c4,6.24,8.3,12.25,11.91,18.68,2.15,3.82,4.14,7.66,6,11.56H62.15C60.93,113.81,59.87,109.83,57.87,106.27Z" transform="translate(7.14)" opacity="0.55" fill="url(#b2d81667-9867-4875-8fe9-a2aac5b29b04)" style="mix-blend-mode:screen"/><path d="M59.42,89.09a15.07,15.07,0,0,1,4.12.57,14.88,14.88,0,0,1,13.71-10A14.67,14.67,0,0,1,91.56,92.23,10.08,10.08,0,0,1,99.23,89a9.29,9.29,0,0,1,9,8.93,17,17,0,0,1-.13,2A9.69,9.69,0,0,1,111,99.5c5.17,0,9.08,2.93,9.08,7.82s-3.76,8.42-8.93,8.42H59.42c-8,0-14.42-6.1-14.42-13.62S51.46,89.09,59.42,89.09Z" transform="translate(7.14)" fill="#5c6067"/><path d="M60,90a14.86,14.86,0,0,1,4,.56c1.83-5.26,7.13-10,13.39-10,7.2,0,12.88,6.77,13.73,13.26a10.56,10.56,0,0,1,7.59-3.65c5.08,0,8.53,4.21,8.53,8.94a17.72,17.72,0,0,1-.12,1.94,9.92,9.92,0,0,1,2.85-.42c5.05,0,9.24,1.87,9.24,6.57s-3.66,8.09-8.71,8.09H60c-7.78,0-14.09-5.87-14.09-13.11S52.18,90,60,90Z" transform="translate(7.14)" fill="url(#eae46b25-d26b-44ae-88f1-1bd7f23f3992)"/><path d="M60,90a14.86,14.86,0,0,1,4,.56c1.83-5.26,7.13-10,13.39-10,7.2,0,12.88,6.77,13.73,13.26a10.56,10.56,0,0,1,7.59-3.65c5.08,0,8.53,4.21,8.53,8.94a17.72,17.72,0,0,1-.12,1.94,9.92,9.92,0,0,1,2.85-.42c5.05,0,9.24,1.87,9.24,6.57s-3.66,8.09-8.71,8.09H60c-7.78,0-14.09-5.87-14.09-13.11S52.18,90,60,90Z" transform="translate(7.14)" opacity="0.55" fill="url(#b0ad1562-818f-4789-8be7-b05b631d6e80)" style="mix-blend-mode:screen"/><g mask="url(#a51faa54-c14f-495d-b92a-6007856617e7)"><path d="M41.71,83.9c-5.25,6.2-6.19,14-2.11,17.49s11.66,1.24,16.91-5,6.19-14,2.11-17.49S47,77.7,41.71,83.9Z" transform="translate(7.14)" fill="url(#b198169e-29ca-4e81-bb3b-d4b754b526aa)" style="mix-blend-mode:screen"/></g><g mask="url(#b6c6e41b-e698-41df-8f77-2c883e282332)"><path d="M42.65,88a6.8,6.8,0,1,0,8.73-4.12A6.83,6.83,0,0,0,42.65,88Z" transform="translate(7.14)" fill="url(#fc8752e8-cf34-4528-b8a5-64ffe031b546)" style="mix-blend-mode:screen"/></g><g mask="url(#e0fda8c4-0a22-443b-a7a3-3424e74a1b4f)"><path d="M116.23,107.7c-3.27,3.86-3.85,8.73-1.31,10.88s7.25.77,10.52-3.08,3.85-8.74,1.31-10.89S119.5,103.84,116.23,107.7Z" transform="translate(7.14)" fill="url(#aa70edd8-56c6-4c52-bf58-44896ff6a3c1)" style="mix-blend-mode:screen"/></g><g mask="url(#eb0f88ca-42d3-4738-82e1-96a90c1948b9)"><path d="M116.81,110.26a4.24,4.24,0,1,0,5.44-2.56A4.25,4.25,0,0,0,116.81,110.26Z" transform="translate(7.14)" fill="url(#a749dbfd-f958-4436-805b-50e318362d9a)" style="mix-blend-mode:screen"/></g><path d="M58,87.21a15,15,0,0,1,4.36.64,15.24,15.24,0,0,1,14.5-10.54c7.79,0,14.64,4.86,15.72,12.09,1.58-1.68,4-2.5,7.21-2.5a10,10,0,0,1,9.95,9.95,9.69,9.69,0,0,1-.14,1.54,9.9,9.9,0,1,1,3.09,19.31H58a15.25,15.25,0,1,1,0-30.49Z" transform="translate(7.14)" opacity="0.55" fill="url(#b255ac32-7936-4427-81b1-701e4c782fba)" style="mix-blend-mode:overlay"/></g></g></g></g></svg>