<svg width="783" height="599" viewBox="0 0 783 599" fill="none" xmlns="http://www.w3.org/2000/svg">
<g opacity="0.7">
<path d="M80.0078 118.41V108.686C80.0078 107.735 79.2364 106.964 78.2858 106.964H75.7821C75.0496 106.964 74.4007 106.466 74.2375 105.751C73.3713 101.975 71.896 98.4315 69.9055 95.2371C69.509 94.6005 69.5839 93.7779 70.1143 93.2476L71.8742 91.4876C72.5468 90.815 72.5468 89.7249 71.8742 89.0522L64.9986 82.1767C64.3259 81.504 63.2358 81.504 62.5632 82.1767L60.8052 83.9347C60.2739 84.466 59.4522 84.5409 58.8147 84.1434C55.6212 82.152 52.0767 80.6748 48.2997 79.8076C47.5863 79.6435 47.0882 78.9955 47.0882 78.2631V75.7679C47.0882 74.8172 46.3169 74.0459 45.3662 74.0459H35.6416C34.6909 74.0459 33.9196 74.8172 33.9196 75.7679V78.2631C33.9196 78.9955 33.4215 79.6444 32.7071 79.8076C28.9292 80.6748 25.3837 82.152 22.1902 84.1434C21.5527 84.5409 20.7311 84.466 20.1998 83.9347L18.4436 82.1785C17.771 81.5059 16.6809 81.5059 16.0082 82.1785L9.13264 89.0541C8.45998 89.7268 8.45998 90.8169 9.13264 91.4895L10.8907 93.2476C11.422 93.7789 11.4969 94.6005 11.0994 95.238C9.10989 98.4325 7.63363 101.977 6.76742 105.753C6.60329 106.467 5.9553 106.965 5.22192 106.965H2.72198C1.77038 106.965 1 107.737 1 108.687V118.412C1 119.363 1.77133 120.134 2.72198 120.134H5.22287C5.9553 120.134 6.60424 120.631 6.76742 121.346C7.63553 125.123 9.11178 128.666 11.1013 131.859C11.4988 132.495 11.4229 133.318 10.8926 133.849L9.13264 135.609C8.45998 136.282 8.45998 137.372 9.13264 138.045L16.0082 144.921C16.6799 145.594 17.771 145.594 18.4436 144.921L20.2055 143.159C20.7368 142.628 21.5584 142.553 22.1959 142.95C25.3885 144.938 28.9311 146.412 32.708 147.279C33.4224 147.443 33.9205 148.091 33.9205 148.823V151.332C33.9205 152.282 34.6919 153.054 35.6425 153.054H45.3672C46.3187 153.054 47.0891 152.282 47.0891 151.332V148.822C47.0891 148.09 47.5872 147.441 48.3016 147.278C52.0776 146.411 55.6203 144.937 58.8128 142.949C59.4494 142.552 60.272 142.627 60.8023 143.157L62.5651 144.92C63.2377 145.593 64.3278 145.593 65.0005 144.92L71.8761 138.044C72.5487 137.371 72.5478 136.281 71.8761 135.608L70.1143 133.847C69.583 133.316 69.508 132.494 69.9055 131.857C71.8951 128.664 73.3703 125.121 74.2375 121.345C74.4016 120.63 75.0496 120.133 75.7821 120.133H78.2867C79.2374 120.132 80.0078 119.361 80.0078 118.41ZM40.501 140.967C25.3581 140.967 13.0994 128.683 13.0994 113.54C13.0994 98.4201 25.3581 86.1367 40.501 86.1367C55.644 86.1367 67.9037 98.4201 67.9037 113.54C67.9037 128.683 55.6449 140.967 40.501 140.967Z" stroke="#E5D7FF" stroke-width="0.7896" stroke-miterlimit="10"/>
<path d="M115.824 179.008V172.395C115.824 171.748 115.299 171.225 114.653 171.225H112.951C112.452 171.225 112.012 170.886 111.9 170.4C111.31 167.833 110.307 165.423 108.954 163.251C108.684 162.818 108.736 162.259 109.096 161.897L110.294 160.701C110.751 160.244 110.751 159.502 110.294 159.044L105.618 154.369C105.161 153.912 104.42 153.912 103.962 154.369L102.766 155.565C102.405 155.926 101.846 155.977 101.412 155.707C99.2417 154.352 96.8316 153.349 94.2624 152.758C93.7768 152.646 93.4379 152.206 93.4379 151.707V150.011C93.4379 149.364 92.9135 148.84 92.2669 148.84H85.6547C85.0081 148.84 84.4837 149.364 84.4837 150.011V151.707C84.4837 152.205 84.1448 152.646 83.6592 152.757C81.09 153.347 78.6799 154.351 76.5074 155.706C76.0738 155.975 75.5153 155.924 75.1537 155.564L73.96 154.37C73.5027 153.913 72.7606 153.913 72.3033 154.37L67.6289 159.045C67.1717 159.503 67.1717 160.244 67.6289 160.702L68.8245 161.897C69.1861 162.258 69.2372 162.818 68.9665 163.251C67.6128 165.423 66.6094 167.833 66.0205 170.401C65.9088 170.887 65.4687 171.225 64.9698 171.225H63.2696C62.6231 171.225 62.0986 171.75 62.0986 172.396V179.009C62.0986 179.655 62.6231 180.18 63.2696 180.18H64.9707C65.4686 180.18 65.9098 180.517 66.0205 181.004C66.6112 183.572 67.6147 185.981 68.9674 188.152C69.2372 188.585 69.1861 189.144 68.8254 189.506L67.6279 190.703C67.1707 191.16 67.1707 191.902 67.6279 192.36L72.3024 197.035C72.7596 197.492 73.5018 197.492 73.959 197.035L75.1575 195.837C75.5181 195.476 76.0776 195.424 76.5102 195.695C78.6808 197.046 81.09 198.049 83.6583 198.638C84.1439 198.749 84.4827 199.189 84.4827 199.688V201.394C84.4827 202.041 85.0072 202.565 85.6538 202.565H92.266C92.9125 202.565 93.437 202.041 93.437 201.394V199.688C93.437 199.19 93.7759 198.749 94.2615 198.638C96.8288 198.049 99.2379 197.046 101.409 195.695C101.842 195.425 102.401 195.476 102.761 195.837L103.961 197.036C104.418 197.493 105.16 197.493 105.617 197.036L110.293 192.361C110.75 191.903 110.75 191.162 110.293 190.704L109.094 189.507C108.733 189.146 108.682 188.586 108.952 188.153C110.305 185.982 111.308 183.573 111.898 181.005C112.01 180.519 112.45 180.18 112.948 180.18H114.651C115.299 180.18 115.824 179.655 115.824 179.008ZM88.9603 193.294C79.245 193.294 71.3794 185.413 71.3794 175.697C71.3794 165.996 79.245 158.116 88.9603 158.116C98.6766 158.116 106.542 165.996 106.542 175.697C106.542 185.413 98.6766 193.294 88.9603 193.294Z" fill="#F4EEFE"/>
<path d="M782.487 214.093V201.127C782.487 199.859 781.459 198.831 780.191 198.831H776.853C775.876 198.831 775.011 198.167 774.794 197.214C773.639 192.179 771.672 187.455 769.018 183.195C768.489 182.347 768.589 181.25 769.296 180.543L771.642 178.196C772.539 177.299 772.539 175.846 771.642 174.949L762.475 165.781C761.578 164.885 760.125 164.885 759.228 165.781L756.884 168.125C756.175 168.834 755.08 168.934 754.23 168.404C749.972 165.749 745.246 163.779 740.21 162.623C739.259 162.404 738.594 161.54 738.594 160.563V157.236C738.594 155.969 737.566 154.94 736.299 154.94H723.332C722.065 154.94 721.036 155.969 721.036 157.236V160.563C721.036 161.54 720.372 162.405 719.42 162.623C714.382 163.779 709.655 165.749 705.397 168.404C704.547 168.934 703.452 168.834 702.743 168.125L700.402 165.784C699.505 164.887 698.051 164.887 697.155 165.784L687.987 174.951C687.09 175.848 687.09 177.302 687.987 178.199L690.331 180.543C691.04 181.251 691.139 182.347 690.609 183.197C687.957 187.456 685.988 192.182 684.833 197.217C684.615 198.169 683.751 198.833 682.773 198.833H679.44C678.171 198.833 677.144 199.862 677.144 201.129V214.095C677.144 215.363 678.172 216.391 679.44 216.391H682.774C683.751 216.391 684.616 217.054 684.833 218.007C685.991 223.043 687.959 227.767 690.612 232.024C691.142 232.873 691.041 233.97 690.334 234.678L687.987 237.025C687.09 237.922 687.09 239.375 687.987 240.272L697.155 249.441C698.05 250.337 699.505 250.337 700.402 249.441L702.751 247.092C703.459 246.383 704.555 246.283 705.405 246.812C709.662 249.463 714.385 251.428 719.421 252.584C720.373 252.803 721.038 253.667 721.038 254.644V257.988C721.038 259.256 722.066 260.284 723.334 260.284H736.3C737.569 260.284 738.596 259.256 738.596 257.988V254.642C738.596 253.666 739.26 252.8 740.212 252.583C745.247 251.428 749.971 249.462 754.227 246.811C755.076 246.282 756.173 246.382 756.88 247.089L759.23 249.439C760.127 250.336 761.581 250.336 762.478 249.439L771.645 240.271C772.542 239.374 772.541 237.92 771.645 237.023L769.296 234.676C768.588 233.967 768.488 232.872 769.018 232.022C771.67 227.765 773.637 223.04 774.794 218.005C775.012 217.053 775.876 216.39 776.853 216.39H780.193C781.46 216.389 782.487 215.36 782.487 214.093ZM729.812 244.168C709.621 244.168 693.276 227.79 693.276 207.6C693.276 187.439 709.621 171.062 729.812 171.062C750.002 171.062 766.348 187.439 766.348 207.6C766.348 227.79 750.003 244.168 729.812 244.168Z" stroke="#E5D7FF" stroke-miterlimit="10"/>
<path opacity="0.4" d="M76.6822 531.96C80.0814 531.96 82.837 529.204 82.837 525.805C82.837 522.406 80.0814 519.65 76.6822 519.65C73.283 519.65 70.5273 522.406 70.5273 525.805C70.5273 529.204 73.283 531.96 76.6822 531.96Z" fill="#A4AFFF"/>
<path opacity="0.4" d="M141.995 26.3097C145.394 26.3097 148.15 23.5541 148.15 20.1549C148.15 16.7556 145.394 14 141.995 14C138.595 14 135.84 16.7556 135.84 20.1549C135.84 23.5541 138.595 26.3097 141.995 26.3097Z" fill="#A4AFFF"/>
<path opacity="0.4" d="M763.181 279.261C766.58 279.261 769.336 276.505 769.336 273.106C769.336 269.707 766.58 266.951 763.181 266.951C759.782 266.951 757.026 269.707 757.026 273.106C757.026 276.505 759.782 279.261 763.181 279.261Z" fill="#A4AFFF"/>
<path opacity="0.4" d="M648.676 134.816C652.076 134.816 654.831 132.06 654.831 128.661C654.831 125.262 652.076 122.506 648.676 122.506C645.277 122.506 642.521 125.262 642.521 128.661C642.521 132.06 645.277 134.816 648.676 134.816Z" fill="#A4AFFF"/>
<path d="M500.495 30.8316C500.495 33.6785 498.187 35.9865 495.34 35.9865C492.493 35.9865 490.186 33.6786 490.186 30.8316C490.186 27.9847 492.493 25.6768 495.34 25.6768C498.187 25.6768 500.495 27.9847 500.495 30.8316Z" stroke="#E5D7FF" stroke-width="2"/>
<path d="M630.619 82.085C632.751 82.085 634.48 80.3564 634.48 78.2241C634.48 76.0918 632.751 74.3633 630.619 74.3633C628.486 74.3633 626.758 76.0918 626.758 78.2241C626.758 80.3564 628.486 82.085 630.619 82.085Z" fill="#A4AFFF"/>
<path opacity="0.4" d="M198.776 72.5811C200.908 72.5811 202.637 70.8525 202.637 68.7202C202.637 66.5879 200.908 64.8594 198.776 64.8594C196.644 64.8594 194.915 66.5879 194.915 68.7202C194.915 70.8525 196.644 72.5811 198.776 72.5811Z" fill="#A4AFFF"/>
<path opacity="0.4" d="M145.331 268.408C147.463 268.408 149.191 266.679 149.191 264.547C149.191 262.415 147.463 260.686 145.331 260.686C143.198 260.686 141.47 262.415 141.47 264.547C141.47 266.679 143.198 268.408 145.331 268.408Z" fill="#A4AFFF"/>
<path opacity="0.4" d="M78.9595 219.524C81.0918 219.524 82.8204 217.795 82.8204 215.663C82.8204 213.53 81.0918 211.802 78.9595 211.802C76.8272 211.802 75.0986 213.53 75.0986 215.663C75.0986 217.795 76.8272 219.524 78.9595 219.524Z" fill="#A4AFFF"/>
<path opacity="0.4" d="M207.949 488.769C211.348 488.769 214.104 486.013 214.104 482.614C214.104 479.215 211.348 476.459 207.949 476.459C204.55 476.459 201.794 479.215 201.794 482.614C201.794 486.013 204.55 488.769 207.949 488.769Z" fill="#A4AFFF"/>
<path opacity="0.4" d="M563.372 525.639C566.771 525.639 569.526 522.883 569.526 519.484C569.526 516.085 566.771 513.329 563.372 513.329C559.972 513.329 557.217 516.085 557.217 519.484C557.217 522.883 559.972 525.639 563.372 525.639Z" fill="#A4AFFF"/>
<path opacity="0.4" d="M232.718 311.147C236.118 311.147 238.873 308.391 238.873 304.992C238.873 301.593 236.118 298.837 232.718 298.837C229.319 298.837 226.563 301.593 226.563 304.992C226.563 308.391 229.319 311.147 232.718 311.147Z" fill="#A4AFFF"/>
<path opacity="0.4" d="M586.287 298.286C590.836 298.286 594.523 294.598 594.523 290.05C594.523 285.501 590.836 281.813 586.287 281.813C581.738 281.813 578.051 285.501 578.051 290.05C578.051 294.598 581.738 298.286 586.287 298.286Z" fill="#A4AFFF"/>
<path d="M95.4821 319.305C95.4821 323.302 92.2423 326.542 88.2459 326.542C84.2495 326.542 81.0098 323.302 81.0098 319.305C81.0098 315.309 84.2495 312.069 88.2459 312.069C92.2423 312.069 95.4821 315.309 95.4821 319.305Z" stroke="#E5D7FF" stroke-width="2"/>
<path d="M13.6689 195.932L29.0311 184.626L31.1267 203.588L13.6689 195.932Z" fill="#E5D7FF"/>
<path d="M753.669 357.15L754.481 341.647L767.508 350.107L753.669 357.15Z" stroke="#E5D7FF" stroke-width="2"/>
<path d="M477.657 503.849L489.508 514.924L473.994 519.65L477.657 503.849Z" fill="#E5D7FF"/>
<path d="M71.0818 377.079L57.6717 369.337L71.0818 361.582V377.079Z" stroke="#E5D7FF" stroke-width="2"/>
<path d="M705.591 70.8857L720.757 82.5272L703.1 89.8476L705.591 70.8857Z" fill="#E5D7FF"/>
<path opacity="0.5" d="M320.748 476.373L315.236 460.079L302.633 464.353C301.054 461.973 299.184 459.86 297.072 458.015L302.973 446.067L287.552 438.442L281.651 450.39C278.907 449.856 276.091 449.661 273.249 449.831L268.975 437.228L252.681 442.74L256.955 455.344C254.599 456.922 252.463 458.792 250.617 460.905L238.669 455.004L231.044 470.424L242.992 476.325C242.458 479.069 242.263 481.886 242.433 484.727L229.83 489.001L235.342 505.295L247.946 501.021C249.524 503.401 251.394 505.514 253.507 507.359L247.606 519.307L263.026 526.932L268.927 514.985C271.671 515.519 274.488 515.713 277.329 515.543L281.603 528.146L297.897 522.634L293.623 510.031C295.979 508.452 298.116 506.582 299.961 504.47L311.909 510.371L319.534 494.95L307.586 489.049C308.121 486.305 308.315 483.489 308.145 480.647L320.748 476.373ZM279.757 495.849C272.497 498.302 264.604 494.416 262.152 487.155C259.699 479.895 263.584 472.002 270.845 469.55C278.106 467.097 285.998 470.982 288.451 478.243C290.904 485.504 287.018 493.372 279.757 495.849Z" fill="#F4EDFF"/>
<path d="M720.771 288.831H699.072C697.757 288.831 696.691 287.767 696.691 286.453C696.691 285.139 697.757 284.073 699.072 284.073H720.771C722.085 284.073 723.149 285.139 723.149 286.453C723.149 287.765 722.085 288.831 720.771 288.831Z" fill="#D5BFFE"/>
<path d="M742.628 299.392H699.073C697.758 299.392 696.692 298.326 696.692 297.012C696.692 295.698 697.758 294.634 699.073 294.634H742.628C743.942 294.634 745.008 295.698 745.008 297.012C745.006 298.326 743.942 299.392 742.628 299.392Z" fill="#D5BFFE"/>
<path d="M704.217 309.955H699.073C697.758 309.955 696.692 308.889 696.692 307.575C696.692 306.26 697.758 305.194 699.073 305.194H704.217C705.531 305.194 706.597 306.26 706.597 307.575C706.595 308.889 705.531 309.955 704.217 309.955Z" fill="#D5BFFE"/>
<path d="M742.625 309.955H712.297C710.983 309.955 709.919 308.889 709.919 307.575C709.919 306.26 710.983 305.194 712.297 305.194H742.625C743.939 305.194 745.005 306.26 745.005 307.575C745.004 308.889 743.939 309.955 742.625 309.955Z" fill="#D5BFFE"/>
<path d="M742.629 288.831H729.476C728.162 288.831 727.098 287.767 727.098 286.453C727.098 285.139 728.162 284.073 729.476 284.073H742.629C743.943 284.073 745.009 285.139 745.009 286.453C745.007 287.765 743.943 288.831 742.629 288.831Z" fill="#D5BFFE"/>
</g>
<g filter="url(#filter0_d_4248_17575)">
<rect x="134.785" y="69.8325" width="523.558" height="364.489" fill="#C4C4C4"/>
</g>
<path d="M456.979 403.597L485.893 486.958H317.146L346.06 403.597H456.979Z" fill="#F8F8F8" stroke="#2D3E95"/>
<rect x="127.911" y="62.9585" width="545.734" height="312.924" fill="#F8F8F8" stroke="#2D3E95"/>
<rect x="127.911" y="376.883" width="545.734" height="68.5268" fill="#F8F8F8" stroke="#2D3E95"/>
<path d="M657.385 81.564H144.498V356.859H657.385V81.564Z" fill="#EFE7FF"/>
<path d="M410.337 411.146C410.337 416.135 406.292 420.18 401.303 420.18C396.313 420.18 392.269 416.135 392.269 411.146C392.269 406.156 396.313 402.111 401.303 402.111C406.292 402.111 410.337 406.156 410.337 411.146Z" fill="#F8F8F8" stroke="#2D3E95" stroke-width="3"/>
<path d="M272.625 486.959C272.889 478.78 279.602 472.229 287.847 472.229H515.193C523.436 472.231 530.151 478.78 530.415 486.959H272.625Z" fill="#DAE3EB" stroke="#2D3E95"/>
<g filter="url(#filter1_d_4248_17575)">
<path d="M705.273 564.1H598.631C590.225 564.1 583.408 557.285 583.408 548.875V344.042C583.408 335.634 590.223 328.817 598.631 328.817H705.273C713.679 328.817 720.496 335.632 720.496 344.042V548.875C720.494 557.283 713.679 564.1 705.273 564.1Z" fill="#F8F8F8"/>
<path d="M705.273 563.6H598.631C590.501 563.6 583.908 557.009 583.908 548.875V344.042C583.908 335.91 590.499 329.317 598.631 329.317H705.273C713.403 329.317 719.996 335.908 719.996 344.042V548.875C719.994 557.007 713.403 563.6 705.273 563.6Z" stroke="#2D3E95"/>
</g>
<path d="M583.908 545.843V345.279H719.994V545.843H583.908Z" fill="#F8F8F8" stroke="#2D3E95"/>
<path d="M681.887 488.6H622.147C615.067 488.6 609.326 482.86 609.326 475.779V416.039C609.326 408.959 615.066 403.218 622.147 403.218H681.887C688.967 403.218 694.708 408.958 694.708 416.039V475.779C694.708 482.859 688.968 488.6 681.887 488.6Z" fill="white" stroke="#2D3E95"/>
<path d="M652.026 472.245C637.505 472.245 625.69 460.431 625.69 445.909C625.69 431.386 637.504 419.573 652.026 419.573C666.549 419.573 678.362 431.386 678.362 445.909C678.362 460.431 666.547 472.245 652.026 472.245ZM652.026 424.439C640.188 424.439 630.557 434.07 630.557 445.909C630.557 457.747 640.188 467.378 652.026 467.378C663.865 467.378 673.495 457.747 673.495 445.909C673.495 434.07 663.865 424.439 652.026 424.439Z" fill="#FF1212"/>
<path d="M650.584 455.523L641.578 447.566L645.353 443.262L650.056 447.417L659.016 437.13L663.316 440.903L650.584 455.523Z" fill="#FF1212"/>
<path d="M669.132 353.745H634.768C629.914 353.745 625.948 349.942 625.688 345.154H678.212C677.952 349.942 673.986 353.745 669.132 353.745Z" fill="#F8F8F8" stroke="#2D3E95"/>
<path opacity="0.15" d="M664.347 345.205H639.552C638.668 345.205 637.954 344.491 637.954 343.607C637.954 342.725 638.668 342.009 639.552 342.009H664.347C665.231 342.009 665.945 342.725 665.945 343.607C665.945 344.491 665.231 345.205 664.347 345.205Z" fill="white"/>
<g filter="url(#filter2_d_4248_17575)">
<path d="M473.348 37.1758H91.54V243.415H473.348V37.1758Z" fill="white"/>
</g>
<path d="M457.545 50.5679H107.342V230.025H457.545V50.5679Z" fill="#E5D7FF"/>
<path d="M181.106 74.5449H144.678V78.7205H181.106V74.5449Z" fill="white"/>
<path d="M267.188 74.5449H192.64V78.7205H267.188V74.5449Z" fill="white"/>
<path d="M196.571 91.4434H160.143V95.619H196.571V91.4434Z" fill="white"/>
<path d="M421.113 91.4434H208.105V95.619H421.113V91.4434Z" fill="white"/>
<path d="M196.571 107.131H160.143V111.307H196.571V107.131Z" fill="white"/>
<path d="M421.113 107.131H208.105V111.307H421.113V107.131Z" fill="white"/>
<path d="M196.571 122.815H160.143V126.991H196.571V122.815Z" fill="white"/>
<path d="M421.113 122.815H208.105V126.991H421.113V122.815Z" fill="white"/>
<path d="M196.571 138.5H160.143V142.675H196.571V138.5Z" fill="white"/>
<path d="M181.106 155.096H144.678V159.272H181.106V155.096Z" fill="white"/>
<path d="M267.188 155.096H192.64V159.272H267.188V155.096Z" fill="white"/>
<path d="M345.463 171.997H208.105V176.173H345.463V171.997Z" fill="white"/>
<path d="M345.463 187.683H208.105V191.858H345.463V187.683Z" fill="white"/>
<path d="M196.57 187.683H184.478V191.858H196.57V187.683Z" fill="white"/>
<path d="M196.571 203.369H160.143V207.544H196.571V203.369Z" fill="white"/>
<path d="M345.463 203.369H208.105V207.544H345.463V203.369Z" fill="white"/>
<path d="M422.655 171.997H355.342V176.173H422.655V171.997Z" fill="white"/>
<path d="M422.655 187.683H355.342V191.858H422.655V187.683Z" fill="white"/>
<path d="M422.655 203.369H355.342V207.544H422.655V203.369Z" fill="white"/>
<path d="M421.113 138.5H208.105V142.675H421.113V138.5Z" fill="white"/>
<g filter="url(#filter3_d_4248_17575)">
<path d="M146.183 202.906H67.5635V278.531H146.183V202.906Z" fill="white"/>
</g>
<path d="M125.446 241C125.446 239.733 125.317 238.495 125.074 237.299L131.267 233.722L125.467 223.677L119.294 227.242C117.425 225.567 115.213 224.271 112.778 223.465V216.35H101.177V223.465C100.094 223.824 99.0545 224.276 98.0703 224.819C97.9533 224.883 97.8386 224.953 97.7228 225.019C97.6069 225.087 97.4899 225.15 97.3764 225.221C96.4144 225.801 95.5016 226.475 94.6497 227.235L88.4872 223.677L82.6875 233.722L88.85 237.281C88.6183 238.397 88.4907 239.524 88.4697 240.648C88.4662 240.784 88.4697 240.919 88.4685 241.056C88.4685 241.187 88.4662 241.32 88.4697 241.451C88.4919 242.574 88.6183 243.702 88.85 244.819L82.6875 248.377L88.4872 258.423L94.6497 254.865C96.5654 256.571 98.7935 257.839 101.177 258.62V265.749H112.778V258.599C113.935 258.212 115.072 257.703 116.169 257.07C117.294 256.419 118.324 255.669 119.255 254.837L125.467 258.423L131.267 248.377L125.055 244.79C125.31 243.568 125.446 242.3 125.446 241ZM114.573 249.177C114.523 249.223 114.472 249.268 114.422 249.313C114.222 249.495 114.015 249.666 113.804 249.83C113.705 249.906 113.604 249.982 113.502 250.054C113.329 250.179 113.152 250.3 112.973 250.416C112.829 250.507 112.684 250.595 112.537 250.681C112.389 250.766 112.241 250.849 112.09 250.926C111.9 251.024 111.708 251.117 111.512 251.205C111.397 251.255 111.282 251.305 111.168 251.352C110.92 251.453 110.668 251.546 110.411 251.628C110.346 251.65 110.281 251.67 110.215 251.691C109.19 252.003 108.103 252.172 106.976 252.172C100.806 252.172 95.8047 247.171 95.8047 241C95.8047 239.489 96.1078 238.05 96.652 236.736C96.6777 236.674 96.7035 236.613 96.7304 236.552C96.831 236.321 96.9422 236.096 97.0581 235.873C97.1318 235.733 97.2067 235.594 97.2863 235.457C97.3658 235.319 97.4489 235.183 97.5332 235.048C97.6689 234.836 97.8082 234.629 97.958 234.426C97.9978 234.372 98.0375 234.318 98.0785 234.265C98.9457 233.137 100.04 232.154 101.348 231.399C106.69 228.315 113.523 230.146 116.608 235.488C117.172 236.464 117.568 237.492 117.811 238.536C117.826 238.602 117.84 238.668 117.854 238.734C117.911 238.999 117.956 239.263 117.992 239.529C118.01 239.652 118.024 239.777 118.037 239.9C118.059 240.114 118.074 240.327 118.085 240.541C118.092 240.711 118.097 240.88 118.097 241.05C118.097 241.221 118.093 241.391 118.085 241.562C118.076 241.775 118.06 241.987 118.037 242.2C118.024 242.325 118.01 242.45 117.992 242.574C117.955 242.838 117.911 243.102 117.854 243.366C117.84 243.434 117.826 243.5 117.811 243.568C117.568 244.611 117.171 245.638 116.608 246.614C116.045 247.59 115.355 248.443 114.573 249.177Z" fill="#FF1212"/>
<path d="M358.112 333.191H241.181V411.146H358.112V333.191Z" fill="#FF1212"/>
<path d="M285.866 356.283L267.516 372.168L285.866 388.054V379.444L277.461 372.168L285.866 364.892V356.283Z" fill="white"/>
<path d="M314.073 388.054L332.423 372.168L314.073 356.283V364.892L322.479 372.168L314.073 379.444V388.054Z" fill="white"/>
<path d="M298.196 393.237H290.426L301.745 351.1H309.515L298.196 393.237Z" fill="white"/>
<path d="M222.219 276.306H175.868V322.657H222.219V276.306Z" fill="#F8F8F8"/>
<path d="M292.799 276.306H246.448V322.657H292.799V276.306Z" fill="#F8F8F8"/>
<path d="M363.38 276.306H317.028V322.657H363.38V276.306Z" fill="#F8F8F8"/>
<path d="M433.963 276.306H387.611V322.657H433.963V276.306Z" fill="#F8F8F8"/>
<path d="M504.539 276.306H458.188V322.657H504.539V276.306Z" fill="#F8F8F8"/>
<path d="M575.118 276.306H528.767V322.657H575.118V276.306Z" fill="#F8F8F8"/>
<path d="M629.902 192.031H509.811V198.352H629.902V192.031Z" fill="#F8F8F8"/>
<path d="M629.902 165.695H509.811V172.016H629.902V165.695Z" fill="#F8F8F8"/>
<path d="M629.902 139.359H509.811V145.68H629.902V139.359Z" fill="#F8F8F8"/>
<path d="M629.902 113.023H509.811V119.344H629.902V113.023Z" fill="#F8F8F8"/>
<path d="M629.902 218.367H509.811V225.741H629.902V218.367Z" fill="#F8F8F8"/>
<path d="M629.902 245.756H509.811V252.076H629.902V245.756Z" fill="#F8F8F8"/>
<g filter="url(#filter4_d_4248_17575)">
<path d="M731.029 114.434H632.521V209.211H731.029V114.434Z" fill="white"/>
</g>
<path d="M700.833 147.439C699.227 147.439 697.706 147.799 696.342 148.441C694.476 141.772 688.358 136.88 681.094 136.88C673.946 136.88 667.906 141.616 665.935 148.12C664.775 147.681 663.518 147.44 662.203 147.44C656.372 147.44 651.645 152.167 651.645 157.999H711.393C711.393 152.167 706.665 147.439 700.833 147.439Z" fill="#FF1212"/>
<path d="M670.53 175.773L681.519 186.763L692.508 175.773H685.105V162.811H677.934V175.773H670.53Z" fill="#FF1212"/>
<g filter="url(#filter5_d_4248_17575)">
<path d="M185.351 398.504H74.7402V504.901H185.351V398.504Z" fill="white"/>
</g>
<path d="M168.332 413.252H91.5938V489.99H168.332V413.252Z" fill="#E5D7FF"/>
<path d="M111.64 428.191H104.576V431.44H111.64V428.191Z" fill="white"/>
<path d="M151.44 428.191H115.332V431.44H151.44V428.191Z" fill="white"/>
<path d="M115.552 439.088H104.576V442.336H115.552V439.088Z" fill="white"/>
<path d="M155.354 439.088H119.245V442.336H155.354V439.088Z" fill="white"/>
<path d="M111.64 459.579H104.576V462.827H111.64V459.579Z" fill="white"/>
<path d="M151.44 459.579H115.332V462.827H151.44V459.579Z" fill="white"/>
<path d="M115.552 470.477H104.576V473.725H115.552V470.477Z" fill="white"/>
<path d="M155.354 470.477H119.245V473.725H155.354V470.477Z" fill="white"/>
<path d="M109.03 449.985H98.0547V453.234H109.03V449.985Z" fill="white"/>
<path d="M161.873 449.985H112.725V453.234H161.873V449.985Z" fill="white"/>
<g filter="url(#filter6_d_4248_17575)">
<path d="M654.723 76.8293H533.252C520.272 76.8293 509.75 66.3076 509.75 53.3271V53.3172C509.75 40.3383 520.272 29.8149 533.252 29.8149H654.723C667.703 29.8149 678.225 40.3367 678.225 53.3172V53.3271C678.223 66.3076 667.703 76.8293 654.723 76.8293Z" fill="white"/>
</g>
<path d="M653.174 68.1039H535.144C527.148 68.1039 520.666 61.6217 520.666 53.6274C520.666 45.633 527.147 39.1509 535.144 39.1509H653.174C661.17 39.1509 667.652 45.633 667.652 53.6274C667.652 61.6217 661.172 68.1039 653.174 68.1039Z" fill="white" stroke="#E5D7FF"/>
<path d="M544.899 58.9255L540.741 55.0902C541.171 54.2931 541.398 53.4088 541.398 52.5083C541.398 49.4917 538.945 47.0386 535.928 47.0386C532.913 47.0386 530.46 49.4917 530.46 52.5083C530.46 55.525 532.913 57.9781 535.928 57.9781C536.974 57.9781 537.984 57.6735 538.875 57.0938L543.041 60.9358C543.293 61.1719 543.623 61.3008 543.971 61.3008C544.352 61.3008 544.719 61.1397 544.974 60.8593C545.224 60.5895 545.353 60.2406 545.338 59.8743C545.323 59.5093 545.168 59.1724 544.899 58.9255ZM539.141 52.5083C539.141 54.2797 537.7 55.721 535.927 55.721C534.157 55.721 532.716 54.2797 532.716 52.5083C532.716 50.7383 534.156 49.2957 535.927 49.2957C537.7 49.2957 539.141 50.737 539.141 52.5083Z" fill="#42449A"/>
<defs>
<filter id="filter0_d_4248_17575" x="63.7852" y="0.83252" width="663.559" height="504.489" filterUnits="userSpaceOnUse" color-interpolation-filters="sRGB">
<feFlood flood-opacity="0" result="BackgroundImageFix"/>
<feColorMatrix in="SourceAlpha" type="matrix" values="0 0 0 0 0 0 0 0 0 0 0 0 0 0 0 0 0 0 127 0" result="hardAlpha"/>
<feOffset dx="-1" dy="1"/>
<feGaussianBlur stdDeviation="35"/>
<feComposite in2="hardAlpha" operator="out"/>
<feColorMatrix type="matrix" values="0 0 0 0 0 0 0 0 0 0 0 0 0 0 0 0 0 0 0.16 0"/>
<feBlend mode="normal" in2="BackgroundImageFix" result="effect1_dropShadow_4248_17575"/>
<feBlend mode="normal" in="SourceGraphic" in2="effect1_dropShadow_4248_17575" result="shape"/>
</filter>
<filter id="filter1_d_4248_17575" x="563.408" y="302.817" width="197.088" height="295.283" filterUnits="userSpaceOnUse" color-interpolation-filters="sRGB">
<feFlood flood-opacity="0" result="BackgroundImageFix"/>
<feColorMatrix in="SourceAlpha" type="matrix" values="0 0 0 0 0 0 0 0 0 0 0 0 0 0 0 0 0 0 127 0" result="hardAlpha"/>
<feOffset dx="10" dy="4"/>
<feGaussianBlur stdDeviation="15"/>
<feComposite in2="hardAlpha" operator="out"/>
<feColorMatrix type="matrix" values="0 0 0 0 0 0 0 0 0 0 0 0 0 0 0 0 0 0 0.17 0"/>
<feBlend mode="normal" in2="BackgroundImageFix" result="effect1_dropShadow_4248_17575"/>
<feBlend mode="normal" in="SourceGraphic" in2="effect1_dropShadow_4248_17575" result="shape"/>
</filter>
<filter id="filter2_d_4248_17575" x="71.54" y="11.1758" width="441.808" height="266.239" filterUnits="userSpaceOnUse" color-interpolation-filters="sRGB">
<feFlood flood-opacity="0" result="BackgroundImageFix"/>
<feColorMatrix in="SourceAlpha" type="matrix" values="0 0 0 0 0 0 0 0 0 0 0 0 0 0 0 0 0 0 127 0" result="hardAlpha"/>
<feOffset dx="10" dy="4"/>
<feGaussianBlur stdDeviation="15"/>
<feComposite in2="hardAlpha" operator="out"/>
<feColorMatrix type="matrix" values="0 0 0 0 0 0 0 0 0 0 0 0 0 0 0 0 0 0 0.17 0"/>
<feBlend mode="normal" in2="BackgroundImageFix" result="effect1_dropShadow_4248_17575"/>
<feBlend mode="normal" in="SourceGraphic" in2="effect1_dropShadow_4248_17575" result="shape"/>
</filter>
<filter id="filter3_d_4248_17575" x="47.5635" y="176.906" width="138.62" height="135.625" filterUnits="userSpaceOnUse" color-interpolation-filters="sRGB">
<feFlood flood-opacity="0" result="BackgroundImageFix"/>
<feColorMatrix in="SourceAlpha" type="matrix" values="0 0 0 0 0 0 0 0 0 0 0 0 0 0 0 0 0 0 127 0" result="hardAlpha"/>
<feOffset dx="10" dy="4"/>
<feGaussianBlur stdDeviation="15"/>
<feComposite in2="hardAlpha" operator="out"/>
<feColorMatrix type="matrix" values="0 0 0 0 0 0 0 0 0 0 0 0 0 0 0 0 0 0 0.17 0"/>
<feBlend mode="normal" in2="BackgroundImageFix" result="effect1_dropShadow_4248_17575"/>
<feBlend mode="normal" in="SourceGraphic" in2="effect1_dropShadow_4248_17575" result="shape"/>
</filter>
<filter id="filter4_d_4248_17575" x="612.521" y="88.4336" width="158.509" height="154.777" filterUnits="userSpaceOnUse" color-interpolation-filters="sRGB">
<feFlood flood-opacity="0" result="BackgroundImageFix"/>
<feColorMatrix in="SourceAlpha" type="matrix" values="0 0 0 0 0 0 0 0 0 0 0 0 0 0 0 0 0 0 127 0" result="hardAlpha"/>
<feOffset dx="10" dy="4"/>
<feGaussianBlur stdDeviation="15"/>
<feComposite in2="hardAlpha" operator="out"/>
<feColorMatrix type="matrix" values="0 0 0 0 0 0 0 0 0 0 0 0 0 0 0 0 0 0 0.17 0"/>
<feBlend mode="normal" in2="BackgroundImageFix" result="effect1_dropShadow_4248_17575"/>
<feBlend mode="normal" in="SourceGraphic" in2="effect1_dropShadow_4248_17575" result="shape"/>
</filter>
<filter id="filter5_d_4248_17575" x="54.7402" y="372.504" width="170.611" height="166.397" filterUnits="userSpaceOnUse" color-interpolation-filters="sRGB">
<feFlood flood-opacity="0" result="BackgroundImageFix"/>
<feColorMatrix in="SourceAlpha" type="matrix" values="0 0 0 0 0 0 0 0 0 0 0 0 0 0 0 0 0 0 127 0" result="hardAlpha"/>
<feOffset dx="10" dy="4"/>
<feGaussianBlur stdDeviation="15"/>
<feComposite in2="hardAlpha" operator="out"/>
<feColorMatrix type="matrix" values="0 0 0 0 0 0 0 0 0 0 0 0 0 0 0 0 0 0 0.17 0"/>
<feBlend mode="normal" in2="BackgroundImageFix" result="effect1_dropShadow_4248_17575"/>
<feBlend mode="normal" in="SourceGraphic" in2="effect1_dropShadow_4248_17575" result="shape"/>
</filter>
<filter id="filter6_d_4248_17575" x="489.75" y="3.81494" width="228.475" height="107.014" filterUnits="userSpaceOnUse" color-interpolation-filters="sRGB">
<feFlood flood-opacity="0" result="BackgroundImageFix"/>
<feColorMatrix in="SourceAlpha" type="matrix" values="0 0 0 0 0 0 0 0 0 0 0 0 0 0 0 0 0 0 127 0" result="hardAlpha"/>
<feOffset dx="10" dy="4"/>
<feGaussianBlur stdDeviation="15"/>
<feComposite in2="hardAlpha" operator="out"/>
<feColorMatrix type="matrix" values="0 0 0 0 0 0 0 0 0 0 0 0 0 0 0 0 0 0 0.17 0"/>
<feBlend mode="normal" in2="BackgroundImageFix" result="effect1_dropShadow_4248_17575"/>
<feBlend mode="normal" in="SourceGraphic" in2="effect1_dropShadow_4248_17575" result="shape"/>
</filter>
</defs>
</svg>
