<svg xmlns="http://www.w3.org/2000/svg" xmlns:xlink="http://www.w3.org/1999/xlink" viewBox="0 0 2835.71 2800"><defs><linearGradient id="b6503421-5cc6-4e65-95cb-966431ec528c" x1="3014.71" y1="3104.15" x2="1126.96" y2="1094.62" gradientUnits="userSpaceOnUse"><stop offset="0" stop-color="#dae3fe"/><stop offset="1" stop-color="#e9effd"/></linearGradient><linearGradient id="a6a4cc42-bc91-40eb-91bf-dfce41360c72" x1="1603.46" y1="1988.01" x2="1335.56" y2="3128.31" gradientUnits="userSpaceOnUse"><stop offset="0" stop-color="#09005d"/><stop offset="1" stop-color="#1a0f91"/></linearGradient><linearGradient id="badb3477-2388-4ae8-ab00-05d9acca66c9" x1="1470.51" y1="105.47" x2="1381.21" y2="2234.92" xlink:href="#a6a4cc42-bc91-40eb-91bf-dfce41360c72"/><linearGradient id="b363a4ba-aea6-4c4c-bd11-47523c6cbf44" x1="1462.65" y1="1846.51" x2="1476.39" y2="2684.56" xlink:href="#a6a4cc42-bc91-40eb-91bf-dfce41360c72"/><linearGradient id="a67205d5-4326-46e8-b128-048f368eba93" x1="1573.35" y1="1488.5" x2="1858.42" y2="932.1" gradientUnits="userSpaceOnUse"><stop offset="0" stop-color="#4f52ff"/><stop offset="1" stop-color="#4042e2"/></linearGradient><linearGradient id="f16454c3-b873-41c5-ad6f-d935949b735e" x1="1699.52" y1="1553.15" x2="1984.59" y2="996.74" xlink:href="#a67205d5-4326-46e8-b128-048f368eba93"/><linearGradient id="ef874567-e4f1-4119-9010-88ed54657880" x1="1682.37" y1="1544.36" x2="1967.44" y2="987.95" xlink:href="#a67205d5-4326-46e8-b128-048f368eba93"/><linearGradient id="aa1fd04f-88f6-4733-a9e9-273d269edba9" x1="1904.68" y1="1658.26" x2="2189.75" y2="1101.85" xlink:href="#a67205d5-4326-46e8-b128-048f368eba93"/><linearGradient id="edabafa0-c3f8-4820-85f2-c29c83561a58" x1="1876.32" y1="1643.73" x2="2161.39" y2="1087.32" xlink:href="#a67205d5-4326-46e8-b128-048f368eba93"/><linearGradient id="f53b2f80-ed00-408a-ac18-81f123c7cf6e" x1="1988.34" y1="1701.12" x2="2273.41" y2="1144.72" xlink:href="#a67205d5-4326-46e8-b128-048f368eba93"/><linearGradient id="ea2811dd-7814-48c3-9273-6ab732948fb7" x1="2102.71" y1="1759.72" x2="2387.79" y2="1203.31" xlink:href="#a67205d5-4326-46e8-b128-048f368eba93"/><clipPath id="f65e779f-e1b9-4e74-93e7-28da0b0b7465"><path d="M374.89,813.51A155.81,155.81,0,1,0,530.7,969.32,155.81,155.81,0,0,0,374.89,813.51Zm0,244.58a88.77,88.77,0,1,1,88.77-88.77A88.77,88.77,0,0,1,374.89,1058.09Z" fill="#fff" opacity="0.57"/></clipPath><linearGradient id="f7418efd-ac86-4f0f-b92f-7834bc120ac3" x1="1047.53" y1="56.59" x2="185.44" y2="1334.26" gradientUnits="userSpaceOnUse"><stop offset="0" stop-color="#ff928e"/><stop offset="1" stop-color="#fe7062"/></linearGradient><clipPath id="aef68b37-9043-4f83-979c-ea8aa625b267"><path d="M754.71,813.51A155.81,155.81,0,1,0,910.53,969.32,155.81,155.81,0,0,0,754.71,813.51Zm0,244.58a88.77,88.77,0,1,1,88.77-88.77A88.77,88.77,0,0,1,754.71,1058.09Z" fill="#fff" opacity="0.57"/></clipPath><linearGradient id="a7c17bf5-c411-4e0c-8f45-3b38b866d0fb" x1="1290.98" y1="220.85" x2="428.89" y2="1498.53" xlink:href="#f7418efd-ac86-4f0f-b92f-7834bc120ac3"/><clipPath id="a25f929b-d28f-4985-a9b1-d66806c8e5fe"><path d="M1134.54,813.51a155.81,155.81,0,1,0,155.81,155.81A155.81,155.81,0,0,0,1134.54,813.51Zm0,244.58a88.77,88.77,0,1,1,88.77-88.77A88.77,88.77,0,0,1,1134.54,1058.09Z" fill="#fff" opacity="0.57"/></clipPath><linearGradient id="bd912b6c-b38d-47ec-80fb-65e0b592d460" x1="1592.23" y1="424.12" x2="730.14" y2="1701.79" xlink:href="#f7418efd-ac86-4f0f-b92f-7834bc120ac3"/><linearGradient id="a383017a-a228-4f20-8935-0fb52a7ea4ed" x1="466.44" y1="1509.21" x2="347.95" y2="1867.46" gradientTransform="matrix(0.38, 0.92, -0.92, 0.38, 1733.67, 566.63)" gradientUnits="userSpaceOnUse"><stop offset="0" stop-color="#febbba"/><stop offset="1" stop-color="#ff928e"/></linearGradient><linearGradient id="e4f1c845-6b4f-4bf6-b773-88f1b71f6557" x1="549.92" y1="1652.71" x2="471.86" y2="1888.71" gradientTransform="matrix(1, 0, 0, 1, 0, 0)" xlink:href="#a383017a-a228-4f20-8935-0fb52a7ea4ed"/><linearGradient id="fd979353-3402-492d-92aa-d5adaa8a9e0b" x1="675.33" y1="1523.94" x2="597.27" y2="1759.94" gradientTransform="matrix(1, 0, 0, 1, 0, 0)" xlink:href="#a383017a-a228-4f20-8935-0fb52a7ea4ed"/><linearGradient id="a8693d41-d8e3-4774-a643-4816df8353e4" x1="801.91" y1="1656.83" x2="723.85" y2="1892.83" gradientTransform="matrix(1, 0, 0, 1, 0, 0)" xlink:href="#a383017a-a228-4f20-8935-0fb52a7ea4ed"/><linearGradient id="f1b97042-10ff-41c2-ba9c-412da3b60e91" x1="986.19" y1="1458.84" x2="908.13" y2="1694.84" gradientTransform="matrix(1, 0, 0, 1, 0, 0)" xlink:href="#a383017a-a228-4f20-8935-0fb52a7ea4ed"/><linearGradient id="ba223204-793a-4b0d-a338-c8e326fe66c7" x1="1117.19" y1="1590.95" x2="1039.13" y2="1826.95" xlink:href="#a67205d5-4326-46e8-b128-048f368eba93"/><linearGradient id="e8bed684-0dcb-4302-922f-a54ed236e262" x1="2302.04" y1="1384.56" x2="2555.59" y2="1384.56" gradientTransform="translate(1690.41 -1311.9) rotate(45)" xlink:href="#b6503421-5cc6-4e65-95cb-966431ec528c"/><linearGradient id="a7a0205a-02a1-4604-a2d1-da50ee7a987e" x1="2301.49" y1="977.09" x2="2555.05" y2="977.09" gradientTransform="translate(1402.13 -1430.86) rotate(45)" xlink:href="#b6503421-5cc6-4e65-95cb-966431ec528c"/><linearGradient id="a64339aa-5cec-483b-a3c6-f0fbf256f547" x1="2575.91" y1="1656.54" x2="2183.54" y2="2028.91" gradientUnits="userSpaceOnUse"><stop offset="0" stop-color="#fdf53f"/><stop offset="1" stop-color="#d93c65"/></linearGradient><linearGradient id="a87a1f40-0d53-401f-93c5-65b6b9943767" x1="-42.72" y1="2665.49" x2="-571.04" y2="3240.15" gradientTransform="matrix(-1, 0, 0, 1, 2263.28, 0)" xlink:href="#a6a4cc42-bc91-40eb-91bf-dfce41360c72"/><linearGradient id="ab327f3b-fd44-4572-97c5-1fc8573f5e29" x1="-214.21" y1="2708.17" x2="-167.28" y2="2708.17" gradientTransform="matrix(-1, 0, 0, 1, 2263.28, 0)" xlink:href="#a383017a-a228-4f20-8935-0fb52a7ea4ed"/><linearGradient id="a529a378-9a40-4afd-811c-30b632c62e3e" x1="-325.48" y1="2349.35" x2="-170.32" y2="2349.35" gradientTransform="matrix(-1, 0, 0, 1, 2263.28, 0)" xlink:href="#a67205d5-4326-46e8-b128-048f368eba93"/><linearGradient id="bae284cb-6770-45bd-a124-58c293aa363d" x1="-161.24" y1="2556.53" x2="-689.56" y2="3131.19" gradientTransform="matrix(-1, 0, 0, 1, 2263.28, 0)" xlink:href="#a6a4cc42-bc91-40eb-91bf-dfce41360c72"/><linearGradient id="f365967e-35f3-492c-8a0e-ecf5a822f353" x1="-383.33" y1="2705.76" x2="-342.81" y2="2705.76" gradientTransform="matrix(-1, 0, 0, 1, 2263.28, 0)" xlink:href="#a383017a-a228-4f20-8935-0fb52a7ea4ed"/><linearGradient id="e3158980-c608-42f5-b28d-fa88379f1488" x1="-427" y1="2344.27" x2="-206.72" y2="2344.27" gradientTransform="matrix(-1, 0, 0, 1, 2263.28, 0)" xlink:href="#a67205d5-4326-46e8-b128-048f368eba93"/><linearGradient id="b08e66e2-a389-49f0-b577-905900074aee" x1="25314.66" y1="-6215.3" x2="24215.59" y2="-5871.84" gradientTransform="matrix(-1, 0, 0, 1, 2263.28, 0)" xlink:href="#f7418efd-ac86-4f0f-b92f-7834bc120ac3"/><linearGradient id="a3ca77bd-1487-4e30-a951-a31763edf0c5" x1="-21.1" y1="1483.89" x2="218.64" y2="1483.89" gradientTransform="matrix(-1, 0, 0, 1, 2263.28, 0)" xlink:href="#a383017a-a228-4f20-8935-0fb52a7ea4ed"/><linearGradient id="ff9f7cdf-4f7d-4131-b520-9c380e6740ef" x1="9408.25" y1="1443.7" x2="9569.12" y2="1809.73" gradientTransform="translate(-7310.21)" xlink:href="#a383017a-a228-4f20-8935-0fb52a7ea4ed"/><linearGradient id="b993f51a-869d-49da-9b19-abe3ca1ddd7d" x1="217.49" y1="1321.8" x2="284.62" y2="1218.6" gradientTransform="matrix(-1, 0, 0, 1, 2263.28, 0)" xlink:href="#a383017a-a228-4f20-8935-0fb52a7ea4ed"/><linearGradient id="b1287937-3fc0-4216-a881-3beccc812691" x1="25269.66" y1="-6359.36" x2="24170.58" y2="-6015.89" gradientTransform="matrix(-1, 0, 0, 1, 2263.28, 0)" xlink:href="#f7418efd-ac86-4f0f-b92f-7834bc120ac3"/><linearGradient id="f34ad25a-39c6-4df0-8011-14736c1ba16d" x1="-545.71" y1="1823.48" x2="-242.31" y2="1823.48" gradientTransform="matrix(-1, 0, 0, 1, 2263.28, 0)" xlink:href="#a383017a-a228-4f20-8935-0fb52a7ea4ed"/><linearGradient id="bed68f86-54c3-49b9-923d-5d7a8416685f" x1="-150.52" y1="1607.77" x2="16.3" y2="2302.89" gradientTransform="matrix(-1, 0, 0, 1, 2263.28, 0)" xlink:href="#a6a4cc42-bc91-40eb-91bf-dfce41360c72"/><linearGradient id="fd4de92d-294c-447f-b4fb-08bb34644ea1" x1="-46.07" y1="1498.2" x2="-81.6" y2="1654.23" gradientTransform="matrix(-1, 0, 0, 1, 2263.28, 0)" xlink:href="#a67205d5-4326-46e8-b128-048f368eba93"/><linearGradient id="b017b02d-d461-48d3-a0dc-a06e4fe95bff" x1="-64.67" y1="1563.65" x2="-81.66" y2="1665.61" gradientTransform="matrix(-1, 0, 0, 1, 2263.28, 0)" xlink:href="#a67205d5-4326-46e8-b128-048f368eba93"/><linearGradient id="aa05a5bf-ee0e-4628-9bea-db3c9bda77ca" x1="-264.84" y1="1791.67" x2="-170.32" y2="1791.67" gradientTransform="matrix(-1, 0, 0, 1, 2263.28, 0)" xlink:href="#a383017a-a228-4f20-8935-0fb52a7ea4ed"/><linearGradient id="bb3a47b5-4f9e-4b65-8a23-195107960c09" x1="-312.74" y1="1499.13" x2="-192.79" y2="1499.13" gradientTransform="matrix(-1, 0, 0, 1, 2263.28, 0)" xlink:href="#a383017a-a228-4f20-8935-0fb52a7ea4ed"/><linearGradient id="a98b5da5-6204-4463-ae0a-35b467c36581" x1="-893.1" y1="-1134.2" x2="-1047.29" y2="-930.23" gradientTransform="matrix(-0.81, -0.58, -0.58, 0.81, 1084.53, 1733.69)" xlink:href="#a383017a-a228-4f20-8935-0fb52a7ea4ed"/><linearGradient id="ab91a657-2e38-446d-908b-8cd006d20af2" x1="-1010.86" y1="-1085.21" x2="-826.68" y2="-1085.21" gradientTransform="matrix(-0.81, -0.58, -0.58, 0.81, 1084.53, 1733.69)" xlink:href="#a6a4cc42-bc91-40eb-91bf-dfce41360c72"/><linearGradient id="aab11fcc-4ac7-478a-9447-dc7f04a2ac18" x1="-1118.92" y1="-972.67" x2="-995.25" y2="-1099.55" gradientTransform="matrix(-0.81, -0.58, -0.58, 0.81, 1084.53, 1733.69)" xlink:href="#a383017a-a228-4f20-8935-0fb52a7ea4ed"/></defs><title>img-personalizado-3</title><g id="fe6805a2-b659-4860-905d-656e5e1aa5e4" data-name="Capa 2"><g id="acda83d3-b5d0-4898-a0ec-7fd2179d8d90" data-name="Illustration"><path d="M2445.86,2298.43C2276.61,2477,2052,2607.88,1782.55,2660.74c-620.43,121.7-1459-63.81-1647.91-747.88C19.53,1495.94,100.13,1008.29,336.57,647,596.45,250,1065.62-18,1545.79.94c469.8,18.49,930.29,388.32,1124.92,799.66C2916.15,1319.32,2807.12,1917.34,2445.86,2298.43Z" fill="url(#b6503421-5cc6-4e65-95cb-966431ec528c)"/><g opacity="0.3"><path d="M801.93,290.94A10.14,10.14,0,0,1,788,287.5c-5.63-9.31-11.75-18.52-18.19-27.37a10.13,10.13,0,0,1,2.08-14l.16-.12a10.13,10.13,0,0,1,14.17,2.24c6.77,9.31,13.22,19,19.15,28.81a10.15,10.15,0,0,1-2.55,13.33C802.54,290.55,802.24,290.75,801.93,290.94Zm-66.41-71.72c-7.58-7.89-15.57-15.52-23.76-22.7a10.14,10.14,0,0,1,13.38-15.25c8.61,7.55,17,15.59,25,23.88a10.14,10.14,0,0,1-.28,14.35,11,11,0,0,1-.91.78A10.16,10.16,0,0,1,735.52,219.22Zm-66.22-55c-9.12-6-18.61-11.64-28.22-16.82a10.15,10.15,0,0,1,9.63-17.86c10.12,5.45,20.11,11.41,29.71,17.71a10.14,10.14,0,1,1-11.12,17Zm-76.86-38.81c-10.24-3.8-20.76-7.19-31.28-10.1a10.14,10.14,0,1,1,5.4-19.55c11.07,3.06,22.15,6.63,32.93,10.62a10.15,10.15,0,1,1-7,19Zm-83.59-20.72c-10.8-1.42-21.82-2.41-32.74-2.91a10.15,10.15,0,0,1,.95-20.27c11.49.54,23.08,1.57,34.44,3.07a10.14,10.14,0,1,1-2.65,20.11ZM422.76,103c-10.86,1-21.82,2.48-32.56,4.4a10.15,10.15,0,0,1-3.57-20c11.3-2,22.84-3.58,34.27-4.63A10.15,10.15,0,1,1,422.76,103ZM106.06,307A10.15,10.15,0,0,1,102,293.22c5.46-10.1,11.44-20.09,17.77-29.7a10.15,10.15,0,0,1,17,11.16c-6,9.12-11.69,18.61-16.88,28.2a10,10,0,0,1-2.79,3.25A10.15,10.15,0,0,1,106.06,307ZM338.49,120.39c-10.37,3.39-20.71,7.27-30.75,11.54a10.14,10.14,0,1,1-7.93-18.67c10.56-4.49,21.45-8.58,32.37-12.15a10.15,10.15,0,0,1,9.28,17.73A9.88,9.88,0,0,1,338.49,120.39ZM154.76,233.18a10.15,10.15,0,0,1-.91-14.32c7.59-8.61,15.65-17,24-25a10.14,10.14,0,0,1,14,14.65c-7.88,7.56-15.54,15.54-22.75,23.73a10.35,10.35,0,0,1-1.5,1.39A10.15,10.15,0,0,1,154.76,233.18Zm105.47-77c-9.34,5.62-18.56,11.72-27.4,18.13A10.14,10.14,0,0,1,220.75,158l.17-.12c9.31-6.75,19-13.17,28.84-19.09a10.15,10.15,0,0,1,11.37,16.77C260.84,155.8,260.54,156,260.23,156.19Z" fill="#91b3fa"/><path d="M88.92,371.59a10.07,10.07,0,0,0,3.51-4.94c1.62-5,3.37-10,5.2-14.93a10.14,10.14,0,1,0-19-7.06c-1.93,5.19-3.77,10.47-5.48,15.7a10.15,10.15,0,0,0,15.78,11.23Z" fill="#91b3fa"/></g><g opacity="0.3"><path d="M115.54,679.72a10.16,10.16,0,0,0,2.82-12.85c-2.46-4.61-4.87-9.36-7.14-14.1a10.15,10.15,0,1,0-18.29,8.79c2.4,5,4.93,10,7.52,14.85a10.14,10.14,0,0,0,13.72,4.18A9.64,9.64,0,0,0,115.54,679.72Z" fill="#91b3fa"/><path d="M686.41,821.18A10.15,10.15,0,1,1,675,804.42c8.8-6,17.49-12.5,25.92-19.34a10.15,10.15,0,0,1,12.79,15.76q-5.48,4.44-11.06,8.67C697.31,813.53,691.86,817.46,686.41,821.18Zm53.4-57.55a10.14,10.14,0,0,1-.46-14.34c7.35-7.85,14.46-16.09,21.11-24.49a10.14,10.14,0,1,1,15.91,12.58c-7,8.86-14.48,17.53-22.23,25.79a9.85,9.85,0,0,1-1.28,1.15A10.14,10.14,0,0,1,739.81,763.63ZM638.73,849.15c-10.11,5-20.56,9.7-31.09,13.87a10.14,10.14,0,1,1-7.47-18.86c10-4,19.92-8.39,29.51-13.17a10.14,10.14,0,0,1,10.66,17.16A10.58,10.58,0,0,1,638.73,849.15Zm155-153.79a10.13,10.13,0,0,1-3.6-13.88c5.45-9.26,10.56-18.86,15.2-28.53a10.14,10.14,0,1,1,18.29,8.77c-4.89,10.19-10.27,20.3-16,30a10.12,10.12,0,0,1-13.88,3.59ZM555,879.8c-11,2.69-22.18,4.94-33.36,6.7a10.14,10.14,0,0,1-3.16-20c10.62-1.68,21.29-3.81,31.69-6.36A10.14,10.14,0,1,1,555,879.8Zm-88.41,11.55c-11.3.23-22.75,0-34-.74a10.15,10.15,0,0,1,1.29-20.25c10.71.68,21.59.92,32.33.71a10.14,10.14,0,1,1,.4,20.28Zm-88.82-8c-11.09-2.24-22.21-5-33.05-8.13a10.14,10.14,0,1,1,5.67-19.48c10.3,3,20.86,5.59,31.4,7.72a10.15,10.15,0,1,1-4,19.89Zm-85-27.18c-10.33-4.61-20.58-9.72-30.47-15.18a10.14,10.14,0,0,1,9.81-17.76c9.39,5.19,19.12,10,28.94,14.42a10.14,10.14,0,0,1-8.28,18.52ZM215.87,811c-9-6.76-17.91-14-26.36-21.52A10.14,10.14,0,1,1,203,774.3c8,7.14,16.45,14,25,20.43A10.15,10.15,0,1,1,215.87,811ZM150.79,750c-5.42-6.31-10.71-12.87-15.72-19.49-1.82-2.4-3.6-4.8-5.35-7.23A10,10,0,0,1,132,709.16a10.14,10.14,0,0,1,14.17,2.27c1.66,2.3,3.36,4.6,5.08,6.87,4.77,6.3,9.79,12.53,14.94,18.53a10.14,10.14,0,0,1-1.09,14.3l-.49.4A10.14,10.14,0,0,1,150.79,750Z" fill="#91b3fa"/><path d="M840.64,615.08a10.1,10.1,0,0,0,3.53-5c1.67-5.23,3.27-10.6,4.74-16a10.14,10.14,0,0,0-19.56-5.39c-1.4,5.09-2.91,10.18-4.5,15.15a10.14,10.14,0,0,0,15.79,11.17Z" fill="#91b3fa"/></g><path d="M761.2,460.37a4.72,4.72,0,0,0-3-4.59L704.34,435A251.21,251.21,0,0,0,676,358.67l27.12-50.9a4.73,4.73,0,0,0-.71-5.45l-47.13-50.69a4.76,4.76,0,0,0-5.4-1.11l-52.72,23.36A251.21,251.21,0,0,0,523,240l-16.81-55.2a4.74,4.74,0,0,0-4.37-3.36L432.68,179a4.71,4.71,0,0,0-4.59,3l-20.78,53.83A251.63,251.63,0,0,0,331,264.21l-50.89-27.12a4.74,4.74,0,0,0-5.46.71l-50.69,47.14a4.73,4.73,0,0,0-1.1,5.39l23.36,52.73a251,251,0,0,0-33.85,74.07L157.14,434a4.73,4.73,0,0,0-3.36,4.36l-2.51,69.17a4.74,4.74,0,0,0,3,4.6l53.83,20.78a251.31,251.31,0,0,0,28.39,76.33L209.4,660.08a4.74,4.74,0,0,0,.71,5.46l47.13,50.69a4.75,4.75,0,0,0,5.4,1.1L315.36,694a251.72,251.72,0,0,0,74.08,33.85L406.25,783a4.74,4.74,0,0,0,4.37,3.35l69.17,2.52a4.74,4.74,0,0,0,4.59-3L505.16,732a251.36,251.36,0,0,0,76.34-28.39l50.89,27.13a4.75,4.75,0,0,0,5.46-.72l50.68-47.13a4.74,4.74,0,0,0,1.11-5.4L666.28,624.8a251.27,251.27,0,0,0,33.85-74.07l55.2-16.82a4.73,4.73,0,0,0,3.36-4.36Z" fill="#91b3fa"/><path d="M489.7,544.92a69.49,69.49,0,1,1,8.58-5.55A69.64,69.64,0,0,1,489.7,544.92ZM405,469a53.35,53.35,0,1,0,25.56-31.84,54,54,0,0,0-6.65,4.3A53,53,0,0,0,405,469Z" fill="#bdd0fb"/><path d="M557.81,620.34A172.89,172.89,0,0,0,571.27,609h0q2-1.89,4-3.86a171,171,0,0,0,17.86-20.77l.22-.3.62-.86,1.19-1.68a4.07,4.07,0,0,0-.09-4.77,3.86,3.86,0,0,0-.92-.88,4.06,4.06,0,0,0-5.65,1,163.08,163.08,0,0,1-253.09,17.81,165.36,165.36,0,0,1-10.78-12.84A163,163,0,0,1,343.8,364.42c65.84-61.21,169.12-57.44,230.31,8.36a164.25,164.25,0,0,1,10.65,12.68,162.49,162.49,0,0,1,29.42,64.33,4.06,4.06,0,0,0,7.94-1.69,170.65,170.65,0,0,0-30.89-67.54q-5.24-6.9-11.17-13.31c-64.24-69.08-172.73-73-241.79-8.78a171.12,171.12,0,0,0-20.1,228.3,175.56,175.56,0,0,0,11.32,13.48,171.1,171.1,0,0,0,228.32,20.09Z" fill="#bdd0fb"/><g opacity="0.3"><path d="M1240.18,294.47a6.26,6.26,0,0,0,2.07-7.22c-1.88-5-3.94-10-6.13-14.81a6.27,6.27,0,1,0-11.43,5.14c2.08,4.62,4,9.37,5.85,14.12a6.28,6.28,0,0,0,8.08,3.64A6.21,6.21,0,0,0,1240.18,294.47Z" fill="#91b3fa"/><path d="M1218.49,251.53a6.27,6.27,0,0,1-8.61-2.1,260.51,260.51,0,0,0-14.78-21.74q-1.68-2.2-3.4-4.38a6.28,6.28,0,0,1,1-8.8,6.48,6.48,0,0,1,8.8,1c1.21,1.52,2.39,3.05,3.56,4.59a271.83,271.83,0,0,1,15.5,22.79,6.26,6.26,0,0,1-1.57,8.24C1218.85,251.29,1218.68,251.41,1218.49,251.53Zm-48-51.93a259.92,259.92,0,0,0-24-20.94,6.26,6.26,0,1,1,7.65-9.92,269.47,269.47,0,0,1,25.11,21.95,6.27,6.27,0,0,1,0,8.86,5.43,5.43,0,0,1-.68.59A6.26,6.26,0,0,1,1170.48,199.6Zm-50.31-38.76a258.68,258.68,0,0,0-28.37-14.41,6.26,6.26,0,1,1,5-11.5A269.67,269.67,0,0,1,1126.52,150a6.28,6.28,0,0,1,2.23,8.58,6.48,6.48,0,0,1-1.62,1.82A6.27,6.27,0,0,1,1120.17,160.84Zm-58.3-25.21a259.09,259.09,0,0,0-31-7,6.27,6.27,0,1,1,2-12.37,273.58,273.58,0,0,1,32.53,7.37,6.27,6.27,0,1,1-3.51,12Zm-62.69-10.21a261.51,261.51,0,0,0-31.8.71,6.27,6.27,0,1,1-1-12.49,276.62,276.62,0,0,1,33.33-.75,6.27,6.27,0,0,1-.48,12.53Zm-63.27,5.31a257.18,257.18,0,0,0-30.64,8.44,6.26,6.26,0,1,1-4.07-11.85,267.56,267.56,0,0,1,32.14-8.85,6.27,6.27,0,0,1,5.07,11.13A6.2,6.2,0,0,1,935.91,130.73Zm-60,20.62a256.21,256.21,0,0,0-27.65,15.72,6.27,6.27,0,0,1-6.86-10.5,272.53,272.53,0,0,1,29-16.48,6.26,6.26,0,0,1,6.54,10.62A6,6,0,0,1,875.89,151.35Zm-85,57.05a6.26,6.26,0,0,1-.34-8.85,271.68,271.68,0,0,1,20.8-20.18c1.1-1,2.21-1.92,3.33-2.87a6.27,6.27,0,1,1,8.07,9.59c-1.05.88-2.09,1.78-3.15,2.71a262.07,262.07,0,0,0-19.86,19.26,5.71,5.71,0,0,1-.82.74A6.27,6.27,0,0,1,790.86,208.4Z" fill="#91b3fa"/></g><g opacity="0.3"><path d="M1149.54,601.29A275.67,275.67,0,0,1,1122,619.12a6.27,6.27,0,0,1-6.17-10.92,258,258,0,0,0,26.26-17,6.26,6.26,0,0,1,7.5,10Zm16.35-21.3a6.26,6.26,0,0,1,.27-8.85,262.55,262.55,0,0,0,21.46-22.79,6.27,6.27,0,0,1,9.63,8,273.05,273.05,0,0,1-22.51,23.88,5.37,5.37,0,0,1-.51.44A6.26,6.26,0,0,1,1165.89,580Zm-73.39,53.49a272.37,272.37,0,0,1-31,10.65,6.27,6.27,0,0,1-3.35-12.08,260.5,260.5,0,0,0,29.61-10.16,6.27,6.27,0,0,1,6.17,10.79A6.21,6.21,0,0,1,1092.5,633.48ZM1208,531.8a6.26,6.26,0,0,1-1.86-8.66,257,257,0,0,0,15.32-27.29,6.27,6.27,0,0,1,11.28,5.46,270.32,270.32,0,0,1-16.07,28.62,6.17,6.17,0,0,1-1.49,1.6A6.25,6.25,0,0,1,1208,531.8ZM1029.39,650.92a270.73,270.73,0,0,1-32.68,2.87,6.27,6.27,0,0,1-.34-12.53,256.08,256.08,0,0,0,31.17-2.74,6.27,6.27,0,0,1,1.85,12.4Zm-65.46,1.8a276,276,0,0,1-32.43-5,6.26,6.26,0,0,1,2.67-12.24,263.07,263.07,0,0,0,30.93,4.79,6.27,6.27,0,0,1-1.17,12.48Zm-64-13.93a270.58,270.58,0,0,1-30.28-12.67,6.27,6.27,0,0,1,5.53-11.25A257.13,257.13,0,0,0,904,627a6.27,6.27,0,0,1-4.12,11.84Z" fill="#91b3fa"/><path d="M1243.2,473.64a6.19,6.19,0,0,0,2.14-3c1.73-5.08,3.32-10.23,4.72-15.31A6.27,6.27,0,1,0,1238,452c-1.33,4.85-2.84,9.76-4.49,14.61a6.26,6.26,0,0,0,9.72,7Z" fill="#91b3fa"/></g><path d="M1191.87,366a3.19,3.19,0,0,0-2-3.08l-36-13.9a168.18,168.18,0,0,0-19-51.08L1153,263.86a3.18,3.18,0,0,0-.48-3.65L1121,226.29a3.17,3.17,0,0,0-3.61-.74l-35.28,15.63a168.21,168.21,0,0,0-49.57-22.65l-11.25-36.94a3.17,3.17,0,0,0-2.92-2.24L972,177.67a3.17,3.17,0,0,0-3.07,2l-13.91,36a168.22,168.22,0,0,0-51.07,19l-34.06-18.15a3.18,3.18,0,0,0-3.65.48l-33.92,31.54a3.17,3.17,0,0,0-.74,3.61l15.63,35.28A168.07,168.07,0,0,0,824.59,337l-36.94,11.25a3.19,3.19,0,0,0-2.25,2.92l-1.68,46.29a3.18,3.18,0,0,0,2,3.07l36,13.91a168.22,168.22,0,0,0,19,51.07l-18.15,34.06a3.17,3.17,0,0,0,.48,3.65l31.54,33.92a3.17,3.17,0,0,0,3.61.74l35.28-15.63a168,168,0,0,0,49.57,22.65l11.25,36.94a3.18,3.18,0,0,0,2.92,2.25l46.29,1.68a3.18,3.18,0,0,0,3.07-2l13.9-36a168.47,168.47,0,0,0,51.08-19l34.06,18.15a3.18,3.18,0,0,0,3.65-.48l33.92-31.54a3.17,3.17,0,0,0,.74-3.61L1128.35,476A168.27,168.27,0,0,0,1151,426.44l36.94-11.26a3.17,3.17,0,0,0,2.24-2.92Z" fill="#91b3fa"/><path d="M1010.59,423.28a47.18,47.18,0,1,1,5.9-3.82A47.05,47.05,0,0,1,1010.59,423.28ZM957.23,398.5a34.85,34.85,0,0,0,47.33,13.8h0A34.86,34.86,0,1,0,971,351.17a36.38,36.38,0,0,0-4.3,2.78A34.92,34.92,0,0,0,957.23,398.5Z" fill="#bdd0fb"/><path d="M1058,475.77q4.74-3.58,9.19-7.72A118.5,118.5,0,0,0,1083.06,450c.2-.3.41-.59.62-.88a6.27,6.27,0,0,0-10.28-7.18,105.65,105.65,0,0,1-14.74,16.95h0l-.91.84a104.59,104.59,0,0,1-45.56,24.36,106.4,106.4,0,0,1-28.25,3h-.23l-.72,0a104.87,104.87,0,0,1-73.43-33.59,107.33,107.33,0,0,1-7-8.31A105.51,105.51,0,1,1,1090,359.63a6.13,6.13,0,0,0,1.14,2.48,6.26,6.26,0,0,0,11.12-5.09,118,118,0,1,0-209.7,95.67,120.13,120.13,0,0,0,7.81,9.3A118.19,118.19,0,0,0,1058,475.77Z" fill="#bdd0fb"/><polygon points="1193.35 2140.8 1132.11 2563.36 1842.51 2563.36 1749.98 2140.8 1193.35 2140.8" fill="url(#a6a4cc42-bc91-40eb-91bf-dfce41360c72)"/><path d="M0,787.8V2045.51a190.8,190.8,0,0,0,185.88,190.74c459.37,11.85,2066.06,40.57,2503.35,34.12A140.39,140.39,0,0,0,2827.45,2134c8.43-292.18,22.13-994.79-28.55-1321a144.48,144.48,0,0,0-138.14-122.28c-384.9-12.31-2088.09-51.41-2525.18-41.59A138.68,138.68,0,0,0,0,787.8Z" fill="url(#badb3477-2388-4ae8-ab00-05d9acca66c9)"/><path d="M78.92,781.68V1976.59a110.54,110.54,0,0,0,108.89,110.53l2438.51,30.13a107.58,107.58,0,0,0,109.19-107.17l4.08-1184.24a78.67,78.67,0,0,0-76.76-79L166.24,696.45A85.24,85.24,0,0,0,78.92,781.68Z" fill="#91b3fa"/><path d="M2753.87,2166.22h-.06L78.86,2120.64a3.37,3.37,0,0,1-3.32-3.43,3.43,3.43,0,0,1,3.44-3.33l2675,45.58a3.38,3.38,0,0,1-.06,6.76Z" fill="#91b3fa"/><path d="M1442.78,2221.89a31.22,31.22,0,1,1,31.22-31.22A31.25,31.25,0,0,1,1442.78,2221.89Zm0-55.67a24.45,24.45,0,1,0,24.45,24.45A24.48,24.48,0,0,0,1442.78,2166.22Z" fill="#91b3fa"/><path d="M1995.53,2675.72H955.81c-28.24,0-49.45-20.11-44-41.71l13.34-52.76c4-15.87,21.47-27.52,42.2-28.16l1002.33-31.28c21.66-.68,40.84,10.82,45.56,27.31l24,84C2045.55,2655,2024.24,2675.72,1995.53,2675.72Z" fill="url(#b363a4ba-aea6-4c4c-bd11-47523c6cbf44)"/><path d="M1515.51,2567.37a3.38,3.38,0,0,1,0-6.76l43-.63a3.46,3.46,0,0,1,3.43,3.33,3.38,3.38,0,0,1-3.33,3.43l-43,.63Z" fill="#91b3fa"/><path d="M950.31,2646.62a3.27,3.27,0,0,1-.54,0,3.37,3.37,0,0,1-2.8-3.87l6.13-38.38a42.81,42.81,0,0,1,41.71-36.11l455.56-6.66h.05a3.38,3.38,0,0,1,0,6.76L994.91,2575a36,36,0,0,0-35.14,30.41l-6.12,38.37A3.39,3.39,0,0,1,950.31,2646.62Z" fill="#91b3fa"/><g opacity="0.53"><rect x="1432.69" y="865.2" width="64.14" height="1131.26" fill="#fff"/><rect x="1539.86" y="865.2" width="64.14" height="1131.26" fill="#fff"/><rect x="1647.03" y="865.2" width="64.14" height="1131.26" fill="#fff"/><rect x="1754.2" y="865.2" width="64.14" height="1131.26" fill="#fff"/><rect x="1861.36" y="865.2" width="64.14" height="1131.26" fill="#fff"/><rect x="1968.53" y="865.2" width="64.14" height="1131.26" fill="#fff"/><rect x="2075.7" y="865.2" width="64.14" height="1131.26" fill="#fff"/></g><rect x="1432.69" y="1404.43" width="64.14" height="592.03" fill="url(#a67205d5-4326-46e8-b128-048f368eba93)"/><rect x="1539.86" y="1607.9" width="64.14" height="388.56" fill="url(#f16454c3-b873-41c5-ad6f-d935949b735e)"/><rect x="1647.03" y="1105.03" width="64.14" height="891.43" fill="url(#ef874567-e4f1-4119-9010-88ed54657880)"/><rect x="1754.2" y="1782.31" width="64.14" height="214.16" fill="url(#aa1fd04f-88f6-4733-a9e9-273d269edba9)"/><rect x="1861.36" y="1224.21" width="64.14" height="772.25" fill="url(#edabafa0-c3f8-4820-85f2-c29c83561a58)"/><rect x="1968.53" y="1357.92" width="64.14" height="638.54" fill="url(#f53b2f80-ed00-408a-ac18-81f123c7cf6e)"/><rect x="2075.7" y="1503.26" width="64.14" height="493.2" fill="url(#ea2811dd-7814-48c3-9273-6ab732948fb7)"/><path d="M374.89,813.51A155.81,155.81,0,1,0,530.7,969.32,155.81,155.81,0,0,0,374.89,813.51Zm0,244.58a88.77,88.77,0,1,1,88.77-88.77A88.77,88.77,0,0,1,374.89,1058.09Z" fill="#fff" opacity="0.57"/><g clip-path="url(#f65e779f-e1b9-4e74-93e7-28da0b0b7465)"><rect x="157.3" y="935.05" width="462.84" height="195.87" fill="url(#f7418efd-ac86-4f0f-b92f-7834bc120ac3)"/></g><path d="M754.71,813.51A155.81,155.81,0,1,0,910.53,969.32,155.81,155.81,0,0,0,754.71,813.51Zm0,244.58a88.77,88.77,0,1,1,88.77-88.77A88.77,88.77,0,0,1,754.71,1058.09Z" fill="#fff" opacity="0.57"/><g clip-path="url(#aef68b37-9043-4f83-979c-ea8aa625b267)"><rect x="537.12" y="859.35" width="462.84" height="271.58" fill="url(#a7c17bf5-c411-4e0c-8f45-3b38b866d0fb)"/></g><path d="M1134.54,813.51a155.81,155.81,0,1,0,155.81,155.81A155.81,155.81,0,0,0,1134.54,813.51Zm0,244.58a88.77,88.77,0,1,1,88.77-88.77A88.77,88.77,0,0,1,1134.54,1058.09Z" fill="#fff" opacity="0.57"/><g clip-path="url(#a25f929b-d28f-4985-a9b1-d66806c8e5fe)"><rect x="916.95" y="1032.99" width="462.84" height="97.93" fill="url(#bd912b6c-b38d-47ec-80fb-65e0b592d460)"/></g><path d="M1254.19,2002.72l-999.49-7.51a35.88,35.88,0,0,1-35.62-35.89V1445.81a35.89,35.89,0,0,1,35.89-35.9h999.49a35.89,35.89,0,0,1,35.89,35.9v521A35.89,35.89,0,0,1,1254.19,2002.72Z" fill="#fff" opacity="0.44"/><path d="M1099.16,1641.76,970.63,1505.88,786.35,1706.32,656.32,1566l-122,137.86-93.52-113.62-184.3,191.89V1920.9a33.37,33.37,0,0,0,33.13,33.38l929.59,7a33.39,33.39,0,0,0,33.63-33.39V1550.39Z" fill="#fff" opacity="0.44"/><rect x="1099.94" y="1637.99" width="3.38" height="323.28" fill="#fff"/><rect x="968.94" y="1505.88" width="3.38" height="453.52" fill="#fff"/><rect x="784.66" y="1703.87" width="3.38" height="254.14" fill="#fff"/><rect x="658.08" y="1570.98" width="3.38" height="387.03" fill="#fff"/><rect x="532.67" y="1699.75" width="3.38" height="258.26" fill="#fff"/><rect x="441.13" y="1580.62" width="3.38" height="374.92" fill="#fff"/><circle cx="442.82" cy="1580.62" r="28.24" transform="translate(-1186.94 1384.86) rotate(-67.5)" fill="url(#a383017a-a228-4f20-8935-0fb52a7ea4ed)"/><path d="M553,1699.75a18.61,18.61,0,1,1-18.61-18.6A18.61,18.61,0,0,1,553,1699.75Z" fill="url(#e4f1c845-6b4f-4bf6-b773-88f1b71f6557)"/><path d="M678.37,1571a18.6,18.6,0,1,1-18.6-18.6A18.61,18.61,0,0,1,678.37,1571Z" fill="url(#fd979353-3402-492d-92aa-d5adaa8a9e0b)"/><path d="M805,1703.87a18.6,18.6,0,1,1-18.6-18.6A18.61,18.61,0,0,1,805,1703.87Z" fill="url(#a8693d41-d8e3-4774-a643-4816df8353e4)"/><path d="M989.24,1505.88a18.61,18.61,0,1,1-18.61-18.6A18.61,18.61,0,0,1,989.24,1505.88Z" fill="url(#f1b97042-10ff-41c2-ba9c-412da3b60e91)"/><path d="M1120.24,1638a18.61,18.61,0,1,1-18.61-18.61A18.61,18.61,0,0,1,1120.24,1638Z" fill="url(#ba223204-793a-4b0d-a338-c8e326fe66c7)"/><g opacity="0.48"><path d="M507.88,1324.42h-274c-11.46,0-20.75,6.47-20.75,14.45s9.29,14.45,20.75,14.45h274c11.46,0,20.75-6.47,20.75-14.45S519.34,1324.42,507.88,1324.42Z" fill="#fff"/><path d="M507.88,1260.42h-274c-11.46,0-20.75,6.47-20.75,14.46s9.29,14.45,20.75,14.45h274c11.46,0,20.75-6.47,20.75-14.45S519.34,1260.42,507.88,1260.42Z" fill="#fff"/><path d="M507.88,1196.43h-274c-11.46,0-20.75,6.47-20.75,14.45s9.29,14.46,20.75,14.46h274c11.46,0,20.75-6.47,20.75-14.46S519.34,1196.43,507.88,1196.43Z" fill="#fff"/></g><g opacity="0.48"><path d="M888.74,1324.42h-274c-11.46,0-20.75,6.47-20.75,14.45s9.29,14.45,20.75,14.45h274c11.46,0,20.75-6.47,20.75-14.45S900.2,1324.42,888.74,1324.42Z" fill="#fff"/><path d="M888.74,1260.42h-274c-11.46,0-20.75,6.47-20.75,14.46s9.29,14.45,20.75,14.45h274c11.46,0,20.75-6.47,20.75-14.45S900.2,1260.42,888.74,1260.42Z" fill="#fff"/><path d="M888.74,1196.43h-274c-11.46,0-20.75,6.47-20.75,14.45s9.29,14.46,20.75,14.46h274c11.46,0,20.75-6.47,20.75-14.46S900.2,1196.43,888.74,1196.43Z" fill="#fff"/></g><g opacity="0.48"><path d="M1269.6,1324.42h-274c-11.46,0-20.75,6.47-20.75,14.45s9.29,14.45,20.75,14.45h274c11.46,0,20.75-6.47,20.75-14.45S1281.06,1324.42,1269.6,1324.42Z" fill="#fff"/><path d="M1269.6,1260.42h-274c-11.46,0-20.75,6.47-20.75,14.46s9.29,14.45,20.75,14.45h274c11.46,0,20.75-6.47,20.75-14.45S1281.06,1260.42,1269.6,1260.42Z" fill="#fff"/><path d="M1269.6,1196.43h-274c-11.46,0-20.75,6.47-20.75,14.45s9.29,14.46,20.75,14.46h274c11.46,0,20.75-6.47,20.75-14.46S1281.06,1196.43,1269.6,1196.43Z" fill="#fff"/></g><circle cx="2428.81" cy="1384.56" r="126.78" transform="translate(-267.65 2122.96) rotate(-45)" fill="url(#e8bed684-0dcb-4302-922f-a54ed236e262)"/><path d="M2504.14,1357.76a81.43,81.43,0,1,1-75.33-50.49c1.38,0,2.75,0,4.11.11v-20.64q-2-.09-4.11-.09a102,102,0,1,0,94.27,62.89Z" fill="#91b3fa"/><path d="M2533,1565h-206.6a23.48,23.48,0,0,0,0,47H2533a23.48,23.48,0,1,0,0-47Z" fill="#fff" opacity="0.5"/><circle cx="2428.27" cy="977.09" r="126.78" transform="translate(20.32 2003.23) rotate(-45)" fill="url(#a7a0205a-02a1-4604-a2d1-da50ee7a987e)"/><path d="M2471.36,1050.13A81.43,81.43,0,1,1,2428,899.8c1.37,0,2.74,0,4.1.11V879.26c-1.36,0-2.73-.08-4.1-.08a102.06,102.06,0,1,0,53.62,188.9Z" fill="#91b3fa"/><path d="M2533.56,1157.56H2327a23.48,23.48,0,1,0,0,47h206.59a23.48,23.48,0,1,0,0-47Z" fill="#fff" opacity="0.5"/><circle cx="2429.27" cy="1794.1" r="126.78" transform="translate(-557.11 2243.23) rotate(-45)" fill="#fff" opacity="0.91"/><path d="M2498.31,1839.89A81.43,81.43,0,1,1,2431,1712.67c1.37,0,2.74,0,4.1.1v-20.64c-1.36-.05-2.73-.09-4.1-.09A102.06,102.06,0,1,0,2515,1852Z" fill="url(#a64339aa-5cec-483b-a3c6-f0fbf256f547)"/><path d="M2326,2017.39h206.59a23.48,23.48,0,1,0,0-47H2326a23.48,23.48,0,1,0,0,47Z" fill="#fff" opacity="0.5"/><path d="M2473,2708.3s5.47,31,8.15,61.63a21.13,21.13,0,0,1-20.21,22.89c-40.83,1.7-128.17,5-159.51,3.61a6.88,6.88,0,0,1-6-9.42,15.39,15.39,0,0,1,7.87-8.29l144.27-66.3Z" fill="url(#a87a1f40-0d53-401f-93c5-65b6b9943767)"/><path d="M2477.48,2690.1l-4.39,37.05s-25.28,11.76-42.54-1.49l10.47-41.28Z" fill="url(#ab327f3b-fd44-4572-97c5-1fc8573f5e29)"/><path d="M2474.18,1993.56c1.9,9.67,10.19,482.81-40.39,694.84a7.21,7.21,0,0,0,4.23,8.38,125.69,125.69,0,0,0,41.19,8.37,12.39,12.39,0,0,0,12.29-8.9c14.46-49.19,83.73-295.67,92.77-531.12,10.1-263.1,0-9,0-9l-5.92-162.63Z" fill="url(#a529a378-9a40-4afd-811c-30b632c62e3e)"/><path d="M2639,2724.46s8.71,15.63,17.14,57.18a12.89,12.89,0,0,1-11.34,15.44c-13.48,1.32-34.24,3-50.87,2.91a12.85,12.85,0,0,1-12.72-14.33c1.84-15.17,7.58-40,25.31-59.44Z" fill="url(#bae284cb-6770-45bd-a124-58c293aa363d)"/><path d="M2646.61,2676.8l-10.27,56s-10.16,7.55-30.25,2.08l4.9-60.29Z" fill="url(#f365967e-35f3-492c-8a0e-ecf5a822f353)"/><path d="M2674.36,2008.08c41.36,249.63-9,617-26,688.89a11.22,11.22,0,0,1-9.06,8.51c-7.57,1.26-20,2.28-32.35-1.29a10.28,10.28,0,0,1-7.39-9.46c-2.28-58.13,1.82-415-36.72-556a32.08,32.08,0,0,0-12.35-17.68l-74.81-53.18-5.74-86Z" fill="url(#e3158980-c608-42f5-b28d-fa88379f1488)"/><path d="M2410.79,1535.07c123.95-2,260.73,32.55,260.73,32.55,36.95,215.6,6.46,464.28,6.46,464.28-96,25.17-204.22-15.39-204.22-15.39-16-90.11-90.37-343.73-90.37-343.73-60.57-7.52-110.46-25-151.55-48.09,31.34-36.33,46.12-82.56,52.54-109.88C2328.2,1528.43,2372.55,1535.7,2410.79,1535.07Z" fill="url(#b08e66e2-a389-49f0-b577-905900074aee)"/><path d="M2044.63,1352.49c12.18-14.71,27.59-7.75,27.59-7.75,18.24,77,113.89,139.53,212.16,170.07-6.42,27.32-21.2,73.55-52.54,109.88C2068.76,1533,2044.63,1352.49,2044.63,1352.49Z" fill="url(#a3ca77bd-1487-4e30-a951-a31763edf0c5)"/><path d="M2047.59,1356.23c-1.28,4,13.48,10.21,22.17-6.35.3-7.94,5.13-42,.38-48.43-25.27-34.45-74.26-77.63-74.26-77.63-8.27,8.17-1.45,16.2-1.45,16.2l23.76,24.75c-5,9-11,16.57-13.87,27.43a33.27,33.27,0,0,0,3.32,24.52c4.17,7.51,9.86,17.28,15.24,24.93C2033.06,1356.12,2047.59,1356.23,2047.59,1356.23Z" fill="url(#ff9f7cdf-4f7d-4131-b520-9c380e6740ef)"/><path d="M2028.59,1280.84l21.65,18.36,6.8,18.28-19.31,21.42s-6.49-36.27-11.31-44.12S2024.09,1283.13,2028.59,1280.84Z" fill="url(#b993f51a-869d-49da-9b19-abe3ca1ddd7d)"/><path d="M2624,1687.65l47.55-120s115.78,78.67,134.83,178.42c-21.88,1.61-61.69,7.3-100.66,27C2697.13,1725.91,2624,1687.65,2624,1687.65Z" fill="url(#b1287937-3fc0-4216-a881-3beccc812691)"/><path d="M2522.79,1800.59s130,73.47,173.86,10.74c9.11-13,11.28-26,9-38.32,39-19.67,78.78-25.36,100.66-27,5.74,30.06,2.7,62-15,94.37-76.83,140.55-285.79-7.77-285.79-7.77Z" fill="url(#f34ad25a-39c6-4df0-8011-14736c1ba16d)"/><path d="M2538.41,1893.54l-70.95-247.77a7.21,7.21,0,0,0-6.11-5.2c-12.85-1.5-50.1-5.71-93.11-9.35-51.8-4.38-111.95-7.93-147.9-4.91a7.25,7.25,0,0,0-5.93,10.43c20.44,41.36,104.53,209.59,146.64,264.7a7.25,7.25,0,0,0,5.85,2.87l164.61-1.53A7.24,7.24,0,0,0,2538.41,1893.54Z" fill="url(#bed68f86-54c3-49b9-923d-5d7a8416685f)"/><path d="M2360.89,1609.74l-51.44-8.57a3.7,3.7,0,0,0-4.12,4.8l5.1,15.43a3.69,3.69,0,0,0,3,2.5l49.5,6.61a3.7,3.7,0,0,0,4.09-4.5l-3.16-13.47A3.7,3.7,0,0,0,2360.89,1609.74Z" fill="url(#fd4de92d-294c-447f-b4fb-08bb34644ea1)"/><path d="M2399.4,1653.29l-4.24-22.08a5.1,5.1,0,0,0-4.49-4.11l-103.9-10.54a5.1,5.1,0,0,0-5.47,6.27l6.6,27.5a5.1,5.1,0,0,0,4.71,3.9l101.52,5.11A5.1,5.1,0,0,0,2399.4,1653.29Z" fill="url(#b017b02d-d461-48d3-a0dc-a06e4fe95bff)"/><path d="M2521.27,1833.68s9.88-40.64,5.9-55.06-11.72-33-37.46-28.84-56.12,15-56.12,15,1.54,18.78,21.1,12.72l-12.13,9.39s1.73,15,18.26,7l-11.28,12.45s7.09,12.35,19.25,4.43S2486.78,1838.57,2521.27,1833.68Z" fill="url(#aa05a5bf-ee0e-4628-9bea-db3c9bda77ca)"/><path d="M2536.35,1434.44l39.44,114.06a4.12,4.12,0,0,1-1.88,5c-10.75,5.94-49.48,23.12-96.16-6.47a19.33,19.33,0,0,1-8.91-13.82l-12.78-98.72Z" fill="url(#bb3a47b5-4f9e-4b65-8a23-195107960c09)"/><path d="M2448.05,1316.62c-1.19,1.65-38.26,130.84-38.26,130.84l74.22,19.59,53.32-117.22S2467.93,1289,2448.05,1316.62Z" fill="url(#a98b5da5-6204-4463-ae0a-35b467c36581)"/><path d="M2507.86,1358.5a11,11,0,0,1,1,9.67l-22.9,63a10.66,10.66,0,0,1-1.41,2.67c-3.3,4.54-15,18.12-28.51,5.33-11.54-10.89-22.29-20.75-32.35-23.72a11,11,0,0,0-13.67,7.64c-3.43,12.13-9.86,36.76-12.5,59.44a11,11,0,0,0,8.83,12c14.82,2.9,43.94,7.7,68.68,6.35a11,11,0,0,0,9.39-6.34c7.61-16.21,29.14-61.58,37.18-73.45,7.48-11,25.26-10.86,33.39-10.14a11.09,11.09,0,0,0,8.43-2.82c6.9-6.22,18.27-20.6,1.94-38a11,11,0,0,1,.5-15.37c7.61-7.43,15-20,2.58-35.75-12.56-15.9-29.18-14.32-40-10.81a11.44,11.44,0,0,1-13.07-4.27,7.3,7.3,0,0,0-6.44-3.31,10.7,10.7,0,0,1-10.89-10.69c0-10.38-4-23.08-21.65-28.76-32.4-10.42-53,20.78-55.19,44.19s33.55,32.71,54.65,31.33C2491.35,1335.62,2502.85,1350.52,2507.86,1358.5Z" fill="url(#ab91a657-2e38-446d-908b-8cd006d20af2)"/><path d="M2512.94,1444.26s5.63-40.62,22.57-42.46,33.27,12.23,16.24,34.9C2530.56,1464.9,2512.94,1444.26,2512.94,1444.26Z" fill="url(#aab11fcc-4ac7-478a-9447-dc7f04a2ac18)"/></g></g></svg>