<svg xmlns="http://www.w3.org/2000/svg" xmlns:xlink="http://www.w3.org/1999/xlink" viewBox="0 0 259.71 187.82"><defs><linearGradient id="b276c93c-61c4-49fe-9a0c-95f759b1089d" x1="-1129.84" y1="80.29" x2="-1253.71" y2="119.45" gradientTransform="matrix(-1, 0, 0, 1, -1127.98, 0)" gradientUnits="userSpaceOnUse"><stop offset="0" stop-color="#dbdee0"/><stop offset="1" stop-color="#d7dadd"/></linearGradient><linearGradient id="aa8a3512-0c38-491e-b985-482e4481be90" x1="-1131.65" y1="74.57" x2="-1255.51" y2="113.74" gradientTransform="matrix(-1, 0, 0, 1, -1127.98, 0)" gradientUnits="userSpaceOnUse"><stop offset="0" stop-color="#c0c5c8"/><stop offset="1" stop-color="#d7dadd"/></linearGradient><linearGradient id="a09ea6e6-a651-444d-a6eb-f40a5a2ac042" x1="-1126.27" y1="91.59" x2="-1250.13" y2="130.75" xlink:href="#aa8a3512-0c38-491e-b985-482e4481be90"/><linearGradient id="e784659d-1dbe-4277-aa6c-d3c4fb5c0ea1" x1="-1246.95" y1="117.43" x2="-1136.99" y2="82.9" gradientTransform="matrix(-1, 0, 0, 1, -1127.98, 0)" gradientUnits="userSpaceOnUse"><stop offset="0" stop-color="#c0c5c8"/><stop offset="0.21" stop-color="#bec3c6"/><stop offset="0.3" stop-color="#b7bcbf"/><stop offset="0.34" stop-color="#afb4b7"/><stop offset="1" stop-color="#d7dadd"/></linearGradient><linearGradient id="a6c8ea0f-6e48-4f8d-a520-09215dca0630" x1="-1246.95" y1="117.43" x2="-1136.99" y2="82.9" xlink:href="#aa8a3512-0c38-491e-b985-482e4481be90"/><linearGradient id="b8a15242-af7e-474b-9076-168cf0a77b24" x1="-1169.03" y1="93.44" x2="-1240.66" y2="119.45" gradientTransform="matrix(-1, 0, 0, 1, -1127.98, 0)" gradientUnits="userSpaceOnUse"><stop offset="0" stop-color="#c0c5c8"/><stop offset="0.36" stop-color="#798488"/><stop offset="1" stop-color="#d7dadd"/></linearGradient><linearGradient id="a9faeab3-a48b-485b-9bc3-7442ffe2df72" x1="-1227.94" y1="36.17" x2="-1351.8" y2="75.33" xlink:href="#b276c93c-61c4-49fe-9a0c-95f759b1089d"/><linearGradient id="e06328e2-94f7-4486-8af5-615587a1ae84" x1="-1229.74" y1="30.45" x2="-1353.6" y2="69.62" xlink:href="#aa8a3512-0c38-491e-b985-482e4481be90"/><linearGradient id="a9576042-4c85-4e85-93ef-6f78a4785e3b" x1="-1224.36" y1="47.47" x2="-1348.22" y2="86.63" xlink:href="#aa8a3512-0c38-491e-b985-482e4481be90"/><linearGradient id="b5aa0fe7-ecc3-4ba0-92f6-78cc79dcce73" x1="-1345.04" y1="73.31" x2="-1235.08" y2="38.79" xlink:href="#e784659d-1dbe-4277-aa6c-d3c4fb5c0ea1"/><linearGradient id="e846c0fb-4c15-4599-a608-cae21a876cbe" x1="-1345.04" y1="73.31" x2="-1235.08" y2="38.79" xlink:href="#aa8a3512-0c38-491e-b985-482e4481be90"/><linearGradient id="e9d39ece-b7c0-40ca-bdee-8afdda508630" x1="-1267.12" y1="49.32" x2="-1338.75" y2="75.33" xlink:href="#b8a15242-af7e-474b-9076-168cf0a77b24"/><linearGradient id="befc4c65-be55-426c-9b2b-1e027c9556e0" x1="55.76" y1="72.01" x2="160.95" y2="72.01" gradientUnits="userSpaceOnUse"><stop offset="0.05" stop-color="#ededf2"/><stop offset="0.1" stop-color="#c1c1c6"/><stop offset="0.35" stop-color="#d1d2d7"/><stop offset="0.59" stop-color="#a7a7ac"/><stop offset="0.6" stop-color="#aaaaaf"/><stop offset="0.68" stop-color="#b9bcc3"/><stop offset="0.76" stop-color="#c3c6ce"/><stop offset="0.84" stop-color="#c6cad2"/><stop offset="0.9" stop-color="#c9cdd4"/><stop offset="0.94" stop-color="#d2d5dc"/><stop offset="0.98" stop-color="#e2e3e9"/><stop offset="1" stop-color="#ededf2"/></linearGradient><linearGradient id="b5fc8c11-dd74-4a51-9771-703c5526b35a" x1="47.31" y1="25.84" x2="169.77" y2="25.84" gradientUnits="userSpaceOnUse"><stop offset="0" stop-color="#5e5b69"/><stop offset="0.18" stop-color="#161325"/><stop offset="0.58" stop-color="#232031"/><stop offset="0.75" stop-color="#a9a6ae"/><stop offset="0.82" stop-color="#5e5b69"/></linearGradient><linearGradient id="f498b316-d1ff-4b4f-9f33-d2788a37aa5b" x1="47.31" y1="70.17" x2="169.77" y2="70.17" xlink:href="#b5fc8c11-dd74-4a51-9771-703c5526b35a"/><linearGradient id="e50cf939-61c6-4cd6-8d33-7b90f710b0f8" x1="47.31" y1="114.51" x2="169.77" y2="114.51" xlink:href="#b5fc8c11-dd74-4a51-9771-703c5526b35a"/><linearGradient id="b0b544b6-9881-4951-9194-f5e7cef40f8f" x1="47.42" y1="9.38" x2="169.88" y2="9.38" xlink:href="#b5fc8c11-dd74-4a51-9771-703c5526b35a"/><linearGradient id="b2ece2eb-091f-4079-b86a-40a6ba8c1530" x1="47.31" y1="41.85" x2="169.77" y2="41.85" xlink:href="#b5fc8c11-dd74-4a51-9771-703c5526b35a"/><linearGradient id="ab1a003c-a7e0-460c-b03b-dc03dac3154e" x1="47.31" y1="54.11" x2="169.76" y2="54.11" xlink:href="#b5fc8c11-dd74-4a51-9771-703c5526b35a"/><linearGradient id="b17b0407-5a65-43f8-a132-df3cd46a8158" x1="47.31" y1="86.19" x2="169.77" y2="86.19" xlink:href="#b5fc8c11-dd74-4a51-9771-703c5526b35a"/><linearGradient id="bd14d19f-a325-4f22-ada9-f3f55f377bf8" x1="47.37" y1="98.2" x2="169.71" y2="98.2" xlink:href="#b5fc8c11-dd74-4a51-9771-703c5526b35a"/><linearGradient id="a98d5033-fef4-44e2-ac6d-07b94d0cf2eb" x1="47.31" y1="130.41" x2="169.77" y2="130.41" xlink:href="#b5fc8c11-dd74-4a51-9771-703c5526b35a"/><linearGradient id="af2af2a6-e294-490c-91ff-61494f8a8b95" x1="216.68" y1="104.38" x2="55.98" y2="155.19" gradientTransform="matrix(1, 0, 0, 1, 0, 0)" xlink:href="#b276c93c-61c4-49fe-9a0c-95f759b1089d"/><linearGradient id="bc5812ee-84cd-4271-ab50-2364669af152" x1="214.34" y1="96.96" x2="53.63" y2="147.78" gradientTransform="matrix(1, 0, 0, 1, 0, 0)" xlink:href="#aa8a3512-0c38-491e-b985-482e4481be90"/><linearGradient id="a8208e08-65b7-426c-a8d6-c02d44815af0" x1="221.32" y1="119.04" x2="60.61" y2="169.85" gradientTransform="matrix(1, 0, 0, 1, 0, 0)" xlink:href="#aa8a3512-0c38-491e-b985-482e4481be90"/><linearGradient id="b2aaa90b-de6b-4dc2-b5e6-9bb4213a405c" x1="64.74" y1="152.57" x2="207.41" y2="107.77" gradientTransform="matrix(1, 0, 0, 1, 0, 0)" xlink:href="#e784659d-1dbe-4277-aa6c-d3c4fb5c0ea1"/><linearGradient id="fecae92f-5986-478f-8c08-6a99fb548cb1" x1="64.74" y1="152.57" x2="207.41" y2="107.77" gradientTransform="matrix(1, 0, 0, 1, 0, 0)" xlink:href="#aa8a3512-0c38-491e-b985-482e4481be90"/><linearGradient id="b41388e6-23b3-44cb-872d-10a221eb2317" x1="165.84" y1="121.44" x2="72.9" y2="155.19" gradientTransform="matrix(1, 0, 0, 1, 0, 0)" xlink:href="#b8a15242-af7e-474b-9076-168cf0a77b24"/><radialGradient id="ab079787-7415-409f-abb2-f9761bf40723" cx="128.24" cy="65.89" r="97.47" gradientUnits="userSpaceOnUse"><stop offset="0" stop-color="#eaeae0"/><stop offset="1" stop-color="#6e5058"/></radialGradient></defs><title>img-vps</title><g style="isolation:isolate"><g id="eddc1fc6-5c42-4166-a45d-e3c59043569f" data-name="Capa 2"><g id="e1b81150-38ae-4c74-9c90-0ed8ac2ddeb4" data-name="OBJECTS"><path d="M24,75.89a24.05,24.05,0,0,1,6.88,1A24,24,0,0,1,53.7,60.3c12.27,0,23.06,7.67,24.76,19,2.49-2.65,6.36-3.93,11.35-3.93a15.66,15.66,0,0,1,15.66,15.66,16.15,16.15,0,0,1-.2,2.43,15.59,15.59,0,1,1,4.86,30.4H24a24,24,0,0,1,0-48Z" fill="url(#b276c93c-61c4-49fe-9a0c-95f759b1089d)"/><path d="M54.81,92A295.5,295.5,0,0,1,39.92,64.68a23.88,23.88,0,0,1,7.58-3.56c2.64,4.87,5.57,9.6,8.19,14.54q7.53,14.16,15.79,27.91,6.1,10.2,12.34,20.33H73.31C68.06,112.81,61.11,102.49,54.81,92Z" opacity="0.55" fill="url(#aa8a3512-0c38-491e-b985-482e4481be90)" style="mix-blend-mode:screen"/><path d="M23.85,105.91C20.57,100.08,17,94.3,14.13,88.24c-1.28-2.7-2.44-5.44-3.69-8.12a23.87,23.87,0,0,1,9.32-3.84c6.26,9.83,13.08,19.3,18.76,29.43,3.37,6,6.51,12.05,9.47,18.19H30.6C28.67,117.77,27,111.5,23.85,105.91Z" opacity="0.55" fill="url(#a09ea6e6-a651-444d-a6eb-f40a5a2ac042)" style="mix-blend-mode:screen"/><path d="M26.29,78.85a24,24,0,0,1,6.5.9C35.74,71.15,44.28,64,54.38,64A23.09,23.09,0,0,1,76.89,83.8c2.72-3.25,7.36-5.1,12.08-5.1,7.08,0,14.13,6.34,14.13,14.06a28,28,0,0,1-.2,3.19,15.47,15.47,0,0,1,4.6-.7c8.14,0,14.29,4.61,14.29,12.3s-5.91,13.26-14.05,13.26H26.29c-12.54,0-22.7-9.6-22.7-21.44S13.75,78.85,26.29,78.85Z" fill="#5c6067"/><path d="M27.14,80.34a23.69,23.69,0,0,1,6.35.87c2.88-8.28,11.23-15.79,21.09-15.79,11.33,0,20.28,10.66,21.61,20.87a16.68,16.68,0,0,1,12-5.74c8,0,13.43,6.64,13.43,14.08a28.08,28.08,0,0,1-.19,3.06,15.38,15.38,0,0,1,4.49-.67c8,0,14.54,2.94,14.54,10.34s-5.76,12.75-13.71,12.75H27.14C14.89,120.11,5,110.87,5,99.47S14.89,80.34,27.14,80.34Z" fill="url(#e784659d-1dbe-4277-aa6c-d3c4fb5c0ea1)"/><path d="M27.14,80.34a23.69,23.69,0,0,1,6.35.87c2.88-8.28,11.23-15.79,21.09-15.79,11.33,0,20.28,10.66,21.61,20.87a16.68,16.68,0,0,1,12-5.74c8,0,13.43,6.64,13.43,14.08a28.08,28.08,0,0,1-.19,3.06,15.38,15.38,0,0,1,4.49-.67c8,0,14.54,2.94,14.54,10.34s-5.76,12.75-13.71,12.75H27.14C14.89,120.11,5,110.87,5,99.47S14.89,80.34,27.14,80.34Z" opacity="0.55" fill="url(#a6c8ea0f-6e48-4f8d-a520-09215dca0630)" style="mix-blend-mode:screen"/><path d="M76.17,86.19a.3.3,0,0,0,0,.1,16.68,16.68,0,0,1,12-5.74c8,0,13.43,6.64,13.43,14.08a28.08,28.08,0,0,1-.19,3.06,15.38,15.38,0,0,1,4.49-.67c8,0,14.54,2.94,14.54,10.34s-5.76,12.75-13.71,12.75H29.51C43.82,93.44,73.94,86.85,76.17,86.19Z" opacity="0.32" fill="url(#b8a15242-af7e-474b-9076-168cf0a77b24)" style="mix-blend-mode:multiply"/><path d="M122.09,31.77a24.05,24.05,0,0,1,6.88,1,24,24,0,0,1,22.82-16.6c12.27,0,23.06,7.67,24.76,19,2.49-2.64,6.36-3.93,11.35-3.93A15.66,15.66,0,0,1,203.56,47a16.15,16.15,0,0,1-.2,2.43,15.59,15.59,0,1,1,4.86,30.4H122.09a24,24,0,0,1,0-48Z" fill="url(#a9faeab3-a48b-485b-9bc3-7442ffe2df72)"/><path d="M152.9,47.9A297,297,0,0,1,138,20.56,23.64,23.64,0,0,1,145.59,17c2.64,4.87,5.57,9.59,8.19,14.53,5,9.45,10.31,18.74,15.79,27.91q6.1,10.2,12.34,20.33H171.4C166.15,68.69,159.2,58.37,152.9,47.9Z" opacity="0.55" fill="url(#e06328e2-94f7-4486-8af5-615587a1ae84)" style="mix-blend-mode:screen"/><path d="M121.94,61.79c-3.28-5.83-6.86-11.61-9.72-17.67-1.28-2.7-2.44-5.44-3.69-8.12a23.85,23.85,0,0,1,9.32-3.83c6.26,9.82,13.08,19.29,18.76,29.42,3.37,6,6.51,12.06,9.47,18.19H128.69C126.76,73.66,125.09,67.39,121.94,61.79Z" opacity="0.55" fill="url(#a9576042-4c85-4e85-93ef-6f78a4785e3b)" style="mix-blend-mode:screen"/><path d="M124.38,34.73a24,24,0,0,1,6.5.9c3-8.6,11.5-15.73,21.59-15.73A23.08,23.08,0,0,1,175,39.68c2.72-3.25,7.36-5.1,12.08-5.1,7.08,0,14.13,6.34,14.13,14.07a27.84,27.84,0,0,1-.2,3.18,15.47,15.47,0,0,1,4.6-.7c8.14,0,14.29,4.61,14.29,12.3s-5.91,13.26-14,13.26H124.38c-12.54,0-22.7-9.6-22.7-21.43S111.84,34.73,124.38,34.73Z" fill="#5c6067"/><path d="M125.23,36.22a23.69,23.69,0,0,1,6.35.87c2.88-8.28,11.23-15.79,21.09-15.79C164,21.3,173,32,174.28,42.18a16.66,16.66,0,0,1,12-5.75c8,0,13.43,6.64,13.43,14.08a28.08,28.08,0,0,1-.19,3.06A15.38,15.38,0,0,1,204,52.9c7.95,0,14.54,2.94,14.54,10.35S212.75,76,204.8,76H125.23c-12.25,0-22.18-9.24-22.18-20.64S113,36.22,125.23,36.22Z" fill="url(#b5aa0fe7-ecc3-4ba0-92f6-78cc79dcce73)"/><path d="M125.23,36.22a23.69,23.69,0,0,1,6.35.87c2.88-8.28,11.23-15.79,21.09-15.79C164,21.3,173,32,174.28,42.18a16.66,16.66,0,0,1,12-5.75c8,0,13.43,6.64,13.43,14.08a28.08,28.08,0,0,1-.19,3.06A15.38,15.38,0,0,1,204,52.9c7.95,0,14.54,2.94,14.54,10.35S212.75,76,204.8,76H125.23c-12.25,0-22.18-9.24-22.18-20.64S113,36.22,125.23,36.22Z" opacity="0.55" fill="url(#e846c0fb-4c15-4599-a608-cae21a876cbe)" style="mix-blend-mode:screen"/><path d="M174.26,42.08a.44.44,0,0,0,0,.1,16.66,16.66,0,0,1,12-5.75c8,0,13.43,6.64,13.43,14.08a28.08,28.08,0,0,1-.19,3.06A15.38,15.38,0,0,1,204,52.9c7.95,0,14.54,2.94,14.54,10.35S212.75,76,204.8,76H127.6C141.91,49.32,172,42.73,174.26,42.08Z" opacity="0.32" fill="url(#e9d39ece-b7c0-40ca-bdee-8afdda508630)" style="mix-blend-mode:multiply"/><rect x="55.76" width="105.19" height="144.01" fill="url(#befc4c65-be55-426c-9b2b-1e027c9556e0)"/><rect x="55.76" y="21.56" width="105.19" height="122.46" fill="#5b7795" style="mix-blend-mode:multiply"/><rect x="47.31" y="7.98" width="122.46" height="35.72" rx="3.66" fill="url(#b5fc8c11-dd74-4a51-9771-703c5526b35a)"/><rect x="47.31" y="52.32" width="122.46" height="35.72" rx="3.66" fill="url(#f498b316-d1ff-4b4f-9f33-d2788a37aa5b)"/><rect x="47.31" y="96.65" width="122.46" height="35.72" rx="3.66" fill="url(#e50cf939-61c6-4cd6-8d33-7b90f710b0f8)"/><path d="M169.65,10.77A3.65,3.65,0,0,0,166.11,8H51a3.66,3.66,0,0,0-3.55,2.79Z" opacity="0.75" fill="url(#b0b544b6-9881-4951-9194-f5e7cef40f8f)" style="mix-blend-mode:screen"/><path d="M47.31,40v0A3.66,3.66,0,0,0,51,43.7H166.11A3.66,3.66,0,0,0,169.77,40v0Z" fill="url(#b2ece2eb-091f-4079-b86a-40a6ba8c1530)" style="mix-blend-mode:multiply"/><path d="M169.76,55.91a3.65,3.65,0,0,0-3.65-3.59H51a3.66,3.66,0,0,0-3.66,3.59Z" opacity="0.75" fill="url(#ab1a003c-a7e0-460c-b03b-dc03dac3154e)" style="mix-blend-mode:screen"/><path d="M47.31,84.35v0A3.66,3.66,0,0,0,51,88H166.11a3.66,3.66,0,0,0,3.66-3.66v0Z" fill="url(#b17b0407-5a65-43f8-a132-df3cd46a8158)" style="mix-blend-mode:multiply"/><path d="M169.71,99.75a3.66,3.66,0,0,0-3.6-3.1H51a3.65,3.65,0,0,0-3.6,3.1Z" opacity="0.75" fill="url(#bd14d19f-a325-4f22-ada9-f3f55f377bf8)" style="mix-blend-mode:screen"/><path d="M47.31,128.45v.26A3.66,3.66,0,0,0,51,132.37H166.11a3.66,3.66,0,0,0,3.66-3.66v-.26Z" fill="url(#a98d5033-fef4-44e2-ac6d-07b94d0cf2eb)" style="mix-blend-mode:multiply"/><path d="M140.69,22.44A4.43,4.43,0,1,1,136.26,18,4.43,4.43,0,0,1,140.69,22.44Z" fill="#5689ce"/><path d="M153.75,22.44A4.43,4.43,0,1,1,149.32,18,4.43,4.43,0,0,1,153.75,22.44Z" fill="#73c1d0"/><path d="M140.69,65.83a4.43,4.43,0,1,1-4.43-4.43A4.43,4.43,0,0,1,140.69,65.83Z" fill="#5689ce"/><path d="M153.75,65.83a4.43,4.43,0,1,1-4.43-4.43A4.44,4.44,0,0,1,153.75,65.83Z" fill="#73c1d0"/><path d="M140.69,109.21a4.43,4.43,0,1,1-4.43-4.43A4.43,4.43,0,0,1,140.69,109.21Z" fill="#5689ce"/><path d="M153.75,109.21a4.43,4.43,0,1,1-4.43-4.43A4.43,4.43,0,0,1,153.75,109.21Z" fill="#73c1d0"/><path d="M188,98.67A31.29,31.29,0,0,0,179,100a31.14,31.14,0,0,0-29.61-21.54c-15.92,0-29.92,10-32.13,24.71-3.23-3.43-8.25-5.1-14.72-5.1a20.18,20.18,0,0,0-20.06,23.47A20.22,20.22,0,1,0,76.22,161H188a31.15,31.15,0,0,0,0-62.29Z" fill="url(#af2af2a6-e294-490c-91ff-61494f8a8b95)"/><path d="M148,119.59a384.39,384.39,0,0,0,19.32-35.46,31.24,31.24,0,0,0-9.83-4.62C154,85.83,150.25,92,146.85,98.38q-9.76,18.38-20.49,36.21-7.92,13.23-16,26.37H124C130.8,146.58,139.82,133.19,148,119.59Z" opacity="0.55" fill="url(#bc5812ee-84cd-4271-ab50-2364669af152)" style="mix-blend-mode:screen"/><path d="M188.16,137.63c4.26-7.57,8.9-15.08,12.61-22.93,1.66-3.51,3.16-7.06,4.78-10.54a30.88,30.88,0,0,0-12.09-5c-8.11,12.75-17,25-24.33,38.18-4.38,7.8-8.45,15.64-12.29,23.6H179.4C181.9,153,184.08,144.88,188.16,137.63Z" opacity="0.55" fill="url(#a8208e08-65b7-426c-a8d6-c02d44815af0)" style="mix-blend-mode:screen"/><path d="M185,102.51a31.15,31.15,0,0,0-8.43,1.17c-3.83-11.16-14.92-20.42-28-20.42-15.05,0-27.45,11.91-29.21,25.67-3.52-4.21-9.55-6.61-15.68-6.61-9.18,0-18.32,8.22-18.32,18.25a37.53,37.53,0,0,0,.25,4.13,20.19,20.19,0,0,0-6-.91c-10.57,0-18.55,6-18.55,16S68.75,157,79.32,157H185c16.27,0,29.46-12.46,29.46-27.82S201.26,102.51,185,102.51Z" fill="#5c6067"/><path d="M183.89,104.45a30.91,30.91,0,0,0-8.23,1.12c-3.75-10.74-14.58-20.48-27.37-20.48-14.7,0-26.31,13.83-28,27.08-3.44-4.06-9.53-7.45-15.51-7.45-10.37,0-17.43,8.61-17.43,18.26a34.85,34.85,0,0,0,.25,4,20,20,0,0,0-5.83-.87c-10.32,0-18.87,3.81-18.87,13.42S70.33,156,80.65,156H183.89c15.89,0,28.78-12,28.78-26.78S199.78,104.45,183.89,104.45Z" fill="url(#b2aaa90b-de6b-4dc2-b5e6-9bb4213a405c)"/><path d="M183.89,104.45a30.91,30.91,0,0,0-8.23,1.12c-3.75-10.74-14.58-20.48-27.37-20.48-14.7,0-26.31,13.83-28,27.08-3.44-4.06-9.53-7.45-15.51-7.45-10.37,0-17.43,8.61-17.43,18.26a34.85,34.85,0,0,0,.25,4,20,20,0,0,0-5.83-.87c-10.32,0-18.87,3.81-18.87,13.42S70.33,156,80.65,156H183.89c15.89,0,28.78-12,28.78-26.78S199.78,104.45,183.89,104.45Z" opacity="0.55" fill="url(#fecae92f-5986-478f-8c08-6a99fb548cb1)" style="mix-blend-mode:screen"/><path d="M120.28,112l0,.13c-3.44-4.06-9.53-7.45-15.51-7.45-10.37,0-17.43,8.61-17.43,18.26a34.85,34.85,0,0,0,.25,4,20,20,0,0,0-5.83-.87c-10.32,0-18.87,3.81-18.87,13.42S70.33,156,80.65,156H180.82C162.25,121.44,123.17,112.89,120.28,112Z" opacity="0.32" fill="url(#b41388e6-23b3-44cb-872d-10a221eb2317)" style="mix-blend-mode:multiply"/><path d="M169.77,84.35V79.78h38.45a15.59,15.59,0,1,0-4.86-30.4,16.15,16.15,0,0,0,.2-2.43A15.66,15.66,0,0,0,187.9,31.29c-5,0-8.86,1.29-11.35,3.93a20.79,20.79,0,0,0-6.78-12.44V11.64a3.58,3.58,0,0,0-.12-.87h0a3.66,3.66,0,0,0-1.22-1.94l-.11-.08a3.56,3.56,0,0,0-.93-.53l-.16-.05A3.81,3.81,0,0,0,166.11,8H161V0H55.76V8H51a3.7,3.7,0,0,0-1.12.19l-.17.05a3.56,3.56,0,0,0-.93.53l-.11.08a3.72,3.72,0,0,0-1.22,1.94h0a3.58,3.58,0,0,0-.11.87V40A3.66,3.66,0,0,0,51,43.7h4.79v8.62H51a3.57,3.57,0,0,0-.74.07,2.22,2.22,0,0,0-.31.1,2.59,2.59,0,0,0-.37.11,3.75,3.75,0,0,0-.44.24l-.17.09a3.35,3.35,0,0,0-.51.42l0,0A3.64,3.64,0,0,0,47.31,56v5.21q-.91.26-1.8.57l-.1,0c-.64.24-1.26.5-1.87.78l0,0A24,24,0,0,0,30.88,76.9a24.05,24.05,0,0,0-6.88-1,24.67,24.67,0,0,0-4.24.39h0A24,24,0,0,0,24,123.9H47.31v4.81A3.64,3.64,0,0,0,51,132.37h4.79V144h.52a20.22,20.22,0,0,0,19.94,17H188a31.13,31.13,0,0,0,5.5-61.78h0A30.59,30.59,0,0,0,179,100a31.19,31.19,0,0,0-9.56-14.19,3.71,3.71,0,0,0,.29-1.42Z" opacity="0.55" fill="url(#ab079787-7415-409f-abb2-f9761bf40723)" style="mix-blend-mode:overlay"/><path d="M258.19,42.65h-5v-5a1.52,1.52,0,0,0-1.52-1.52h0a1.52,1.52,0,0,0-1.52,1.52v5h-5a1.52,1.52,0,0,0-1.52,1.52v0a1.53,1.53,0,0,0,1.52,1.53h5v5a1.52,1.52,0,0,0,1.52,1.52h0a1.52,1.52,0,0,0,1.52-1.52v-5h5a1.53,1.53,0,0,0,1.52-1.53v0A1.52,1.52,0,0,0,258.19,42.65Z" fill="#bcc1c5"/><path d="M19.6,47.11h-5v-5a1.52,1.52,0,0,0-1.52-1.52h0a1.53,1.53,0,0,0-1.53,1.52v5h-5A1.52,1.52,0,0,0,5,48.63v0a1.52,1.52,0,0,0,1.52,1.52h5v5A1.53,1.53,0,0,0,13,56.73h0a1.52,1.52,0,0,0,1.52-1.52v-5h5a1.52,1.52,0,0,0,1.52-1.52v0A1.52,1.52,0,0,0,19.6,47.11Z" fill="#bcc1c5"/><path d="M114.91,178.2h-5v-5a1.52,1.52,0,0,0-1.52-1.52h0a1.52,1.52,0,0,0-1.52,1.52v5h-5a1.53,1.53,0,0,0-1.53,1.52v0a1.53,1.53,0,0,0,1.53,1.52h5v5a1.52,1.52,0,0,0,1.52,1.52h0a1.52,1.52,0,0,0,1.52-1.52v-5h5a1.53,1.53,0,0,0,1.53-1.52v0A1.53,1.53,0,0,0,114.91,178.2Z" fill="#bcc1c5"/></g></g></g></svg>