<svg width="794" height="534" viewBox="0 0 794 534" fill="none" xmlns="http://www.w3.org/2000/svg">
<g filter="url(#filter0_d_4248_17985)">
<rect x="97.8975" y="69.9805" width="574.54" height="384.381" fill="#C4C4C4"/>
</g>
<path d="M60.9155 132.671L48.3443 127.158L59.4064 119.017L60.9155 132.671Z" stroke="#E5D7FF" stroke-width="2"/>
<path d="M529.486 473.972L542.058 485.721L525.6 490.735L529.486 473.972Z" fill="#E5D7FF"/>
<path d="M157.38 476.593L167.131 478.856L160.298 486.169L157.38 476.593Z" fill="#E5D7FF"/>
<path d="M61.0919 443.91L49.202 437.046L61.0919 430.17V443.91Z" stroke="#E5D7FF" stroke-width="2"/>
<path d="M600.975 28L614.615 38.4694L598.735 45.0528L600.975 28Z" fill="#E5D7FF"/>
<path d="M730.941 400.397L745.845 391.787V408.992L730.941 400.397Z" fill="#E5D7FF"/>
<path d="M20.1534 153.365C22.367 153.365 24.1614 151.571 24.1614 149.358C24.1614 147.144 22.367 145.35 20.1534 145.35C17.9399 145.35 16.1455 147.144 16.1455 149.358C16.1455 151.571 17.9399 153.365 20.1534 153.365Z" fill="#E5D7FF"/>
<path d="M174.01 49.2219C176.223 49.2219 178.018 47.4275 178.018 45.214C178.018 43.0005 176.223 41.2061 174.01 41.2061C171.796 41.2061 170.002 43.0005 170.002 45.214C170.002 47.4275 171.796 49.2219 174.01 49.2219Z" fill="#E5D7FF"/>
<path d="M349.75 41.0099C349.75 42.6712 348.404 44.0178 346.742 44.0178C345.081 44.0178 343.734 42.6711 343.734 41.0099C343.734 39.3487 345.081 38.002 346.742 38.002C348.404 38.002 349.75 39.3486 349.75 41.0099Z" stroke="#E5D7FF" stroke-width="2"/>
<path d="M74.2179 384.283C76.4314 384.283 78.2259 382.489 78.2259 380.276C78.2259 378.062 76.4314 376.268 74.2179 376.268C72.0044 376.268 70.21 378.062 70.21 380.276C70.21 382.489 72.0044 384.283 74.2179 384.283Z" fill="#E5D7FF"/>
<path d="M672.366 480.256C674.58 480.256 676.374 478.462 676.374 476.248C676.374 474.035 674.58 472.24 672.366 472.24C670.153 472.24 668.358 474.035 668.358 476.248C668.358 478.462 670.153 480.256 672.366 480.256Z" fill="#E5D7FF"/>
<path d="M710.565 94.2453C712.779 94.2453 714.573 92.451 714.573 90.2374C714.573 88.0239 712.779 86.2295 710.565 86.2295C708.352 86.2295 706.558 88.0239 706.558 90.2374C706.558 92.451 708.352 94.2453 710.565 94.2453Z" fill="#E5D7FF"/>
<path d="M125.112 47.1046C125.112 48.7658 123.765 50.1125 122.104 50.1125C120.442 50.1125 119.096 48.7658 119.096 47.1046C119.096 45.4434 120.442 44.0967 122.104 44.0967C123.765 44.0967 125.112 45.4434 125.112 47.1046Z" stroke="#E5D7FF" stroke-width="2"/>
<path d="M714.465 424.81C716.679 424.81 718.473 423.015 718.473 420.802C718.473 418.588 716.679 416.794 714.465 416.794C712.251 416.794 710.457 418.588 710.457 420.802C710.457 423.015 712.251 424.81 714.465 424.81Z" fill="#E5D7FF"/>
<path d="M501.428 487.488C501.428 489.15 500.081 490.496 498.42 490.496C496.759 490.496 495.412 489.15 495.412 487.488C495.412 485.827 496.759 484.48 498.42 484.48C500.081 484.48 501.428 485.827 501.428 487.488Z" stroke="#E5D7FF" stroke-width="2"/>
<path d="M123.023 486.755C125.236 486.755 127.031 484.961 127.031 482.747C127.031 480.534 125.236 478.739 123.023 478.739C120.809 478.739 119.015 480.534 119.015 482.747C119.015 484.961 120.809 486.755 123.023 486.755Z" fill="#E5D7FF"/>
<path d="M566.114 45.2161C568.328 45.2161 570.122 43.4217 570.122 41.2081C570.122 38.9946 568.328 37.2002 566.114 37.2002C563.901 37.2002 562.106 38.9946 562.106 41.2081C562.106 43.4217 563.901 45.2161 566.114 45.2161Z" fill="#E5D7FF"/>
<path d="M133.284 74.6211V65.9999C133.284 65.1572 132.6 64.4734 131.757 64.4734H129.537C128.888 64.4734 128.313 64.0318 128.168 63.3985C127.4 60.0509 126.092 56.9095 124.328 54.0775C123.976 53.5132 124.043 52.784 124.513 52.3138L126.073 50.7536C126.669 50.1572 126.669 49.1908 126.073 48.5945L119.978 42.4991C119.381 41.9028 118.415 41.9028 117.819 42.4991L116.26 44.0577C115.789 44.5287 115.061 44.5951 114.495 44.2427C111.664 42.4773 108.522 41.1677 105.174 40.3989C104.541 40.2534 104.1 39.679 104.1 39.0296V36.8176C104.1 35.9748 103.416 35.291 102.573 35.291H93.9518C93.1091 35.291 92.4253 35.9748 92.4253 36.8176V39.0296C92.4253 39.679 91.9837 40.2543 91.3504 40.3989C88.0011 41.1677 84.858 42.4773 82.0269 44.2427C81.4617 44.5951 80.7333 44.5287 80.2623 44.0577L78.7054 42.5008C78.1091 41.9045 77.1427 41.9045 76.5464 42.5008L70.451 48.5962C69.8547 49.1925 69.8547 50.1589 70.451 50.7552L72.0095 52.3138C72.4806 52.7848 72.547 53.5132 72.1946 54.0784C70.4308 56.9103 69.1221 60.0526 68.3542 63.4002C68.2087 64.0335 67.6342 64.4751 66.984 64.4751H64.7678C63.9242 64.4751 63.2412 65.1589 63.2412 66.0016V74.6228C63.2412 75.4656 63.925 76.1493 64.7678 76.1493H66.9849C67.6342 76.1493 68.2095 76.5901 68.3542 77.2234C69.1238 80.5718 70.4325 83.7132 72.1963 86.5435C72.5487 87.1079 72.4814 87.8371 72.0112 88.3081L70.451 89.8683C69.8547 90.4647 69.8547 91.4311 70.451 92.0274L76.5464 98.1236C77.1419 98.7199 78.1091 98.7199 78.7054 98.1236L80.2673 96.5617C80.7383 96.0907 81.4667 96.0242 82.0319 96.3758C84.8622 98.1387 88.0028 99.445 91.3512 100.214C91.9845 100.359 92.4261 100.934 92.4261 101.583V103.807C92.4261 104.65 93.1099 105.333 93.9527 105.333H102.574C103.417 105.333 104.1 104.65 104.1 103.807V101.582C104.1 100.933 104.542 100.358 105.175 100.213C108.523 99.4449 111.663 98.1379 114.494 96.375C115.058 96.0234 115.787 96.0898 116.257 96.56L117.82 98.1228C118.417 98.7191 119.383 98.7191 119.979 98.1228L126.075 92.0266C126.671 91.4302 126.67 90.4638 126.075 89.8675L124.513 88.3064C124.042 87.8354 123.975 87.107 124.328 86.5418C126.091 83.7116 127.399 80.5701 128.168 77.2226C128.314 76.5892 128.888 76.1485 129.537 76.1485H131.758C132.601 76.1477 133.284 75.4639 133.284 74.6211ZM98.2599 94.618C84.8353 94.618 73.9676 83.7284 73.9676 70.3038C73.9676 56.8994 84.8353 46.0098 98.2599 46.0098C111.684 46.0098 122.553 56.8994 122.553 70.3038C122.553 83.7284 111.685 94.618 98.2599 94.618Z" stroke="#E5D7FF" stroke-width="0.7896" stroke-miterlimit="10"/>
<path d="M165.037 128.343V122.481C165.037 121.907 164.572 121.443 163.999 121.443H162.49C162.048 121.443 161.657 121.143 161.558 120.712C161.036 118.436 160.146 116.3 158.947 114.375C158.708 113.99 158.753 113.495 159.073 113.175L160.134 112.114C160.54 111.708 160.54 111.051 160.134 110.645L155.989 106.5C155.584 106.095 154.927 106.095 154.521 106.5L153.461 107.56C153.141 107.881 152.645 107.926 152.261 107.686C150.336 106.485 148.2 105.596 145.922 105.072C145.492 104.973 145.191 104.583 145.191 104.141V102.637C145.191 102.064 144.726 101.599 144.153 101.599H138.291C137.718 101.599 137.253 102.064 137.253 102.637V104.141C137.253 104.582 136.953 104.973 136.522 105.071C134.245 105.594 132.108 106.484 130.182 107.685C129.798 107.925 129.302 107.879 128.982 107.559L127.924 106.501C127.518 106.096 126.86 106.096 126.455 106.501L122.311 110.646C121.906 111.051 121.906 111.708 122.311 112.115L123.371 113.175C123.691 113.494 123.737 113.99 123.497 114.375C122.297 116.3 121.407 118.436 120.885 120.713C120.786 121.144 120.396 121.444 119.954 121.444H118.446C117.873 121.444 117.408 121.909 117.408 122.482V128.344C117.408 128.917 117.873 129.382 118.446 129.382H119.954C120.396 129.382 120.787 129.682 120.885 130.113C121.409 132.39 122.298 134.525 123.498 136.45C123.737 136.834 123.691 137.329 123.372 137.65L122.31 138.711C121.905 139.117 121.905 139.775 122.31 140.18L126.454 144.325C126.859 144.73 127.517 144.73 127.923 144.325L128.985 143.262C129.305 142.943 129.801 142.897 130.184 143.137C132.109 144.335 134.245 145.224 136.521 145.746C136.952 145.845 137.252 146.235 137.252 146.677V148.189C137.252 148.763 137.717 149.227 138.29 149.227H144.152C144.725 149.227 145.19 148.763 145.19 148.189V146.677C145.19 146.236 145.491 145.845 145.921 145.746C148.197 145.224 150.333 144.335 152.257 143.137C152.642 142.897 153.137 142.943 153.457 143.262L154.52 144.326C154.925 144.731 155.583 144.731 155.989 144.326L160.133 140.181C160.539 139.776 160.539 139.118 160.133 138.712L159.071 137.651C158.75 137.331 158.705 136.835 158.945 136.451C160.144 134.526 161.034 132.391 161.557 130.114C161.656 129.683 162.046 129.383 162.487 129.383H163.997C164.572 129.382 165.037 128.917 165.037 128.343ZM141.222 141.008C132.609 141.008 125.636 134.022 125.636 125.408C125.636 116.808 132.609 109.822 141.222 109.822C149.835 109.822 156.809 116.808 156.809 125.408C156.809 134.022 149.835 141.008 141.222 141.008Z" fill="#F4EEFE"/>
<path d="M721.363 264.015H702.126C700.961 264.015 700.016 263.071 700.016 261.906C700.016 260.741 700.961 259.796 702.126 259.796H721.363C722.528 259.796 723.471 260.741 723.471 261.906C723.471 263.07 722.528 264.015 721.363 264.015Z" fill="#D5BFFE"/>
<path d="M740.739 273.377H702.127C700.962 273.377 700.017 272.432 700.017 271.267C700.017 270.102 700.962 269.158 702.127 269.158H740.739C741.904 269.158 742.849 270.102 742.849 271.267C742.848 272.432 741.904 273.377 740.739 273.377Z" fill="#D5BFFE"/>
<path d="M706.687 282.74H702.127C700.962 282.74 700.017 281.795 700.017 280.63C700.017 279.465 700.962 278.52 702.127 278.52H706.687C707.852 278.52 708.797 279.465 708.797 280.63C708.796 281.795 707.852 282.74 706.687 282.74Z" fill="#D5BFFE"/>
<path d="M740.738 282.74H713.852C712.687 282.74 711.743 281.795 711.743 280.63C711.743 279.465 712.687 278.52 713.852 278.52H740.738C741.903 278.52 742.848 279.465 742.848 280.63C742.847 281.795 741.903 282.74 740.738 282.74Z" fill="#D5BFFE"/>
<path d="M740.74 264.015H729.08C727.915 264.015 726.972 263.071 726.972 261.906C726.972 260.741 727.915 259.796 729.08 259.796H740.74C741.905 259.796 742.85 260.741 742.85 261.906C742.849 263.07 741.905 264.015 740.74 264.015Z" fill="#D5BFFE"/>
<rect x="89.8623" y="76.6836" width="588.459" height="381.234" fill="#F8F8F8" stroke="#2D3E95"/>
<rect x="89.3623" y="64.8643" width="589.459" height="11.319" fill="#E5DDF4"/>
<path d="M99.2564 72.4961C100.14 72.4961 100.856 71.7797 100.856 70.896C100.856 70.0123 100.14 69.2959 99.2564 69.2959C98.3727 69.2959 97.6562 70.0123 97.6562 70.896C97.6562 71.7797 98.3727 72.4961 99.2564 72.4961Z" fill="white"/>
<path d="M107.658 72.4961C108.541 72.4961 109.258 71.7797 109.258 70.896C109.258 70.0123 108.541 69.2959 107.658 69.2959C106.774 69.2959 106.058 70.0123 106.058 70.896C106.058 71.7797 106.774 72.4961 107.658 72.4961Z" fill="white"/>
<path d="M115.883 72.4961C116.767 72.4961 117.483 71.7797 117.483 70.896C117.483 70.0123 116.767 69.2959 115.883 69.2959C115 69.2959 114.283 70.0123 114.283 70.896C114.283 71.7797 115 72.4961 115.883 72.4961Z" fill="white"/>
<path d="M667.119 90.3555H102.655V444.608H667.119V90.3555Z" fill="#E8E0F7"/>
<path d="M340.41 255.134H139.343V407.74H340.41V255.134Z" fill="white"/>
<path d="M242.921 274.455H201.072C199.666 274.455 198.527 273.316 198.527 271.91C198.527 270.505 199.666 269.366 201.072 269.366H242.921C244.327 269.366 245.468 270.505 245.468 271.91C245.468 273.316 244.327 274.455 242.921 274.455Z" fill="#E5D7FF"/>
<path d="M220.907 286.667H201.074C199.668 286.667 198.529 285.528 198.529 284.122C198.529 282.717 199.668 281.578 201.074 281.578H220.907C222.312 281.578 223.451 282.717 223.451 284.122C223.451 285.528 222.312 286.667 220.907 286.667Z" fill="#4F5DAA"/>
<path d="M213.345 297.845H201.072C199.666 297.845 198.527 296.706 198.527 295.301C198.527 293.893 199.666 292.754 201.072 292.754H213.345C214.75 292.754 215.889 293.893 215.889 295.301C215.889 296.706 214.75 297.845 213.345 297.845Z" fill="#A8B0D9"/>
<path d="M242.921 286.667H233.211C231.805 286.667 230.664 285.528 230.664 284.122C230.664 282.717 231.803 281.578 233.211 281.578H242.921C244.326 281.578 245.468 282.717 245.468 284.122C245.468 285.528 244.326 286.667 242.921 286.667Z" fill="#E5D7FF"/>
<path d="M169.784 302.751C180.074 302.751 188.415 294.41 188.415 284.12C188.415 273.83 180.074 265.488 169.784 265.488C159.494 265.488 151.152 273.83 151.152 284.12C151.152 294.41 159.494 302.751 169.784 302.751Z" fill="#E1D3FA"/>
<path d="M159.987 292.778C159.992 293.798 160.825 294.622 161.845 294.619L177.391 294.542C178.413 294.535 179.237 293.704 179.233 292.682L176.747 276.413L174.42 276.422C174.422 276.357 174.422 276.291 174.422 276.226C174.408 273.525 172.202 271.341 169.501 271.355C166.803 271.369 164.618 273.574 164.63 276.275C164.63 276.34 164.632 276.406 164.635 276.471L162.065 276.485L159.987 292.778ZM165.727 276.466C165.725 276.401 165.72 276.336 165.72 276.27C165.711 274.172 167.41 272.454 169.511 272.445C171.609 272.435 173.327 274.135 173.337 276.233C173.337 276.298 173.334 276.364 173.332 276.429L165.727 276.466Z" fill="#FAA821"/>
<path d="M242.921 323.218H201.072C199.666 323.218 198.527 322.079 198.527 320.674C198.527 319.269 199.666 318.13 201.072 318.13H242.921C244.327 318.13 245.468 319.269 245.468 320.674C245.468 322.079 244.327 323.218 242.921 323.218Z" fill="#E5D7FF"/>
<path d="M220.907 335.43H201.074C199.668 335.43 198.529 334.291 198.529 332.886C198.529 331.481 199.668 330.342 201.074 330.342H220.907C222.312 330.342 223.451 331.481 223.451 332.886C223.451 334.291 222.312 335.43 220.907 335.43Z" fill="#E5D7FF"/>
<path d="M213.345 346.608H201.072C199.666 346.608 198.527 345.469 198.527 344.064C198.527 342.657 199.666 341.518 201.072 341.518H213.345C214.75 341.518 215.889 342.657 215.889 344.064C215.889 345.469 214.75 346.608 213.345 346.608Z" fill="#E5D7FF"/>
<path d="M242.921 335.43H233.211C231.805 335.43 230.664 334.291 230.664 332.886C230.664 331.481 231.803 330.342 233.211 330.342H242.921C244.326 330.342 245.468 331.481 245.468 332.886C245.468 334.291 244.326 335.43 242.921 335.43Z" fill="#E5D7FF"/>
<path d="M170.185 351.851C180.475 351.851 188.817 343.509 188.817 333.219C188.817 322.93 180.475 314.588 170.185 314.588C159.895 314.588 151.554 322.93 151.554 333.219C151.554 343.509 159.895 351.851 170.185 351.851Z" fill="#E5D7FF"/>
<path d="M162.931 339.842C162.934 340.541 163.505 341.106 164.205 341.105L174.864 341.052C175.565 341.047 176.13 340.477 176.127 339.776L174.422 328.621L172.827 328.627C172.828 328.582 172.828 328.537 172.828 328.493C172.819 326.641 171.306 325.143 169.454 325.152C167.604 325.162 166.106 326.674 166.114 328.526C166.114 328.571 166.116 328.616 166.117 328.661L164.355 328.67L162.931 339.842ZM166.866 328.657C166.865 328.613 166.861 328.568 166.861 328.523C166.855 327.084 168.02 325.906 169.461 325.9C170.9 325.893 172.078 327.059 172.084 328.497C172.084 328.542 172.082 328.587 172.081 328.632L166.866 328.657Z" fill="white"/>
<path d="M242.921 371.974H201.072C199.666 371.974 198.527 370.835 198.527 369.43C198.527 368.025 199.666 366.886 201.072 366.886H242.921C244.327 366.886 245.468 368.025 245.468 369.43C245.468 370.835 244.327 371.974 242.921 371.974Z" fill="#E5D7FF"/>
<path d="M220.907 384.186H201.074C199.668 384.186 198.529 383.047 198.529 381.642C198.529 380.237 199.668 379.098 201.074 379.098H220.907C222.312 379.098 223.451 380.237 223.451 381.642C223.451 383.047 222.312 384.186 220.907 384.186Z" fill="#E5D7FF"/>
<path d="M213.345 395.364H201.072C199.666 395.364 198.527 394.225 198.527 392.82C198.527 391.413 199.666 390.273 201.072 390.273H213.345C214.75 390.273 215.889 391.413 215.889 392.82C215.889 394.225 214.75 395.364 213.345 395.364Z" fill="#E5D7FF"/>
<path d="M242.921 384.186H233.211C231.805 384.186 230.664 383.047 230.664 381.642C230.664 380.237 231.803 379.098 233.211 379.098H242.921C244.326 379.098 245.468 380.237 245.468 381.642C245.468 383.047 244.326 384.186 242.921 384.186Z" fill="#E5D7FF"/>
<path d="M170.185 400.607C180.475 400.607 188.817 392.265 188.817 381.975C188.817 371.685 180.475 363.344 170.185 363.344C159.895 363.344 151.554 371.685 151.554 381.975C151.554 392.265 159.895 400.607 170.185 400.607Z" fill="#E5D7FF"/>
<path d="M162.931 388.598C162.934 389.297 163.505 389.862 164.205 389.86L174.864 389.808C175.565 389.803 176.13 389.233 176.127 388.532L174.422 377.377L172.827 377.383C172.828 377.338 172.828 377.293 172.828 377.248C172.819 375.397 171.306 373.899 169.454 373.908C167.604 373.918 166.106 375.43 166.114 377.282C166.114 377.327 166.116 377.372 166.117 377.417L164.355 377.426L162.931 388.598ZM166.866 377.413C166.865 377.369 166.861 377.324 166.861 377.279C166.855 375.84 168.02 374.662 169.461 374.656C170.9 374.649 172.078 375.814 172.084 377.253C172.084 377.298 172.082 377.343 172.081 377.388L166.866 377.413Z" fill="white"/>
<path d="M324.644 268.816H269.011V272.017H324.644V268.816Z" fill="#E5D7FF"/>
<path d="M324.644 277.702H269.011V280.918H324.644V277.702Z" fill="#E5D7FF"/>
<path d="M324.644 296.394H269.011V299.609H324.644V296.394Z" fill="#E5D7FF"/>
<path d="M303.507 306.461H269.376V309.712H303.507V306.461Z" fill="#E5D7FF"/>
<path d="M324.644 315.898H269.011V319.114H324.644V315.898Z" fill="#E5D7FF"/>
<path d="M307.57 325.964H269.376V329.214H307.57V325.964Z" fill="#E5D7FF"/>
<path d="M307.57 335.714H269.376V338.964H307.57V335.714Z" fill="#E5D7FF"/>
<path d="M324.644 345.157H269.011V348.373H324.644V345.157Z" fill="#E5D7FF"/>
<path d="M293.643 286.612H269.011V289.828H293.643V286.612Z" fill="#E5D7FF"/>
<path d="M641.081 148.255H357.509V336.734H641.081V148.255Z" fill="white"/>
<path d="M438.488 351.155H355.495V408.013H438.488V351.155Z" fill="white"/>
<path d="M649.785 351.967H566.792V408.825H649.785V351.967Z" fill="white"/>
<path d="M510.035 237.116H510.047V237.104L510.035 237.116Z" fill="#E5D7FF"/>
<path d="M760.319 179.381L756.859 169.156L748.95 171.838C747.959 170.344 746.786 169.018 745.46 167.86L749.163 160.363L739.486 155.577L735.783 163.075C734.061 162.74 732.294 162.618 730.511 162.725L727.828 154.815L717.603 158.275L720.285 166.184C718.807 167.174 717.466 168.348 716.308 169.674L708.81 165.971L704.025 175.648L711.522 179.351C711.187 181.073 711.065 182.84 711.172 184.623L703.263 187.306L706.722 197.531L714.631 194.849C715.622 196.342 716.795 197.668 718.121 198.826L714.418 206.324L724.095 211.109L727.798 203.612C729.52 203.947 731.288 204.069 733.071 203.962L735.753 211.871L745.978 208.412L743.296 200.503C744.774 199.512 746.116 198.339 747.274 197.013L754.771 200.716L759.557 191.039L752.059 187.336C752.394 185.614 752.516 183.846 752.409 182.063L760.319 179.381ZM734.595 191.603C730.038 193.142 725.085 190.704 723.546 186.147C722.007 181.591 724.445 176.638 729.002 175.099C733.558 173.56 738.511 175.998 740.05 180.555C741.59 185.111 739.151 190.049 734.595 191.603Z" fill="#F4EDFF"/>
<path d="M387.18 432.028H189.115V499.34H387.18V432.028Z" fill="white"/>
<g filter="url(#filter1_d_4248_17985)">
<path d="M387.18 432.028H189.115V499.34H387.18V432.028Z" fill="white"/>
</g>
<path d="M352.617 450.849H223.479V454.049H352.617V450.849Z" fill="#E5D7FF"/>
<path d="M352.617 463.675H223.479V466.89H352.617V463.675Z" fill="#E5D7FF"/>
<path d="M280.657 477.171H223.479V480.386H280.657V477.171Z" fill="#E5D7FF"/>
<g filter="url(#filter2_d_4248_17985)">
<path d="M585.78 31.6123H387.716V98.9242H585.78V31.6123Z" fill="white"/>
</g>
<path d="M551.383 50.4355H422.245V53.6358H551.383V50.4355Z" fill="#E5D7FF"/>
<path d="M551.383 63.2637H422.245V66.4792H551.383V63.2637Z" fill="#E5D7FF"/>
<path d="M479.423 76.7725H422.245V79.988H479.423V76.7725Z" fill="#E5D7FF"/>
<g filter="url(#filter3_d_4248_17985)">
<path d="M231.853 182.744H42.5195V298.959H231.853V182.744Z" fill="#E5D7FF"/>
</g>
<path opacity="0.88" d="M224.379 175.225H35.0459V291.44H224.379V175.225Z" fill="white"/>
<path d="M42.6062 217.411C60.0619 217.411 74.2125 203.26 74.2125 185.805C74.2125 168.349 60.0619 154.198 42.6062 154.198C25.1506 154.198 11 168.349 11 185.805C11 203.26 25.1506 217.411 42.6062 217.411Z" fill="#FF1212"/>
<path d="M42.5195 167.328V185.798H57.1493" fill="#2D2F8F"/>
<path d="M42.5195 167.328V185.798H57.1493" stroke="white" stroke-width="3" stroke-miterlimit="10"/>
<path d="M205.725 209.059H76.5869V212.274H205.725V209.059Z" fill="#E5D7FF"/>
<path d="M205.725 221.886H76.5869V225.101H205.725V221.886Z" fill="#E5D7FF"/>
<path d="M205.725 234.713H76.5869V237.928H205.725V234.713Z" fill="#E5D7FF"/>
<path d="M133.765 247.549H76.5869V250.764H133.765V247.549Z" fill="#E5D7FF"/>
<path opacity="0.4" d="M629.416 194.747H487.996V292.111H629.416V194.747Z" fill="#E6DEF5"/>
<path d="M629.416 194.747H487.996V203.662H629.416V194.747Z" fill="#E5D7FF"/>
<path d="M513.925 248.591L537.043 261.407C538.201 262.062 538.978 262.641 539.359 263.144C539.74 263.662 539.938 264.302 539.938 265.095C539.938 266.085 539.573 266.954 538.856 267.685C538.14 268.417 537.302 268.783 536.342 268.783C535.717 268.783 534.772 268.432 533.522 267.746L503.699 251.151C501.688 250.038 501.688 247.143 503.699 246.03L533.522 229.45C534.772 228.78 535.702 228.444 536.311 228.444C537.287 228.444 538.14 228.81 538.856 229.526C539.573 230.243 539.938 231.111 539.938 232.102C539.938 232.894 539.74 233.534 539.359 234.052C538.978 234.571 538.201 235.15 537.043 235.79L513.925 248.591Z" fill="white"/>
<path d="M573.441 224.708L550.567 274.022C549.988 275.256 549.469 276.049 548.997 276.43C548.387 276.917 547.656 277.161 546.803 277.161C545.827 277.161 544.989 276.811 544.273 276.11C543.557 275.409 543.206 274.632 543.206 273.748C543.206 273.123 543.48 272.209 544.044 271.005L566.995 221.736C567.574 220.502 568.077 219.709 568.519 219.328C569.143 218.841 569.875 218.597 570.713 218.597C571.688 218.597 572.526 218.932 573.227 219.618C573.928 220.304 574.279 221.081 574.279 221.965C574.279 222.589 574.005 223.504 573.441 224.708Z" fill="white"/>
<path d="M602.242 248.595L579.124 235.779C577.966 235.124 577.189 234.545 576.808 234.042C576.427 233.539 576.229 232.883 576.229 232.091C576.229 231.085 576.594 230.232 577.311 229.516C578.027 228.799 578.88 228.434 579.855 228.434C580.465 228.434 581.395 228.769 582.644 229.439L612.468 246.02C614.479 247.132 614.479 250.028 612.468 251.14L582.644 267.736C581.395 268.437 580.465 268.772 579.855 268.772C578.865 268.772 578.012 268.406 577.295 267.675C576.61 266.974 576.244 266.059 576.244 265.084C576.244 264.292 576.427 263.652 576.823 263.133C577.204 262.631 577.981 262.036 579.139 261.396L602.242 248.595Z" fill="white"/>
<path d="M379.226 175.954H369.655V185.524H379.226V175.954Z" fill="white"/>
<path d="M379.226 200.751H369.655V210.321H379.226V200.751Z" fill="white"/>
<path d="M379.226 225.533H369.655V235.103H379.226V225.533Z" fill="white"/>
<path d="M379.226 250.325H369.655V259.895H379.226V250.325Z" fill="#E5D7FF"/>
<path d="M379.226 275.107H369.655V284.678H379.226V275.107Z" fill="#E5D7FF"/>
<path d="M379.226 299.904H369.655V309.475H379.226V299.904Z" fill="#E5D7FF"/>
<path d="M426.545 178.127H388.371V180.992H426.545V178.127Z" fill="#E5D7FF"/>
<path d="M410.801 202.984H397.207V205.849H410.801V202.984Z" fill="#E5D7FF"/>
<path d="M469.972 230.84H456.379V233.705H469.972V230.84Z" fill="#E5D7FF"/>
<path d="M410.801 252.99H397.207V255.855H410.801V252.99Z" fill="#E5D7FF"/>
<path d="M430.483 252.989H416.89V255.854H430.483V252.989Z" fill="#E5D7FF"/>
<path d="M451.62 230.866H416.89V233.731H451.62V230.866Z" fill="#E5D7FF"/>
<path d="M459.991 252.987H437.117V255.852H459.991V252.987Z" fill="#E5D7FF"/>
<path d="M450.571 306.13H436.978V308.995H450.571V306.13Z" fill="#E5D7FF"/>
<path d="M470.122 306.129H456.528V308.994H470.122V306.129Z" fill="#E5D7FF"/>
<path d="M484.42 306.132H476.831V308.997H484.42V306.132Z" fill="#E5D7FF"/>
<path d="M459.933 202.983H417.629V205.848H459.933V202.983Z" fill="#E5D7FF"/>
<path d="M430.483 278.89H416.89V281.755H430.483V278.89Z" fill="#E5D7FF"/>
<path d="M442.726 278.886H434.862V281.751H442.726V278.886Z" fill="#E5D7FF"/>
<path d="M471.069 278.895H448.865V281.76H471.069V278.895Z" fill="#E5D7FF"/>
<g filter="url(#filter4_d_4248_17985)">
<path d="M407.054 114.115H283.585V237.584H407.054V114.115Z" fill="white"/>
</g>
<path d="M355.458 160.111L339.944 185.378L330.16 169.179L307.484 206.104H327.219H352.456H383.239L355.458 160.111Z" fill="#E5D7FF"/>
<path d="M330.071 162.297C334.683 162.297 338.422 158.558 338.422 153.946C338.422 149.334 334.683 145.595 330.071 145.595C325.459 145.595 321.72 149.334 321.72 153.946C321.72 158.558 325.459 162.297 330.071 162.297Z" fill="#E5D7FF"/>
<g filter="url(#filter5_d_4248_17985)">
<path d="M549 393H463V479H549V393Z" fill="white"/>
</g>
<path d="M513.061 425.037L502.256 442.636L495.441 431.353L479.646 457.072H493.392H510.97H532.412L513.061 425.037Z" fill="#FF1212"/>
<path d="M495.379 426.559C498.592 426.559 501.196 423.955 501.196 420.743C501.196 417.53 498.592 414.926 495.379 414.926C492.167 414.926 489.562 417.53 489.562 420.743C489.562 423.955 492.167 426.559 495.379 426.559Z" fill="#FF1212"/>
<path d="M384.627 384.517H388.899C388.829 385.835 388.468 387 387.818 388.01C387.176 389.012 386.284 389.799 385.142 390.37C383.999 390.933 382.641 391.214 381.068 391.214C379.811 391.214 378.686 390.999 377.693 390.568C376.7 390.137 375.856 389.522 375.162 388.722C374.476 387.914 373.949 386.942 373.58 385.809C373.219 384.666 373.039 383.378 373.039 381.946V380.772C373.039 379.34 373.228 378.052 373.606 376.91C373.984 375.767 374.524 374.792 375.228 373.983C375.931 373.174 376.774 372.555 377.759 372.124C378.743 371.693 379.842 371.478 381.055 371.478C382.689 371.478 384.069 371.772 385.194 372.361C386.319 372.95 387.189 373.759 387.805 374.787C388.429 375.815 388.802 376.989 388.925 378.307H384.641C384.605 377.56 384.465 376.932 384.219 376.422C383.973 375.903 383.595 375.512 383.085 375.249C382.575 374.985 381.898 374.853 381.055 374.853C380.439 374.853 379.899 374.967 379.433 375.196C378.976 375.424 378.594 375.78 378.286 376.264C377.987 376.747 377.763 377.362 377.614 378.109C377.464 378.848 377.39 379.727 377.39 380.746V381.946C377.39 382.957 377.456 383.831 377.587 384.569C377.719 385.308 377.93 385.918 378.22 386.402C378.519 386.885 378.901 387.246 379.367 387.483C379.833 387.72 380.4 387.839 381.068 387.839C381.833 387.839 382.47 387.72 382.979 387.483C383.489 387.237 383.88 386.868 384.153 386.375C384.425 385.883 384.583 385.264 384.627 384.517ZM401.239 385.888C401.239 385.562 401.19 385.272 401.094 385.018C400.997 384.754 400.821 384.512 400.566 384.292C400.312 384.073 399.951 383.853 399.485 383.633C399.02 383.405 398.409 383.172 397.653 382.935C396.792 382.653 395.97 382.337 395.188 381.985C394.414 381.625 393.724 381.208 393.118 380.733C392.511 380.258 392.032 379.705 391.681 379.072C391.338 378.439 391.167 377.701 391.167 376.857C391.167 376.04 391.347 375.301 391.707 374.642C392.067 373.983 392.573 373.42 393.223 372.955C393.874 372.48 394.638 372.12 395.517 371.874C396.396 371.619 397.363 371.491 398.417 371.491C399.824 371.491 401.059 371.742 402.122 372.243C403.194 372.735 404.029 373.429 404.627 374.326C405.225 375.213 405.523 376.246 405.523 377.424H401.252C401.252 376.905 401.142 376.448 400.922 376.053C400.711 375.648 400.386 375.332 399.947 375.104C399.516 374.875 398.976 374.761 398.325 374.761C397.692 374.761 397.161 374.857 396.73 375.051C396.308 375.235 395.987 375.49 395.768 375.815C395.557 376.141 395.451 376.497 395.451 376.883C395.451 377.191 395.53 377.472 395.688 377.727C395.855 377.973 396.093 378.206 396.4 378.426C396.717 378.637 397.104 378.839 397.561 379.032C398.018 379.226 398.541 379.41 399.129 379.586C400.158 379.911 401.067 380.271 401.858 380.667C402.658 381.062 403.331 381.511 403.875 382.012C404.42 382.513 404.829 383.08 405.102 383.712C405.383 384.345 405.523 385.062 405.523 385.861C405.523 386.714 405.356 387.47 405.022 388.129C404.697 388.788 404.223 389.351 403.599 389.816C402.983 390.273 402.245 390.621 401.384 390.858C400.522 391.095 399.56 391.214 398.497 391.214C397.53 391.214 396.576 391.091 395.636 390.845C394.695 390.59 393.843 390.203 393.078 389.685C392.322 389.166 391.716 388.507 391.259 387.707C390.811 386.898 390.586 385.94 390.586 384.833H394.884C394.884 385.413 394.968 385.905 395.135 386.31C395.302 386.705 395.539 387.026 395.847 387.272C396.163 387.518 396.545 387.694 396.994 387.799C397.442 387.905 397.943 387.958 398.497 387.958C399.138 387.958 399.657 387.87 400.052 387.694C400.457 387.509 400.755 387.259 400.949 386.942C401.142 386.626 401.239 386.274 401.239 385.888ZM418.008 385.888C418.008 385.562 417.96 385.272 417.863 385.018C417.767 384.754 417.591 384.512 417.336 384.292C417.081 384.073 416.721 383.853 416.255 383.633C415.789 383.405 415.178 383.172 414.422 382.935C413.561 382.653 412.739 382.337 411.957 381.985C411.184 381.625 410.494 381.208 409.887 380.733C409.281 380.258 408.802 379.705 408.45 379.072C408.107 378.439 407.936 377.701 407.936 376.857C407.936 376.04 408.116 375.301 408.477 374.642C408.837 373.983 409.342 373.42 409.993 372.955C410.643 372.48 411.408 372.12 412.287 371.874C413.166 371.619 414.132 371.491 415.187 371.491C416.593 371.491 417.828 371.742 418.892 372.243C419.964 372.735 420.799 373.429 421.396 374.326C421.994 375.213 422.293 376.246 422.293 377.424H418.021C418.021 376.905 417.912 376.448 417.692 376.053C417.481 375.648 417.156 375.332 416.716 375.104C416.286 374.875 415.745 374.761 415.095 374.761C414.462 374.761 413.93 374.857 413.5 375.051C413.078 375.235 412.757 375.49 412.537 375.815C412.326 376.141 412.221 376.497 412.221 376.883C412.221 377.191 412.3 377.472 412.458 377.727C412.625 377.973 412.862 378.206 413.17 378.426C413.486 378.637 413.873 378.839 414.33 379.032C414.787 379.226 415.31 379.41 415.899 379.586C416.927 379.911 417.837 380.271 418.628 380.667C419.428 381.062 420.1 381.511 420.645 382.012C421.19 382.513 421.599 383.08 421.871 383.712C422.152 384.345 422.293 385.062 422.293 385.861C422.293 386.714 422.126 387.47 421.792 388.129C421.467 388.788 420.992 389.351 420.368 389.816C419.753 390.273 419.015 390.621 418.153 390.858C417.292 391.095 416.33 391.214 415.266 391.214C414.299 391.214 413.346 391.091 412.405 390.845C411.465 390.59 410.612 390.203 409.848 389.685C409.092 389.166 408.485 388.507 408.028 387.707C407.58 386.898 407.356 385.94 407.356 384.833H411.654C411.654 385.413 411.737 385.905 411.904 386.31C412.071 386.705 412.309 387.026 412.616 387.272C412.933 387.518 413.315 387.694 413.763 387.799C414.211 387.905 414.712 387.958 415.266 387.958C415.908 387.958 416.426 387.87 416.822 387.694C417.226 387.509 417.525 387.259 417.718 386.942C417.912 386.626 418.008 386.274 418.008 385.888Z" fill="#FF1212"/>
<path d="M590.332 380.792V383.622H581.864V380.792H590.332ZM583.021 374.211V390.562H579.359V374.211H583.021ZM592.858 374.211V390.562H589.208V374.211H592.858ZM602.854 374.211V390.562H599.204V374.211H602.854ZM607.829 374.211V377.052H594.33V374.211H607.829ZM611.389 374.211H614.421L618.352 385.902L622.271 374.211H625.303L619.576 390.562H617.116L611.389 374.211ZM609.637 374.211H612.725L613.298 386.329V390.562H609.637V374.211ZM623.967 374.211H627.066V390.562H623.394V386.329L623.967 374.211ZM640.453 387.732V390.562H632.199V387.732H640.453ZM633.445 374.211V390.562H629.784V374.211H633.445Z" fill="#FF1212"/>
<g filter="url(#filter6_d_4248_17985)">
<path d="M740.713 313.898H614.684V391.253H740.713V313.898Z" fill="white"/>
</g>
<path d="M635.933 368.221V340.221H649.733C652.853 340.221 655.6 340.794 657.973 341.941C660.347 343.061 662.2 344.661 663.533 346.741C664.867 348.821 665.533 351.301 665.533 354.181C665.533 357.087 664.867 359.594 663.533 361.701C662.2 363.781 660.347 365.394 657.973 366.541C655.6 367.661 652.853 368.221 649.733 368.221H635.933ZM645.373 360.861H649.333C650.667 360.861 651.827 360.607 652.813 360.101C653.827 359.594 654.613 358.847 655.173 357.861C655.733 356.847 656.013 355.621 656.013 354.181C656.013 352.767 655.733 351.567 655.173 350.581C654.613 349.594 653.827 348.847 652.813 348.341C651.827 347.834 650.667 347.581 649.333 347.581H645.373V360.861ZM677.62 350.621H690.1V357.421H677.62V350.621ZM678.26 361.101H692.26V368.221H668.98V340.221H691.74V347.341H678.26V361.101ZM704.304 368.221L692.464 340.221H702.624L712.264 363.861H706.224L716.144 340.221H725.424L713.584 368.221H704.304Z" fill="#FF1212"/>
<g filter="url(#filter7_d_4248_17985)">
<rect x="653" y="103" width="107" height="52" fill="white"/>
</g>
<path d="M674.56 140.3C673.44 140.3 672.5 139.94 671.74 139.22C670.98 138.48 670.6 137.54 670.6 136.4C670.6 135.24 670.98 134.31 671.74 133.61C672.5 132.91 673.44 132.56 674.56 132.56C675.68 132.56 676.62 132.91 677.38 133.61C678.14 134.31 678.52 135.24 678.52 136.4C678.52 137.54 678.14 138.48 677.38 139.22C676.62 139.94 675.68 140.3 674.56 140.3ZM680.821 140V119H686.641L697.321 131.78H694.621V119H701.521V140H695.701L685.021 127.22H687.721V140H680.821ZM711.413 126.8H720.773V131.9H711.413V126.8ZM711.893 134.66H722.393V140H704.933V119H722.003V124.34H711.893V134.66ZM729.678 140V124.49H723.528V119H742.908V124.49H736.758V140H729.678Z" fill="#FF1212"/>
<path d="M230.477 102.694H154.524V153.346H230.477V102.694Z" fill="#FF1212"/>
<path d="M182.321 116.373L201.716 128L182.321 139.627V116.373Z" fill="white"/>
<defs>
<filter id="filter0_d_4248_17985" x="26.8975" y="0.980469" width="714.54" height="524.382" filterUnits="userSpaceOnUse" color-interpolation-filters="sRGB">
<feFlood flood-opacity="0" result="BackgroundImageFix"/>
<feColorMatrix in="SourceAlpha" type="matrix" values="0 0 0 0 0 0 0 0 0 0 0 0 0 0 0 0 0 0 127 0" result="hardAlpha"/>
<feOffset dx="-1" dy="1"/>
<feGaussianBlur stdDeviation="35"/>
<feComposite in2="hardAlpha" operator="out"/>
<feColorMatrix type="matrix" values="0 0 0 0 0 0 0 0 0 0 0 0 0 0 0 0 0 0 0.16 0"/>
<feBlend mode="normal" in2="BackgroundImageFix" result="effect1_dropShadow_4248_17985"/>
<feBlend mode="normal" in="SourceGraphic" in2="effect1_dropShadow_4248_17985" result="shape"/>
</filter>
<filter id="filter1_d_4248_17985" x="163.115" y="406.028" width="258.064" height="127.312" filterUnits="userSpaceOnUse" color-interpolation-filters="sRGB">
<feFlood flood-opacity="0" result="BackgroundImageFix"/>
<feColorMatrix in="SourceAlpha" type="matrix" values="0 0 0 0 0 0 0 0 0 0 0 0 0 0 0 0 0 0 127 0" result="hardAlpha"/>
<feOffset dx="4" dy="4"/>
<feGaussianBlur stdDeviation="15"/>
<feComposite in2="hardAlpha" operator="out"/>
<feColorMatrix type="matrix" values="0 0 0 0 0 0 0 0 0 0 0 0 0 0 0 0 0 0 0.14 0"/>
<feBlend mode="normal" in2="BackgroundImageFix" result="effect1_dropShadow_4248_17985"/>
<feBlend mode="normal" in="SourceGraphic" in2="effect1_dropShadow_4248_17985" result="shape"/>
</filter>
<filter id="filter2_d_4248_17985" x="361.716" y="5.6123" width="258.064" height="127.312" filterUnits="userSpaceOnUse" color-interpolation-filters="sRGB">
<feFlood flood-opacity="0" result="BackgroundImageFix"/>
<feColorMatrix in="SourceAlpha" type="matrix" values="0 0 0 0 0 0 0 0 0 0 0 0 0 0 0 0 0 0 127 0" result="hardAlpha"/>
<feOffset dx="4" dy="4"/>
<feGaussianBlur stdDeviation="15"/>
<feComposite in2="hardAlpha" operator="out"/>
<feColorMatrix type="matrix" values="0 0 0 0 0 0 0 0 0 0 0 0 0 0 0 0 0 0 0.14 0"/>
<feBlend mode="normal" in2="BackgroundImageFix" result="effect1_dropShadow_4248_17985"/>
<feBlend mode="normal" in="SourceGraphic" in2="effect1_dropShadow_4248_17985" result="shape"/>
</filter>
<filter id="filter3_d_4248_17985" x="0.519531" y="146.744" width="269.333" height="196.215" filterUnits="userSpaceOnUse" color-interpolation-filters="sRGB">
<feFlood flood-opacity="0" result="BackgroundImageFix"/>
<feColorMatrix in="SourceAlpha" type="matrix" values="0 0 0 0 0 0 0 0 0 0 0 0 0 0 0 0 0 0 127 0" result="hardAlpha"/>
<feOffset dx="-2" dy="4"/>
<feGaussianBlur stdDeviation="20"/>
<feComposite in2="hardAlpha" operator="out"/>
<feColorMatrix type="matrix" values="0 0 0 0 0 0 0 0 0 0 0 0 0 0 0 0 0 0 0.2 0"/>
<feBlend mode="normal" in2="BackgroundImageFix" result="effect1_dropShadow_4248_17985"/>
<feBlend mode="normal" in="SourceGraphic" in2="effect1_dropShadow_4248_17985" result="shape"/>
</filter>
<filter id="filter4_d_4248_17985" x="263.585" y="88.1152" width="183.469" height="183.469" filterUnits="userSpaceOnUse" color-interpolation-filters="sRGB">
<feFlood flood-opacity="0" result="BackgroundImageFix"/>
<feColorMatrix in="SourceAlpha" type="matrix" values="0 0 0 0 0 0 0 0 0 0 0 0 0 0 0 0 0 0 127 0" result="hardAlpha"/>
<feOffset dx="10" dy="4"/>
<feGaussianBlur stdDeviation="15"/>
<feComposite in2="hardAlpha" operator="out"/>
<feColorMatrix type="matrix" values="0 0 0 0 0 0 0 0 0 0 0 0 0 0 0 0 0 0 0.17 0"/>
<feBlend mode="normal" in2="BackgroundImageFix" result="effect1_dropShadow_4248_17985"/>
<feBlend mode="normal" in="SourceGraphic" in2="effect1_dropShadow_4248_17985" result="shape"/>
</filter>
<filter id="filter5_d_4248_17985" x="443" y="367" width="146" height="146" filterUnits="userSpaceOnUse" color-interpolation-filters="sRGB">
<feFlood flood-opacity="0" result="BackgroundImageFix"/>
<feColorMatrix in="SourceAlpha" type="matrix" values="0 0 0 0 0 0 0 0 0 0 0 0 0 0 0 0 0 0 127 0" result="hardAlpha"/>
<feOffset dx="10" dy="4"/>
<feGaussianBlur stdDeviation="15"/>
<feComposite in2="hardAlpha" operator="out"/>
<feColorMatrix type="matrix" values="0 0 0 0 0 0 0 0 0 0 0 0 0 0 0 0 0 0 0.17 0"/>
<feBlend mode="normal" in2="BackgroundImageFix" result="effect1_dropShadow_4248_17985"/>
<feBlend mode="normal" in="SourceGraphic" in2="effect1_dropShadow_4248_17985" result="shape"/>
</filter>
<filter id="filter6_d_4248_17985" x="578.684" y="278.898" width="206.029" height="157.354" filterUnits="userSpaceOnUse" color-interpolation-filters="sRGB">
<feFlood flood-opacity="0" result="BackgroundImageFix"/>
<feColorMatrix in="SourceAlpha" type="matrix" values="0 0 0 0 0 0 0 0 0 0 0 0 0 0 0 0 0 0 127 0" result="hardAlpha"/>
<feOffset dx="4" dy="5"/>
<feGaussianBlur stdDeviation="20"/>
<feComposite in2="hardAlpha" operator="out"/>
<feColorMatrix type="matrix" values="0 0 0 0 0 0 0 0 0 0 0 0 0 0 0 0 0 0 0.14 0"/>
<feBlend mode="normal" in2="BackgroundImageFix" result="effect1_dropShadow_4248_17985"/>
<feBlend mode="normal" in="SourceGraphic" in2="effect1_dropShadow_4248_17985" result="shape"/>
</filter>
<filter id="filter7_d_4248_17985" x="627" y="77" width="167" height="112" filterUnits="userSpaceOnUse" color-interpolation-filters="sRGB">
<feFlood flood-opacity="0" result="BackgroundImageFix"/>
<feColorMatrix in="SourceAlpha" type="matrix" values="0 0 0 0 0 0 0 0 0 0 0 0 0 0 0 0 0 0 127 0" result="hardAlpha"/>
<feOffset dx="4" dy="4"/>
<feGaussianBlur stdDeviation="15"/>
<feComposite in2="hardAlpha" operator="out"/>
<feColorMatrix type="matrix" values="0 0 0 0 0 0 0 0 0 0 0 0 0 0 0 0 0 0 0.14 0"/>
<feBlend mode="normal" in2="BackgroundImageFix" result="effect1_dropShadow_4248_17985"/>
<feBlend mode="normal" in="SourceGraphic" in2="effect1_dropShadow_4248_17985" result="shape"/>
</filter>
</defs>
</svg>
