<svg width="750" height="614" viewBox="0 0 750 614" fill="none" xmlns="http://www.w3.org/2000/svg">
<g opacity="0.7">
<path d="M161.022 157.831V139.028C161.022 137.19 159.531 135.699 157.693 135.699H152.852C151.435 135.699 150.181 134.735 149.865 133.354C148.19 126.053 145.338 119.202 141.489 113.025C140.723 111.794 140.868 110.204 141.893 109.179L145.296 105.776C146.596 104.475 146.596 102.367 145.296 101.067L132.002 87.773C130.701 86.4724 128.594 86.4724 127.293 87.773L123.894 91.1722C122.867 92.1994 121.278 92.3443 120.045 91.5757C113.871 87.7253 107.017 84.8692 99.7146 83.1925C98.3352 82.8752 97.3721 81.6223 97.3721 80.2061V75.3817C97.3721 73.5436 95.8807 72.0522 94.0427 72.0522H75.2401C73.402 72.0522 71.9107 73.5436 71.9107 75.3817V80.2061C71.9107 81.6223 70.9476 82.877 69.5663 83.1925C62.2617 84.8692 55.4066 87.7253 49.232 91.5757C47.9993 92.3443 46.4107 92.1994 45.3834 91.1722L41.988 87.7767C40.6874 86.4761 38.5797 86.4761 37.2791 87.7767L23.9852 101.071C22.6846 102.371 22.6846 104.479 23.9852 105.779L27.3843 109.179C28.4116 110.206 28.5565 111.794 27.7879 113.027C23.9412 119.204 21.0868 126.057 19.412 133.358C19.0947 134.739 17.8418 135.702 16.4238 135.702H11.5902C9.75028 135.702 8.26074 137.194 8.26074 139.032V157.834C8.26074 159.672 9.75211 161.164 11.5902 161.164H16.4257C17.8418 161.164 19.0965 162.125 19.412 163.506C21.0905 170.809 23.9448 177.66 27.7916 183.833C28.5602 185.064 28.4134 186.654 27.388 187.682L23.9852 191.084C22.6846 192.385 22.6846 194.493 23.9852 195.793L37.2791 209.089C38.5778 210.39 40.6874 210.39 41.988 209.089L45.3944 205.683C46.4217 204.655 48.0103 204.51 49.243 205.277C55.4158 209.122 62.2654 211.971 69.5681 213.648C70.9494 213.965 71.9125 215.218 71.9125 216.634V221.484C71.9125 223.322 73.4039 224.814 75.2419 224.814H94.0445C95.8844 224.814 97.3739 223.322 97.3739 221.484V216.632C97.3739 215.216 98.337 213.961 99.7183 213.646C107.019 211.971 113.869 209.12 120.042 205.275C121.272 204.509 122.863 204.654 123.888 205.679L127.297 209.087C128.597 210.388 130.705 210.388 132.006 209.087L145.299 195.792C146.6 194.491 146.598 192.383 145.299 191.083L141.893 187.678C140.866 186.651 140.721 185.062 141.489 183.829C145.336 177.657 148.189 170.805 149.865 163.504C150.183 162.123 151.435 161.162 152.852 161.162H157.694C159.532 161.16 161.022 159.669 161.022 157.831ZM84.6359 201.443C55.3571 201.443 31.6548 177.693 31.6548 148.415C31.6548 119.18 55.3571 95.4298 84.6359 95.4298C113.915 95.4298 137.619 119.18 137.619 148.415C137.619 177.693 113.917 201.443 84.6359 201.443Z" stroke="#E5D7FF" stroke-width="0.7896" stroke-miterlimit="10"/>
<path d="M678.497 376.601V362.561C678.497 361.188 677.383 360.074 676.011 360.074H672.396C671.338 360.074 670.401 359.355 670.166 358.324C668.915 352.872 666.785 347.756 663.911 343.144C663.339 342.225 663.447 341.037 664.213 340.272L666.754 337.731C667.725 336.76 667.725 335.186 666.754 334.214L656.827 324.288C655.856 323.317 654.282 323.317 653.311 324.288L650.773 326.826C650.005 327.593 648.819 327.701 647.899 327.127C643.288 324.252 638.171 322.119 632.718 320.867C631.688 320.63 630.968 319.695 630.968 318.637V315.035C630.968 313.662 629.855 312.549 628.482 312.549H614.442C613.07 312.549 611.956 313.662 611.956 315.035V318.637C611.956 319.695 611.237 320.632 610.205 320.867C604.751 322.119 599.632 324.252 595.022 327.127C594.101 327.701 592.915 327.593 592.148 326.826L589.612 324.29C588.641 323.319 587.067 323.319 586.096 324.29L576.169 334.217C575.198 335.188 575.198 336.762 576.169 337.733L578.708 340.272C579.475 341.039 579.583 342.225 579.009 343.145C576.137 347.757 574.005 352.875 572.755 358.327C572.518 359.358 571.582 360.077 570.523 360.077H566.914C565.54 360.077 564.428 361.191 564.428 362.563V376.603C564.428 377.976 565.541 379.09 566.914 379.09H570.525C571.582 379.09 572.519 379.807 572.755 380.839C574.008 386.292 576.139 391.408 579.012 396.017C579.586 396.936 579.476 398.124 578.71 398.891L576.169 401.432C575.198 402.403 575.198 403.977 576.169 404.948L586.096 414.876C587.066 415.847 588.641 415.847 589.612 414.876L592.156 412.332C592.923 411.565 594.109 411.457 595.03 412.03C599.639 414.901 604.754 417.028 610.207 418.28C611.238 418.517 611.957 419.453 611.957 420.51V424.132C611.957 425.504 613.071 426.618 614.444 426.618H628.484C629.858 426.618 630.97 425.504 630.97 424.132V420.509C630.97 419.451 631.689 418.514 632.72 418.279C638.172 417.028 643.287 414.899 647.896 412.028C648.815 411.456 650.003 411.564 650.768 412.33L653.313 414.875C654.285 415.846 655.859 415.846 656.83 414.875L666.756 404.947C667.728 403.976 667.726 402.402 666.756 401.43L664.213 398.888C663.446 398.121 663.337 396.935 663.911 396.014C666.784 391.405 668.914 386.289 670.166 380.837C670.403 379.806 671.338 379.088 672.396 379.088H676.012C677.384 379.087 678.497 377.973 678.497 376.601ZM621.458 409.167C599.595 409.167 581.896 391.433 581.896 369.57C581.896 347.74 599.595 330.005 621.458 330.005C643.321 330.005 661.021 347.74 661.021 369.57C661.021 391.433 643.322 409.167 621.458 409.167Z" stroke="#E5D7FF" stroke-miterlimit="10"/>
<path d="M247.498 221.477V208.664C247.498 207.409 246.482 206.395 245.229 206.395H241.931C240.964 206.395 240.111 205.738 239.895 204.797C238.752 199.822 236.807 195.152 234.186 190.943C233.663 190.103 233.762 189.021 234.461 188.32L236.782 186.002C237.668 185.116 237.668 183.677 236.782 182.791L227.721 173.731C226.835 172.845 225.399 172.845 224.511 173.731L222.194 176.048C221.496 176.749 220.411 176.848 219.571 176.323C215.365 173.698 210.695 171.754 205.716 170.609C204.775 170.393 204.118 169.54 204.118 168.573V165.286C204.118 164.033 203.102 163.017 201.849 163.017H189.036C187.783 163.017 186.767 164.033 186.767 165.286V168.573C186.767 169.538 186.11 170.393 185.169 170.607C180.19 171.75 175.52 173.696 171.31 176.321C170.47 176.844 169.388 176.745 168.687 176.046L166.374 173.733C165.488 172.847 164.049 172.847 163.163 173.733L154.105 182.793C153.219 183.679 153.219 185.116 154.105 186.003L156.422 188.32C157.123 189.019 157.222 190.103 156.697 190.943C154.074 195.152 152.13 199.822 150.989 204.799C150.772 205.74 149.919 206.396 148.952 206.396H145.658C144.405 206.396 143.389 207.413 143.389 208.666V221.479C143.389 222.732 144.405 223.748 145.658 223.748H148.954C149.919 223.748 150.774 224.403 150.989 225.346C152.133 230.322 154.078 234.991 156.699 239.197C157.222 240.037 157.123 241.12 156.424 241.821L154.103 244.141C153.217 245.027 153.217 246.465 154.103 247.351L163.162 256.411C164.048 257.297 165.486 257.297 166.372 256.411L168.694 254.089C169.393 253.39 170.477 253.289 171.316 253.814C175.522 256.433 180.19 258.376 185.167 259.517C186.108 259.733 186.765 260.586 186.765 261.553V264.859C186.765 266.112 187.781 267.128 189.034 267.128H201.847C203.1 267.128 204.116 266.112 204.116 264.859V261.553C204.116 260.588 204.773 259.733 205.714 259.517C210.689 258.376 215.358 256.433 219.564 253.814C220.404 253.291 221.486 253.39 222.185 254.089L224.509 256.413C225.395 257.299 226.834 257.299 227.72 256.413L236.78 247.353C237.666 246.467 237.666 245.031 236.78 244.143L234.457 241.822C233.757 241.123 233.658 240.039 234.182 239.199C236.804 234.993 238.748 230.324 239.891 225.348C240.107 224.407 240.96 223.75 241.925 223.75H245.225C246.482 223.748 247.498 222.732 247.498 221.477ZM195.442 249.162C176.615 249.162 161.373 233.89 161.373 215.062C161.373 196.263 176.615 180.992 195.442 180.992C214.27 180.992 229.512 196.263 229.512 215.062C229.512 233.89 214.27 249.162 195.442 249.162Z" fill="#F4EEFE"/>
<path opacity="0.4" d="M6.21127 560.745C9.64166 560.745 12.4225 557.964 12.4225 554.534C12.4225 551.104 9.64166 548.323 6.21127 548.323C2.78088 548.323 0 551.104 0 554.534C0 557.964 2.78088 560.745 6.21127 560.745Z" fill="#A4AFFF"/>
<path d="M594.549 128.754C594.549 131.632 592.216 133.965 589.338 133.965C586.46 133.965 584.127 131.632 584.127 128.754C584.127 125.876 586.46 123.542 589.338 123.542C592.216 123.542 594.549 125.876 594.549 128.754Z" stroke="#E5D7FF" stroke-width="2"/>
<path opacity="0.4" d="M478.242 12.4225C481.672 12.4225 484.453 9.64166 484.453 6.21127C484.453 2.78088 481.672 0 478.242 0C474.811 0 472.03 2.78088 472.03 6.21127C472.03 9.64166 474.811 12.4225 478.242 12.4225Z" fill="#A4AFFF"/>
<path d="M602.603 91.5284C604.755 91.5284 606.5 89.7839 606.5 87.6321C606.5 85.4803 604.755 83.7358 602.603 83.7358C600.451 83.7358 598.707 85.4803 598.707 87.6321C598.707 89.7839 600.451 91.5284 602.603 91.5284Z" fill="#A4AFFF"/>
<path opacity="0.4" d="M166.802 81.9375C168.954 81.9375 170.699 80.1931 170.699 78.0413C170.699 75.8894 168.954 74.145 166.802 74.145C164.651 74.145 162.906 75.8894 162.906 78.0413C162.906 80.1931 164.651 81.9375 166.802 81.9375Z" fill="#A4AFFF"/>
<path opacity="0.4" d="M112.867 279.559C115.019 279.559 116.763 277.815 116.763 275.663C116.763 273.511 115.019 271.767 112.867 271.767C110.715 271.767 108.971 273.511 108.971 275.663C108.971 277.815 110.715 279.559 112.867 279.559Z" fill="#A4AFFF"/>
<path opacity="0.4" d="M45.8875 230.227C48.0393 230.227 49.7837 228.483 49.7837 226.331C49.7837 224.179 48.0393 222.435 45.8875 222.435C43.7356 222.435 41.9912 224.179 41.9912 226.331C41.9912 228.483 43.7356 230.227 45.8875 230.227Z" fill="#A4AFFF"/>
<path opacity="0.4" d="M221.587 554.25C225.018 554.25 227.798 551.469 227.798 548.039C227.798 544.609 225.018 541.828 221.587 541.828C218.157 541.828 215.376 544.609 215.376 548.039C215.376 551.469 218.157 554.25 221.587 554.25Z" fill="#A4AFFF"/>
<path opacity="0.4" d="M534.136 551.968C537.566 551.968 540.347 549.188 540.347 545.757C540.347 542.327 537.566 539.546 534.136 539.546C530.706 539.546 527.925 542.327 527.925 545.757C527.925 549.188 530.706 551.968 534.136 551.968Z" fill="#A4AFFF"/>
<path opacity="0.4" d="M201.054 322.69C204.484 322.69 207.265 319.909 207.265 316.479C207.265 313.048 204.484 310.268 201.054 310.268C197.624 310.268 194.843 313.048 194.843 316.479C194.843 319.909 197.624 322.69 201.054 322.69Z" fill="#A4AFFF"/>
<path d="M542.821 323.504C542.821 327.542 539.547 330.815 535.509 330.815C531.471 330.815 528.197 327.542 528.197 323.504C528.197 319.465 531.471 316.192 535.509 316.192C539.547 316.192 542.821 319.465 542.821 323.504Z" stroke="#E5D7FF" stroke-width="2"/>
<path d="M53.051 372.192C53.051 376.23 49.7775 379.503 45.7394 379.503C41.7013 379.503 38.4277 376.23 38.4277 372.192C38.4277 368.153 41.7013 364.88 45.7394 364.88C49.7775 364.88 53.051 368.153 53.051 372.192Z" stroke="#E5D7FF" stroke-width="2"/>
<path d="M593.282 460.827L576.763 451.301L593.282 441.758V460.827Z" stroke="#E5D7FF" stroke-width="2"/>
<path d="M193.476 44.6506L187.445 55.1085L181.403 44.6506H193.476Z" stroke="#E5D7FF" stroke-width="2"/>
<path d="M127.667 301.614H106.331C105.039 301.614 103.991 300.567 103.991 299.275C103.991 297.983 105.039 296.935 106.331 296.935H127.667C128.959 296.935 130.005 297.983 130.005 299.275C130.005 300.566 128.959 301.614 127.667 301.614Z" fill="#D5BFFE"/>
<path d="M149.156 311.997H106.332C105.04 311.997 103.992 310.949 103.992 309.657C103.992 308.365 105.04 307.318 106.332 307.318H149.156C150.448 307.318 151.496 308.365 151.496 309.657C151.495 310.949 150.448 311.997 149.156 311.997Z" fill="#D5BFFE"/>
<path d="M111.39 322.382H106.332C105.04 322.382 103.992 321.334 103.992 320.042C103.992 318.75 105.04 317.702 106.332 317.702H111.39C112.682 317.702 113.73 318.75 113.73 320.042C113.729 321.334 112.682 322.382 111.39 322.382Z" fill="#D5BFFE"/>
<path d="M149.157 322.382H119.339C118.046 322.382 117 321.334 117 320.042C117 318.75 118.046 317.702 119.339 317.702H149.157C150.449 317.702 151.497 318.75 151.497 320.042C151.496 321.334 150.449 322.382 149.157 322.382Z" fill="#D5BFFE"/>
<path d="M149.158 301.614H136.226C134.934 301.614 133.888 300.567 133.888 299.275C133.888 297.983 134.934 296.935 136.226 296.935H149.158C150.45 296.935 151.498 297.983 151.498 299.275C151.497 300.566 150.45 301.614 149.158 301.614Z" fill="#D5BFFE"/>
<path d="M563.62 263.862H532.354C531.056 263.862 530.005 262.81 530.005 261.512C530.005 260.214 531.058 259.163 532.354 259.163H563.62C564.918 259.163 565.969 260.214 565.969 261.512C565.969 262.81 564.918 263.862 563.62 263.862Z" fill="#D5BFFE"/>
<path d="M594.899 263.862H572.273C570.975 263.862 569.924 262.81 569.924 261.512C569.924 260.214 570.977 259.163 572.273 259.163H594.899C596.197 259.163 597.249 260.214 597.249 261.512C597.25 262.81 596.197 263.862 594.899 263.862Z" fill="#D5BFFE"/>
<path d="M545.638 274.192H532.354C531.056 274.192 530.005 273.141 530.005 271.843C530.005 270.545 531.058 269.494 532.354 269.494H545.638C546.936 269.494 547.988 270.545 547.988 271.843C547.988 273.141 546.935 274.192 545.638 274.192Z" fill="#D5BFFE"/>
<path d="M594.898 274.192H553.524C552.226 274.192 551.175 273.141 551.175 271.843C551.175 270.545 552.228 269.494 553.524 269.494H594.898C596.196 269.494 597.247 270.545 597.247 271.843C597.249 273.141 596.196 274.192 594.898 274.192Z" fill="#D5BFFE"/>
<path d="M573.568 284.523H532.354C531.056 284.523 530.005 283.471 530.005 282.173C530.005 280.876 531.058 279.824 532.354 279.824H573.568C574.865 279.824 575.917 280.876 575.917 282.173C575.917 283.471 574.865 284.523 573.568 284.523Z" fill="#D5BFFE"/>
<path d="M594.897 284.523H581.613C580.315 284.523 579.264 283.471 579.264 282.173C579.264 280.876 580.317 279.824 581.613 279.824H594.897C596.195 279.824 597.246 280.876 597.246 282.173C597.248 283.471 596.195 284.523 594.897 284.523Z" fill="#D5BFFE"/>
</g>
<path d="M465.996 547.931H260.66C242.765 547.931 228.26 533.43 228.26 515.541V58.6269C228.26 40.7379 242.765 26.2368 260.66 26.2368H465.996C483.891 26.2368 498.398 40.7379 498.398 58.6269V515.541C498.398 533.43 483.891 547.931 465.996 547.931Z" fill="#1B4B7B"/>
<path d="M465.819 543.877H260.84C245.034 543.877 232.221 531.064 232.221 515.257V58.323C232.221 42.5165 245.034 29.7036 260.84 29.7036H465.819C481.626 29.7036 494.439 42.5165 494.439 58.323V515.257C494.439 531.064 481.626 543.877 465.819 543.877Z" fill="white"/>
<path d="M482.96 57.4261V513.829C482.96 524.533 474.282 533.211 463.578 533.211H263.08C252.376 533.211 243.698 524.533 243.698 513.829V57.4261C243.698 46.7221 252.376 38.0444 263.08 38.0444H296.514C298.369 38.0444 300.066 39.0913 300.897 40.7503L304.448 47.8378C306.066 51.1084 309.405 53.1576 313.037 53.1576H413.623C417.254 53.1576 420.594 51.1099 422.212 47.8378L425.761 40.7503C426.592 39.0913 428.287 38.0444 430.142 38.0444H463.578C474.282 38.0444 482.96 46.7221 482.96 57.4261Z" fill="#EFE7FF"/>
<path d="M405.54 44.8657H324.528C322.644 44.8657 321.116 43.3383 321.116 41.4543C321.116 39.5704 322.644 38.043 324.528 38.043H405.54C407.424 38.043 408.952 39.5704 408.952 41.4543C408.953 43.3383 407.426 44.8657 405.54 44.8657Z" fill="#DEE3FC"/>
<path d="M451.133 517.371H270.858C263.776 517.371 258.034 511.628 258.034 504.546V440.891C258.034 433.808 263.775 428.067 270.858 428.067H451.133C458.214 428.067 463.956 433.808 463.956 440.891V504.546C463.956 511.628 458.214 517.371 451.133 517.371Z" stroke="#698BD1" stroke-miterlimit="10" stroke-linecap="round" stroke-linejoin="round" stroke-dasharray="2.84 2.84"/>
<path d="M441.994 298.23H352.565C347.457 298.23 343.315 294.089 343.315 288.98V244.781C343.315 239.672 347.457 235.531 352.565 235.531H441.994C447.103 235.531 451.244 239.672 451.244 244.781V288.98C451.244 294.089 447.103 298.23 441.994 298.23Z" stroke="#698BD1" stroke-miterlimit="10" stroke-linecap="round" stroke-linejoin="round" stroke-dasharray="2.84 2.84"/>
<path d="M461.25 413.212H276.552C270.465 413.212 265.531 408.278 265.531 402.192V324.292C265.531 318.204 270.465 313.271 276.552 313.271H461.251C467.338 313.271 472.272 318.205 472.272 324.292V402.192C472.272 408.278 467.336 413.212 461.25 413.212Z" fill="#99AFC4"/>
<path d="M463.956 316.188V394.134C463.956 400.21 459.028 405.122 452.952 405.122H269.038C262.962 405.122 258.034 400.21 258.034 394.134V316.188C258.034 310.111 262.962 305.184 269.038 305.184H452.952C459.028 305.184 463.956 310.112 463.956 316.188Z" fill="#E5D7FF"/>
<path d="M329.17 397.001H274.987C270.878 397.001 267.548 393.669 267.548 389.561V335.38C267.548 331.271 270.878 327.942 274.987 327.942H329.17C333.279 327.942 336.609 331.273 336.609 335.38V389.561C336.609 393.669 333.279 397.001 329.17 397.001Z" fill="white"/>
<path d="M393.384 336.678H345.665C344.367 336.678 343.315 335.625 343.315 334.329C343.315 333.031 344.368 331.979 345.665 331.979H393.384C394.682 331.979 395.733 333.032 395.733 334.329C395.733 335.627 394.68 336.678 393.384 336.678Z" fill="white"/>
<path d="M371.638 346.06H345.665C344.367 346.06 343.315 345.007 343.315 343.711C343.315 342.411 344.368 341.361 345.665 341.361H371.638C372.936 341.361 373.987 342.413 373.987 343.711C373.987 345.008 372.934 346.06 371.638 346.06Z" fill="white"/>
<path d="M451.48 346.06H381.199C379.901 346.06 378.85 345.007 378.85 343.711C378.85 342.411 379.903 341.361 381.199 341.361H451.48C452.778 341.361 453.829 342.413 453.829 343.711C453.829 345.008 452.777 346.06 451.48 346.06Z" fill="white"/>
<path d="M385.851 355.44H345.665C344.367 355.44 343.315 354.387 343.315 353.091C343.315 351.793 344.368 350.742 345.665 350.742H385.851C387.149 350.742 388.2 351.795 388.2 353.091C388.2 354.387 387.148 355.44 385.851 355.44Z" fill="white"/>
<path d="M419.961 355.44H394.698C393.4 355.44 392.349 354.387 392.349 353.091C392.349 351.793 393.402 350.742 394.698 350.742H419.961C421.259 350.742 422.31 351.795 422.31 353.091C422.31 354.387 421.259 355.44 419.961 355.44Z" fill="white"/>
<path d="M451.476 355.44H428.212C426.914 355.44 425.862 354.387 425.862 353.091C425.862 351.793 426.915 350.742 428.212 350.742H451.476C452.774 350.742 453.825 351.795 453.825 353.091C453.825 354.387 452.772 355.44 451.476 355.44Z" fill="white"/>
<path d="M451.478 364.82H345.665C344.367 364.82 343.315 363.767 343.315 362.471C343.315 361.173 344.368 360.122 345.665 360.122H451.478C452.776 360.122 453.828 361.175 453.828 362.471C453.828 363.767 452.775 364.82 451.478 364.82Z" fill="white"/>
<path d="M403.901 374.2H345.665C344.367 374.2 343.315 373.148 343.315 371.852C343.315 370.553 344.368 369.503 345.665 369.503H403.901C405.199 369.503 406.251 370.554 406.251 371.852C406.251 373.148 405.198 374.2 403.901 374.2Z" fill="white"/>
<path d="M451.476 374.2H413.289C411.991 374.2 410.939 373.148 410.939 371.852C410.939 370.553 411.992 369.503 413.289 369.503H451.476C452.774 369.503 453.826 370.554 453.826 371.852C453.826 373.148 452.773 374.2 451.476 374.2Z" fill="white"/>
<path d="M379.881 383.582H345.665C344.367 383.582 343.315 382.529 343.315 381.233C343.315 379.935 344.368 378.883 345.665 378.883H379.881C381.179 378.883 382.23 379.936 382.23 381.233C382.232 382.529 381.179 383.582 379.881 383.582Z" fill="white"/>
<path d="M423.358 383.582H389.142C387.844 383.582 386.793 382.529 386.793 381.233C386.793 379.935 387.846 378.883 389.142 378.883H423.358C424.656 378.883 425.708 379.936 425.708 381.233C425.708 382.529 424.655 383.582 423.358 383.582Z" fill="white"/>
<path d="M451.478 383.582H431.624C430.326 383.582 429.274 382.529 429.274 381.233C429.274 379.935 430.327 378.883 431.624 378.883H451.478C452.776 378.883 453.827 379.936 453.827 381.233C453.827 382.529 452.774 383.582 451.478 383.582Z" fill="white"/>
<path d="M393.384 392.962H345.665C344.367 392.962 343.315 391.909 343.315 390.612C343.315 389.315 344.368 388.263 345.665 388.263H393.384C394.682 388.263 395.733 389.316 395.733 390.612C395.733 391.909 394.68 392.962 393.384 392.962Z" fill="white"/>
<path d="M451.479 336.678H403.759C402.462 336.678 401.41 335.625 401.41 334.329C401.41 333.031 402.463 331.979 403.759 331.979H451.479C452.777 331.979 453.828 333.032 453.828 334.329C453.828 335.627 452.775 336.678 451.479 336.678Z" fill="white"/>
<path d="M463.956 316.188V319.463H258.034V316.188C258.034 310.111 262.962 305.184 269.038 305.184H452.952C459.028 305.184 463.956 310.112 463.956 316.188Z" fill="#42449A"/>
<path d="M422.59 315.132C423.999 315.132 425.142 313.99 425.142 312.581C425.142 311.172 423.999 310.03 422.59 310.03C421.181 310.03 420.039 311.172 420.039 312.581C420.039 313.99 421.181 315.132 422.59 315.132Z" fill="#DEE3FC"/>
<path d="M435.643 315.132C437.052 315.132 438.194 313.99 438.194 312.581C438.194 311.172 437.052 310.03 435.643 310.03C434.234 310.03 433.092 311.172 433.092 312.581C433.092 313.99 434.234 315.132 435.643 315.132Z" fill="#DEE3FC"/>
<path d="M448.694 315.132C450.103 315.132 451.245 313.99 451.245 312.581C451.245 311.172 450.103 310.03 448.694 310.03C447.285 310.03 446.143 311.172 446.143 312.581C446.143 313.99 447.285 315.132 448.694 315.132Z" fill="#DEE3FC"/>
<path d="M321.787 298.23H281.033C274.989 298.23 270.089 293.331 270.089 287.287V246.533C270.089 240.489 274.989 235.589 281.033 235.589H321.787C327.831 235.589 332.732 240.489 332.732 246.533V287.287C332.732 293.331 327.833 298.23 321.787 298.23Z" stroke="#495AD6" stroke-width="0.8956" stroke-miterlimit="10"/>
<path d="M291.637 257.849L282.612 266.874L291.709 275.97" stroke="#495AD6" stroke-width="1.6716" stroke-miterlimit="10" stroke-linecap="round" stroke-linejoin="round"/>
<path d="M311.182 257.849L320.208 266.874L311.111 275.97" stroke="#495AD6" stroke-width="1.6716" stroke-miterlimit="10" stroke-linecap="round" stroke-linejoin="round"/>
<path d="M305.637 257.849L297.186 275.97" stroke="#495AD6" stroke-width="1.6716" stroke-miterlimit="10" stroke-linecap="round" stroke-linejoin="round"/>
<path d="M463.956 82.6875V210.128C463.956 217.046 458.355 222.647 451.437 222.647H270.553C263.651 222.647 258.034 217.046 258.034 210.128V82.6875C258.034 75.7699 263.651 70.1685 270.553 70.1685H451.437C458.355 70.1685 463.956 75.7699 463.956 82.6875Z" fill="#E5D7FF"/>
<path d="M422.252 140.278C438.734 140.278 452.096 126.917 452.096 110.435C452.096 93.9523 438.734 80.5908 422.252 80.5908C405.77 80.5908 392.408 93.9523 392.408 110.435C392.408 126.917 405.77 140.278 422.252 140.278Z" fill="#F0F4FF"/>
<path d="M379.077 222.647H270.553C263.651 222.647 258.034 217.046 258.034 210.128V190.064L305.524 107.802C308.003 103.502 314.217 103.502 316.696 107.802L352.555 169.908L379.185 216.036C380.47 218.239 380.271 220.749 379.077 222.647Z" fill="white"/>
<path d="M425.88 222.647H322.101L352.557 169.908L368.963 141.487C371.197 137.615 376.784 137.615 379.018 141.487L425.88 222.647Z" fill="#F0F4FF"/>
<g filter="url(#filter0_d_4248_17396)">
<rect x="454.921" y="158.556" width="144.868" height="75.2855" fill="white"/>
</g>
<path d="M568.372 171.104H487.16C481.957 171.104 477.737 175.323 477.737 180.529V199.714C477.737 204.515 481.329 208.479 485.973 209.064C486.652 209.149 487.16 209.728 487.16 210.414V220.916C487.16 221.522 487.939 221.773 488.291 221.278L496.563 209.711C496.822 209.351 497.235 209.137 497.679 209.137H568.372C573.576 209.137 577.795 204.918 577.795 199.713V180.527C577.797 175.323 573.577 171.104 568.372 171.104Z" stroke="#D5BFFE" stroke-width="1.2" stroke-miterlimit="10"/>
<path d="M496.517 193.193C498.231 193.193 499.62 191.804 499.62 190.091C499.62 188.378 498.231 186.989 496.517 186.989C494.804 186.989 493.415 188.378 493.415 190.091C493.415 191.804 494.804 193.193 496.517 193.193Z" stroke="#D5BFFE" stroke-width="1.2" stroke-miterlimit="10"/>
<path d="M512.141 193.195C513.855 193.195 515.245 191.805 515.245 190.091C515.245 188.377 513.855 186.987 512.141 186.987C510.427 186.987 509.037 188.377 509.037 190.091C509.037 191.805 510.427 193.195 512.141 193.195Z" stroke="#D5BFFE" stroke-width="1.2" stroke-miterlimit="10"/>
<path d="M527.765 193.193C529.479 193.193 530.868 191.804 530.868 190.091C530.868 188.378 529.479 186.989 527.765 186.989C526.052 186.989 524.663 188.378 524.663 190.091C524.663 191.804 526.052 193.193 527.765 193.193Z" stroke="#D5BFFE" stroke-width="1.2" stroke-miterlimit="10"/>
<path d="M543.389 193.193C545.103 193.193 546.492 191.804 546.492 190.091C546.492 188.378 545.103 186.989 543.389 186.989C541.676 186.989 540.287 188.378 540.287 190.091C540.287 191.804 541.676 193.193 543.389 193.193Z" stroke="#D5BFFE" stroke-width="1.2" stroke-miterlimit="10"/>
<path d="M559.018 193.193C560.732 193.193 562.12 191.804 562.12 190.091C562.12 188.378 560.732 186.989 559.018 186.989C557.305 186.989 555.916 188.378 555.916 190.091C555.916 191.804 557.305 193.193 559.018 193.193Z" stroke="#D5BFFE" stroke-width="1.2" stroke-miterlimit="10"/>
<g filter="url(#filter1_d_4248_17396)">
<rect x="133.247" y="343.347" width="118.528" height="61.5972" fill="white"/>
</g>
<path d="M226.066 353.614H159.62C155.362 353.614 151.91 357.066 151.91 361.325V377.022C151.91 380.95 154.849 384.193 158.648 384.672C159.204 384.742 159.62 385.215 159.62 385.776V394.369C159.62 394.865 160.257 395.07 160.545 394.665L167.313 385.201C167.525 384.907 167.863 384.732 168.226 384.732H226.066C230.323 384.732 233.776 381.28 233.776 377.021V361.323C233.777 357.066 230.325 353.614 226.066 353.614Z" stroke="#D5BFFE" stroke-width="1.2" stroke-miterlimit="10"/>
<path d="M167.27 371.688C168.671 371.688 169.808 370.551 169.808 369.15C169.808 367.748 168.671 366.611 167.27 366.611C165.868 366.611 164.731 367.748 164.731 369.15C164.731 370.551 165.868 371.688 167.27 371.688Z" stroke="#D5BFFE" stroke-width="1.2" stroke-miterlimit="10"/>
<path d="M180.053 371.689C181.456 371.689 182.593 370.552 182.593 369.149C182.593 367.747 181.456 366.61 180.053 366.61C178.651 366.61 177.514 367.747 177.514 369.149C177.514 370.552 178.651 371.689 180.053 371.689Z" stroke="#D5BFFE" stroke-width="1.2" stroke-miterlimit="10"/>
<path d="M192.838 371.688C194.24 371.688 195.376 370.551 195.376 369.15C195.376 367.748 194.24 366.611 192.838 366.611C191.436 366.611 190.3 367.748 190.3 369.15C190.3 370.551 191.436 371.688 192.838 371.688Z" stroke="#D5BFFE" stroke-width="1.2" stroke-miterlimit="10"/>
<path d="M205.616 371.688C207.018 371.688 208.155 370.551 208.155 369.15C208.155 367.748 207.018 366.611 205.616 366.611C204.215 366.611 203.078 367.748 203.078 369.15C203.078 370.551 204.215 371.688 205.616 371.688Z" stroke="#D5BFFE" stroke-width="1.2" stroke-miterlimit="10"/>
<path d="M218.407 371.688C219.809 371.688 220.946 370.551 220.946 369.15C220.946 367.748 219.809 366.611 218.407 366.611C217.005 366.611 215.869 367.748 215.869 369.15C215.869 370.551 217.005 371.688 218.407 371.688Z" stroke="#D5BFFE" stroke-width="1.2" stroke-miterlimit="10"/>
<g filter="url(#filter2_d_4248_17396)">
<rect x="467.123" y="51.0757" width="189.542" height="52.8233" rx="26.4116" fill="white"/>
</g>
<path d="M627.787 91.2618H495.883C488.609 91.2618 482.713 85.3647 482.713 78.0901C482.713 70.8156 488.609 64.9185 495.883 64.9185H627.787C635.061 64.9185 640.957 70.8156 640.957 78.0901C640.958 85.3647 635.061 91.2618 627.787 91.2618Z" fill="white" stroke="#D5BFFE" stroke-miterlimit="10"/>
<path d="M623.023 82.9716C625.775 82.9716 628.006 80.7403 628.006 77.988C628.006 75.2356 625.775 73.0044 623.023 73.0044C620.27 73.0044 618.039 75.2356 618.039 77.988C618.039 80.7403 620.27 82.9716 623.023 82.9716Z" stroke="#42449A" stroke-width="1.6716" stroke-miterlimit="10"/>
<path d="M626.547 81.5117L629.298 84.2636" stroke="#42449A" stroke-width="1.6716" stroke-miterlimit="10" stroke-linecap="round"/>
<g filter="url(#filter3_d_4248_17396)">
<rect x="27.1621" y="453.771" width="171.103" height="100.829" fill="white"/>
</g>
<path d="M39.2412 472.159H187.333" stroke="#D5BFFE" stroke-width="0.8956" stroke-miterlimit="10" stroke-linecap="round"/>
<path d="M183.424 466.662C184.415 466.662 185.218 465.859 185.218 464.869C185.218 463.878 184.415 463.075 183.424 463.075C182.434 463.075 181.631 463.878 181.631 464.869C181.631 465.859 182.434 466.662 183.424 466.662Z" fill="#D5BFFE"/>
<path d="M174.072 466.662C175.062 466.662 175.865 465.859 175.865 464.869C175.865 463.878 175.062 463.075 174.072 463.075C173.081 463.075 172.278 463.878 172.278 464.869C172.278 465.859 173.081 466.662 174.072 466.662Z" fill="#D5BFFE"/>
<path d="M164.721 466.662C165.712 466.662 166.515 465.859 166.515 464.869C166.515 463.878 165.712 463.075 164.721 463.075C163.731 463.075 162.928 463.878 162.928 464.869C162.928 465.859 163.731 466.662 164.721 466.662Z" fill="#D5BFFE"/>
<path d="M66.8457 484.201H41.7163C40.3491 484.201 39.2402 483.092 39.2402 481.725C39.2402 480.356 40.3491 479.247 41.7163 479.247H66.8457C68.2129 479.247 69.3218 480.356 69.3218 481.725C69.3218 483.092 68.2129 484.201 66.8457 484.201Z" fill="#D5BFFE"/>
<path d="M66.8457 495.645H41.7163C40.3491 495.645 39.2402 494.536 39.2402 493.169C39.2402 491.802 40.3491 490.693 41.7163 490.693H66.8457C68.2129 490.693 69.3218 491.802 69.3218 493.169C69.3218 494.536 68.2129 495.645 66.8457 495.645Z" fill="#D5BFFE"/>
<path d="M66.8457 507.09H41.7163C40.3491 507.09 39.2402 505.981 39.2402 504.612C39.2402 503.245 40.3491 502.136 41.7163 502.136H66.8457C68.2129 502.136 69.3218 503.245 69.3218 504.612C69.3218 505.981 68.2129 507.09 66.8457 507.09Z" fill="#D5BFFE"/>
<path d="M66.8457 518.533H41.7163C40.3491 518.533 39.2402 517.424 39.2402 516.057C39.2402 514.688 40.3491 513.579 41.7163 513.579H66.8457C68.2129 513.579 69.3218 514.688 69.3218 516.057C69.3218 517.424 68.2129 518.533 66.8457 518.533Z" fill="#D5BFFE"/>
<path d="M66.8457 529.977H41.7163C40.3491 529.977 39.2402 528.868 39.2402 527.501C39.2402 526.134 40.3491 525.025 41.7163 525.025H66.8457C68.2129 525.025 69.3218 526.134 69.3218 527.501C69.3218 528.868 68.2129 529.977 66.8457 529.977Z" fill="#D5BFFE"/>
<path d="M66.8457 541.422H41.7163C40.3491 541.422 39.2402 540.314 39.2402 538.944C39.2402 537.577 40.3491 536.468 41.7163 536.468H66.8457C68.2129 536.468 69.3218 537.577 69.3218 538.944C69.3218 540.314 68.2129 541.422 66.8457 541.422Z" fill="#D5BFFE"/>
<path d="M184.858 484.201H76.5659C75.1987 484.201 74.0898 483.092 74.0898 481.725C74.0898 480.356 75.1987 479.247 76.5659 479.247H184.858C186.225 479.247 187.334 480.356 187.334 481.725C187.334 483.092 186.225 484.201 184.858 484.201Z" fill="#D5BFFE"/>
<path d="M184.858 495.645H76.5659C75.1987 495.645 74.0898 494.536 74.0898 493.169C74.0898 491.802 75.1987 490.693 76.5659 490.693H184.858C186.225 490.693 187.334 491.802 187.334 493.169C187.334 494.536 186.225 495.645 184.858 495.645Z" fill="#D5BFFE"/>
<path d="M184.858 507.09H76.5659C75.1987 507.09 74.0898 505.981 74.0898 504.612C74.0898 503.245 75.1987 502.136 76.5659 502.136H184.858C186.225 502.136 187.334 503.245 187.334 504.612C187.334 505.981 186.225 507.09 184.858 507.09Z" fill="#D5BFFE"/>
<path d="M184.858 518.533H76.5659C75.1987 518.533 74.0898 517.424 74.0898 516.057C74.0898 514.688 75.1987 513.579 76.5659 513.579H184.858C186.225 513.579 187.334 514.688 187.334 516.057C187.334 517.424 186.225 518.533 184.858 518.533Z" fill="#D5BFFE"/>
<path d="M184.858 529.977H76.5659C75.1987 529.977 74.0898 528.868 74.0898 527.501C74.0898 526.134 75.1987 525.025 76.5659 525.025H184.858C186.225 525.025 187.334 526.134 187.334 527.501C187.334 528.868 186.225 529.977 184.858 529.977Z" fill="#D5BFFE"/>
<path d="M184.858 541.423H76.5659C75.1987 541.423 74.0898 540.314 74.0898 538.945C74.0898 537.578 75.1987 536.469 76.5659 536.469H184.858C186.225 536.469 187.334 537.578 187.334 538.945C187.334 540.314 186.225 541.423 184.858 541.423Z" fill="#D5BFFE"/>
<g filter="url(#filter4_d_4248_17396)">
<path d="M209.098 164.402C232.099 164.402 250.744 145.756 250.744 122.755C250.744 99.7547 232.099 81.1089 209.098 81.1089C186.097 81.1089 167.451 99.7547 167.451 122.755C167.451 145.756 186.097 164.402 209.098 164.402Z" fill="white"/>
</g>
<path d="M209.098 158.964C229.095 158.964 245.306 142.753 245.306 122.756C245.306 102.759 229.095 86.5483 209.098 86.5483C189.101 86.5483 172.891 102.759 172.891 122.756C172.891 142.753 189.101 158.964 209.098 158.964Z" fill="#FF1212"/>
<path d="M209.097 126.051C210.917 126.051 212.392 124.576 212.392 122.756C212.392 120.936 210.917 119.46 209.097 119.46C207.277 119.46 205.802 120.936 205.802 122.756C205.802 124.576 207.277 126.051 209.097 126.051Z" fill="white"/>
<path d="M208.74 122.108C208.242 122.383 207.615 122.204 207.338 121.707L196.689 102.5C196.413 102.001 196.593 101.375 197.09 101.098C197.588 100.823 198.216 101.002 198.491 101.499L209.141 120.706C209.418 121.204 209.239 121.832 208.74 122.108Z" fill="white"/>
<path d="M209.623 123.279C210.025 122.876 210.679 122.876 211.082 123.279L220.293 132.491C220.695 132.893 220.695 133.545 220.293 133.949C219.892 134.351 219.239 134.351 218.835 133.949L209.623 124.737C209.222 124.335 209.222 123.681 209.623 123.279Z" fill="white"/>
<path d="M209.318 93.7744V89.6104" stroke="white" stroke-width="2" stroke-miterlimit="10" stroke-linecap="round"/>
<path d="M238.079 122.976H242.243" stroke="white" stroke-width="2" stroke-miterlimit="10" stroke-linecap="round"/>
<path d="M208.877 151.737V155.901" stroke="white" stroke-width="2" stroke-miterlimit="10" stroke-linecap="round"/>
<path d="M180.116 122.534H175.952" stroke="white" stroke-width="2" stroke-miterlimit="10" stroke-linecap="round"/>
<g opacity="0.5">
<path opacity="0.5" d="M194.797 97.5461L192.715 93.9395" stroke="#DEE3FC" stroke-miterlimit="10" stroke-linecap="round"/>
<path opacity="0.5" d="M234.304 108.456L237.909 106.374" stroke="#DEE3FC" stroke-miterlimit="10" stroke-linecap="round"/>
<path opacity="0.5" d="M223.394 147.964L225.476 151.571" stroke="#DEE3FC" stroke-miterlimit="10" stroke-linecap="round"/>
<path opacity="0.5" d="M183.886 137.054L180.28 139.136" stroke="#DEE3FC" stroke-miterlimit="10" stroke-linecap="round"/>
</g>
<g opacity="0.5">
<path opacity="0.5" d="M184.112 108.073L180.507 105.991" stroke="#DEE3FC" stroke-miterlimit="10" stroke-linecap="round"/>
<path opacity="0.5" d="M223.782 97.7678L225.864 94.1611" stroke="#DEE3FC" stroke-miterlimit="10" stroke-linecap="round"/>
<path opacity="0.5" d="M234.088 137.437L237.695 139.519" stroke="#DEE3FC" stroke-miterlimit="10" stroke-linecap="round"/>
<path opacity="0.5" d="M194.415 147.742L192.333 151.349" stroke="#DEE3FC" stroke-miterlimit="10" stroke-linecap="round"/>
</g>
<path opacity="0.4" d="M585.791 487.374C582.328 487.374 579.086 488.331 576.31 489.994C575.198 480.009 566.78 472.246 556.556 472.246C545.576 472.246 536.673 481.201 536.673 492.247C536.673 492.989 536.716 493.719 536.794 494.438C535.882 494.265 534.944 494.171 533.982 494.171C525.596 494.171 518.8 501.008 518.8 509.445C518.8 517.878 525.596 524.717 533.982 524.717H585.791C596.042 524.717 604.352 516.359 604.352 506.045C604.352 495.733 596.042 487.374 585.791 487.374Z" fill="#E5D7FF"/>
<g filter="url(#filter5_d_4248_17396)">
<path d="M540.473 384.413H460.625V464.261H540.473V384.413Z" fill="white"/>
</g>
<path d="M500.168 416.475C504.297 416.475 507.644 413.128 507.644 408.999C507.644 404.87 504.297 401.523 500.168 401.523C496.039 401.523 492.692 404.87 492.692 408.999C492.692 413.128 496.039 416.475 500.168 416.475Z" fill="#FF1212"/>
<path d="M515.748 434.31V445.345C515.748 446.343 514.939 447.151 513.943 447.151H486.385C485.387 447.151 484.579 446.343 484.579 445.345V434.31C484.579 425.703 491.556 418.725 500.163 418.725C508.771 418.725 515.748 425.703 515.748 434.31Z" fill="#FF1212"/>
<g filter="url(#filter6_d_4248_17396)">
<path d="M349.978 499.622H270.13V579.47H349.978V499.622Z" fill="white"/>
</g>
<path d="M298.831 522.761L324.8 537.754C326.404 538.68 326.404 540.993 324.8 541.919L298.831 556.912C297.226 557.838 295.226 556.68 295.226 554.829V524.843C295.223 522.993 297.226 521.836 298.831 522.761Z" fill="#FF1212"/>
<g filter="url(#filter7_d_4248_17396)">
<path d="M709.293 284.032H618.038V375.287H709.293V284.032Z" fill="white"/>
</g>
<path d="M680.714 318.916H680.212V313.422C680.212 304.404 672.88 297.068 663.86 297.068C654.841 297.068 647.507 304.404 647.507 313.422V318.916H647.397C644.863 318.916 642.808 320.971 642.808 323.506V344.21C642.808 346.744 644.861 348.799 647.397 348.799H680.712C683.247 348.799 685.302 346.744 685.302 344.21V323.506C685.303 320.971 683.248 318.916 680.714 318.916ZM651.649 313.422C651.649 306.69 657.129 301.212 663.86 301.212C670.592 301.212 676.07 306.69 676.07 313.422V318.916H651.648V313.422H651.649Z" fill="#E5D7FF"/>
<path d="M669.442 329.558C669.442 326.252 666.435 323.649 663.009 324.331C660.988 324.734 659.313 326.392 658.891 328.409C658.382 330.84 659.533 333.058 661.415 334.16C661.796 334.384 662.015 334.803 661.898 335.23L660.969 338.657C660.418 340.694 661.952 342.699 664.063 342.699C666.174 342.699 667.708 340.694 667.157 338.657L666.239 335.267C666.122 334.833 666.346 334.408 666.736 334.186C668.35 333.269 669.442 331.546 669.442 329.558Z" fill="#FF1212"/>
<path d="M683.335 356.058H644.778C643.69 356.058 642.811 355.176 642.811 354.09C642.811 353.004 643.69 352.123 644.778 352.123H683.335C684.421 352.123 685.303 353.004 685.303 354.09C685.303 355.176 684.421 356.058 683.335 356.058Z" fill="#E5D7FF"/>
<path d="M683.335 362.727H644.778C643.69 362.727 642.811 361.846 642.811 360.76C642.811 359.674 643.69 358.792 644.778 358.792H683.335C684.421 358.792 685.303 359.674 685.303 360.76C685.303 361.846 684.421 362.727 683.335 362.727Z" fill="#E5D7FF"/>
<defs>
<filter id="filter0_d_4248_17396" x="434.921" y="132.556" width="204.867" height="135.286" filterUnits="userSpaceOnUse" color-interpolation-filters="sRGB">
<feFlood flood-opacity="0" result="BackgroundImageFix"/>
<feColorMatrix in="SourceAlpha" type="matrix" values="0 0 0 0 0 0 0 0 0 0 0 0 0 0 0 0 0 0 127 0" result="hardAlpha"/>
<feOffset dx="10" dy="4"/>
<feGaussianBlur stdDeviation="15"/>
<feComposite in2="hardAlpha" operator="out"/>
<feColorMatrix type="matrix" values="0 0 0 0 0 0 0 0 0 0 0 0 0 0 0 0 0 0 0.17 0"/>
<feBlend mode="normal" in2="BackgroundImageFix" result="effect1_dropShadow_4248_17396"/>
<feBlend mode="normal" in="SourceGraphic" in2="effect1_dropShadow_4248_17396" result="shape"/>
</filter>
<filter id="filter1_d_4248_17396" x="113.247" y="317.347" width="178.528" height="121.597" filterUnits="userSpaceOnUse" color-interpolation-filters="sRGB">
<feFlood flood-opacity="0" result="BackgroundImageFix"/>
<feColorMatrix in="SourceAlpha" type="matrix" values="0 0 0 0 0 0 0 0 0 0 0 0 0 0 0 0 0 0 127 0" result="hardAlpha"/>
<feOffset dx="10" dy="4"/>
<feGaussianBlur stdDeviation="15"/>
<feComposite in2="hardAlpha" operator="out"/>
<feColorMatrix type="matrix" values="0 0 0 0 0 0 0 0 0 0 0 0 0 0 0 0 0 0 0.17 0"/>
<feBlend mode="normal" in2="BackgroundImageFix" result="effect1_dropShadow_4248_17396"/>
<feBlend mode="normal" in="SourceGraphic" in2="effect1_dropShadow_4248_17396" result="shape"/>
</filter>
<filter id="filter2_d_4248_17396" x="447.123" y="25.0757" width="249.542" height="112.823" filterUnits="userSpaceOnUse" color-interpolation-filters="sRGB">
<feFlood flood-opacity="0" result="BackgroundImageFix"/>
<feColorMatrix in="SourceAlpha" type="matrix" values="0 0 0 0 0 0 0 0 0 0 0 0 0 0 0 0 0 0 127 0" result="hardAlpha"/>
<feOffset dx="10" dy="4"/>
<feGaussianBlur stdDeviation="15"/>
<feComposite in2="hardAlpha" operator="out"/>
<feColorMatrix type="matrix" values="0 0 0 0 0 0 0 0 0 0 0 0 0 0 0 0 0 0 0.17 0"/>
<feBlend mode="normal" in2="BackgroundImageFix" result="effect1_dropShadow_4248_17396"/>
<feBlend mode="normal" in="SourceGraphic" in2="effect1_dropShadow_4248_17396" result="shape"/>
</filter>
<filter id="filter3_d_4248_17396" x="7.16211" y="427.771" width="231.104" height="160.829" filterUnits="userSpaceOnUse" color-interpolation-filters="sRGB">
<feFlood flood-opacity="0" result="BackgroundImageFix"/>
<feColorMatrix in="SourceAlpha" type="matrix" values="0 0 0 0 0 0 0 0 0 0 0 0 0 0 0 0 0 0 127 0" result="hardAlpha"/>
<feOffset dx="10" dy="4"/>
<feGaussianBlur stdDeviation="15"/>
<feComposite in2="hardAlpha" operator="out"/>
<feColorMatrix type="matrix" values="0 0 0 0 0 0 0 0 0 0 0 0 0 0 0 0 0 0 0.17 0"/>
<feBlend mode="normal" in2="BackgroundImageFix" result="effect1_dropShadow_4248_17396"/>
<feBlend mode="normal" in="SourceGraphic" in2="effect1_dropShadow_4248_17396" result="shape"/>
</filter>
<filter id="filter4_d_4248_17396" x="147.451" y="55.1089" width="143.293" height="143.293" filterUnits="userSpaceOnUse" color-interpolation-filters="sRGB">
<feFlood flood-opacity="0" result="BackgroundImageFix"/>
<feColorMatrix in="SourceAlpha" type="matrix" values="0 0 0 0 0 0 0 0 0 0 0 0 0 0 0 0 0 0 127 0" result="hardAlpha"/>
<feOffset dx="10" dy="4"/>
<feGaussianBlur stdDeviation="15"/>
<feComposite in2="hardAlpha" operator="out"/>
<feColorMatrix type="matrix" values="0 0 0 0 0 0 0 0 0 0 0 0 0 0 0 0 0 0 0.17 0"/>
<feBlend mode="normal" in2="BackgroundImageFix" result="effect1_dropShadow_4248_17396"/>
<feBlend mode="normal" in="SourceGraphic" in2="effect1_dropShadow_4248_17396" result="shape"/>
</filter>
<filter id="filter5_d_4248_17396" x="440.625" y="358.413" width="139.849" height="139.848" filterUnits="userSpaceOnUse" color-interpolation-filters="sRGB">
<feFlood flood-opacity="0" result="BackgroundImageFix"/>
<feColorMatrix in="SourceAlpha" type="matrix" values="0 0 0 0 0 0 0 0 0 0 0 0 0 0 0 0 0 0 127 0" result="hardAlpha"/>
<feOffset dx="10" dy="4"/>
<feGaussianBlur stdDeviation="15"/>
<feComposite in2="hardAlpha" operator="out"/>
<feColorMatrix type="matrix" values="0 0 0 0 0 0 0 0 0 0 0 0 0 0 0 0 0 0 0.17 0"/>
<feBlend mode="normal" in2="BackgroundImageFix" result="effect1_dropShadow_4248_17396"/>
<feBlend mode="normal" in="SourceGraphic" in2="effect1_dropShadow_4248_17396" result="shape"/>
</filter>
<filter id="filter6_d_4248_17396" x="250.13" y="473.622" width="139.849" height="139.848" filterUnits="userSpaceOnUse" color-interpolation-filters="sRGB">
<feFlood flood-opacity="0" result="BackgroundImageFix"/>
<feColorMatrix in="SourceAlpha" type="matrix" values="0 0 0 0 0 0 0 0 0 0 0 0 0 0 0 0 0 0 127 0" result="hardAlpha"/>
<feOffset dx="10" dy="4"/>
<feGaussianBlur stdDeviation="15"/>
<feComposite in2="hardAlpha" operator="out"/>
<feColorMatrix type="matrix" values="0 0 0 0 0 0 0 0 0 0 0 0 0 0 0 0 0 0 0.17 0"/>
<feBlend mode="normal" in2="BackgroundImageFix" result="effect1_dropShadow_4248_17396"/>
<feBlend mode="normal" in="SourceGraphic" in2="effect1_dropShadow_4248_17396" result="shape"/>
</filter>
<filter id="filter7_d_4248_17396" x="598.038" y="258.032" width="151.255" height="151.255" filterUnits="userSpaceOnUse" color-interpolation-filters="sRGB">
<feFlood flood-opacity="0" result="BackgroundImageFix"/>
<feColorMatrix in="SourceAlpha" type="matrix" values="0 0 0 0 0 0 0 0 0 0 0 0 0 0 0 0 0 0 127 0" result="hardAlpha"/>
<feOffset dx="10" dy="4"/>
<feGaussianBlur stdDeviation="15"/>
<feComposite in2="hardAlpha" operator="out"/>
<feColorMatrix type="matrix" values="0 0 0 0 0 0 0 0 0 0 0 0 0 0 0 0 0 0 0.17 0"/>
<feBlend mode="normal" in2="BackgroundImageFix" result="effect1_dropShadow_4248_17396"/>
<feBlend mode="normal" in="SourceGraphic" in2="effect1_dropShadow_4248_17396" result="shape"/>
</filter>
</defs>
</svg>
