<svg xmlns="http://www.w3.org/2000/svg" viewBox="0 0 373.78 245.07"><title>img-diseno-personalizado</title><g id="f0d389e1-0a37-4a1d-923e-8eabc900a8b7" data-name="Capa 2"><g id="b5fa1ab2-9f67-4539-b163-13f8f3f20ab2" data-name="Capa 1"><path d="M208.4,206.36c-45.36,0-82.14,5.35-82.14,11.95a2,2,0,0,0,.29,1l-1.62,0c-5.86,0-11.49.23-16.76.67a2.57,2.57,0,0,0,.09-.67c0-6.67-24.23-12.08-54.13-12.08S0,212.57,0,219.25s24.24,12.07,54.13,12.07c6.55,0,12.82-.26,18.63-.73a3.55,3.55,0,0,0-.4,1.57c0,7.13,23.54,12.91,52.57,12.91s52.58-5.78,52.58-12.91a4.27,4.27,0,0,0-1.33-2.85c9.9.61,20.78.95,32.22.95,45.36,0,82.14-5.35,82.14-11.95S253.76,206.36,208.4,206.36Z" fill="#bcbec0"/><path d="M312.34,160.59A24.83,24.83,0,0,1,287.58,137a24.79,24.79,0,0,1-2.38-49.3,32.81,32.81,0,0,1,64.11-.15,19.75,19.75,0,0,1,17.48,24.18,15.25,15.25,0,0,1-9.5,27.19,14.78,14.78,0,0,1-3.1-.33,19.9,19.9,0,0,1-18.28,12.14,20.44,20.44,0,0,1-3.54-.32A24.78,24.78,0,0,1,312.34,160.59Z" fill="#77c2e4"/><path d="M317.27,63.06a31.61,31.61,0,0,1,31,25.65,18.58,18.58,0,0,1,17.1,23.51,14,14,0,0,1-12,24.92,18.6,18.6,0,0,1-17.52,12.36,19,19,0,0,1-4.08-.46,23.55,23.55,0,0,1-43-13.25,23.56,23.56,0,0,1-2.56-47,31.6,31.6,0,0,1,31-25.75m0-2.46a34.08,34.08,0,0,0-33.09,26,26,26,0,0,0,2.25,51.53,26,26,0,0,0,46.48,13.59,20.41,20.41,0,0,0,3,.23,21.12,21.12,0,0,0,19-12,15.76,15.76,0,0,0,2.37.18,16.48,16.48,0,0,0,10.86-28.89,20.5,20.5,0,0,0,.39-4,21.05,21.05,0,0,0-18.22-20.89A34.08,34.08,0,0,0,317.27,60.6Z" fill="#5c1f5b"/><path d="M317.46,71.81a25.86,25.86,0,0,0-25.41,21.07,19.29,19.29,0,0,0-17.2,19.17" fill="none" stroke="#fff" stroke-linecap="round" stroke-linejoin="round" stroke-width="2.46"/><path d="M365.4,112.22a18.55,18.55,0,0,0-17.1-23.51,31.59,31.59,0,0,0-27-25.35c5.24,2.2,21.32,7.38,23.08,30.21a12.23,12.23,0,0,1-.57,4.15A11.85,11.85,0,0,1,337,119.24a12,12,0,0,1-3.25-.46,15.75,15.75,0,0,1-14.81,10.45,16.28,16.28,0,0,1-3.45-.39A19.88,19.88,0,0,1,299,137.55c-3,0-7.71-.59-10.23-1.75-.57.32.7.36,0,.35a23.55,23.55,0,0,0,43,12.89,18.36,18.36,0,0,0,4.08.47,18.62,18.62,0,0,0,17.53-12.37,14,14,0,0,0,12-24.92Z" fill="#66bfe4"/><path d="M365.4,112.22a18.52,18.52,0,0,0-14-23.09,17.61,17.61,0,0,1,2,14.08,13.45,13.45,0,0,1-7.78,24.43,13.72,13.72,0,0,1-3.7-.52A17.86,17.86,0,0,1,325.12,139a18.11,18.11,0,0,1-3.92-.44,22.55,22.55,0,0,1-30.52,6.52,23.56,23.56,0,0,0,41.15,4,18.29,18.29,0,0,0,4.08.46,18.61,18.61,0,0,0,17.52-12.36,14,14,0,0,0,12-24.92Z" fill="#50bae3"/><path d="M132.19,65.75a14.63,14.63,0,0,1-14.56-13.42,14.6,14.6,0,0,1-1.29-28.95,19.16,19.16,0,0,1,37.27-.11A11.78,11.78,0,0,1,163.92,35a12,12,0,0,1-.23,2.3,9.19,9.19,0,0,1-6,16.17,8.75,8.75,0,0,1-1.44-.12A11.74,11.74,0,0,1,143.79,60,14.62,14.62,0,0,1,132.19,65.75Z" fill="#77c2e4"/><path d="M135,9.86A17.94,17.94,0,0,1,152.6,24.43,10.56,10.56,0,0,1,162.69,35a10.26,10.26,0,0,1-.39,2.78,8,8,0,0,1-6.79,14.15,10.56,10.56,0,0,1-9.95,7,11,11,0,0,1-2.31-.26,13.38,13.38,0,0,1-24.44-7.52,13.37,13.37,0,0,1-1.44-26.67A17.94,17.94,0,0,1,135,9.86m0-2.46a20.41,20.41,0,0,0-19.65,14.92,15.84,15.84,0,0,0,1.18,31.12,15.84,15.84,0,0,0,27.8,7.89c.42,0,.83.06,1.25.06A13,13,0,0,0,157,54.66c.25,0,.49,0,.74,0A10.42,10.42,0,0,0,165,36.83a11.61,11.61,0,0,0,.14-1.85A13,13,0,0,0,154.6,22.19,20.43,20.43,0,0,0,135,7.4Z" fill="#5c1f5b"/><path d="M135.09,14.82a14.68,14.68,0,0,0-14.42,12,10.94,10.94,0,0,0-9.76,10.88" fill="none" stroke="#fff" stroke-linecap="round" stroke-linejoin="round" stroke-width="2.46"/><path d="M162.3,37.76a10.26,10.26,0,0,0,.39-2.78A10.58,10.58,0,0,0,152.6,24.42,17.93,17.93,0,0,0,137.3,10c3,1.25,12.1,4.19,13.1,17.15a6.86,6.86,0,0,1-.33,2.35,6.72,6.72,0,0,1-5.74,11.95A8.9,8.9,0,0,1,134,47.2a11.29,11.29,0,0,1-9.34,4.94,16.8,16.8,0,0,1-5.81-1c-.32.18.4.2,0,.2a13.36,13.36,0,0,0,24.42,7.31,10.44,10.44,0,0,0,2.32.26,10.56,10.56,0,0,0,9.94-7,8.33,8.33,0,0,0,2.19.31,8,8,0,0,0,4.6-14.46Z" fill="#66bfe4"/><path d="M162.3,37.76a10.26,10.26,0,0,0,.39-2.78,10.56,10.56,0,0,0-8.34-10.32A10.11,10.11,0,0,1,155.87,30a10.24,10.24,0,0,1-.37,2.67A7.63,7.63,0,0,1,149,46.22a10.11,10.11,0,0,1-11.76,6.48,12.79,12.79,0,0,1-17.33,3.7,13.37,13.37,0,0,0,23.36,2.26,10.44,10.44,0,0,0,2.32.26,10.56,10.56,0,0,0,9.94-7,8,8,0,0,0,6.79-14.15Z" fill="#50bae3"/><path d="M271.49,64.65a14.63,14.63,0,0,1-14.56-13.43,14.6,14.6,0,0,1-1.29-28.95,19.16,19.16,0,0,1,37.27-.11,11.79,11.79,0,0,1,10.31,11.71,11.3,11.3,0,0,1-.24,2.3,9.19,9.19,0,0,1-6,16.17,10,10,0,0,1-1.44-.11,11.74,11.74,0,0,1-12.47,6.68A14.6,14.6,0,0,1,271.49,64.65Z" fill="#77c2e4"/><path d="M274.28,8.75a17.93,17.93,0,0,1,17.61,14.56A10.57,10.57,0,0,1,302,33.87a10.32,10.32,0,0,1-.38,2.79,8,8,0,0,1-6.79,14.14,10.57,10.57,0,0,1-9.95,7,11,11,0,0,1-2.31-.26A13.37,13.37,0,0,1,258.12,50a13.37,13.37,0,0,1-1.45-26.67A17.93,17.93,0,0,1,274.28,8.75m0-2.46a20.41,20.41,0,0,0-19.64,14.92,15.84,15.84,0,0,0,1.18,31.13,15.83,15.83,0,0,0,27.8,7.88c.42,0,.83.06,1.24.06a13.05,13.05,0,0,0,11.4-6.73c.25,0,.49,0,.74,0a10.42,10.42,0,0,0,7.31-17.86,12.8,12.8,0,0,0,.14-1.85,13,13,0,0,0-10.56-12.79A20.42,20.42,0,0,0,274.28,6.29Z" fill="#5c1f5b"/><path d="M274.39,13.72a14.68,14.68,0,0,0-14.42,12,11,11,0,0,0-9.77,10.88" fill="none" stroke="#fff" stroke-linecap="round" stroke-linejoin="round" stroke-width="2.46"/><path d="M301.6,36.65a10.2,10.2,0,0,0,.38-2.78,10.57,10.57,0,0,0-10.09-10.56A17.93,17.93,0,0,0,276.6,8.92c3,1.25,12.1,4.19,13.09,17.15a6.85,6.85,0,0,1-.32,2.35,6.73,6.73,0,0,1-3.89,12.22,7.06,7.06,0,0,1-1.85-.26,8.85,8.85,0,0,1-10.36,5.7,11.29,11.29,0,0,1-9.35,5,16.65,16.65,0,0,1-5.81-1c-.32.19.41.21,0,.2a13.37,13.37,0,0,0,24.43,7.32,10.42,10.42,0,0,0,2.31.26,10.57,10.57,0,0,0,9.95-7,8,8,0,0,0,6.79-14.15Z" fill="#66bfe4"/><path d="M301.6,36.65a10.2,10.2,0,0,0,.38-2.78,10.56,10.56,0,0,0-8.33-10.32,10.09,10.09,0,0,1,1.51,5.31,10.26,10.26,0,0,1-.36,2.68,7.63,7.63,0,0,1-6.52,13.57,10.11,10.11,0,0,1-11.76,6.48,12.81,12.81,0,0,1-17.33,3.71,13.37,13.37,0,0,0,23.36,2.26,11,11,0,0,0,2.31.26,10.57,10.57,0,0,0,9.95-7,8,8,0,0,0,6.79-14.15Z" fill="#50bae3"/><path d="M177,217.47a1.23,1.23,0,0,1-.29-2.43c18.08-4.43,18.94-23.51,19-24.32a1.23,1.23,0,0,1,1.23-1.19h23a1.24,1.24,0,0,1,1.24,1.19c0,.81.88,19.89,19,24.32a1.22,1.22,0,0,1,.93,1.34,1.23,1.23,0,0,1-1.22,1.09Z" fill="#ab89bf"/><path d="M219.92,190.76s.67,20.76,19.91,25.48H177c19.24-4.72,19.91-25.48,19.91-25.48h23m0-2.46h-23a2.47,2.47,0,0,0-2.47,2.38c0,.77-.88,19-18,23.16a2.47,2.47,0,0,0,.58,4.86h62.86a2.47,2.47,0,0,0,.59-4.86c-17.15-4.2-18-22.39-18-23.16a2.47,2.47,0,0,0-2.47-2.38Z" fill="#5c1f5b"/><path d="M219.92,190.76H211c.89,5.7,4.56,19.22,19.62,22.91H183.55a25.94,25.94,0,0,1-6.58,2.57h62.86C220.59,211.52,219.92,190.76,219.92,190.76Z" fill="#a277b4"/><path d="M136,192a5.37,5.37,0,0,1-5.37-5.38V89.42A5.38,5.38,0,0,1,136,84H280.78a5.38,5.38,0,0,1,5.38,5.38v97.19a5.38,5.38,0,0,1-5.38,5.38Z" fill="#ab89bf"/><path d="M280.78,85.27a4.15,4.15,0,0,1,4.15,4.15v97.19a4.15,4.15,0,0,1-4.15,4.15H136a4.14,4.14,0,0,1-4.14-4.15V89.42A4.14,4.14,0,0,1,136,85.27H280.78m0-2.46H136a6.61,6.61,0,0,0-6.61,6.61v97.19a6.62,6.62,0,0,0,6.61,6.61H280.78a6.61,6.61,0,0,0,6.61-6.61V89.42a6.62,6.62,0,0,0-6.61-6.61Z" fill="#5c1f5b"/><path d="M280.78,85.27h-21v76.62A4.14,4.14,0,0,1,255.6,166H131.88v20.58a4.14,4.14,0,0,0,4.14,4.15H280.78a4.15,4.15,0,0,0,4.15-4.15V89.42A4.15,4.15,0,0,0,280.78,85.27Z" fill="#a47db8"/><path d="M280.78,85.27h-7.86v88.18a4.14,4.14,0,0,1-4.15,4.14H131.88v9a4.14,4.14,0,0,0,4.14,4.15H280.78a4.15,4.15,0,0,0,4.15-4.15V89.42A4.15,4.15,0,0,0,280.78,85.27Z" fill="#a277b4"/><path d="M131.88,168.53a1.23,1.23,0,0,1-1.24-1.23V94.15a1.23,1.23,0,0,1,1.24-1.23H284.93a1.23,1.23,0,0,1,1.23,1.23V167.3a1.23,1.23,0,0,1-1.23,1.23Z" fill="#77c2e4"/><path d="M284.93,94.15V167.3h-153V94.15H284.93m0-2.46h-153a2.47,2.47,0,0,0-2.47,2.46V167.3a2.47,2.47,0,0,0,2.47,2.46H284.93a2.46,2.46,0,0,0,2.46-2.46V94.15a2.46,2.46,0,0,0-2.46-2.46Z" fill="#5c1f5b"/><polygon points="260.05 94.15 260.05 148.43 131.88 148.43 131.88 167.3 284.93 167.3 284.93 94.15 260.05 94.15" fill="#66bfe4"/><polygon points="269.5 94.15 269.5 158.41 131.88 158.41 131.88 167.3 284.93 167.3 284.93 94.15 269.5 94.15" fill="#50bae3"/><line x1="138.55" y1="101.08" x2="138.55" y2="148.43" fill="none" stroke="#fff" stroke-linecap="round" stroke-linejoin="round" stroke-width="2.46"/><path d="M214.74,181.85a6.34,6.34,0,1,1-6.34-6.34A6.34,6.34,0,0,1,214.74,181.85Z" fill="#d8d2e9" stroke="#5c1f5b" stroke-linecap="round" stroke-linejoin="round" stroke-width="2.46"/><path d="M212.22,163.31a1.24,1.24,0,0,1-1.14-1,11.53,11.53,0,0,0-1.24-1.11,7.86,7.86,0,0,1-1.05-1l-.27-.32a33.13,33.13,0,0,1-2.14-2.78.11.11,0,0,1-.08,0,1.13,1.13,0,0,1-.36.06,1.2,1.2,0,0,1-.72-.24c-2.44-1.78-4.44-5-5.9-7.66a32.89,32.89,0,0,1-2.19-4.93,9.63,9.63,0,0,1-.34-1.36,1.21,1.21,0,0,1-.49.11,1.27,1.27,0,0,1-.34,0c-3-.86-5.22-6.5-5.33-8.66-.16-3.15-.1-6.77,1.51-9.69a1.23,1.23,0,0,1,1.08-.64l29.72.38a1.22,1.22,0,0,1,.61.17c2.28,1.35,4.2,5.68,4.52,8.07.39,2.86,0,9.64-3.72,11.11a1.17,1.17,0,0,1-.45.09,1.24,1.24,0,0,1-.27,0c.51,3.36.83,7.06-2,10.22a1.23,1.23,0,0,1-.92.41,1.28,1.28,0,0,1-.72-.23,3.19,3.19,0,0,1-.94-1.11l-1,1.11c-2.15,2.37-4.37,4.83-4.53,7.8a1.22,1.22,0,0,1-1.22,1.17Z" fill="#cca2cb"/><path d="M193.22,125.39l29.7.38c1.9,1.12,3.65,5.09,3.93,7.17.36,2.66-.13,8.68-2.95,9.81-.27-.82-1-1.87-2-1.88.47,4.33,2.07,8.8-1.25,12.48-.77-.55-.95-1.73-1.23-2.57-2.6,3.46-6.93,6.67-7.18,11.3,0-.63-2.11-2.05-2.54-2.57-.63-.78-3.76-4.32-3.11-5.26a6,6,0,0,0-.68,1.8c-2.26-1.65-4.2-4.84-5.55-7.27a30.84,30.84,0,0,1-2.11-4.73c-.43-1.24-.56-4.11-1.74-4.8-.46.75-.21,1.87-.25,2.72-2.21-.63-4.33-5.43-4.44-7.54-.15-3-.1-6.39,1.36-9m0-2.46a2.47,2.47,0,0,0-2.15,1.27c-1.77,3.2-1.84,7-1.67,10.35.12,2.37,2.45,8.72,6.22,9.79l.2,0c.05.16.09.32.14.47a34.55,34.55,0,0,0,2.28,5.12c1.53,2.75,3.62,6.14,6.25,8.06a2.51,2.51,0,0,0,1.3.47c.53.73,1.14,1.48,1.79,2.26l.25.3a8.26,8.26,0,0,0,1.23,1.13c.26.21.69.57.93.8a2.48,2.48,0,0,0,2.17,1.55h.13a2.45,2.45,0,0,0,2.45-2.33c.14-2.53,2.12-4.72,4.21-7l0,0,.27.22a2.48,2.48,0,0,0,3.27-.35c2.87-3.18,2.89-6.82,2.49-10.05,4.65-2.09,4.57-10.24,4.28-12.34s-2.14-7.21-5.12-9a2.5,2.5,0,0,0-1.22-.35l-29.7-.37Z" fill="#5c1f5b"/><path d="M199.68,125.39a10.4,10.4,0,0,0-.81,5.43c.06,1.26,1.33,4.14,2.66,4.52,0-.51-.13-1.19.15-1.63.71.42.79,2.13,1,2.88a18.46,18.46,0,0,0,1.26,2.84,14,14,0,0,0,3.33,4.35,3.64,3.64,0,0,1,.41-1.08c-.39.57,1.49,2.7,1.87,3.16.25.31,1.54,1.16,1.52,1.55.15-2.78,2.74-4.71,4.31-6.78.17.5.27,1.2.73,1.54,2-2.21,1-4.89.75-7.49.58,0,1,.63,1.18,1.13,1.69-.68,2-4.29,1.77-5.89-.17-1.24-1.22-3.63-2.36-4.3Z" fill="#c595c4" stroke="#5c1f5b" stroke-linecap="round" stroke-linejoin="round" stroke-width="2.46"/><path d="M192.22,128.34a1.23,1.23,0,0,1-1.15-1.66L196,113.31a1.23,1.23,0,0,1,1.15-.8h23.08a1.22,1.22,0,0,1,1.17.85l4.35,13.37a1.21,1.21,0,0,1-.18,1.1,1.22,1.22,0,0,1-1,.51Z" fill="#ab89bf"/><path d="M220.23,113.74l4.35,13.37H192.22l4.93-13.37h23.08m0-2.46H197.15a2.46,2.46,0,0,0-2.31,1.61l-4.93,13.36a2.46,2.46,0,0,0,2.31,3.32h32.36a2.45,2.45,0,0,0,2-1,2.48,2.48,0,0,0,.35-2.21L222.57,113a2.44,2.44,0,0,0-2.34-1.7Z" fill="#5c1f5b"/><path d="M162.14,123.24a2.17,2.17,0,0,1-2-2.46v-12.2a4.53,4.53,0,0,1,1.75-3.55l30.33-33a1.09,1.09,0,0,1,.29-.23,1.36,1.36,0,0,1,.66-.18c1.38,0,1.69,1.31,2.13,6.14.23,2.57.37,5.3.37,5.87v18a4.47,4.47,0,0,1-1.93,3.66l-30.43,17.7A2.2,2.2,0,0,1,162.14,123.24Z" fill="#d8d2e9"/><path d="M193.13,72.83c.7,0,1.27,9.78,1.27,10.77v18a3.25,3.25,0,0,1-1.32,2.6l-30.43,17.7a1.06,1.06,0,0,1-.51.15c-.47,0-.81-.46-.81-1.22v-12.2a3.27,3.27,0,0,1,1.32-2.61l30.43-33.13h0m0-2.47h0a2.61,2.61,0,0,0-1.27.35,2.35,2.35,0,0,0-.58.46L161,104.1a5.74,5.74,0,0,0-2.16,4.48v12.2a3.41,3.41,0,0,0,3.27,3.69,3.51,3.51,0,0,0,1.75-.49l30.43-17.7a5.64,5.64,0,0,0,2.55-4.73v-18c0-.59-.15-3.38-.39-6-.39-4.37-.65-7.26-3.35-7.26Z" fill="#5c1f5b"/><path d="M254.66,123.24a2.28,2.28,0,0,1-1.13-.32L223.1,105.21a4.47,4.47,0,0,1-1.93-3.66v-18c0-.57.14-3.3.37-5.87.44-4.83.75-6.14,2.13-6.14a1.36,1.36,0,0,1,.66.18,1.13,1.13,0,0,1,.3.24L255,105a4.57,4.57,0,0,1,1.75,3.56v12.2a2.78,2.78,0,0,1-.44,1.59,1.92,1.92,0,0,1-1.6.87Z" fill="#d8d2e9"/><path d="M223.67,72.83h.05L254.15,106a3.24,3.24,0,0,1,1.32,2.6v12.2c0,.77-.33,1.23-.81,1.23a1,1,0,0,1-.51-.16l-30.43-17.7a3.25,3.25,0,0,1-1.32-2.6v-18c0-1,.57-10.77,1.27-10.77m0-2.47c-2.7,0-3,2.89-3.35,7.26-.23,2.6-.38,5.39-.38,6v18a5.63,5.63,0,0,0,2.54,4.73L252.91,124a3.51,3.51,0,0,0,1.75.49,3.41,3.41,0,0,0,3.27-3.68V108.58a5.76,5.76,0,0,0-2.16-4.48L225.53,71.17a2.35,2.35,0,0,0-.58-.46,2.59,2.59,0,0,0-1.28-.35Z" fill="#5c1f5b"/><path d="M193.63,115a12.14,12.14,0,0,1-12.13-12.12V40.52C181.5,29.1,197.76,3,207.66,1.34a1.08,1.08,0,0,1,.47-.11l.27,0,.27,0a1.18,1.18,0,0,1,.5.11c9.9,1.7,26.13,27.77,26.13,39.18v62.33A12.13,12.13,0,0,1,223.18,115Z" fill="#d8d2e9"/><path d="M208.67,2.46v0c9.07,1,25.4,27.1,25.4,38v62.33a10.9,10.9,0,0,1-10.89,10.89H193.62a10.9,10.9,0,0,1-10.89-10.89V40.52c0-10.91,16.33-37,25.4-38v0a2.48,2.48,0,0,1,.27,0l.27,0m0-2.46h-.54a2.36,2.36,0,0,0-.84.15C200.41,1.43,192.92,11.92,190,16.46c-4.68,7.2-9.69,17.3-9.69,24.06v62.33a13.37,13.37,0,0,0,13.35,13.35h29.56a13.37,13.37,0,0,0,13.35-13.35V40.52c0-6.76-5-16.86-9.7-24.06-3-4.55-10.47-15.06-17.35-16.32a2.42,2.42,0,0,0-.81-.14Z" fill="#5c1f5b"/><path d="M209.06,2.59c6,8.51,11,19.19,11,25.23V90.15A10.89,10.89,0,0,1,209.17,101H182.73v1.81a10.9,10.9,0,0,0,10.9,10.89h29.55a10.9,10.9,0,0,0,10.89-10.89V40.52C234.07,29.76,218.2,4.27,209.06,2.59Z" fill="#ccc6e3"/><path d="M211.83,3.68c7.42,8.85,14.5,22.61,14.5,29.79V95.8a10.89,10.89,0,0,1-10.89,10.89H185.88a11.27,11.27,0,0,1-2.55-.31,10.89,10.89,0,0,0,10.29,7.36h29.56a10.9,10.9,0,0,0,10.89-10.89V40.52C234.07,30.78,221.07,9,211.83,3.68Z" fill="#b9b0d7"/><path d="M190.47,21.53a1.23,1.23,0,0,1-1.05-1.87c5-8.29,12.36-17.36,18.24-18.33a1.24,1.24,0,0,1,.47-.1l.27,0,.27,0a1.18,1.18,0,0,1,.5.11c5.87,1,13.23,10,18.22,18.32a1.22,1.22,0,0,1,0,1.24,1.21,1.21,0,0,1-1.07.63Z" fill="#ab89bf"/><path d="M208.67,2.46v0c5,.56,12.2,8.73,17.66,17.78H190.47c5.46-9,12.66-17.22,17.66-17.78v0a2.48,2.48,0,0,1,.27,0l.27,0m0-2.46h-.54a2.36,2.36,0,0,0-.84.15C199.42,1.61,190.85,14.9,188.36,19a2.47,2.47,0,0,0,2.11,3.74h35.86A2.47,2.47,0,0,0,228.44,19C226,14.89,217.36,1.57,209.48.14a2.46,2.46,0,0,0-.81-.14Z" fill="#5c1f5b"/><path d="M208.4,64a14.66,14.66,0,1,1,14.66-14.65A14.66,14.66,0,0,1,208.4,64Z" fill="#77c2e4"/><path d="M208.4,36A13.42,13.42,0,1,1,195,49.37,13.42,13.42,0,0,1,208.4,36m0-2.47a15.89,15.89,0,1,0,15.89,15.89A15.91,15.91,0,0,0,208.4,33.48Z" fill="#5c1f5b"/><line x1="187.32" y1="41.39" x2="187.32" y2="83.15" fill="none" stroke="#fff" stroke-linecap="round" stroke-linejoin="round" stroke-width="2.46"/><path d="M19.94,221.26a6.31,6.31,0,0,1-6.3-6.3V93.16a6.3,6.3,0,0,1,6.3-6.29H88.76a6.29,6.29,0,0,1,6.29,6.29V215a6.3,6.3,0,0,1-6.29,6.3Z" fill="#d8d2e9"/><path d="M88.76,88.1a5.06,5.06,0,0,1,5.06,5.06V215A5.05,5.05,0,0,1,88.76,220H19.94A5.07,5.07,0,0,1,14.87,215V93.16a5.07,5.07,0,0,1,5.07-5.06H88.76m0-2.46H19.94a7.53,7.53,0,0,0-7.53,7.52V215a7.54,7.54,0,0,0,7.53,7.53H88.76A7.53,7.53,0,0,0,96.28,215V93.16a7.52,7.52,0,0,0-7.52-7.52Z" fill="#5c1f5b"/><path d="M88.76,88.1H67.86V201.54a5.07,5.07,0,0,1-5.07,5.07H14.87V215A5.07,5.07,0,0,0,19.94,220H88.76A5.05,5.05,0,0,0,93.82,215V93.16A5.06,5.06,0,0,0,88.76,88.1Z" fill="#ccc6e3"/><path d="M88.76,88.1H80.87V207.17a5.05,5.05,0,0,1-5.06,5.06H14.87V215A5.08,5.08,0,0,0,19.94,220H88.76A5.06,5.06,0,0,0,93.82,215V93.16A5.06,5.06,0,0,0,88.76,88.1Z" fill="#b9b0d7"/><path d="M14.87,201.7a1.24,1.24,0,0,1-1.23-1.23V99.57a1.24,1.24,0,0,1,1.23-1.24H93.82a1.24,1.24,0,0,1,1.23,1.24v100.9a1.24,1.24,0,0,1-1.23,1.23Z" fill="#a187bf"/><path d="M93.82,99.57v100.9H14.87V99.57H93.82m0-2.47H14.87a2.47,2.47,0,0,0-2.46,2.47v100.9a2.46,2.46,0,0,0,2.46,2.46H93.82a2.46,2.46,0,0,0,2.46-2.46V99.57a2.47,2.47,0,0,0-2.46-2.47Z" fill="#5c1f5b"/><polygon points="67.65 99.57 67.65 177.34 14.88 177.34 14.88 200.47 93.82 200.47 93.82 99.57 67.65 99.57" fill="#9983bd"/><polygon points="79.89 99.57 79.89 189.64 14.88 189.64 14.88 200.47 93.82 200.47 93.82 99.57 79.89 99.57" fill="#977eba"/><path d="M60,212.23a5.63,5.63,0,1,0-5.63,5.63A5.63,5.63,0,0,0,60,212.23Z" fill="#5c1f5b"/><line x1="44.43" y1="91.98" x2="64.27" y2="91.98" fill="none" stroke="#5c1f5b" stroke-linecap="round" stroke-linejoin="round" stroke-width="2.46"/><line x1="20.7" y1="104.77" x2="20.7" y2="167.25" fill="none" stroke="#fff" stroke-linecap="round" stroke-linejoin="round" stroke-width="2.46"/><path d="M85.92,232.55a3.78,3.78,0,0,1-3.78-3.77V169.25a3.78,3.78,0,0,1,3.78-3.77h76.46a3.78,3.78,0,0,1,3.78,3.77v59.53a3.78,3.78,0,0,1-3.78,3.77Z" fill="#ab89bf"/><path d="M162.38,166.71a2.54,2.54,0,0,1,2.54,2.54v59.53a2.54,2.54,0,0,1-2.54,2.54H85.91a2.54,2.54,0,0,1-2.54-2.54V169.26a2.55,2.55,0,0,1,2.54-2.55h76.47m0-2.46H85.91a5,5,0,0,0-5,5v59.52a5,5,0,0,0,5,5h76.47a5,5,0,0,0,5-5V169.26a5,5,0,0,0-5-5Z" fill="#5c1f5b"/><path d="M162.38,166.71H149.5v46.93a2.54,2.54,0,0,1-2.53,2.54H83.37v12.6a2.55,2.55,0,0,0,2.55,2.54h76.46a2.53,2.53,0,0,0,2.54-2.54V169.26A2.54,2.54,0,0,0,162.38,166.71Z" fill="#a47db8"/><path d="M162.38,166.71h-4.81v54a2.54,2.54,0,0,1-2.54,2.54H83.37v5.52a2.55,2.55,0,0,0,2.55,2.54h76.46a2.53,2.53,0,0,0,2.54-2.54V169.26A2.54,2.54,0,0,0,162.38,166.71Z" fill="#a277b4"/><path d="M167.69,156.17c-1.33-4.51-3.73-8.35-8.34-8.35H89c-4.61,0-7,3.84-8.36,8.35l-3.18,10.54H171Z" fill="#cca2cb" stroke="#5c1f5b" stroke-linecap="round" stroke-linejoin="round" stroke-width="2.46"/><path d="M77.42,166.71a11.71,11.71,0,0,0,23.4,0Z" fill="#cca2cb" stroke="#5c1f5b" stroke-linecap="round" stroke-linejoin="round" stroke-width="2.46"/><path d="M100.82,166.71a11.7,11.7,0,0,0,23.39,0Z" fill="#cca2cb" stroke="#5c1f5b" stroke-linecap="round" stroke-linejoin="round" stroke-width="2.46"/><path d="M124.21,166.71a11.71,11.71,0,0,0,23.4,0Z" fill="#cca2cb" stroke="#5c1f5b" stroke-linecap="round" stroke-linejoin="round" stroke-width="2.46"/><path d="M147.61,166.71a11.71,11.71,0,0,0,23.4,0Z" fill="#cca2cb" stroke="#5c1f5b" stroke-linecap="round" stroke-linejoin="round" stroke-width="2.46"/><line x1="100.82" y1="166.71" x2="105.14" y2="147.82" fill="none" stroke="#5c1f5b" stroke-linecap="round" stroke-linejoin="round" stroke-width="2.46"/><line x1="147.61" y1="166.71" x2="143.28" y2="147.82" fill="none" stroke="#5c1f5b" stroke-linecap="round" stroke-linejoin="round" stroke-width="2.46"/><line x1="124.15" y1="166.71" x2="124.15" y2="147.82" fill="none" stroke="#5c1f5b" stroke-linecap="round" stroke-linejoin="round" stroke-width="2.46"/><path d="M104.67,232.55a1.23,1.23,0,0,1-1.23-1.23v-27a9.78,9.78,0,0,1,9.77-9.77h21.88a9.78,9.78,0,0,1,9.77,9.77v27a1.23,1.23,0,0,1-1.24,1.23Z" fill="#979bcd"/><path d="M135.08,195.74a8.54,8.54,0,0,1,8.54,8.54v27H104.67v-27a8.55,8.55,0,0,1,8.54-8.54h21.87m0-2.46H113.21a11,11,0,0,0-11,11v27a2.46,2.46,0,0,0,2.46,2.46h39a2.47,2.47,0,0,0,2.47-2.46v-27a11,11,0,0,0-11-11Z" fill="#5c1f5b"/><path d="M111.15,200.33a7,7,0,0,0-2.89,5.65v8" fill="none" stroke="#fff" stroke-linecap="round" stroke-linejoin="round" stroke-width="2.46"/><line x1="87.46" y1="183.4" x2="87.46" y2="212.4" fill="none" stroke="#fff" stroke-linecap="round" stroke-linejoin="round" stroke-width="2.46"/><line x1="83.37" y1="162.77" x2="97.07" y2="162.77" fill="none" stroke="#fff" stroke-linecap="round" stroke-linejoin="round" stroke-width="2.46"/><line x1="105.67" y1="162.77" x2="119.36" y2="162.77" fill="none" stroke="#fff" stroke-linecap="round" stroke-linejoin="round" stroke-width="2.46"/><line x1="165.6" y1="162.77" x2="151.91" y2="162.77" fill="none" stroke="#fff" stroke-linecap="round" stroke-linejoin="round" stroke-width="2.46"/><line x1="142.17" y1="162.77" x2="128.47" y2="162.77" fill="none" stroke="#fff" stroke-linecap="round" stroke-linejoin="round" stroke-width="2.46"/></g></g></svg>