<svg xmlns="http://www.w3.org/2000/svg" xmlns:xlink="http://www.w3.org/1999/xlink" viewBox="0 0 2880.06 2800"><defs><linearGradient id="fd64c982-abb4-48da-adb2-fdff1f4b4c6a" x1="176.38" y1="1817.25" x2="1871.79" y2="1817.25" gradientUnits="userSpaceOnUse"><stop offset="0" stop-color="#444b8c"/><stop offset="1" stop-color="#26264f"/></linearGradient><linearGradient id="ad2683bc-3874-44df-9e40-dbbb86d711ab" x1="246.02" y1="1806.11" x2="1814.45" y2="1806.11" gradientUnits="userSpaceOnUse"><stop offset="0" stop-color="#aa80f9"/><stop offset="1" stop-color="#6165d7"/></linearGradient><linearGradient id="b9ccb529-dbd5-4726-bb21-2d6bccc78d2a" x1="176.38" y1="2469.14" x2="2730.44" y2="2469.14" xlink:href="#fd64c982-abb4-48da-adb2-fdff1f4b4c6a"/><linearGradient id="eafebd52-6710-408e-b87a-852010fc2243" x1="1263.79" y1="1483.5" x2="1968.8" y2="789.18" gradientUnits="userSpaceOnUse"><stop offset="0" stop-color="#e38ddd"/><stop offset="1" stop-color="#9571f6"/></linearGradient><linearGradient id="a5978b8f-b961-41d0-8b76-de284908684a" x1="2000.83" y1="1284.94" x2="2209.59" y2="1284.94" gradientUnits="userSpaceOnUse"><stop offset="0" stop-color="#40447e"/><stop offset="1" stop-color="#3c3b6b"/></linearGradient><linearGradient id="a9256b19-1fc1-4043-8eb3-78e853ebca91" x1="2209.32" y1="1444.33" x2="2380.74" y2="1444.33" gradientTransform="translate(3173.43 -1121.15) rotate(76.72)" xlink:href="#a5978b8f-b961-41d0-8b76-de284908684a"/><linearGradient id="b2bd2a1b-16ab-4870-b831-f2c952467ca0" x1="2159.34" y1="848.12" x2="2422.32" y2="848.12" gradientUnits="userSpaceOnUse"><stop offset="0" stop-color="#ffc444"/><stop offset="1" stop-color="#f36f56"/></linearGradient><linearGradient id="ec8de4f9-5217-471a-aac1-4332525e4c9b" x1="1182.03" y1="752.69" x2="2348.42" y2="752.69" gradientUnits="userSpaceOnUse"><stop offset="0" stop-color="#fcb148"/><stop offset="0.05" stop-color="#fdba46"/><stop offset="0.14" stop-color="#ffc244"/><stop offset="0.32" stop-color="#ffc444"/><stop offset="0.48" stop-color="#fdb946"/><stop offset="0.78" stop-color="#f99c4d"/><stop offset="0.87" stop-color="#f8924f"/><stop offset="1" stop-color="#f8924f"/></linearGradient><linearGradient id="a0730928-de03-4d8d-986a-ef8493a98cc7" x1="1386.87" y1="1378.84" x2="2143.59" y2="1378.84" xlink:href="#ec8de4f9-5217-471a-aac1-4332525e4c9b"/><linearGradient id="bf3fe57c-412b-42db-81d0-93ecbb10b4cf" x1="1527.13" y1="852.37" x2="2216.17" y2="852.37" xlink:href="#fd64c982-abb4-48da-adb2-fdff1f4b4c6a"/><linearGradient id="ba32bdbb-9654-4940-b6a9-670ee73b342d" x1="1116.66" y1="846.84" x2="1379.63" y2="846.84" xlink:href="#b2bd2a1b-16ab-4870-b831-f2c952467ca0"/><linearGradient id="b4698243-5bbb-4f59-a4cc-4559f66f9701" x1="1086.64" y1="846.84" x2="1201.63" y2="846.84" xlink:href="#b2bd2a1b-16ab-4870-b831-f2c952467ca0"/><linearGradient id="a6c8f15c-0122-4b43-9ca1-c2ffb9b39f0f" x1="1386.87" y1="1378.84" x2="1890.88" y2="1378.84" xlink:href="#ec8de4f9-5217-471a-aac1-4332525e4c9b"/><linearGradient id="bab76081-dcd3-40e4-ad52-92c0bda8c4b9" x1="1655.72" y1="2036.98" x2="1728.63" y2="1472.86" gradientUnits="userSpaceOnUse"><stop offset="0" stop-color="#fcb148"/><stop offset="0.05" stop-color="#fdba46"/><stop offset="0.14" stop-color="#ffc244"/><stop offset="0.32" stop-color="#ffc444"/><stop offset="0.4" stop-color="#fec045"/><stop offset="0.71" stop-color="#faa34b"/><stop offset="0.87" stop-color="#f8924f"/><stop offset="1" stop-color="#f8924f"/></linearGradient><linearGradient id="b6df6666-fd64-431e-a415-3c7649090256" x1="1333.09" y1="1284.94" x2="1541.85" y2="1284.94" xlink:href="#a5978b8f-b961-41d0-8b76-de284908684a"/><linearGradient id="e8be01e1-e044-4b56-bbbe-00064c673044" x1="1541.58" y1="1444.33" x2="1712.99" y2="1444.33" gradientTransform="translate(1497.92 -727.63) rotate(45)" xlink:href="#a5978b8f-b961-41d0-8b76-de284908684a"/><linearGradient id="b8624ba4-b54a-41e2-869a-cc6a7f193bb6" x1="1839" y1="1448.2" x2="1969.42" y2="1448.2" xlink:href="#a5978b8f-b961-41d0-8b76-de284908684a"/><linearGradient id="e93fa94a-50c2-4dc0-9280-7702dbbb9ec5" x1="1676.91" y1="1521.99" x2="2167.37" y2="1521.99" xlink:href="#ad2683bc-3874-44df-9e40-dbbb86d711ab"/><linearGradient id="b19892d7-c175-4bc6-8f0e-fbba997fa53e" x1="1964.58" y1="1408.51" x2="2656.94" y2="1408.51" xlink:href="#ad2683bc-3874-44df-9e40-dbbb86d711ab"/><linearGradient id="af115c05-3a15-481b-b6d0-015c58aa5715" x1="1964.58" y1="1408.51" x2="2499.95" y2="1408.51" xlink:href="#ad2683bc-3874-44df-9e40-dbbb86d711ab"/><linearGradient id="b61d0df1-57b5-470d-8875-a2754680c82a" x1="2205.5" y1="1683.62" x2="1706.45" y2="2499.46" gradientUnits="userSpaceOnUse"><stop offset="0" stop-color="#ff9085"/><stop offset="1" stop-color="#fb6fbb"/></linearGradient><linearGradient id="adac109c-299d-40f2-a73e-6864ba30b8b8" x1="1789.24" y1="2147.37" x2="1673.86" y2="2507.41" xlink:href="#b61d0df1-57b5-470d-8875-a2754680c82a"/><linearGradient id="ae69f141-0bc8-4b10-9bf8-0b8d69dc7c59" x1="1882.59" y1="2262.28" x2="1818.21" y2="2463.18" xlink:href="#b61d0df1-57b5-470d-8875-a2754680c82a"/><linearGradient id="ba5e64d1-6b1e-4651-8d64-52f1bd3721c2" x1="1985.47" y1="2313.86" x2="1945.26" y2="2439.33" xlink:href="#b61d0df1-57b5-470d-8875-a2754680c82a"/><linearGradient id="f5272a3d-0142-4db2-a892-1ded6622fce5" x1="2154.06" y1="1986.28" x2="1977.62" y2="2536.87" xlink:href="#b61d0df1-57b5-470d-8875-a2754680c82a"/><linearGradient id="b1666541-a4e6-4796-bd47-cc64ce575a9a" x1="2255.39" y1="2027.59" x2="2098.72" y2="2516.53" xlink:href="#b61d0df1-57b5-470d-8875-a2754680c82a"/><linearGradient id="b6946aa5-4fa2-477c-b052-6799000db3c8" x1="2376.63" y1="1947.86" x2="2188.48" y2="2535.01" xlink:href="#b61d0df1-57b5-470d-8875-a2754680c82a"/><linearGradient id="ec3451cc-a6b7-4042-8da3-bac5cfb1203d" x1="2461.9" y1="2061.41" x2="2323.99" y2="2491.77" xlink:href="#b61d0df1-57b5-470d-8875-a2754680c82a"/><linearGradient id="bc6b0ec4-1fb2-4eb5-a870-a187a0306257" x1="2543.65" y1="2186" x2="2460.62" y2="2445.11" xlink:href="#b61d0df1-57b5-470d-8875-a2754680c82a"/></defs><title>img-panel-administracion</title><g style="isolation:isolate"><g id="a5a1d47f-4128-42c7-a065-52707b98daad" data-name="Capa 2"><g id="a1611d4b-4f73-4569-9a2e-80bfc5c1cf24" data-name="Illustration"><path d="M1484.84.64C747.56-21.13,108.92,513.84,12.43,1215.79c-105.5,767.48,475.14,1458,1189.58,1568.64,888.66,137.57,1750.6-658.29,1673.2-1521.69C2816.91,612.25,2234.31,22.77,1484.84.64Z" fill="#f4f7fa"/><path d="M2730.44,2450.56,176.38,2428.79v64.42c0,17.48,11.14,32.35,26.23,35l722.21,126.84a100.92,100.92,0,0,0,25.91,1.19l1752-144.62c15.64-1.29,27.75-16.2,27.75-34.17Z" fill="#26264f"/><path d="M1803.58,2347.34,202.79,2465.18c-28.64,2.1-51.93-20.3-51.93-50.06V1223.06c0-29.75,23.29-53.87,51.93-53.87H1803.58c23.6,0,42.68,21.8,42.68,48.7v1077.6C1846.26,2322.39,1827.18,2345.6,1803.58,2347.34Z" fill="#26264f"/><path d="M1829.11,2347.34,228.32,2465.18c-28.65,2.1-51.94-20.3-51.94-50.06V1223.06c0-29.75,23.29-53.87,51.94-53.87H1829.11c23.6,0,42.68,21.8,42.68,48.7v1077.6C1871.79,2322.39,1852.71,2345.6,1829.11,2347.34Z" fill="url(#fd64c982-abb4-48da-adb2-fdff1f4b4c6a)"/><path d="M1779.24,2271.36l-1491,102.36c-23.31,1.6-42.25-16.79-42.25-41.08V1289c0-24.29,18.94-44.06,42.25-44.16l1491-6.43c19.47-.09,35.21,17.78,35.21,39.91v950.58C1814.45,2251,1798.71,2270,1779.24,2271.36Z" fill="url(#ad2683bc-3874-44df-9e40-dbbb86d711ab)"/><path d="M1085.25,1201.79c0,11.08-8.24,20.08-18.42,20.12s-18.45-8.94-18.45-20.05,8.27-20.1,18.45-20.11S1085.25,1190.72,1085.25,1201.79Z" fill="#fff"/><path d="M228.31,2465.18,1821,2347.93l8.11-.59c10.83-.8,20.67-6.15,28.19-14.27-114.61-6.28-185.8-47-231.72-89-92.22-84.39-76.22-167.62-175.67-223.11-124-69.22-221.57,18.49-315.69-68-57.07-52.46-29-91.58-99.27-170-77.77-86.83-128.4-57.64-206.56-135.79-98.82-98.82-49.4-175.69-134.52-246.64-103.27-86.06-214.64-6.41-312.95-88.94-42.4-35.6-65.66-87.36-77.81-142.4H228.32c-28.65,0-51.94,24.12-51.94,53.87V2415.12C176.38,2444.88,199.67,2467.28,228.31,2465.18Z" fill="#fff" opacity="0.48" style="mix-blend-mode:soft-light"/><path d="M1892.91,2340.8l-1716.53,124,748.44,131.45a101.82,101.82,0,0,0,25.91,1.19l1779.71-146.92-810.22-108.92A132.69,132.69,0,0,0,1892.91,2340.8Z" fill="url(#b9ccb529-dbd5-4726-bb21-2d6bccc78d2a)"/><polygon points="426.85 2465.9 1855.91 2361.1 2298.19 2420.08 881.44 2532.11 426.85 2465.9" fill="#26264f"/><g opacity="0.67"><path d="M801,1693.34c30.46-59.19,87.34-102.25,153.81-111.95l4.63-286.87c-189.94,9.47-354.92,132.53-429.23,305.61Z" fill="#fff"/><path d="M1171.39,1811c-16,95.4-96.07,171.34-193.4,176.1a189.51,189.51,0,0,1-81.26-13.76l-149.15,254c69.08,33.91,147.64,50.51,230.41,45.15,244.26-15.82,440.08-217.8,462-460.74Z" fill="#fff"/><path d="M701.3,2201.21l149.9-254.45c-45.05-35.66-73.91-91.73-73.91-156a212.26,212.26,0,0,1,4.9-45.33L510.83,1653a509.93,509.93,0,0,0-22.14,148.72C488.69,1972.32,573.35,2118.44,701.3,2201.21Z" fill="#fff"/></g><path d="M1007.67,1580.88c88.83,11.37,157.62,84,165.82,176.34l442.72,2.64c0-.2,0-.41,0-.61,0-349.6-260.87-635-600.89-654.49Z" fill="url(#eafebd52-6710-408e-b87a-852010fc2243)"/><path d="M153.14,311v720.51c0,23.92,19.78,43.31,44.16,43.31H1680a42.47,42.47,0,0,0,42.49-42.46V325.89Z" fill="#ebeff2"/><path d="M1680,235.76,197.3,220c-24.38-.26-44.16,18.92-44.16,42.84v73.83l1569.37,14.44V278.68A43,43,0,0,0,1680,235.76Z" fill="#d8dee8"/><path d="M515.23,696,596.94,415.8c123.65,40.26,213,154.89,213.71,289.6Z" fill="#d8dee8"/><path d="M734.28,722.76c-4.59,64.07-35.84,120.81-82.92,159.53L523.12,715.84Z" fill="#fff"/><path d="M497,686.35c-49.47-46.89-109.15-103.56-156.59-148.82a233.81,233.81,0,0,1,161.48-62.38,237.77,237.77,0,0,1,55,6.83Z" fill="#fff"/><path d="M486.64,703.88,307.21,832.81a227.31,227.31,0,0,1,19.2-281.14q19.71,18.78,43.75,41.66C418.65,639.44,467.37,685.62,486.64,703.88Z" fill="#fff"/><path d="M491.84,724.63,488.37,935a235.73,235.73,0,0,1-169.24-86.24Z" fill="#fff"/><path d="M511.73,733.61,635.51,894.22A234,234,0,0,1,508.4,935.33Z" fill="#fff"/><polygon points="1612.31 554.55 852.49 549.53 852.49 478.27 1612.31 483.97 1612.31 554.55" fill="#fff"/><polygon points="1612.31 682.27 852.49 678.49 852.49 607.22 1612.31 611.69 1612.31 682.27" fill="#fff"/><polygon points="1612.31 809.99 852.49 807.44 852.49 736.18 1612.31 739.41 1612.31 809.99" fill="#fff"/><polygon points="1612.31 937.71 852.49 936.39 852.49 865.13 1612.31 867.13 1612.31 937.71" fill="#fff"/><path d="M254.52,278.27a19.19,19.19,0,0,1-19.6,19,19.66,19.66,0,0,1-19.6-19.43,19.19,19.19,0,0,1,19.6-19A19.65,19.65,0,0,1,254.52,278.27Z" fill="#fff"/><rect x="2171.41" y="1218.27" width="100.96" height="330.03" transform="translate(-151.94 2485.65) rotate(-56.81)" fill="#fff"/><circle cx="2105.21" cy="1284.94" r="104.38" fill="url(#a5978b8f-b961-41d0-8b76-de284908684a)"/><circle cx="2295.03" cy="1444.33" r="85.71" transform="translate(362.05 3346.13) rotate(-76.72)" fill="url(#a9256b19-1fc1-4043-8eb3-78e853ebca91)"/><ellipse cx="2290.83" cy="848.12" rx="131.49" ry="184.78" fill="url(#b2bd2a1b-16ab-4870-b831-f2c952467ca0)"/><path d="M1889,400.38H1641.49c-253.75,0-459.46,205.7-459.46,459.46h0C1182,995.24,1291.8,1105,1427.2,1105h676.05c135.4,0,245.17-109.77,245.17-245.17h0C2348.42,606.08,2142.71,400.38,1889,400.38Z" fill="url(#ec8de4f9-5217-471a-aac1-4332525e4c9b)"/><path d="M1845.5,1607.41H1685c-164.63,0-298.08-133.45-298.08-298.08h0a159.05,159.05,0,0,1,159.05-159.06h438.61a159.06,159.06,0,0,1,159.06,159.06h0C2143.59,1474,2010.13,1607.41,1845.5,1607.41Z" fill="url(#a0730928-de03-4d8d-986a-ef8493a98cc7)"/><path d="M2113.59,1005.91H1643.18c-63.75,0-116-48.87-116-109.15V804.33c0-60.28,52.3-107.47,116-105.44l470.41,15c56.94,1.81,102.58,48.68,102.58,104.69v85.89C2216.17,960.5,2170.53,1005.91,2113.59,1005.91Z" fill="url(#bf3fe57c-412b-42db-81d0-93ecbb10b4cf)"/><path d="M1793.9,845.64c0,40.26-34.27,72.46-76.89,71.92-43-.54-78.14-34.16-78.14-75.07S1674,769.39,1717,770.6C1759.63,771.79,1793.9,805.39,1793.9,845.64Z" fill="#fff"/><path d="M2111.8,852.1c0,38.91-32,70-71.79,69.54-40.13-.51-72.92-33-72.92-72.48s32.79-70.64,72.92-69.51C2079.8,780.76,2111.8,813.2,2111.8,852.1Z" fill="#fff"/><path d="M1935.94,1040.56c-70-82.2-38.88-147.94-130.34-259.33C1679.75,628,1532.94,645.3,1499.31,541.34c-9.32-28.81-10.39-68.34,14.6-123-191.68,55.29-331.88,232-331.88,441.5h0C1182,995.24,1291.8,1105,1427.2,1105h589.17C1981.08,1085.77,1955.29,1063.3,1935.94,1040.56Z" fill="#fff" opacity="0.3" style="mix-blend-mode:soft-light"/><ellipse cx="1248.15" cy="846.84" rx="131.49" ry="184.78" fill="url(#ba32bdbb-9654-4940-b6a9-670ee73b342d)"/><ellipse cx="1144.13" cy="846.84" rx="57.5" ry="80.8" fill="url(#b4698243-5bbb-4f59-a4cc-4559f66f9701)"/><path d="M1885,1443.31c-22-103.44-265.68-101-272.3-168.57-5.11-52.12,134.78-103.73,152.36-110.21,15-5.55,30-10.24,44.73-14.26H1545.92a159.05,159.05,0,0,0-159.05,159.06h0c0,164.63,133.45,298.08,298.08,298.08H1845.5a300.44,300.44,0,0,0,45.38-3.43c-14-17.32-23.09-36.26-25.29-56.93C1860.71,1501.22,1893.58,1483.4,1885,1443.31Z" opacity="0.4" fill="url(#a6c8f15c-0122-4b43-9ca1-c2ffb9b39f0f)" style="mix-blend-mode:multiply"/><ellipse cx="1769.18" cy="1159.13" rx="253.57" ry="30.7" fill="url(#bab76081-dcd3-40e4-ad52-92c0bda8c4b9)"/><rect x="1503.66" y="1218.27" width="100.96" height="330.03" transform="translate(-454.19 1926.82) rotate(-56.81)" fill="#fff"/><circle cx="1437.47" cy="1284.94" r="104.38" fill="url(#b6df6666-fd64-431e-a415-3c7649090256)"/><polygon points="1675.9 1415.81 1917.67 1415.81 1908.07 1515.85 1671.1 1507.92 1675.9 1415.81" fill="#fff"/><circle cx="1627.29" cy="1444.33" r="85.71" transform="translate(-544.67 1573.7) rotate(-45)" fill="url(#e8be01e1-e044-4b56-bbbe-00064c673044)"/><path d="M1938.75,1413c-14.65-8.2-35.34-14-64.45-12.91a28.07,28.07,0,0,0-26.87,24.74L1839,1496.4h124.72l4.07-17.09A60,60,0,0,0,1938.75,1413Z" fill="url(#b8624ba4-b54a-41e2-869a-cc6a7f193bb6)"/><path d="M2159,1498.1l-449.93-7.77a18.85,18.85,0,0,0-15.65,7.86l-13.72,19.1a14.6,14.6,0,0,0,11.45,23.11l476.24,13.25Z" fill="url(#e93fa94a-50c2-4dc0-9280-7702dbbb9ec5)"/><path d="M2641.93,1279.14,2178,1257.54a39,39,0,0,0-34.34,17.47l-179.08,271.71,490.63,12.79a39.9,39.9,0,0,0,33.87-17.19l165-238.53A15.72,15.72,0,0,0,2641.93,1279.14Z" fill="url(#b19892d7-c175-4bc6-8f0e-fbba997fa53e)"/><path d="M2143.66,1275a39,39,0,0,1,34.34-17.47l10.16.47c.53,15.06,4.22,29,12.64,40.69,26.29,36.38,75.16,18.24,108.13,57.07,36.22,42.65-2.83,88,29.46,127.61,34,41.69,95.23,13.62,161.56,43.23l-10.87,15.71a39.9,39.9,0,0,1-33.87,17.19l-490.63-12.79Z" opacity="0.3" fill="url(#af115c05-3a15-481b-b6d0-015c58aa5715)" style="mix-blend-mode:multiply"/><path d="M1554.14,1855.48v601.05c0,20,14.92,35.35,33.28,34.38l1056.67-55.48c15.83-.83,28.64-16.48,28.64-34.95V1844Z" fill="#fff" opacity="0.68"/><path d="M2644.09,1773.55,1587.42,1779c-18.36.1-33.28,16.35-33.28,36.3v61.59l1118.59-13v-57C2672.73,1788.38,2659.92,1773.47,2644.09,1773.55Z" fill="url(#b61d0df1-57b5-470d-8875-a2754680c82a)"/><path d="M1630.38,1826.74c0,8.82-6.58,16-14.69,16.12s-14.72-7-14.72-15.88,6.59-16.06,14.72-16.12S1630.38,1817.91,1630.38,1826.74Z" fill="#fff"/><polygon points="1782.28 2402.9 1699.14 2406.83 1699.14 1960.06 1782.28 1958.62 1782.28 2402.9" fill="#fff"/><polygon points="1782.28 2402.9 1699.14 2406.83 1699.14 2194.71 1782.28 2191.97 1782.28 2402.9" fill="url(#adac109c-299d-40f2-a73e-6864ba30b8b8)"/><polygon points="1896.44 2397.5 1814.57 2401.37 1814.57 1958.06 1896.44 1956.64 1896.44 2397.5" fill="#fff"/><polygon points="1896.44 2397.5 1814.57 2401.37 1814.57 2296.14 1896.44 2292.85 1896.44 2397.5" fill="url(#ae69f141-0bc8-4b10-9bf8-0b8d69dc7c59)"/><polygon points="2008.85 2392.19 1928.23 2396 1928.23 1956.09 2008.85 1954.69 2008.85 2392.19" fill="#fff"/><polygon points="2008.85 2392.19 1928.23 2396 1928.23 2341.18 2008.85 2337.67 2008.85 2392.19" fill="url(#ba5e64d1-6b1e-4651-8d64-52f1bd3721c2)"/><polygon points="2119.56 2386.96 2040.15 2390.71 2040.15 1954.15 2119.56 1952.77 2119.56 2386.96" fill="#fff"/><polygon points="2119.56 2386.96 2040.15 2390.71 2040.15 2048.71 2119.56 2046.82 2119.56 2386.96" fill="url(#f5272a3d-0142-4db2-a892-1ded6622fce5)"/><polygon points="2228.6 2381.8 2150.39 2385.5 2150.39 1952.24 2228.6 1950.88 2228.6 2381.8" fill="#fff"/><polygon points="2228.6 2381.8 2150.39 2385.5 2150.39 2084.66 2228.6 2082.59 2228.6 2381.8" fill="url(#b1666541-a4e6-4796-bd47-cc64ce575a9a)"/><polygon points="2336.02 2376.73 2258.97 2380.37 2258.97 1950.35 2336.02 1949.02 2336.02 2376.73" fill="#fff"/><polygon points="2336.02 2376.73 2258.97 2380.37 2258.97 2012.88 2336.02 2011.21 2336.02 2376.73" fill="url(#b6946aa5-4fa2-477c-b052-6799000db3c8)"/><polygon points="2441.84 2371.72 2365.94 2375.31 2365.94 1948.5 2441.84 1947.18 2441.84 2371.72" fill="#fff"/><polygon points="2441.84 2371.72 2365.94 2375.31 2365.94 2113.14 2441.84 2110.95 2441.84 2371.72" fill="url(#ec3451cc-a6b7-4042-8da3-bac5cfb1203d)"/><polygon points="2546.11 2366.8 2471.33 2370.33 2471.33 1946.67 2546.11 1945.38 2546.11 2366.8" fill="#fff"/><polygon points="2546.11 2366.8 2471.33 2370.33 2471.33 2223.24 2546.11 2220.49 2546.11 2366.8" fill="url(#bc6b0ec4-1fb2-4eb5-a870-a187a0306257)"/></g></g></g></svg>