<svg width="754" height="570" viewBox="0 0 754 570" fill="none" xmlns="http://www.w3.org/2000/svg">
<g opacity="0.7">
<path d="M77.0778 116.538V107.174C77.0778 106.259 76.3351 105.516 75.4197 105.516H73.0088C72.3036 105.516 71.6787 105.037 71.5215 104.349C70.6875 100.713 69.2669 97.3006 67.3502 94.2247C66.9684 93.6117 67.0405 92.8196 67.5512 92.3089L69.2459 90.6143C69.8936 89.9666 69.8936 88.9169 69.2459 88.2691L62.6253 81.6486C61.9776 81.0009 60.9279 81.0009 60.2802 81.6486L58.5873 83.3414C58.0757 83.853 57.2846 83.9252 56.6707 83.5424C53.5956 81.6248 50.1826 80.2024 46.5457 79.3674C45.8587 79.2094 45.3791 78.5854 45.3791 77.8801V75.4775C45.3791 74.5621 44.6363 73.8193 43.7209 73.8193H34.3569C33.4415 73.8193 32.6988 74.5621 32.6988 75.4775V77.8801C32.6988 78.5854 32.2192 79.2103 31.5313 79.3674C27.8935 80.2024 24.4795 81.6248 21.4044 83.5424C20.7905 83.9252 19.9994 83.853 19.4878 83.3414L17.7968 81.6504C17.149 81.0027 16.0994 81.0027 15.4516 81.6504L8.83105 88.271C8.18334 88.9187 8.18334 89.9684 8.83105 90.6161L10.5239 92.3089C11.0355 92.8205 11.1077 93.6117 10.7249 94.2256C8.80914 97.3015 7.38763 100.715 6.55354 104.351C6.3955 105.039 5.77154 105.518 5.06535 105.518H2.65812C1.74182 105.518 1 106.261 1 107.176V116.54C1 117.456 1.74273 118.198 2.65812 118.198H5.06627C5.77154 118.198 6.39641 118.677 6.55354 119.365C7.38945 123.002 8.81096 126.414 10.7267 129.488C11.1095 130.101 11.0364 130.893 10.5257 131.405L8.83105 133.099C8.18334 133.747 8.18334 134.797 8.83105 135.445L15.4516 142.066C16.0985 142.714 17.149 142.714 17.7968 142.066L19.4932 140.37C20.0048 139.858 20.796 139.786 21.4099 140.168C24.484 142.083 27.8953 143.501 31.5322 144.336C32.2201 144.494 32.6997 145.118 32.6997 145.824V148.239C32.6997 149.154 33.4424 149.897 34.3578 149.897H43.7218C44.6381 149.897 45.38 149.154 45.38 148.239V145.823C45.38 145.117 45.8596 144.493 46.5475 144.335C50.1835 143.501 53.5947 142.082 56.6689 140.167C57.2819 139.785 58.0739 139.857 58.5846 140.368L60.282 142.065C60.9297 142.713 61.9794 142.713 62.6271 142.065L69.2477 135.444C69.8954 134.796 69.8945 133.746 69.2477 133.099L67.5512 131.403C67.0396 130.891 66.9675 130.1 67.3502 129.486C69.266 126.412 70.6866 123 71.5215 119.364C71.6796 118.676 72.3036 118.197 73.0088 118.197H75.4206C76.336 118.197 77.0778 117.454 77.0778 116.538ZM39.0362 138.258C24.4548 138.258 12.6507 126.43 12.6507 111.849C12.6507 97.2897 24.4548 85.4618 39.0362 85.4618C53.6176 85.4618 65.4226 97.2897 65.4226 111.849C65.4226 126.43 53.6185 138.258 39.0362 138.258Z" stroke="#E5D7FF" stroke-width="0.7896" stroke-miterlimit="10"/>
<path d="M111.566 174.889V168.522C111.566 167.898 111.061 167.394 110.438 167.394H108.799C108.319 167.394 107.895 167.068 107.788 166.6C107.22 164.128 106.254 161.808 104.951 159.717C104.691 159.299 104.74 158.761 105.088 158.413L106.241 157.261C106.681 156.821 106.681 156.106 106.241 155.666L101.739 151.164C101.298 150.724 100.585 150.724 100.144 151.164L98.9923 152.315C98.645 152.663 98.1063 152.713 97.6888 152.452C95.5987 151.148 93.2779 150.181 90.8041 149.613C90.3364 149.505 90.0101 149.081 90.0101 148.601V146.967C90.0101 146.345 89.5051 145.84 88.8825 145.84H82.5155C81.8929 145.84 81.3879 146.345 81.3879 146.967V148.601C81.3879 149.08 81.0616 149.505 80.594 149.612C78.1201 150.18 75.7994 151.147 73.7074 152.451C73.2899 152.711 72.7521 152.662 72.4039 152.314L71.2545 151.165C70.8142 150.725 70.0996 150.725 69.6593 151.165L65.1582 155.667C64.7179 156.107 64.7179 156.821 65.1582 157.262L66.3094 158.413C66.6576 158.761 66.7069 159.299 66.4462 159.717C65.1427 161.808 64.1764 164.128 63.6095 166.601C63.5019 167.069 63.0781 167.395 62.5977 167.395H60.9606C60.338 167.395 59.833 167.9 59.833 168.523V174.89C59.833 175.512 60.338 176.017 60.9606 176.017H62.5986C63.078 176.017 63.5028 176.343 63.6095 176.811C64.1783 179.284 65.1445 181.604 66.4471 183.694C66.7069 184.112 66.6576 184.649 66.3104 184.998L65.1573 186.151C64.717 186.591 64.717 187.305 65.1573 187.746L69.6584 192.248C70.0987 192.688 70.8133 192.688 71.2536 192.248L72.4076 191.094C72.7549 190.746 73.2936 190.696 73.7101 190.957C75.8003 192.259 78.1201 193.224 80.5931 193.791C81.0607 193.898 81.387 194.322 81.387 194.803V196.445C81.387 197.068 81.892 197.573 82.5146 197.573H88.8816C89.5042 197.573 90.0092 197.068 90.0092 196.445V194.803C90.0092 194.323 90.3355 193.898 90.8031 193.791C93.2752 193.224 95.595 192.259 97.6852 190.957C98.1026 190.697 98.6405 190.746 98.9878 191.094L100.143 192.249C100.583 192.689 101.298 192.689 101.738 192.249L106.24 187.747C106.68 187.306 106.68 186.593 106.24 186.152L105.086 184.998C104.738 184.651 104.688 184.112 104.949 183.695C106.252 181.605 107.218 179.285 107.786 176.812C107.893 176.345 108.317 176.018 108.797 176.018H110.437C111.061 176.017 111.566 175.512 111.566 174.889ZM85.6986 188.645C76.3435 188.645 68.7697 181.057 68.7697 171.701C68.7697 162.36 76.3435 154.772 85.6986 154.772C95.0545 154.772 102.628 162.36 102.628 171.701C102.628 181.057 95.0545 188.645 85.6986 188.645Z" fill="#F4EEFE"/>
<path d="M753.506 208.673V196.187C753.506 194.967 752.516 193.977 751.296 193.977H748.081C747.141 193.977 746.308 193.337 746.098 192.42C744.986 187.572 743.092 183.022 740.536 178.921C740.027 178.104 740.123 177.048 740.804 176.367L743.064 174.107C743.927 173.243 743.927 171.844 743.064 170.98L734.236 162.153C733.373 161.289 731.973 161.289 731.11 162.153L728.852 164.41C728.17 165.092 727.115 165.188 726.297 164.678C722.197 162.121 717.646 160.225 712.797 159.111C711.881 158.901 711.241 158.069 711.241 157.128V153.925C711.241 152.704 710.251 151.714 709.031 151.714H696.545C695.325 151.714 694.334 152.704 694.334 153.925V157.128C694.334 158.069 693.695 158.902 692.778 159.111C687.927 160.225 683.375 162.121 679.275 164.678C678.457 165.188 677.402 165.092 676.72 164.41L674.465 162.155C673.601 161.292 672.202 161.292 671.338 162.155L662.511 170.983C661.647 171.846 661.647 173.246 662.511 174.11L664.768 176.367C665.45 177.049 665.546 178.104 665.036 178.922C662.482 183.023 660.586 187.574 659.474 192.422C659.263 193.339 658.431 193.979 657.49 193.979H654.28C653.058 193.979 652.069 194.969 652.069 196.19V208.675C652.069 209.896 653.06 210.886 654.28 210.886H657.491C658.431 210.886 659.265 211.524 659.474 212.441C660.589 217.291 662.484 221.84 665.038 225.939C665.549 226.756 665.451 227.812 664.77 228.495L662.511 230.754C661.647 231.618 661.647 233.017 662.511 233.881L671.338 242.71C672.201 243.573 673.601 243.573 674.465 242.71L676.727 240.448C677.409 239.765 678.464 239.669 679.283 240.178C683.381 242.732 687.93 244.623 692.779 245.737C693.696 245.947 694.336 246.779 694.336 247.72V250.94C694.336 252.161 695.326 253.151 696.546 253.151H709.032C710.254 253.151 711.243 252.161 711.243 250.94V247.718C711.243 246.778 711.882 245.945 712.799 245.735C717.647 244.623 722.196 242.73 726.294 240.177C727.112 239.668 728.168 239.764 728.849 240.445L731.112 242.708C731.976 243.572 733.375 243.572 734.239 242.708L743.066 233.88C743.93 233.016 743.929 231.617 743.066 230.753L740.804 228.492C740.122 227.81 740.026 226.755 740.536 225.937C743.091 221.838 744.985 217.288 746.098 212.44C746.309 211.523 747.141 210.885 748.081 210.885H751.297C752.517 210.884 753.506 209.893 753.506 208.673ZM702.784 237.633C683.342 237.633 667.604 221.862 667.604 202.42C667.604 183.008 683.342 167.237 702.784 167.237C722.226 167.237 737.966 183.008 737.966 202.42C737.966 221.862 722.227 237.633 702.784 237.633Z" stroke="#E5D7FF" stroke-miterlimit="10"/>
<path opacity="0.4" d="M73.8758 514.752C77.149 514.752 79.8024 512.098 79.8024 508.825C79.8024 505.552 77.149 502.898 73.8758 502.898C70.6026 502.898 67.9492 505.552 67.9492 508.825C67.9492 512.098 70.6026 514.752 73.8758 514.752Z" fill="#A4AFFF"/>
<path opacity="0.4" d="M136.766 27.8532C140.04 27.8532 142.693 25.1998 142.693 21.9266C142.693 18.6535 140.04 16 136.766 16C133.493 16 130.84 18.6535 130.84 21.9266C130.84 25.1998 133.493 27.8532 136.766 27.8532Z" fill="#A4AFFF"/>
<path opacity="0.4" d="M734.917 271.424C738.19 271.424 740.843 268.771 740.843 265.498C740.843 262.225 738.19 259.571 734.917 259.571C731.644 259.571 728.99 262.225 728.99 265.498C728.99 268.771 731.644 271.424 734.917 271.424Z" fill="#A4AFFF"/>
<path opacity="0.4" d="M624.658 132.336C627.931 132.336 630.585 129.682 630.585 126.409C630.585 123.136 627.931 120.482 624.658 120.482C621.385 120.482 618.731 123.136 618.731 126.409C618.731 129.682 621.385 132.336 624.658 132.336Z" fill="#A4AFFF"/>
<path d="M481.935 32.2078C481.935 34.9287 479.73 37.1344 477.009 37.1344C474.288 37.1344 472.082 34.9287 472.082 32.2078C472.082 29.487 474.288 27.2812 477.009 27.2812C479.73 27.2812 481.935 29.487 481.935 32.2078Z" stroke="#E5D7FF" stroke-width="2"/>
<path d="M607.27 81.5594C609.324 81.5594 610.988 79.8949 610.988 77.8417C610.988 75.7885 609.324 74.124 607.27 74.124C605.217 74.124 603.553 75.7885 603.553 77.8417C603.553 79.8949 605.217 81.5594 607.27 81.5594Z" fill="#A4AFFF"/>
<path opacity="0.4" d="M191.441 72.409C193.495 72.409 195.159 70.7445 195.159 68.6913C195.159 66.6381 193.495 64.9736 191.441 64.9736C189.388 64.9736 187.724 66.6381 187.724 68.6913C187.724 70.7445 189.388 72.409 191.441 72.409Z" fill="#A4AFFF"/>
<path opacity="0.4" d="M139.978 260.973C142.032 260.973 143.696 259.309 143.696 257.256C143.696 255.203 142.032 253.538 139.978 253.538C137.925 253.538 136.261 255.203 136.261 257.256C136.261 259.309 137.925 260.973 139.978 260.973Z" fill="#A4AFFF"/>
<path opacity="0.4" d="M76.0683 213.902C78.1215 213.902 79.786 212.238 79.786 210.184C79.786 208.131 78.1215 206.467 76.0683 206.467C74.015 206.467 72.3506 208.131 72.3506 210.184C72.3506 212.238 74.015 213.902 76.0683 213.902Z" fill="#A4AFFF"/>
<path opacity="0.4" d="M200.274 473.163C203.547 473.163 206.201 470.509 206.201 467.236C206.201 463.963 203.547 461.31 200.274 461.31C197.001 461.31 194.348 463.963 194.348 467.236C194.348 470.509 197.001 473.163 200.274 473.163Z" fill="#A4AFFF"/>
<path opacity="0.4" d="M542.516 508.666C545.79 508.666 548.443 506.012 548.443 502.739C548.443 499.466 545.79 496.812 542.516 496.812C539.243 496.812 536.59 499.466 536.59 502.739C536.59 506.012 539.243 508.666 542.516 508.666Z" fill="#A4AFFF"/>
<path opacity="0.4" d="M224.125 302.128C227.398 302.128 230.051 299.474 230.051 296.201C230.051 292.928 227.398 290.274 224.125 290.274C220.852 290.274 218.198 292.928 218.198 296.201C218.198 299.474 220.852 302.128 224.125 302.128Z" fill="#A4AFFF"/>
<path opacity="0.4" d="M564.583 289.743C568.963 289.743 572.514 286.193 572.514 281.813C572.514 277.433 568.963 273.882 564.583 273.882C560.203 273.882 556.652 277.433 556.652 281.813C556.652 286.193 560.203 289.743 564.583 289.743Z" fill="#A4AFFF"/>
<path d="M91.9415 309.983C91.9415 313.811 88.8385 316.914 85.0108 316.914C81.183 316.914 78.0801 313.811 78.0801 309.983C78.0801 306.156 81.1831 303.053 85.0108 303.053C88.8385 303.053 91.9415 306.156 91.9415 309.983Z" stroke="#E5D7FF" stroke-width="2"/>
<path d="M13.1992 191.186L27.9917 180.299L30.0096 198.558L13.1992 191.186Z" fill="#E5D7FF"/>
<path d="M725.797 346.363L726.572 331.562L739.008 339.639L725.797 346.363Z" stroke="#E5D7FF" stroke-width="2"/>
<path d="M459.981 487.683L471.393 498.347L456.454 502.898L459.981 487.683Z" fill="#E5D7FF"/>
<path d="M68.445 365.55L55.6434 358.16L68.445 350.757V365.55Z" stroke="#E5D7FF" stroke-width="2"/>
<path d="M679.462 70.7764L694.066 81.9861L677.063 89.035L679.462 70.7764Z" fill="#E5D7FF"/>
<path opacity="0.5" d="M308.89 461.227L303.582 445.537L291.446 449.652C289.927 447.361 288.126 445.326 286.092 443.549L291.774 432.045L276.925 424.702L271.243 436.207C268.601 435.692 265.889 435.505 263.153 435.669L259.037 423.533L243.347 428.841L247.463 440.977C245.195 442.497 243.137 444.297 241.36 446.332L229.855 440.65L222.513 455.498L234.017 461.18C233.503 463.822 233.316 466.535 233.48 469.271L221.344 473.386L226.652 489.076L238.788 484.961C240.307 487.252 242.108 489.287 244.142 491.064L238.46 502.568L253.309 509.911L258.991 498.406C261.633 498.921 264.345 499.108 267.081 498.944L271.197 511.08L286.887 505.772L282.771 493.636C285.039 492.116 287.097 490.316 288.874 488.281L300.379 493.963L307.721 479.115L296.217 473.433C296.731 470.791 296.918 468.078 296.755 465.342L308.89 461.227ZM269.42 479.98C262.428 482.342 254.828 478.601 252.467 471.609C250.105 464.617 253.846 457.018 260.838 454.656C267.83 452.295 275.429 456.036 277.791 463.027C280.152 470.019 276.411 477.595 269.42 479.98Z" fill="#F4EDFF"/>
<path d="M694.079 280.64H673.184C671.919 280.64 670.893 279.615 670.893 278.35C670.893 277.084 671.919 276.058 673.184 276.058H694.079C695.345 276.058 696.369 277.084 696.369 278.35C696.369 279.613 695.345 280.64 694.079 280.64Z" fill="#D5BFFE"/>
<path d="M715.125 290.809H673.185C671.92 290.809 670.894 289.782 670.894 288.517C670.894 287.251 671.92 286.227 673.185 286.227H715.125C716.391 286.227 717.417 287.251 717.417 288.517C717.416 289.782 716.391 290.809 715.125 290.809Z" fill="#D5BFFE"/>
<path d="M678.139 300.979H673.185C671.92 300.979 670.894 299.953 670.894 298.687C670.894 297.422 671.92 296.396 673.185 296.396H678.139C679.404 296.396 680.431 297.422 680.431 298.687C680.429 299.953 679.404 300.979 678.139 300.979Z" fill="#D5BFFE"/>
<path d="M715.123 300.979H685.92C684.655 300.979 683.63 299.953 683.63 298.687C683.63 297.422 684.655 296.396 685.92 296.396H715.123C716.389 296.396 717.415 297.422 717.415 298.687C717.413 299.953 716.389 300.979 715.123 300.979Z" fill="#D5BFFE"/>
<path d="M715.126 280.64H702.461C701.196 280.64 700.171 279.615 700.171 278.35C700.171 277.084 701.196 276.058 702.461 276.058H715.126C716.391 276.058 717.418 277.084 717.418 278.35C717.416 279.613 716.391 280.64 715.126 280.64Z" fill="#D5BFFE"/>
</g>
<g filter="url(#filter0_d_4248_18179)">
<rect x="129.824" y="69.7617" width="504.142" height="350.972" fill="#C4C4C4"/>
</g>
<path d="M440.056 391.168L467.885 471.401H305.448L333.276 391.168H440.056Z" fill="#F8F8F8" stroke="#2D3E95"/>
<rect x="123.224" y="63.1611" width="525.459" height="301.283" fill="#F8F8F8" stroke="#2D3E95"/>
<rect x="123.224" y="365.443" width="525.459" height="65.9485" fill="#F8F8F8" stroke="#2D3E95"/>
<path d="M633.044 81.0576H139.177V346.143H633.044V81.0576Z" fill="#EFE7FF"/>
<path d="M395.102 398.417C395.102 403.191 391.232 407.061 386.458 407.061C381.684 407.061 377.814 403.191 377.814 398.417C377.814 393.643 381.684 389.773 386.458 389.773C391.232 389.773 395.102 393.643 395.102 398.417Z" fill="#F8F8F8" stroke="#2D3E95" stroke-width="3"/>
<path d="M262.572 471.4C262.835 463.544 269.288 457.254 277.21 457.254H496.125C504.046 457.256 510.499 463.544 510.763 471.4H262.572Z" fill="#DAE3EB" stroke="#2D3E95"/>
<g filter="url(#filter1_d_4248_18179)">
<path d="M455.831 38.3164H88.1826V236.907H455.831V38.3164Z" fill="white"/>
</g>
<path d="M440.613 51.2119H103.397V224.014H440.613V51.2119Z" fill="#E5D7FF"/>
<path d="M174.426 74.2998H139.349V78.3206H174.426V74.2998Z" fill="white"/>
<path d="M257.316 74.2998H185.532V78.3206H257.316V74.2998Z" fill="white"/>
<path d="M189.318 90.5713H154.24V94.592H189.318V90.5713Z" fill="white"/>
<path d="M405.532 90.5713H200.424V94.592H405.532V90.5713Z" fill="white"/>
<path d="M189.318 105.678H154.24V109.699H189.318V105.678Z" fill="white"/>
<path d="M405.532 105.678H200.424V109.699H405.532V105.678Z" fill="white"/>
<path d="M189.318 120.78H154.24V124.801H189.318V120.78Z" fill="white"/>
<path d="M405.532 120.78H200.424V124.801H405.532V120.78Z" fill="white"/>
<path d="M189.318 135.883H154.24V139.904H189.318V135.883Z" fill="white"/>
<path d="M174.426 151.863H139.349V155.884H174.426V151.863Z" fill="white"/>
<path d="M257.316 151.863H185.532V155.884H257.316V151.863Z" fill="white"/>
<path d="M332.688 168.138H200.424V172.158H332.688V168.138Z" fill="white"/>
<path d="M332.688 183.242H200.424V187.263H332.688V183.242Z" fill="white"/>
<path d="M189.317 183.242H177.673V187.263H189.317V183.242Z" fill="white"/>
<path d="M189.318 198.347H154.24V202.367H189.318V198.347Z" fill="white"/>
<path d="M332.688 198.347H200.424V202.367H332.688V198.347Z" fill="white"/>
<path d="M407.018 168.138H342.2V172.158H407.018V168.138Z" fill="white"/>
<path d="M407.018 183.242H342.2V187.263H407.018V183.242Z" fill="white"/>
<path d="M407.018 198.347H342.2V202.367H407.018V198.347Z" fill="white"/>
<path d="M405.532 135.883H200.424V139.904H405.532V135.883Z" fill="white"/>
<g filter="url(#filter2_d_4248_18179)">
<path d="M140.704 198H65V270.82H140.704V198Z" fill="white"/>
</g>
<path fill-rule="evenodd" clip-rule="evenodd" d="M98.6364 216H87V229.455H98.6364V224.409H101.545V247.955H107.364V253H119V239.545H107.364V244.591H104.455V224.409H107.364V229.455H119V216H107.364V221.045H98.6364V216ZM116.091 219.364H110.273V226.091H116.091V219.364ZM110.273 242.909H116.091V249.636H110.273V242.909Z" fill="#FF1212"/>
<path d="M324.6 323H232V398.063H324.6V323Z" fill="#FF1212"/>
<path d="M270.6 339C266.955 339 264 341.955 264 345.6C264 349.245 266.955 352.2 270.6 352.2H286C289.645 352.2 292.6 349.245 292.6 345.6C292.6 341.955 289.645 339 286 339H270.6Z" fill="white"/>
<path d="M286 354.4C282.355 354.4 279.4 357.355 279.4 361C279.4 364.645 282.355 367.6 286 367.6C289.645 367.6 292.6 364.645 292.6 361C292.6 357.355 289.645 354.4 286 354.4Z" fill="white"/>
<path d="M264 361C264 357.355 266.955 354.4 270.6 354.4H277.2V367.6H270.6C266.955 367.6 264 364.645 264 361Z" fill="white"/>
<path d="M270.6 369.8C266.955 369.8 264 372.755 264 376.4C264 380.045 266.955 383 270.6 383C274.245 383 277.2 380.045 277.2 376.4V369.8H270.6Z" fill="white"/>
<path d="M214.016 268.579H169.384V313.211H214.016V268.579Z" fill="#F8F8F8"/>
<path d="M281.978 268.579H237.346V313.211H281.978V268.579Z" fill="#F8F8F8"/>
<path d="M349.941 268.579H305.309V313.211H349.941V268.579Z" fill="#F8F8F8"/>
<path d="M417.907 268.579H373.274V313.211H417.907V268.579Z" fill="#F8F8F8"/>
<path d="M485.866 268.579H441.233V313.211H485.866V268.579Z" fill="#F8F8F8"/>
<path d="M553.828 268.579H509.195V313.211H553.828V268.579Z" fill="#F8F8F8"/>
<path d="M606.581 187.43H490.942V193.516H606.581V187.43Z" fill="#F8F8F8"/>
<path d="M606.581 162.07H490.942V168.157H606.581V162.07Z" fill="#F8F8F8"/>
<path d="M606.581 136.711H490.942V142.797H606.581V136.711Z" fill="#F8F8F8"/>
<path d="M606.581 111.352H490.942V117.438H606.581V111.352Z" fill="#F8F8F8"/>
<path d="M606.581 212.789H490.942V219.89H606.581V212.789Z" fill="#F8F8F8"/>
<path d="M606.581 239.162H490.942V245.248H606.581V239.162Z" fill="#F8F8F8"/>
<g filter="url(#filter3_d_4248_18179)">
<path d="M703.856 113H609V204.263H703.856V113Z" fill="white"/>
</g>
<path d="M659 167.5H654.5V172H659V167.5Z" fill="#FF1212"/>
<path fill-rule="evenodd" clip-rule="evenodd" d="M641 140.5C641 138.015 643.015 136 645.5 136H668C670.485 136 672.5 138.015 672.5 140.5V176.5C672.5 178.985 670.485 181 668 181H645.5C643.015 181 641 178.985 641 176.5V140.5ZM645.5 140.5H668V176.5H645.5L645.5 140.5Z" fill="#FF1212"/>
<g filter="url(#filter4_d_4248_18179)">
<path d="M168.715 406H83V488.45H168.715V406Z" fill="#FF1212"/>
</g>
<path fill-rule="evenodd" clip-rule="evenodd" d="M103 447.409V447.591C103.022 453.084 105.012 458.113 108.302 462.009C109.253 463.135 110.314 464.167 111.466 465.088C112.627 466.015 113.881 466.83 115.212 467.515C117.119 468.498 119.185 469.216 121.361 469.62C122.619 469.854 123.913 469.983 125.235 469.998C125.323 469.999 125.411 470 125.5 470C133.047 470 139.725 466.285 143.807 460.583C144.662 459.389 145.403 458.108 146.014 456.756C147.29 453.933 148 450.799 148 447.5C148 440.831 145.099 434.84 140.49 430.72C139.422 429.766 138.263 428.912 137.027 428.173C133.656 426.158 129.713 425 125.5 425C125.271 425 125.043 425.003 124.815 425.01C121.406 425.112 118.187 425.972 115.322 427.428C113.372 428.419 111.586 429.685 110.016 431.176C108.557 432.56 107.283 434.137 106.236 435.868C105.498 437.088 104.872 438.384 104.373 439.742C103.495 442.133 103.011 444.715 103 447.409ZM142.848 453.674C143.535 451.744 143.909 449.666 143.909 447.5C143.909 442.474 141.894 437.918 138.629 434.596C136.949 437.383 134.735 439.695 132.182 441.46C133.14 443.946 133.658 446.601 133.691 449.295C135.255 449.645 136.806 450.167 138.319 450.873C139.97 451.642 141.483 452.587 142.848 453.674ZM133.357 453.422C134.449 453.702 135.531 454.086 136.59 454.58C138.227 455.344 139.699 456.317 140.989 457.453C137.914 462.229 132.69 465.49 126.684 465.872C128.674 463.983 130.349 461.697 131.579 459.06C132.436 457.222 133.023 455.328 133.357 453.422ZM129.584 448.772C129.506 446.964 129.161 445.185 128.571 443.493C122.818 446.068 116.021 446.225 109.86 443.352C109.162 443.026 108.488 442.669 107.84 442.284C107.352 443.938 107.091 445.688 107.091 447.5C107.091 451.481 108.354 455.166 110.502 458.178C114.926 451.974 122.163 448.52 129.584 448.772ZM113.323 461.307C116.853 455.802 122.987 452.692 129.301 452.857C129.024 454.37 128.552 455.872 127.871 457.331C126.273 460.76 123.752 463.465 120.742 465.288C117.953 464.544 115.425 463.162 113.323 461.307ZM125.5 429.091C129.15 429.091 132.553 430.153 135.414 431.986C134.114 434.304 132.371 436.242 130.344 437.744C128.256 434.349 125.245 431.472 121.464 429.535C122.763 429.244 124.114 429.091 125.5 429.091ZM118.967 432.866C122.322 434.431 124.983 436.877 126.805 439.801C122.118 441.868 116.597 441.979 111.589 439.644C110.842 439.296 110.129 438.904 109.453 438.472C111.005 435.718 113.246 433.404 115.942 431.763C116.964 432.038 117.976 432.404 118.967 432.866Z" fill="white"/>
<g filter="url(#filter5_d_4248_18179)">
<path d="M630.479 76.4994H513.514C501.014 76.4994 490.883 66.3679 490.883 53.8687V53.8592C490.883 41.3617 501.014 31.2285 513.514 31.2285H630.479C642.978 31.2285 653.11 41.3601 653.11 53.8592V53.8687C653.108 66.3679 642.978 76.4994 630.479 76.4994Z" fill="white"/>
</g>
<path d="M628.988 68.0785H515.335C507.646 68.0785 501.412 61.845 501.412 54.1574C501.412 46.4698 507.644 40.2363 515.335 40.2363H628.988C636.677 40.2363 642.911 46.4698 642.911 54.1574C642.911 61.8451 636.679 68.0785 628.988 68.0785Z" fill="white" stroke="#E5D7FF"/>
<path d="M524.728 59.2586L520.724 55.5656C521.138 54.798 521.357 53.9465 521.357 53.0794C521.357 50.1746 518.995 47.8125 516.09 47.8125C513.186 47.8125 510.824 50.1746 510.824 53.0794C510.824 55.9843 513.186 58.3463 516.09 58.3463C517.096 58.3463 518.069 58.053 518.927 57.4948L522.938 61.1943C523.181 61.4218 523.499 61.5458 523.834 61.5458C524.201 61.5458 524.555 61.3907 524.8 61.1207C525.041 60.8609 525.165 60.525 525.151 60.1722C525.136 59.8207 524.987 59.4964 524.728 59.2586ZM519.183 53.0794C519.183 54.7851 517.796 56.1729 516.089 56.1729C514.384 56.1729 512.996 54.7851 512.996 53.0794C512.996 51.375 514.383 49.9859 516.089 49.9859C517.796 49.9859 519.183 51.3738 519.183 53.0794Z" fill="#FF1212"/>
<g filter="url(#filter6_d_4248_18179)">
<path d="M582.588 241.839L564.061 241.828C561.577 241.827 559.563 243.927 559.563 246.518L559.561 249.871C559.561 252.463 557.545 254.563 555.062 254.561L518.95 254.54C516.465 254.539 514.452 252.437 514.452 249.845L514.453 246.492C514.454 243.901 512.439 241.798 509.955 241.797L503.439 241.793L487.223 241.784C479.171 241.78 472.639 248.291 472.637 256.326L472.591 489.633C472.589 497.664 479.112 504.176 487.16 504.181L582.525 504.236C590.578 504.242 597.11 497.729 597.111 489.694L597.158 256.386C597.158 248.355 590.637 241.843 582.588 241.839Z" fill="#F8F8F8"/>
<path d="M560.063 246.518V246.518C560.063 244.183 561.873 242.327 564.061 242.328C564.061 242.328 564.061 242.328 564.061 242.328L582.588 242.339C590.362 242.343 596.658 248.632 596.658 256.386L596.611 489.694C596.61 497.452 590.303 503.742 582.526 503.736L487.16 503.681C479.387 503.676 473.089 497.387 473.091 489.633L473.137 256.326C473.139 248.569 479.446 242.28 487.223 242.284C487.223 242.284 487.223 242.284 487.223 242.284L503.439 242.293L503.439 242.293L509.955 242.297L509.955 242.297C512.143 242.298 513.954 244.157 513.953 246.492L513.952 249.845V249.845C513.952 252.692 516.169 255.039 518.95 255.04C518.95 255.04 518.95 255.04 518.95 255.04L555.062 255.061C557.841 255.063 560.061 252.719 560.061 249.872C560.061 249.871 560.061 249.871 560.061 249.871L560.063 246.518Z" stroke="#2D3E95"/>
</g>
<path d="M581.165 265.288H567.612C567.203 265.288 566.871 264.937 566.871 264.504C566.871 264.071 567.203 263.721 567.612 263.721H581.165C581.574 263.721 581.905 264.071 581.905 264.504C581.905 264.937 581.574 265.288 581.165 265.288Z" fill="#D5BFFE"/>
<path d="M581.165 269.205H567.612C567.203 269.205 566.871 268.854 566.871 268.421C566.871 267.988 567.203 267.638 567.612 267.638H581.165C581.574 267.638 581.905 267.988 581.905 268.421C581.905 268.854 581.574 269.205 581.165 269.205Z" fill="#D5BFFE"/>
<path d="M581.165 273.122H567.612C567.203 273.122 566.871 272.771 566.871 272.338C566.871 271.905 567.203 271.555 567.612 271.555H581.165C581.574 271.555 581.905 271.905 581.905 272.338C581.905 272.771 581.574 273.122 581.165 273.122Z" fill="#D5BFFE"/>
<path d="M582.136 325.613H522.346C520.542 325.613 519.079 325.262 519.079 324.829C519.079 324.396 520.542 324.046 522.346 324.046H582.136C583.94 324.046 585.404 324.396 585.404 324.829C585.401 325.262 583.94 325.613 582.136 325.613Z" fill="#D5BFFE"/>
<path d="M572.442 331.88H521.592C520.058 331.88 518.813 331.529 518.813 331.097C518.813 330.664 520.058 330.313 521.592 330.313H572.442C573.977 330.313 575.221 330.664 575.221 331.097C575.219 331.529 573.977 331.88 572.442 331.88Z" fill="#D5BFFE"/>
<path d="M559.035 336.581H520.898C519.747 336.581 518.813 336.23 518.813 335.797C518.813 335.364 519.747 335.014 520.898 335.014H559.035C560.186 335.014 561.119 335.364 561.119 335.797C561.118 336.23 560.186 336.581 559.035 336.581Z" fill="#D5BFFE"/>
<path d="M559.035 342.065H520.898C519.747 342.065 518.813 341.714 518.813 341.281C518.813 340.848 519.747 340.498 520.898 340.498H559.035C560.186 340.498 561.119 340.848 561.119 341.281C561.118 341.714 560.186 342.065 559.035 342.065Z" fill="#D5BFFE"/>
<rect x="489.043" y="321.695" width="21.1529" height="21.1529" fill="#E5D7FF"/>
<path d="M582.136 355.383H522.346C520.542 355.383 519.079 355.032 519.079 354.6C519.079 354.167 520.542 353.816 522.346 353.816H582.136C583.94 353.816 585.404 354.167 585.404 354.6C585.401 355.032 583.94 355.383 582.136 355.383Z" fill="#D5BFFE"/>
<path d="M572.442 361.651H521.592C520.058 361.651 518.813 361.3 518.813 360.867C518.813 360.434 520.058 360.084 521.592 360.084H572.442C573.977 360.084 575.221 360.434 575.221 360.867C575.219 361.3 573.977 361.651 572.442 361.651Z" fill="#D5BFFE"/>
<path d="M559.035 366.352H520.898C519.747 366.352 518.813 366.001 518.813 365.568C518.813 365.136 519.747 364.785 520.898 364.785H559.035C560.186 364.785 561.119 365.136 561.119 365.568C561.118 366.001 560.186 366.352 559.035 366.352Z" fill="#D5BFFE"/>
<path d="M559.035 371.835H520.898C519.747 371.835 518.813 371.484 518.813 371.052C518.813 370.619 519.747 370.269 520.898 370.269H559.035C560.186 370.269 561.119 370.619 561.119 371.052C561.118 371.484 560.186 371.835 559.035 371.835Z" fill="#D5BFFE"/>
<rect x="489.043" y="351.466" width="21.1529" height="21.1529" fill="#E5D7FF"/>
<path d="M582.136 385.154H522.346C520.542 385.154 519.079 384.803 519.079 384.37C519.079 383.937 520.542 383.587 522.346 383.587H582.136C583.94 383.587 585.404 383.937 585.404 384.37C585.401 384.803 583.94 385.154 582.136 385.154Z" fill="#D5BFFE"/>
<path d="M572.442 391.421H521.592C520.058 391.421 518.813 391.07 518.813 390.638C518.813 390.205 520.058 389.854 521.592 389.854H572.442C573.977 389.854 575.221 390.205 575.221 390.638C575.219 391.07 573.977 391.421 572.442 391.421Z" fill="#D5BFFE"/>
<path d="M559.035 396.122H520.898C519.747 396.122 518.813 395.771 518.813 395.338C518.813 394.905 519.747 394.555 520.898 394.555H559.035C560.186 394.555 561.119 394.905 561.119 395.338C561.118 395.771 560.186 396.122 559.035 396.122Z" fill="#D5BFFE"/>
<path d="M559.035 401.606H520.898C519.747 401.606 518.813 401.255 518.813 400.822C518.813 400.389 519.747 400.039 520.898 400.039H559.035C560.186 400.039 561.119 400.389 561.119 400.822C561.118 401.255 560.186 401.606 559.035 401.606Z" fill="#D5BFFE"/>
<rect x="489.043" y="381.236" width="21.1529" height="21.1529" fill="#E5D7FF"/>
<path d="M582.136 414.923H522.346C520.542 414.923 519.079 414.572 519.079 414.14C519.079 413.707 520.542 413.356 522.346 413.356H582.136C583.94 413.356 585.404 413.707 585.404 414.14C585.401 414.572 583.94 414.923 582.136 414.923Z" fill="#D5BFFE"/>
<path d="M572.442 421.191H521.592C520.058 421.191 518.813 420.84 518.813 420.407C518.813 419.974 520.058 419.624 521.592 419.624H572.442C573.977 419.624 575.221 419.974 575.221 420.407C575.219 420.84 573.977 421.191 572.442 421.191Z" fill="#D5BFFE"/>
<path d="M559.035 425.892H520.898C519.747 425.892 518.813 425.541 518.813 425.108C518.813 424.676 519.747 424.325 520.898 424.325H559.035C560.186 424.325 561.119 424.676 561.119 425.108C561.118 425.541 560.186 425.892 559.035 425.892Z" fill="#D5BFFE"/>
<path d="M559.035 431.375H520.898C519.747 431.375 518.813 431.024 518.813 430.592C518.813 430.159 519.747 429.809 520.898 429.809H559.035C560.186 429.809 561.119 430.159 561.119 430.592C561.118 431.024 560.186 431.375 559.035 431.375Z" fill="#D5BFFE"/>
<rect x="489.043" y="411.007" width="21.1529" height="21.1529" fill="#E5D7FF"/>
<path d="M582.136 444.696H522.346C520.542 444.696 519.079 444.345 519.079 443.912C519.079 443.479 520.542 443.129 522.346 443.129H582.136C583.94 443.129 585.404 443.479 585.404 443.912C585.401 444.345 583.94 444.696 582.136 444.696Z" fill="#D5BFFE"/>
<path d="M572.442 450.963H521.592C520.058 450.963 518.813 450.612 518.813 450.18C518.813 449.747 520.058 449.396 521.592 449.396H572.442C573.977 449.396 575.221 449.747 575.221 450.18C575.219 450.612 573.977 450.963 572.442 450.963Z" fill="#D5BFFE"/>
<path d="M559.035 455.664H520.898C519.747 455.664 518.813 455.313 518.813 454.88C518.813 454.447 519.747 454.097 520.898 454.097H559.035C560.186 454.097 561.119 454.447 561.119 454.88C561.118 455.313 560.186 455.664 559.035 455.664Z" fill="#D5BFFE"/>
<path d="M559.035 461.148H520.898C519.747 461.148 518.813 460.797 518.813 460.364C518.813 459.931 519.747 459.581 520.898 459.581H559.035C560.186 459.581 561.119 459.931 561.119 460.364C561.118 460.797 560.186 461.148 559.035 461.148Z" fill="#D5BFFE"/>
<rect x="489.043" y="440.778" width="21.1529" height="21.1529" fill="#E5D7FF"/>
<path d="M582.136 474.465H522.346C520.542 474.465 519.079 474.114 519.079 473.682C519.079 473.249 520.542 472.898 522.346 472.898H582.136C583.94 472.898 585.404 473.249 585.404 473.682C585.401 474.114 583.94 474.465 582.136 474.465Z" fill="#D5BFFE"/>
<path d="M572.442 480.733H521.592C520.058 480.733 518.813 480.382 518.813 479.949C518.813 479.516 520.058 479.166 521.592 479.166H572.442C573.977 479.166 575.221 479.516 575.221 479.949C575.219 480.382 573.977 480.733 572.442 480.733Z" fill="#D5BFFE"/>
<path d="M559.035 485.433H520.898C519.747 485.433 518.813 485.082 518.813 484.649C518.813 484.217 519.747 483.866 520.898 483.866H559.035C560.186 483.866 561.119 484.217 561.119 484.649C561.118 485.082 560.186 485.433 559.035 485.433Z" fill="#D5BFFE"/>
<path d="M559.035 490.918H520.898C519.747 490.918 518.813 490.567 518.813 490.135C518.813 489.702 519.747 489.352 520.898 489.352H559.035C560.186 489.352 561.119 489.702 561.119 490.135C561.118 490.567 560.186 490.918 559.035 490.918Z" fill="#D5BFFE"/>
<rect x="489.043" y="470.548" width="21.1529" height="21.1529" fill="#E5D7FF"/>
<rect x="489.043" y="280.173" width="96.363" height="33.6879" fill="#E5D7FF"/>
<path d="M575.024 288.212H499.76C497.489 288.212 495.646 287.815 495.646 287.326C495.646 286.837 497.489 286.44 499.76 286.44H575.024C577.295 286.44 579.138 286.837 579.138 287.326C579.135 287.815 577.295 288.212 575.024 288.212Z" fill="#F8F8F8"/>
<path d="M562.822 294.479H498.811C496.879 294.479 495.312 294.082 495.312 293.593C495.312 293.104 496.879 292.708 498.811 292.708H562.822C564.753 292.708 566.32 293.104 566.32 293.593C566.317 294.082 564.753 294.479 562.822 294.479Z" fill="#F8F8F8"/>
<path d="M545.944 300.747H497.936C496.487 300.747 495.312 300.35 495.312 299.861C495.312 299.372 496.487 298.976 497.936 298.976H545.944C547.393 298.976 548.568 299.372 548.568 299.861C548.566 300.35 547.393 300.747 545.944 300.747Z" fill="#F8F8F8"/>
<path d="M545.944 307.013H497.936C496.487 307.013 495.312 306.617 495.312 306.127C495.312 305.638 496.487 305.242 497.936 305.242H545.944C547.393 305.242 548.568 305.638 548.568 306.127C548.566 306.617 547.393 307.013 545.944 307.013Z" fill="#F8F8F8"/>
<path d="M490.194 270.85C490.198 270.846 490.272 270.842 490.41 270.835C490.58 270.83 490.777 270.823 491.011 270.816C491.578 270.802 492.319 270.784 493.229 270.763L493.168 270.826C493.16 270.334 493.152 269.797 493.142 269.218C493.146 268.918 493.117 268.636 493.146 268.292C493.205 267.948 493.512 267.643 493.89 267.608C494.248 267.601 494.562 267.585 494.95 267.602C495.35 267.651 495.689 268.035 495.678 268.459C495.686 269.21 495.695 269.993 495.704 270.806L495.602 270.705C496.5 270.695 497.436 270.686 498.4 270.676L498.293 270.784C498.283 269.658 498.273 268.492 498.262 267.297C498.26 267 498.257 266.704 498.254 266.41C498.254 266.136 498.087 265.953 497.861 265.749C497.447 265.34 497.038 264.938 496.637 264.543C496.237 264.147 495.843 263.759 495.457 263.378C495.265 263.187 495.074 262.999 494.886 262.813C494.689 262.623 494.535 262.428 494.307 262.381C494.086 262.322 493.842 262.369 493.665 262.504C493.495 262.648 493.315 262.85 493.144 263.017C492.799 263.364 492.464 263.702 492.14 264.03C491.508 264.685 490.85 265.286 490.372 265.851C490.171 266.164 490.246 266.547 490.231 266.895C490.23 267.242 490.23 267.571 490.229 267.881C490.226 268.486 490.222 269.015 490.219 269.47C490.215 269.876 490.211 270.211 490.208 270.485C490.204 270.719 490.199 270.845 490.194 270.85C490.189 270.856 490.183 270.74 490.175 270.513C490.167 270.243 490.158 269.913 490.146 269.514C490.136 269.056 490.124 268.522 490.11 267.912C490.104 267.596 490.098 267.261 490.092 266.907C490.089 266.728 490.086 266.544 490.083 266.356C490.081 266.158 490.132 265.952 490.237 265.77C490.755 265.136 491.373 264.575 492.01 263.9C492.332 263.57 492.664 263.229 493.006 262.879C493.185 262.703 493.333 262.527 493.546 262.344C493.77 262.172 494.077 262.11 494.357 262.184C494.655 262.249 494.849 262.494 495.03 262.664C495.219 262.85 495.41 263.037 495.604 263.227C495.991 263.606 496.386 263.994 496.788 264.388C497.19 264.782 497.599 265.184 498.014 265.591C498.112 265.695 498.23 265.783 498.326 265.929C498.416 266.069 498.468 266.234 498.473 266.401C498.475 266.696 498.478 266.994 498.481 267.293C498.49 268.487 498.499 269.653 498.507 270.781L498.508 270.888L498.401 270.889C497.436 270.895 496.501 270.901 495.602 270.907H495.5V270.805C495.496 269.992 495.491 269.208 495.487 268.458C495.499 268.12 495.236 267.821 494.922 267.779C494.6 267.763 494.22 267.774 493.906 267.776C493.605 267.801 493.355 268.042 493.303 268.32C493.276 268.601 493.297 268.929 493.29 269.214C493.29 269.794 493.29 270.332 493.291 270.823V270.886H493.229C492.304 270.88 491.55 270.875 490.974 270.871C490.746 270.867 490.552 270.864 490.386 270.86C490.256 270.857 490.19 270.854 490.194 270.85Z" fill="#F8F8F8"/>
<path d="M490.194 270.85C490.198 270.846 490.272 270.842 490.41 270.835C490.58 270.83 490.777 270.823 491.011 270.816C491.578 270.802 492.319 270.784 493.229 270.763L493.168 270.826C493.16 270.334 493.152 269.797 493.142 269.218C493.146 268.918 493.117 268.636 493.146 268.292C493.205 267.948 493.512 267.643 493.89 267.608C494.248 267.601 494.562 267.585 494.95 267.602C495.35 267.651 495.689 268.035 495.678 268.459C495.686 269.21 495.695 269.993 495.704 270.806L495.602 270.705C496.5 270.695 497.436 270.686 498.4 270.676L498.293 270.784C498.283 269.658 498.273 268.492 498.262 267.297C498.26 267 498.257 266.704 498.254 266.41C498.254 266.136 498.087 265.953 497.861 265.749C497.447 265.34 497.038 264.938 496.637 264.543C496.237 264.147 495.843 263.759 495.457 263.378C495.265 263.187 495.074 262.999 494.886 262.813C494.689 262.623 494.535 262.428 494.307 262.381C494.086 262.322 493.842 262.369 493.665 262.504C493.495 262.648 493.315 262.85 493.144 263.017C492.799 263.364 492.464 263.702 492.14 264.03C491.508 264.685 490.85 265.286 490.372 265.851C490.171 266.164 490.246 266.547 490.231 266.895C490.23 267.242 490.23 267.571 490.229 267.881C490.226 268.486 490.222 269.015 490.219 269.47C490.215 269.876 490.211 270.211 490.208 270.485C490.204 270.719 490.199 270.845 490.194 270.85ZM490.194 270.85C490.189 270.856 490.183 270.74 490.175 270.513C490.167 270.243 490.158 269.913 490.146 269.514C490.136 269.056 490.124 268.522 490.11 267.912C490.104 267.596 490.098 267.261 490.092 266.907C490.089 266.728 490.086 266.544 490.083 266.356C490.081 266.158 490.132 265.952 490.237 265.77C490.755 265.136 491.373 264.575 492.01 263.9C492.332 263.57 492.664 263.229 493.006 262.879C493.185 262.703 493.333 262.527 493.546 262.344C493.77 262.172 494.077 262.11 494.357 262.184C494.655 262.249 494.849 262.494 495.03 262.664C495.219 262.85 495.41 263.037 495.604 263.227C495.991 263.606 496.386 263.994 496.788 264.388C497.19 264.782 497.599 265.184 498.014 265.591C498.112 265.695 498.23 265.783 498.326 265.929C498.416 266.069 498.468 266.234 498.473 266.401C498.475 266.696 498.478 266.994 498.481 267.293C498.49 268.487 498.499 269.653 498.507 270.781L498.508 270.888L498.401 270.889C497.436 270.895 496.501 270.901 495.602 270.907H495.5V270.805C495.496 269.992 495.491 269.208 495.487 268.458C495.499 268.12 495.236 267.821 494.922 267.779C494.6 267.763 494.22 267.774 493.906 267.776C493.605 267.801 493.355 268.042 493.303 268.32C493.276 268.601 493.297 268.929 493.29 269.214C493.29 269.794 493.29 270.332 493.291 270.823V270.886H493.229C492.304 270.88 491.55 270.875 490.974 270.871C490.746 270.867 490.552 270.864 490.386 270.86C490.256 270.857 490.19 270.854 490.194 270.85Z" stroke="#2D3E95" stroke-width="0.5"/>
<g filter="url(#filter7_d_4248_18179)">
<path d="M678.666 535.31L586.626 535.255C575.556 535.249 566.587 526.272 566.589 515.202L566.634 284.454C566.637 273.378 575.619 264.402 586.695 264.409L678.735 264.463C689.805 264.47 698.775 273.447 698.772 284.516L698.727 515.264C698.725 526.339 689.742 535.315 678.666 535.31Z" fill="#F8F8F8"/>
<path d="M678.666 534.81L586.626 534.755C575.833 534.75 567.087 525.996 567.089 515.202L567.134 284.454C567.137 273.654 575.895 264.902 586.695 264.909L678.735 264.963C689.529 264.969 698.275 273.723 698.272 284.516L698.227 515.264C698.225 526.063 689.466 534.815 678.666 534.81Z" stroke="#2D3E95" stroke-opacity="0.5"/>
</g>
<path d="M678.639 272.624L660.794 272.614C658.401 272.613 656.461 274.64 656.461 277.141L656.459 280.378C656.459 282.88 654.518 284.907 652.126 284.906L617.342 284.885C614.949 284.885 613.01 282.855 613.01 280.353L613.011 277.116C613.011 274.615 611.071 272.585 608.678 272.584L602.402 272.58L586.783 272.571C579.026 272.567 572.735 278.853 572.733 286.61L572.688 511.835C572.687 519.588 578.969 525.875 586.721 525.88L678.579 525.933C686.335 525.939 692.627 519.652 692.628 511.895L692.673 286.668C692.673 278.915 686.392 272.628 678.639 272.624Z" fill="#EFE7FF"/>
<path d="M673.591 332.216H593.412C588.99 332.216 585.406 328.458 585.406 323.821C585.406 319.185 588.99 315.427 593.412 315.427H673.591C678.013 315.427 681.597 319.185 681.597 323.821C681.598 328.458 678.013 332.216 673.591 332.216Z" fill="white" stroke="#D5BFFE" stroke-miterlimit="10"/>
<path d="M671.617 326.459C672.933 326.459 673.999 325.393 673.999 324.077C673.999 322.761 672.933 321.694 671.617 321.694C670.301 321.694 669.234 322.761 669.234 324.077C669.234 325.393 670.301 326.459 671.617 326.459Z" stroke="#F27190" stroke-width="1.6716" stroke-miterlimit="10"/>
<path d="M673.3 325.761L674.615 327.076" stroke="#F27190" stroke-width="1.6716" stroke-miterlimit="10" stroke-linecap="round"/>
<path d="M678.501 348.332H618.712C616.908 348.332 615.444 347.981 615.444 347.548C615.444 347.115 616.908 346.765 618.712 346.765H678.501C680.306 346.765 681.769 347.115 681.769 347.548C681.766 347.981 680.306 348.332 678.501 348.332Z" fill="white"/>
<path d="M668.804 354.599H617.954C616.419 354.599 615.175 354.248 615.175 353.815C615.175 353.383 616.419 353.032 617.954 353.032H668.804C670.338 353.032 671.582 353.383 671.582 353.815C671.58 354.248 670.338 354.599 668.804 354.599Z" fill="white"/>
<path d="M655.396 359.299H617.259C616.108 359.299 615.175 358.948 615.175 358.516C615.175 358.083 616.108 357.732 617.259 357.732H655.396C656.547 357.732 657.481 358.083 657.481 358.516C657.479 358.948 656.547 359.299 655.396 359.299Z" fill="white"/>
<path d="M655.396 364.783H617.259C616.108 364.783 615.175 364.432 615.175 363.999C615.175 363.566 616.108 363.216 617.259 363.216H655.396C656.547 363.216 657.481 363.566 657.481 363.999C657.479 364.432 656.547 364.783 655.396 364.783Z" fill="white"/>
<rect x="585.406" y="344.414" width="21.1529" height="21.1529" fill="white"/>
<path d="M678.501 378.102H618.712C616.908 378.102 615.444 377.751 615.444 377.318C615.444 376.886 616.908 376.535 618.712 376.535H678.501C680.306 376.535 681.769 376.886 681.769 377.318C681.766 377.751 680.306 378.102 678.501 378.102Z" fill="white"/>
<path d="M668.804 384.37H617.954C616.419 384.37 615.175 384.019 615.175 383.586C615.175 383.153 616.419 382.803 617.954 382.803H668.804C670.338 382.803 671.582 383.153 671.582 383.586C671.58 384.019 670.338 384.37 668.804 384.37Z" fill="white"/>
<path d="M655.396 389.071H617.259C616.108 389.071 615.175 388.72 615.175 388.287C615.175 387.854 616.108 387.504 617.259 387.504H655.396C656.547 387.504 657.481 387.854 657.481 388.287C657.479 388.72 656.547 389.071 655.396 389.071Z" fill="white"/>
<path d="M655.396 394.555H617.259C616.108 394.555 615.175 394.204 615.175 393.771C615.175 393.339 616.108 392.988 617.259 392.988H655.396C656.547 392.988 657.481 393.339 657.481 393.771C657.479 394.204 656.547 394.555 655.396 394.555Z" fill="white"/>
<rect x="585.406" y="374.185" width="21.1529" height="21.1529" fill="white"/>
<path d="M678.501 407.873H618.712C616.908 407.873 615.444 407.522 615.444 407.089C615.444 406.656 616.908 406.306 618.712 406.306H678.501C680.306 406.306 681.769 406.656 681.769 407.089C681.766 407.522 680.306 407.873 678.501 407.873Z" fill="white"/>
<path d="M668.804 414.14H617.954C616.419 414.14 615.175 413.789 615.175 413.356C615.175 412.924 616.419 412.573 617.954 412.573H668.804C670.338 412.573 671.582 412.924 671.582 413.356C671.58 413.789 670.338 414.14 668.804 414.14Z" fill="white"/>
<path d="M655.396 418.841H617.259C616.108 418.841 615.175 418.49 615.175 418.058C615.175 417.625 616.108 417.274 617.259 417.274H655.396C656.547 417.274 657.481 417.625 657.481 418.058C657.479 418.49 656.547 418.841 655.396 418.841Z" fill="white"/>
<path d="M655.396 424.325H617.259C616.108 424.325 615.175 423.974 615.175 423.541C615.175 423.108 616.108 422.758 617.259 422.758H655.396C656.547 422.758 657.481 423.108 657.481 423.541C657.479 423.974 656.547 424.325 655.396 424.325Z" fill="white"/>
<rect x="585.406" y="403.956" width="21.1529" height="21.1529" fill="white"/>
<path d="M678.501 437.643H618.712C616.908 437.643 615.444 437.292 615.444 436.859C615.444 436.427 616.908 436.076 618.712 436.076H678.501C680.306 436.076 681.769 436.427 681.769 436.859C681.766 437.292 680.306 437.643 678.501 437.643Z" fill="white"/>
<path d="M668.804 443.911H617.954C616.419 443.911 615.175 443.56 615.175 443.127C615.175 442.694 616.419 442.344 617.954 442.344H668.804C670.338 442.344 671.582 442.694 671.582 443.127C671.58 443.56 670.338 443.911 668.804 443.911Z" fill="white"/>
<path d="M655.396 448.611H617.259C616.108 448.611 615.175 448.26 615.175 447.827C615.175 447.394 616.108 447.044 617.259 447.044H655.396C656.547 447.044 657.481 447.394 657.481 447.827C657.479 448.26 656.547 448.611 655.396 448.611Z" fill="white"/>
<path d="M655.396 454.095H617.259C616.108 454.095 615.175 453.744 615.175 453.311C615.175 452.879 616.108 452.528 617.259 452.528H655.396C656.547 452.528 657.481 452.879 657.481 453.311C657.479 453.744 656.547 454.095 655.396 454.095Z" fill="white"/>
<rect x="585.406" y="433.726" width="21.1529" height="21.1529" fill="white"/>
<path d="M678.501 467.415H618.712C616.908 467.415 615.444 467.064 615.444 466.631C615.444 466.198 616.908 465.848 618.712 465.848H678.501C680.306 465.848 681.769 466.198 681.769 466.631C681.766 467.064 680.306 467.415 678.501 467.415Z" fill="white"/>
<path d="M668.804 473.682H617.954C616.419 473.682 615.175 473.331 615.175 472.898C615.175 472.466 616.419 472.115 617.954 472.115H668.804C670.338 472.115 671.582 472.466 671.582 472.898C671.58 473.331 670.338 473.682 668.804 473.682Z" fill="white"/>
<path d="M655.396 478.382H617.259C616.108 478.382 615.175 478.031 615.175 477.599C615.175 477.166 616.108 476.815 617.259 476.815H655.396C656.547 476.815 657.481 477.166 657.481 477.599C657.479 478.031 656.547 478.382 655.396 478.382Z" fill="white"/>
<path d="M655.396 483.868H617.259C616.108 483.868 615.175 483.517 615.175 483.084C615.175 482.651 616.108 482.301 617.259 482.301H655.396C656.547 482.301 657.481 482.651 657.481 483.084C657.479 483.517 656.547 483.868 655.396 483.868Z" fill="white"/>
<rect x="585.406" y="463.497" width="21.1529" height="21.1529" fill="white"/>
<path d="M678.501 497.185H618.712C616.908 497.185 615.444 496.834 615.444 496.401C615.444 495.969 616.908 495.618 618.712 495.618H678.501C680.306 495.618 681.769 495.969 681.769 496.401C681.766 496.834 680.306 497.185 678.501 497.185Z" fill="white"/>
<path d="M668.804 503.452H617.954C616.419 503.452 615.175 503.101 615.175 502.668C615.175 502.235 616.419 501.885 617.954 501.885H668.804C670.338 501.885 671.582 502.235 671.582 502.668C671.58 503.101 670.338 503.452 668.804 503.452Z" fill="white"/>
<path d="M655.396 508.153H617.259C616.108 508.153 615.175 507.802 615.175 507.369C615.175 506.936 616.108 506.586 617.259 506.586H655.396C656.547 506.586 657.481 506.936 657.481 507.369C657.479 507.802 656.547 508.153 655.396 508.153Z" fill="white"/>
<path d="M655.396 513.637H617.259C616.108 513.637 615.175 513.286 615.175 512.853C615.175 512.421 616.108 512.07 617.259 512.07H655.396C656.547 512.07 657.481 512.421 657.481 512.853C657.479 513.286 656.547 513.637 655.396 513.637Z" fill="white"/>
<rect x="585.406" y="493.268" width="21.1529" height="21.1529" fill="white"/>
<path d="M678.312 295.057H664.759C664.35 295.057 664.019 294.706 664.019 294.273C664.019 293.841 664.35 293.49 664.759 293.49H678.312C678.721 293.49 679.053 293.841 679.053 294.273C679.052 294.706 678.721 295.057 678.312 295.057Z" fill="#D5BFFE"/>
<path d="M678.312 298.975H664.759C664.35 298.975 664.019 298.624 664.019 298.191C664.019 297.759 664.35 297.408 664.759 297.408H678.312C678.721 297.408 679.053 297.759 679.053 298.191C679.052 298.624 678.721 298.975 678.312 298.975Z" fill="#D5BFFE"/>
<path d="M678.312 302.892H664.759C664.35 302.892 664.019 302.541 664.019 302.108C664.019 301.676 664.35 301.325 664.759 301.325H678.312C678.721 301.325 679.053 301.676 679.053 302.108C679.052 302.541 678.721 302.892 678.312 302.892Z" fill="#D5BFFE"/>
<path d="M587.339 302.187C587.343 302.183 587.416 302.179 587.554 302.172C587.724 302.167 587.922 302.16 588.155 302.153C588.722 302.139 589.464 302.121 590.374 302.1L590.313 302.163C590.305 301.671 590.296 301.134 590.287 300.555C590.29 300.255 590.261 299.973 590.29 299.628C590.35 299.285 590.657 298.98 591.034 298.945C591.392 298.937 591.706 298.922 592.094 298.939C592.495 298.988 592.834 299.372 592.822 299.796C592.831 300.547 592.839 301.33 592.849 302.143L592.746 302.041C593.645 302.032 594.58 302.023 595.545 302.013L595.438 302.121C595.428 300.995 595.418 299.829 595.407 298.634C595.404 298.337 595.402 298.04 595.399 297.747C595.398 297.472 595.231 297.29 595.006 297.085C594.591 296.677 594.183 296.275 593.782 295.88C593.381 295.484 592.987 295.096 592.602 294.715C592.409 294.524 592.219 294.336 592.03 294.15C591.833 293.96 591.679 293.764 591.451 293.718C591.23 293.659 590.987 293.706 590.809 293.841C590.639 293.985 590.459 294.187 590.288 294.354C589.944 294.701 589.608 295.039 589.284 295.367C588.653 296.022 587.995 296.622 587.517 297.188C587.315 297.501 587.391 297.884 587.376 298.232C587.375 298.579 587.374 298.908 587.373 299.218C587.37 299.823 587.366 300.352 587.364 300.807C587.359 301.213 587.355 301.548 587.352 301.822C587.348 302.056 587.344 302.182 587.339 302.187C587.333 302.193 587.327 302.077 587.319 301.85C587.311 301.58 587.303 301.249 587.291 300.851C587.281 300.393 587.268 299.859 587.255 299.249C587.249 298.933 587.242 298.597 587.236 298.244C587.234 298.065 587.231 297.881 587.228 297.693C587.226 297.495 587.277 297.289 587.382 297.107C587.9 296.473 588.518 295.912 589.154 295.237C589.476 294.907 589.808 294.566 590.151 294.216C590.33 294.039 590.477 293.864 590.69 293.681C590.914 293.509 591.222 293.447 591.502 293.521C591.8 293.586 591.993 293.831 592.174 294.001C592.364 294.187 592.555 294.374 592.748 294.564C593.135 294.943 593.53 295.331 593.932 295.725C594.334 296.119 594.743 296.521 595.158 296.928C595.256 297.032 595.375 297.12 595.47 297.266C595.561 297.406 595.613 297.571 595.617 297.738C595.62 298.033 595.623 298.331 595.625 298.63C595.635 299.824 595.643 300.99 595.652 302.117L595.653 302.225L595.545 302.226C594.581 302.232 593.646 302.238 592.747 302.244H592.644V302.142C592.64 301.329 592.636 300.545 592.632 299.795C592.643 299.457 592.38 299.158 592.066 299.116C591.744 299.1 591.364 299.111 591.051 299.113C590.75 299.138 590.499 299.379 590.448 299.657C590.42 299.938 590.441 300.266 590.435 300.551C590.435 301.131 590.435 301.669 590.436 302.16V302.223H590.374C589.449 302.217 588.695 302.211 588.118 302.208C587.89 302.204 587.697 302.201 587.531 302.197C587.401 302.194 587.334 302.191 587.339 302.187Z" fill="#F8F8F8"/>
<path d="M587.339 302.187C587.343 302.183 587.416 302.179 587.554 302.172C587.724 302.167 587.922 302.16 588.155 302.153C588.722 302.139 589.464 302.121 590.374 302.1L590.313 302.163C590.305 301.671 590.296 301.134 590.287 300.555C590.29 300.255 590.261 299.973 590.29 299.628C590.35 299.285 590.657 298.98 591.034 298.945C591.392 298.937 591.706 298.922 592.094 298.939C592.495 298.988 592.834 299.372 592.822 299.796C592.831 300.547 592.839 301.33 592.849 302.143L592.746 302.041C593.645 302.032 594.58 302.023 595.545 302.013L595.438 302.121C595.428 300.995 595.418 299.829 595.407 298.634C595.404 298.337 595.402 298.04 595.399 297.747C595.398 297.472 595.231 297.29 595.006 297.085C594.591 296.677 594.183 296.275 593.782 295.88C593.381 295.484 592.987 295.096 592.602 294.715C592.409 294.524 592.219 294.336 592.03 294.15C591.833 293.96 591.679 293.764 591.451 293.718C591.23 293.659 590.987 293.706 590.809 293.841C590.639 293.985 590.459 294.187 590.288 294.354C589.944 294.701 589.608 295.039 589.284 295.367C588.653 296.022 587.995 296.622 587.517 297.188C587.315 297.501 587.391 297.884 587.376 298.232C587.375 298.579 587.374 298.908 587.373 299.218C587.37 299.823 587.366 300.352 587.364 300.807C587.359 301.213 587.355 301.548 587.352 301.822C587.348 302.056 587.344 302.182 587.339 302.187ZM587.339 302.187C587.333 302.193 587.327 302.077 587.319 301.85C587.311 301.58 587.303 301.249 587.291 300.851C587.281 300.393 587.268 299.859 587.255 299.249C587.249 298.933 587.242 298.597 587.236 298.244C587.234 298.065 587.231 297.881 587.228 297.693C587.226 297.495 587.277 297.289 587.382 297.107C587.9 296.473 588.518 295.912 589.154 295.237C589.476 294.907 589.808 294.566 590.151 294.216C590.33 294.039 590.477 293.864 590.69 293.681C590.914 293.509 591.222 293.447 591.502 293.521C591.8 293.586 591.993 293.831 592.174 294.001C592.364 294.187 592.555 294.374 592.748 294.564C593.135 294.943 593.53 295.331 593.932 295.725C594.334 296.119 594.743 296.521 595.158 296.928C595.256 297.032 595.375 297.12 595.47 297.266C595.561 297.406 595.613 297.571 595.617 297.738C595.62 298.033 595.623 298.331 595.625 298.63C595.635 299.824 595.643 300.99 595.652 302.117L595.653 302.225L595.545 302.226C594.581 302.232 593.646 302.238 592.747 302.244H592.644V302.142C592.64 301.329 592.636 300.545 592.632 299.795C592.643 299.457 592.38 299.158 592.066 299.116C591.744 299.1 591.364 299.111 591.051 299.113C590.75 299.138 590.499 299.379 590.448 299.657C590.42 299.938 590.441 300.266 590.435 300.551C590.435 301.131 590.435 301.669 590.436 302.16V302.223H590.374C589.449 302.217 588.695 302.211 588.118 302.208C587.89 302.204 587.697 302.201 587.531 302.197C587.401 302.194 587.334 302.191 587.339 302.187Z" stroke="#2D3E95" stroke-width="0.5"/>
<defs>
<filter id="filter0_d_4248_18179" x="58.8242" y="0.761719" width="644.143" height="490.973" filterUnits="userSpaceOnUse" color-interpolation-filters="sRGB">
<feFlood flood-opacity="0" result="BackgroundImageFix"/>
<feColorMatrix in="SourceAlpha" type="matrix" values="0 0 0 0 0 0 0 0 0 0 0 0 0 0 0 0 0 0 127 0" result="hardAlpha"/>
<feOffset dx="-1" dy="1"/>
<feGaussianBlur stdDeviation="35"/>
<feComposite in2="hardAlpha" operator="out"/>
<feColorMatrix type="matrix" values="0 0 0 0 0 0 0 0 0 0 0 0 0 0 0 0 0 0 0.16 0"/>
<feBlend mode="normal" in2="BackgroundImageFix" result="effect1_dropShadow_4248_18179"/>
<feBlend mode="normal" in="SourceGraphic" in2="effect1_dropShadow_4248_18179" result="shape"/>
</filter>
<filter id="filter1_d_4248_18179" x="68.1826" y="12.3164" width="427.648" height="258.591" filterUnits="userSpaceOnUse" color-interpolation-filters="sRGB">
<feFlood flood-opacity="0" result="BackgroundImageFix"/>
<feColorMatrix in="SourceAlpha" type="matrix" values="0 0 0 0 0 0 0 0 0 0 0 0 0 0 0 0 0 0 127 0" result="hardAlpha"/>
<feOffset dx="10" dy="4"/>
<feGaussianBlur stdDeviation="15"/>
<feComposite in2="hardAlpha" operator="out"/>
<feColorMatrix type="matrix" values="0 0 0 0 0 0 0 0 0 0 0 0 0 0 0 0 0 0 0.17 0"/>
<feBlend mode="normal" in2="BackgroundImageFix" result="effect1_dropShadow_4248_18179"/>
<feBlend mode="normal" in="SourceGraphic" in2="effect1_dropShadow_4248_18179" result="shape"/>
</filter>
<filter id="filter2_d_4248_18179" x="45" y="172" width="135.704" height="132.82" filterUnits="userSpaceOnUse" color-interpolation-filters="sRGB">
<feFlood flood-opacity="0" result="BackgroundImageFix"/>
<feColorMatrix in="SourceAlpha" type="matrix" values="0 0 0 0 0 0 0 0 0 0 0 0 0 0 0 0 0 0 127 0" result="hardAlpha"/>
<feOffset dx="10" dy="4"/>
<feGaussianBlur stdDeviation="15"/>
<feComposite in2="hardAlpha" operator="out"/>
<feColorMatrix type="matrix" values="0 0 0 0 0 0 0 0 0 0 0 0 0 0 0 0 0 0 0.17 0"/>
<feBlend mode="normal" in2="BackgroundImageFix" result="effect1_dropShadow_4248_18179"/>
<feBlend mode="normal" in="SourceGraphic" in2="effect1_dropShadow_4248_18179" result="shape"/>
</filter>
<filter id="filter3_d_4248_18179" x="589" y="87" width="154.855" height="151.263" filterUnits="userSpaceOnUse" color-interpolation-filters="sRGB">
<feFlood flood-opacity="0" result="BackgroundImageFix"/>
<feColorMatrix in="SourceAlpha" type="matrix" values="0 0 0 0 0 0 0 0 0 0 0 0 0 0 0 0 0 0 127 0" result="hardAlpha"/>
<feOffset dx="10" dy="4"/>
<feGaussianBlur stdDeviation="15"/>
<feComposite in2="hardAlpha" operator="out"/>
<feColorMatrix type="matrix" values="0 0 0 0 0 0 0 0 0 0 0 0 0 0 0 0 0 0 0.17 0"/>
<feBlend mode="normal" in2="BackgroundImageFix" result="effect1_dropShadow_4248_18179"/>
<feBlend mode="normal" in="SourceGraphic" in2="effect1_dropShadow_4248_18179" result="shape"/>
</filter>
<filter id="filter4_d_4248_18179" x="63" y="380" width="145.716" height="142.45" filterUnits="userSpaceOnUse" color-interpolation-filters="sRGB">
<feFlood flood-opacity="0" result="BackgroundImageFix"/>
<feColorMatrix in="SourceAlpha" type="matrix" values="0 0 0 0 0 0 0 0 0 0 0 0 0 0 0 0 0 0 127 0" result="hardAlpha"/>
<feOffset dx="10" dy="4"/>
<feGaussianBlur stdDeviation="15"/>
<feComposite in2="hardAlpha" operator="out"/>
<feColorMatrix type="matrix" values="0 0 0 0 0 0 0 0 0 0 0 0 0 0 0 0 0 0 0.17 0"/>
<feBlend mode="normal" in2="BackgroundImageFix" result="effect1_dropShadow_4248_18179"/>
<feBlend mode="normal" in="SourceGraphic" in2="effect1_dropShadow_4248_18179" result="shape"/>
</filter>
<filter id="filter5_d_4248_18179" x="470.883" y="5.22852" width="222.228" height="105.271" filterUnits="userSpaceOnUse" color-interpolation-filters="sRGB">
<feFlood flood-opacity="0" result="BackgroundImageFix"/>
<feColorMatrix in="SourceAlpha" type="matrix" values="0 0 0 0 0 0 0 0 0 0 0 0 0 0 0 0 0 0 127 0" result="hardAlpha"/>
<feOffset dx="10" dy="4"/>
<feGaussianBlur stdDeviation="15"/>
<feComposite in2="hardAlpha" operator="out"/>
<feColorMatrix type="matrix" values="0 0 0 0 0 0 0 0 0 0 0 0 0 0 0 0 0 0 0.17 0"/>
<feBlend mode="normal" in2="BackgroundImageFix" result="effect1_dropShadow_4248_18179"/>
<feBlend mode="normal" in="SourceGraphic" in2="effect1_dropShadow_4248_18179" result="shape"/>
</filter>
<filter id="filter6_d_4248_18179" x="452.591" y="215.784" width="184.566" height="322.452" filterUnits="userSpaceOnUse" color-interpolation-filters="sRGB">
<feFlood flood-opacity="0" result="BackgroundImageFix"/>
<feColorMatrix in="SourceAlpha" type="matrix" values="0 0 0 0 0 0 0 0 0 0 0 0 0 0 0 0 0 0 127 0" result="hardAlpha"/>
<feOffset dx="10" dy="4"/>
<feGaussianBlur stdDeviation="15"/>
<feComposite in2="hardAlpha" operator="out"/>
<feColorMatrix type="matrix" values="0 0 0 0 0 0 0 0 0 0 0 0 0 0 0 0 0 0 0.17 0"/>
<feBlend mode="normal" in2="BackgroundImageFix" result="effect1_dropShadow_4248_18179"/>
<feBlend mode="normal" in="SourceGraphic" in2="effect1_dropShadow_4248_18179" result="shape"/>
</filter>
<filter id="filter7_d_4248_18179" x="546.589" y="238.409" width="192.184" height="330.9" filterUnits="userSpaceOnUse" color-interpolation-filters="sRGB">
<feFlood flood-opacity="0" result="BackgroundImageFix"/>
<feColorMatrix in="SourceAlpha" type="matrix" values="0 0 0 0 0 0 0 0 0 0 0 0 0 0 0 0 0 0 127 0" result="hardAlpha"/>
<feOffset dx="10" dy="4"/>
<feGaussianBlur stdDeviation="15"/>
<feComposite in2="hardAlpha" operator="out"/>
<feColorMatrix type="matrix" values="0 0 0 0 0 0 0 0 0 0 0 0 0 0 0 0 0 0 0.17 0"/>
<feBlend mode="normal" in2="BackgroundImageFix" result="effect1_dropShadow_4248_18179"/>
<feBlend mode="normal" in="SourceGraphic" in2="effect1_dropShadow_4248_18179" result="shape"/>
</filter>
</defs>
</svg>
