<svg xmlns="http://www.w3.org/2000/svg" xmlns:xlink="http://www.w3.org/1999/xlink" viewBox="0 0 2770.45 2772.4"><defs><linearGradient id="e113a5fe-9723-4c52-b044-b9243c345178" x1="2986.77" y1="2806.54" x2="937.33" y2="1013.28" gradientUnits="userSpaceOnUse"><stop offset="0" stop-color="#dae3fe"/><stop offset="1" stop-color="#e9effd"/></linearGradient><linearGradient id="f8cc814c-05cd-4955-9f41-e33452a3f990" x1="240.84" y1="1314.23" x2="750.97" y2="1422.25" gradientUnits="userSpaceOnUse"><stop offset="0" stop-color="#4f52ff"/><stop offset="1" stop-color="#4042e2"/></linearGradient><linearGradient id="e4f4a8ea-388f-4cad-8953-f079cbe9a6b1" x1="2065.28" y1="559.51" x2="2029.43" y2="1195.74" xlink:href="#f8cc814c-05cd-4955-9f41-e33452a3f990"/><linearGradient id="bc01eb2a-9226-4558-8aaa-c8771a70d503" x1="1047.99" y1="817.48" x2="1954.22" y2="2407.87" xlink:href="#f8cc814c-05cd-4955-9f41-e33452a3f990"/><linearGradient id="e90ee693-bf34-48ec-8884-02881443bbcd" x1="1495.36" y1="381.24" x2="1870.85" y2="381.24" xlink:href="#e113a5fe-9723-4c52-b044-b9243c345178"/><linearGradient id="bd3535cc-b992-4dfb-adcc-4ca24c686bcc" x1="1495.36" y1="436.48" x2="1870.85" y2="436.48" xlink:href="#e113a5fe-9723-4c52-b044-b9243c345178"/><linearGradient id="ad03ff0b-7511-4542-ac0a-6382d7132c5d" x1="1495.36" y1="491.72" x2="1870.85" y2="491.72" xlink:href="#e113a5fe-9723-4c52-b044-b9243c345178"/><linearGradient id="bf62bc48-b337-4fe1-8693-9f977b1495d6" x1="1495.36" y1="546.96" x2="1870.85" y2="546.96" xlink:href="#e113a5fe-9723-4c52-b044-b9243c345178"/><linearGradient id="ae492c6c-6f32-467b-b9f2-fd8cc824efc4" x1="1899.6" y1="494" x2="2025.6" y2="494" xlink:href="#e113a5fe-9723-4c52-b044-b9243c345178"/><linearGradient id="fc94333b-ba0d-48aa-9bc1-a608a63d7e71" x1="2056.17" y1="494" x2="2182.16" y2="494" xlink:href="#e113a5fe-9723-4c52-b044-b9243c345178"/><linearGradient id="bb304d3e-94c4-4c40-8807-541e6ea1b11c" x1="2212.73" y1="494" x2="2338.72" y2="494" xlink:href="#e113a5fe-9723-4c52-b044-b9243c345178"/><linearGradient id="aa5ef154-f4eb-4e90-9dfa-882b83c5f029" x1="1899.6" y1="564.65" x2="2025.6" y2="564.65" xlink:href="#e113a5fe-9723-4c52-b044-b9243c345178"/><linearGradient id="e3925825-bcd4-4343-aa9d-af35eef04120" x1="2056.17" y1="564.65" x2="2182.16" y2="564.65" xlink:href="#e113a5fe-9723-4c52-b044-b9243c345178"/><linearGradient id="fd899f99-bad7-44a3-9f5c-e95736dc4591" x1="2212.73" y1="564.65" x2="2338.72" y2="564.65" xlink:href="#e113a5fe-9723-4c52-b044-b9243c345178"/><linearGradient id="b03a87ba-9848-4368-a2fe-c35c8de52274" x1="6198.96" y1="2591.59" x2="5726.94" y2="3105.02" gradientTransform="translate(-4978.33 -59.01) rotate(0.54)" gradientUnits="userSpaceOnUse"><stop offset="0" stop-color="#09005d"/><stop offset="1" stop-color="#1a0f91"/></linearGradient><linearGradient id="fe96d7db-39b5-4e1f-8e52-69a6df9fab2b" x1="6045.75" y1="2629.72" x2="6087.67" y2="2629.72" gradientTransform="translate(-4978.33 -59.01) rotate(0.54)" gradientUnits="userSpaceOnUse"><stop offset="0" stop-color="#febbba"/><stop offset="1" stop-color="#ff928e"/></linearGradient><linearGradient id="bd5ddc33-b1a1-43c7-bee7-154d937c7028" x1="6236.15" y1="2010.92" x2="5834.48" y2="2555.33" xlink:href="#b03a87ba-9848-4368-a2fe-c35c8de52274"/><linearGradient id="a474a384-26e0-4476-983b-8c3766acce1e" x1="6093.07" y1="2494.22" x2="5621.03" y2="3007.67" xlink:href="#b03a87ba-9848-4368-a2fe-c35c8de52274"/><linearGradient id="bb0a0c47-9496-47b7-8875-5ed583955777" x1="5894.64" y1="2627.56" x2="5930.84" y2="2627.56" xlink:href="#fe96d7db-39b5-4e1f-8e52-69a6df9fab2b"/><linearGradient id="b6401a98-b415-4da5-a4f3-660741499527" x1="6164.56" y1="1958.1" x2="5762.89" y2="2502.51" xlink:href="#b03a87ba-9848-4368-a2fe-c35c8de52274"/><linearGradient id="fa746b47-5fb4-4066-957b-34ceb4931db0" x1="5243.33" y1="3367.96" x2="5316.89" y2="3013.54" gradientTransform="matrix(-1, 0, 0, 1, 6630.11, 0)" gradientUnits="userSpaceOnUse"><stop offset="0" stop-color="#ff928e"/><stop offset="1" stop-color="#fe7062"/></linearGradient><linearGradient id="ad14d13d-3bef-4dcd-be76-a41aad8bdd4e" x1="6218.33" y1="1535.86" x2="6432.54" y2="1535.86" xlink:href="#fe96d7db-39b5-4e1f-8e52-69a6df9fab2b"/><linearGradient id="b1a4ffd6-0f93-4063-abf6-1c2bb0c1089f" x1="1430.79" y1="1493.83" x2="1455.31" y2="1331.11" gradientTransform="matrix(1, 0, 0, 1, 0, 0)" xlink:href="#fe96d7db-39b5-4e1f-8e52-69a6df9fab2b"/><linearGradient id="a541af82-9c8b-4ded-959d-842e8d86a5ec" x1="6431.51" y1="1391.04" x2="6491.49" y2="1298.83" xlink:href="#fe96d7db-39b5-4e1f-8e52-69a6df9fab2b"/><linearGradient id="adea4015-8c16-4270-a556-0bcebd757ee5" x1="5445.09" y1="3409.83" x2="5518.65" y2="3055.41" xlink:href="#fa746b47-5fb4-4066-957b-34ceb4931db0"/><linearGradient id="b51a5ace-86ac-4a35-b6e8-4331ac58b9be" x1="5749.59" y1="1839.25" x2="6020.67" y2="1839.25" xlink:href="#fe96d7db-39b5-4e1f-8e52-69a6df9fab2b"/><linearGradient id="a7416e70-f1f5-46a2-a32e-1cdefd459529" x1="5957.75" y1="1549.46" x2="6064.93" y2="1549.46" xlink:href="#fe96d7db-39b5-4e1f-8e52-69a6df9fab2b"/><linearGradient id="f5340698-4a1c-4b93-a0ba-de9922a1af5a" x1="-1227.91" y1="2542.79" x2="-1267.96" y2="2410.69" gradientTransform="matrix(0.75, -0.66, 0.66, 0.75, 346.59, -1241.76)" xlink:href="#fe96d7db-39b5-4e1f-8e52-69a6df9fab2b"/><linearGradient id="fe4e41fe-839a-4751-8fad-d35cbe9eefce" x1="-1264.04" y1="2312.62" x2="-1230.53" y2="2503.71" gradientTransform="matrix(0.75, -0.66, 0.66, 0.75, 346.59, -1241.76)" xlink:href="#b03a87ba-9848-4368-a2fe-c35c8de52274"/><linearGradient id="b2f57678-f97f-4afc-a480-211d9755ef36" x1="-1268.85" y1="2542.17" x2="-1304.88" y2="2423.32" gradientTransform="matrix(0.75, -0.66, 0.66, 0.75, 346.59, -1241.76)" xlink:href="#fe96d7db-39b5-4e1f-8e52-69a6df9fab2b"/><linearGradient id="e28d077f-c1a7-474c-8352-566845c3f575" x1="5803.22" y1="1662.62" x2="5952.8" y2="2285.87" gradientTransform="translate(-4705.66)" xlink:href="#b03a87ba-9848-4368-a2fe-c35c8de52274"/><linearGradient id="ad70b200-d8b2-45ec-ba70-8c3733dd3f2c" x1="5700.72" y1="1827.5" x2="5785.47" y2="1827.5" gradientTransform="translate(-4705.66)" xlink:href="#fe96d7db-39b5-4e1f-8e52-69a6df9fab2b"/><linearGradient id="e53c0cf0-6401-4ea5-992d-2bf263117e45" x1="1051.87" y1="1727.39" x2="1233.73" y2="1727.39" xlink:href="#e113a5fe-9723-4c52-b044-b9243c345178"/><linearGradient id="a95f9f79-d9f1-4d1a-a653-df9868830702" x1="803.85" y1="2378.46" x2="758.71" y2="2690.35" xlink:href="#f8cc814c-05cd-4955-9f41-e33452a3f990"/><linearGradient id="ada52c86-f4eb-4ba7-b130-5a7557dd1b01" x1="684.81" y1="2646.36" x2="729.51" y2="2646.36" gradientTransform="matrix(1, 0, 0, 1, 0, 0)" xlink:href="#fe96d7db-39b5-4e1f-8e52-69a6df9fab2b"/><linearGradient id="e2e6bc89-8ca7-4b81-847a-4874d684acba" x1="1027.45" y1="2410.82" x2="982.3" y2="2722.71" xlink:href="#f8cc814c-05cd-4955-9f41-e33452a3f990"/><linearGradient id="bc82c5a3-b667-4b07-9798-0f97558870bd" x1="1194.23" y1="2011.31" x2="692.71" y2="2382.43" gradientTransform="matrix(1, 0, 0, 1, 0, 0)" xlink:href="#b03a87ba-9848-4368-a2fe-c35c8de52274"/><linearGradient id="b52775b7-6fee-411a-b45f-5796303ba01b" x1="896.54" y1="2650.12" x2="949.91" y2="2650.12" gradientTransform="matrix(1, 0, 0, 1, 0, 0)" xlink:href="#fe96d7db-39b5-4e1f-8e52-69a6df9fab2b"/><linearGradient id="acad28f7-85aa-48dd-8ba1-5fc7b5ae5f26" x1="697.02" y1="2394.67" x2="1332.3" y2="1956.65" gradientTransform="matrix(1, 0, 0, 1, 0, 0)" xlink:href="#b03a87ba-9848-4368-a2fe-c35c8de52274"/><linearGradient id="ae13af1a-acaa-44d5-991c-ea8b65117a39" x1="600.09" y1="1898.07" x2="626.41" y2="1831.72" gradientTransform="matrix(1, 0, 0, 1, 0, 0)" xlink:href="#fe96d7db-39b5-4e1f-8e52-69a6df9fab2b"/><linearGradient id="e233c096-7774-4dd9-9e2b-4d1b9c2b0970" x1="777.28" y1="1699.93" x2="693.69" y2="1913.92" gradientTransform="matrix(1, 0, 0, 1, 0, 0)" xlink:href="#fa746b47-5fb4-4066-957b-34ceb4931db0"/><linearGradient id="ae0d1370-9243-490c-a839-a01db8372639" x1="623.43" y1="1406.07" x2="598.35" y2="2223.54" gradientUnits="userSpaceOnUse"><stop offset="0" stop-color="#e1473d"/><stop offset="1" stop-color="#e9605a"/></linearGradient><linearGradient id="f0b62a41-3e12-47da-b1e9-50fe10654bda" x1="824.89" y1="2156.11" x2="948.16" y2="2156.11" gradientTransform="matrix(1, 0, 0, 1, 0, 0)" xlink:href="#fe96d7db-39b5-4e1f-8e52-69a6df9fab2b"/><linearGradient id="e5ad91a7-11b8-4139-a3f1-5bc3addbdb07" x1="2552.39" y1="2242.45" x2="2420.28" y2="2343.54" gradientTransform="translate(-2142.87 -126.7) rotate(-7.5)" xlink:href="#fe96d7db-39b5-4e1f-8e52-69a6df9fab2b"/><linearGradient id="ba59a213-1150-44d6-863d-3600ce1a9bde" x1="2459.58" y1="2162.66" x2="2579.2" y2="2316.68" gradientTransform="translate(-2142.87 -126.7) rotate(-7.5)" xlink:href="#b03a87ba-9848-4368-a2fe-c35c8de52274"/><linearGradient id="acf0fd92-df8a-43bc-b4a8-e8d296cf858c" x1="2536" y1="2221.04" x2="2403.89" y2="2322.12" gradientTransform="translate(-2142.87 -126.7) rotate(-7.5)" xlink:href="#fe96d7db-39b5-4e1f-8e52-69a6df9fab2b"/><linearGradient id="b2e57500-2f15-4447-b978-73df92abad09" x1="15104.24" y1="-17743.54" x2="14774.55" y2="-17424.79" gradientTransform="matrix(-1.39, -0.07, -0.07, 1.39, -5843.56, -425.25)" xlink:href="#b03a87ba-9848-4368-a2fe-c35c8de52274"/><linearGradient id="e8fbb106-8770-437c-8d8e-101228da0688" x1="12053.75" y1="-17914.81" x2="11724.07" y2="-17596.08" gradientTransform="matrix(0.65, -1.23, -1.23, -0.65, 8044.93, -6808.31)" xlink:href="#b03a87ba-9848-4368-a2fe-c35c8de52274"/><linearGradient id="b808a07b-d902-41b3-ad10-d2e3e1deb2c5" x1="1470.42" y1="2461.12" x2="1655.13" y2="2461.12" gradientTransform="matrix(1, 0, 0, 1, 0, 0)" xlink:href="#fe96d7db-39b5-4e1f-8e52-69a6df9fab2b"/><linearGradient id="b72d05c5-605d-4018-b69f-e641114cc614" x1="1583.44" y1="2581.48" x2="1556.27" y2="2998.05" xlink:href="#f8cc814c-05cd-4955-9f41-e33452a3f990"/><linearGradient id="a57f5ce4-7d52-4f25-9902-b93963cce8a2" x1="1253.54" y1="2473.73" x2="1643.32" y2="2473.73" gradientTransform="matrix(1, 0, 0, 1, 0, 0)" xlink:href="#fe96d7db-39b5-4e1f-8e52-69a6df9fab2b"/><linearGradient id="be6720bd-08f9-4bfb-b5c1-5567c4e579d0" x1="1494.05" y1="2270.4" x2="1930.71" y2="2270.4" gradientTransform="matrix(1, 0, 0, 1, 0, 0)" xlink:href="#b03a87ba-9848-4368-a2fe-c35c8de52274"/><linearGradient id="e2dae8b7-fad0-4131-8c93-6124f46184a3" x1="1321.27" y1="2564.38" x2="1294.1" y2="2980.96" xlink:href="#f8cc814c-05cd-4955-9f41-e33452a3f990"/><linearGradient id="e42d5cfd-6430-4882-b0b5-eb6bbbdb8e21" x1="1801.63" y1="1541.07" x2="1737.33" y2="1878.86" gradientTransform="matrix(1, 0, 0, 1, 0, 0)" xlink:href="#b03a87ba-9848-4368-a2fe-c35c8de52274"/><linearGradient id="e8c83850-e6f7-4cbd-9f2c-796f7aed11c2" x1="2231.21" y1="900.51" x2="1983.79" y2="1502.36" gradientTransform="matrix(1, 0, 0, 1, 0, 0)" xlink:href="#fa746b47-5fb4-4066-957b-34ceb4931db0"/><linearGradient id="e16c9f81-f6d7-457d-bb4d-9951a4eff39b" x1="1695.23" y1="1963.69" x2="1668.92" y2="1794.86" gradientTransform="matrix(1, 0, 0, 1, 0, 0)" xlink:href="#fe96d7db-39b5-4e1f-8e52-69a6df9fab2b"/><linearGradient id="a8b1633e-9fbc-4d46-9be1-cebb97b5f220" x1="-953.69" y1="5553.05" x2="-781.47" y2="5670.03" gradientTransform="translate(-2296.27 -2330.33) rotate(-52.83)" xlink:href="#fe96d7db-39b5-4e1f-8e52-69a6df9fab2b"/><linearGradient id="b9979932-8f04-46e4-b0cc-c3ffb51e3d8c" x1="-838.81" y1="5413.13" x2="-903.11" y2="5750.93" gradientTransform="translate(-2296.27 -2330.33) rotate(-52.83)" xlink:href="#b03a87ba-9848-4368-a2fe-c35c8de52274"/><linearGradient id="af816daa-3ccf-46ba-adba-b17c8f945975" x1="-943.37" y1="5537.85" x2="-771.15" y2="5654.83" gradientTransform="translate(-2296.27 -2330.33) rotate(-52.83)" xlink:href="#fe96d7db-39b5-4e1f-8e52-69a6df9fab2b"/><linearGradient id="afaeb0c2-e2e9-43f6-885a-11d1ef5b32c1" x1="1803.27" y1="2155.38" x2="2169.42" y2="2155.38" gradientTransform="matrix(1, 0, 0, 1, 0, 0)" xlink:href="#fe96d7db-39b5-4e1f-8e52-69a6df9fab2b"/><linearGradient id="b6ed6934-1d3e-44c3-8bf2-06570a61a35d" x1="1718.73" y1="2284.11" x2="1488.23" y2="2347.29" gradientTransform="translate(-19.28 -78.79) rotate(-2.83)" xlink:href="#b03a87ba-9848-4368-a2fe-c35c8de52274"/><linearGradient id="f23dbfcd-3307-4fa7-9d75-b96fcb499ff6" x1="1498.26" y1="1968.77" x2="1334.71" y2="2141.63" gradientTransform="matrix(1, 0, 0, 1, 0, 0)" xlink:href="#b03a87ba-9848-4368-a2fe-c35c8de52274"/><linearGradient id="bfbe0db7-33ec-4554-9d87-98c1feef2f38" x1="-9669.01" y1="2970.8" x2="-9666.59" y2="3226.79" gradientTransform="matrix(-1, 0, 0, 1, -7658.83, 0)" xlink:href="#b03a87ba-9848-4368-a2fe-c35c8de52274"/><linearGradient id="b65741d8-cc45-4537-a838-8a00965cb169" x1="-9730.71" y1="2684.93" x2="-9743.99" y2="2581.09" gradientTransform="matrix(-1, 0, 0, 1, -7658.83, 0)" xlink:href="#fe96d7db-39b5-4e1f-8e52-69a6df9fab2b"/><linearGradient id="b6f2be79-b181-4fb9-a5bf-288662a0086a" x1="-10014.86" y1="2974.06" x2="-10012.44" y2="3230.05" gradientTransform="matrix(-1, 0, 0, 1, -7658.83, 0)" xlink:href="#b03a87ba-9848-4368-a2fe-c35c8de52274"/><linearGradient id="a7337773-1925-4754-a76f-9b80fa614daa" x1="-10021.01" y1="2720.52" x2="-10033.96" y2="2619.33" gradientTransform="matrix(-1, 0, 0, 1, -7658.83, 0)" xlink:href="#fe96d7db-39b5-4e1f-8e52-69a6df9fab2b"/><linearGradient id="b24fa8f9-d793-421b-bcd0-75bc11e88360" x1="-10111.46" y1="2336.01" x2="-9713.07" y2="2336.01" gradientTransform="matrix(-1, 0, 0, 1, -7658.83, 0)" xlink:href="#b03a87ba-9848-4368-a2fe-c35c8de52274"/><linearGradient id="ff44a702-fe61-4369-955b-d2a6f830e9fe" x1="2610.87" y1="1357.01" x2="2513.9" y2="1490.76" gradientTransform="matrix(1, 0, 0, 1, 0, 0)" xlink:href="#fa746b47-5fb4-4066-957b-34ceb4931db0"/><linearGradient id="b90a7acf-2ef0-4221-a0f3-6ee439f1e724" x1="2617.41" y1="1179.45" x2="2072.41" y2="1838.14" xlink:href="#ae0d1370-9243-490c-a839-a01db8372639"/><linearGradient id="e889792d-c2ba-40cb-9b61-0e88a8ec182c" x1="2384.42" y1="1872.04" x2="2088.53" y2="2188" gradientTransform="matrix(1, 0, 0, 1, 0, 0)" xlink:href="#fe96d7db-39b5-4e1f-8e52-69a6df9fab2b"/><linearGradient id="b33f3643-f9fc-4d76-9d5e-3579051425c4" x1="-9756.02" y1="1828.51" x2="-9417.25" y2="1828.51" gradientTransform="matrix(-1, 0, 0, 1, -7658.83, 0)" xlink:href="#fe96d7db-39b5-4e1f-8e52-69a6df9fab2b"/><linearGradient id="b0d9d9ec-1439-4b54-b969-5266456e8f21" x1="-9877.98" y1="1638.5" x2="-9760.08" y2="1517.54" gradientTransform="matrix(-1, 0, 0, 1, -7658.83, 0)" xlink:href="#fe96d7db-39b5-4e1f-8e52-69a6df9fab2b"/><linearGradient id="bb007d79-52da-488c-8324-c68ec3ef67fb" x1="-9707" y1="1441.33" x2="-9853.99" y2="1635.79" gradientTransform="matrix(-1, 0, 0, 1, -7658.83, 0)" xlink:href="#fe96d7db-39b5-4e1f-8e52-69a6df9fab2b"/><linearGradient id="f190ec7c-533a-47df-9da8-113d9d92d2da" x1="-9819.26" y1="1488.24" x2="-9643.67" y2="1488.24" gradientTransform="matrix(-1, 0, 0, 1, -7658.83, 0)" xlink:href="#b03a87ba-9848-4368-a2fe-c35c8de52274"/><linearGradient id="a38ac5b0-33e4-4df1-bc2d-dc52a8531592" x1="-9922.28" y1="1595.32" x2="-9804.38" y2="1474.36" gradientTransform="matrix(-1, 0, 0, 1, -7658.83, 0)" xlink:href="#fe96d7db-39b5-4e1f-8e52-69a6df9fab2b"/><linearGradient id="a3a82012-3010-4255-827e-c7aebaa8c92e" x1="2725.09" y1="1268.55" x2="2180.08" y2="1927.23" xlink:href="#ae0d1370-9243-490c-a839-a01db8372639"/><linearGradient id="b0a4afe0-5387-4e71-9dca-9026655aa890" x1="-3063.86" y1="-14104.39" x2="-3309.68" y2="-13506.45" gradientTransform="matrix(-1, 0, 0, 1, -7658.83, 0)" xlink:href="#f8cc814c-05cd-4955-9f41-e33452a3f990"/><linearGradient id="ec94b7b6-6a47-4893-91e2-b4cb02174835" x1="905.95" y1="391.34" x2="1041.43" y2="391.34" xlink:href="#e113a5fe-9723-4c52-b044-b9243c345178"/><linearGradient id="bbd66f09-1384-4a5f-bd84-e87dcf6bbdee" x1="806.22" y1="390.26" x2="1139.31" y2="390.26" xlink:href="#e113a5fe-9723-4c52-b044-b9243c345178"/><linearGradient id="bef6368d-119f-4c8a-ac1b-82e89e7a1449" x1="1374.25" y1="670.86" x2="1466.55" y2="670.86" xlink:href="#e113a5fe-9723-4c52-b044-b9243c345178"/><linearGradient id="e6abe196-8f36-4fdd-83ed-300f1e01f564" x1="1304.89" y1="670.11" x2="1534.69" y2="670.11" xlink:href="#e113a5fe-9723-4c52-b044-b9243c345178"/></defs><title>img-personalizada-4</title><g id="aa776ae0-e299-4030-9ba0-71d8b5da2e3c" data-name="Capa 2"><g id="a9daa269-c842-43b7-b301-50db0b821840" data-name="Illustration"><path d="M2638.47,1875.22c-264.87,623.66-970.42,973-1582.28,878.8-99.56-15.34-372.51-61-614.17-276.53C-23.19,2062.61-122.68,1241.11,252.59,662.18,525.73,240.81,1015.34,2,1480.57,13.91c100.22,2.57,484.27,18.43,821.78,296.74,49.57,40.87,158.91,138,257.46,292.11C2791.2,964.62,2811.09,1468.77,2638.47,1875.22Z" fill="url(#e113a5fe-9723-4c52-b044-b9243c345178)"/><path d="M191.6,898.9l185.86,203.44c-116.3,87.73-189.25,259.87,5.43,464.58L121.16,1693.78C-62.27,1372.56-36.34,1118.73,191.6,898.9Z" fill="url(#f8cc814c-05cd-4955-9f41-e33452a3f990)"/><path d="M82.13,1620l180.32,2.9,32.38-177.6c99,203.42,333.09,288.43,600.9,201.66L1031,1898.34C644.45,2074.55,253.19,1984.12,82.13,1620Z" fill="#7d97f4"/><path d="M1594.36,1351.25c146.17-288.93,532-395.5,809.39-237.29l281.2-93.07c-328.44-438.14-925.24-355-1296,82.82Z" fill="url(#e4f4a8ea-388f-4cad-8953-f079cbe9a6b1)"/><path d="M2243.07,1657.08l119.31,278.71c435.33-181.32,567.07-795.33,174-1065.84l2.86,180.58-185,38.49C2626.72,1218.26,2505.31,1584.52,2243.07,1657.08Z" fill="#91b3fa"/><path d="M1466,1735.94c412.44,296.62,773.33,335.29,1061.08,99.59l-202.52-72,56.37-180.38c-252.54,175.26-487.24,118.24-712.54-61.23Z" fill="#7d97f4"/><path d="M191.6,898.9v195.39l185.86,8c120.53-78.17,295-71.86,514.73-1.57l127.65-283C686,674.79,412.35,708.92,191.6,898.9Z" fill="#7d97f4"/><path d="M892.19,1100.77,787.78,883.28l232.06-65.54c150.75,78.63,272.17,174.93,369.12,286,106.72,235,253.2,435.65,436.39,521.26l-240.42,2.54,37,209.71c-94.2-56.41-185.1-119.73-265.08-188.76l-180.53-321C1113.38,1231.88,1025.57,1154,892.19,1100.77Z" fill="url(#bc01eb2a-9226-4558-8aaa-c8771a70d503)"/><path d="M1389,1103.71c-70.62,75.5-116.85,186.82-183.21,265.93-105.84,126.16-237.83,289.16-476,310.36l194.45,100.61L808.43,1970.43c388.43-77.2,660.21-330.57,785.93-619.18V1073.48Z" fill="#91b3fa"/><path d="M1454.91,295.78l945.43-4.14a16.21,16.21,0,0,1,16.35,16.3l-2,330.93A16.19,16.19,0,0,1,2398,655c-83.36-2.48-937.84-13.45-954.18-12.77-16.14.68-7.37-260.66-5-330.79A16.18,16.18,0,0,1,1454.91,295.78Z" fill="#7d97f4"/><path d="M2398.5,642.17h-.11c-53.28-1.59-563.89-8-809.27-11-71.75-.89-122.68-1.52-136.26-1.72h-1.27l-.22-1.25c-5.8-32.72-5.7-142.09.29-316.31a3.38,3.38,0,0,1,3.36-3.27l945.44-4.13a3.42,3.42,0,0,1,2.44,1,3.28,3.28,0,0,1,1,2.41l-2,330.94A3.4,3.4,0,0,1,2398.5,642.17Zm-944.32-15.79c15.27.21,65.31.83,135,1.7,245.39,3.06,756,9.44,809.32,11h.09c.09,0,.23-.15.23-.33l2-330.94-.35-1.86v1.54L1455,311.65a.32.32,0,0,0-.32.31C1448.82,483.79,1448.63,592.39,1454.18,626.38Z" fill="#fff"/><path d="M1495.36,381.24h0c0,8.95,3,16.2,6.67,16.2h362.15c3.68,0,6.67-7.25,6.67-16.2h0c0-8.95-3-16.21-6.67-16.21H1502C1498.34,365,1495.36,372.29,1495.36,381.24Z" opacity="0.7" fill="url(#e90ee693-bf34-48ec-8884-02881443bbcd)"/><path d="M1495.36,436.48h0c0,8.95,3,16.2,6.67,16.2h362.15c3.68,0,6.67-7.25,6.67-16.2h0c0-9-3-16.21-6.67-16.21H1502C1498.34,420.27,1495.36,427.53,1495.36,436.48Z" opacity="0.7" fill="url(#bd3535cc-b992-4dfb-adcc-4ca24c686bcc)"/><path d="M1495.36,491.72h0c0,8.95,3,16.2,6.67,16.2h362.15c3.68,0,6.67-7.25,6.67-16.2h0c0-9-3-16.21-6.67-16.21H1502C1498.34,475.51,1495.36,482.77,1495.36,491.72Z" opacity="0.7" fill="url(#ad03ff0b-7511-4542-ac0a-6382d7132c5d)"/><path d="M1495.36,547h0c0,8.94,3,16.2,6.67,16.2h362.15c3.68,0,6.67-7.26,6.67-16.2h0c0-9-3-16.21-6.67-16.21H1502C1498.34,530.75,1495.36,538,1495.36,547Z" opacity="0.7" fill="url(#bf62bc48-b337-4fe1-8693-9f977b1495d6)"/><circle cx="1962.6" cy="392.65" r="63" fill="#fff"/><circle cx="2119.16" cy="392.65" r="63" fill="#fff"/><circle cx="2275.73" cy="394.72" r="63" fill="#fff"/><path d="M2000,379.34a40.46,40.46,0,1,1-37.43-25.09c.68,0,1.36,0,2,.05V344.05c-.68,0-1.36-.05-2-.05a50.67,50.67,0,1,0,46.84,31.25Z" fill="#7d97f4"/><path d="M2140,429a40.46,40.46,0,1,1-21.56-74.7c.68,0,1.36,0,2,.05V344.05c-.68,0-1.36-.05-2-.05a50.72,50.72,0,1,0,26.64,93.87Z" fill="#7d97f4"/><path d="M2309.5,417.47A40.47,40.47,0,1,1,2276,354.25c.69,0,1.37,0,2,.05V344.05c-.67,0-1.35-.05-2-.05a50.72,50.72,0,1,0,41.77,79.48Z" fill="#7d97f4"/><g opacity="0.64"><path d="M2013.93,482.34H1911.27a11.67,11.67,0,1,0,0,23.33h102.66a11.67,11.67,0,1,0,0-23.33Z" fill="url(#ae492c6c-6f32-467b-b9f2-fd8cc824efc4)"/><path d="M2170.49,482.34H2067.83a11.67,11.67,0,0,0,0,23.33h102.66a11.67,11.67,0,1,0,0-23.33Z" fill="url(#fc94333b-ba0d-48aa-9bc1-a608a63d7e71)"/><path d="M2224.4,505.67h102.66a11.67,11.67,0,0,0,0-23.33H2224.4a11.67,11.67,0,1,0,0,23.33Z" fill="url(#bb304d3e-94c4-4c40-8807-541e6ea1b11c)"/><rect x="1899.6" y="518.63" width="125.99" height="92.04" rx="11.67" fill="url(#aa5ef154-f4eb-4e90-9dfa-882b83c5f029)"/><rect x="2056.17" y="518.63" width="125.99" height="92.04" rx="11.67" fill="url(#e3925825-bcd4-4343-aa9d-af35eef04120)"/><rect x="2212.73" y="518.63" width="125.99" height="92.04" rx="11.67" fill="url(#fd899f99-bad7-44a3-9f5c-e95736dc4591)"/></g><path d="M1046.44,2628.29s-5.15,27.63-7.81,55a18.87,18.87,0,0,0,17.86,20.62c36.47,1.87,114.48,5.57,142.49,4.59a6.13,6.13,0,0,0,5.48-8.36h0a13.71,13.71,0,0,0-7-7.48l-128.33-60.47Z" fill="url(#b03a87ba-9848-4368-a2fe-c35c8de52274)"/><path d="M1042.59,2612l3.61,33.14s22.48,10.73,38-1l-9-37Z" fill="url(#fe96d7db-39b5-4e1f-8e52-69a6df9fab2b)"/><path d="M1051.48,1989.68c-1.78,8.63-13.22,431.3,30.16,621.17a6.44,6.44,0,0,1-3.85,7.45,112,112,0,0,1-36.87,7.12,11.07,11.07,0,0,1-10.91-8.05c-12.5-44.08-72.29-264.89-78.36-475.34-6.78-235.16.08-8,.08-8l6.68-145.26Z" fill="url(#bd5ddc33-b1a1-43c7-bee7-154d937c7028)"/><path d="M898,2641.31s-7.91,13.9-15.8,51a11.51,11.51,0,0,0,10,13.89c12,1.3,30.56,3,45.42,3a11.48,11.48,0,0,0,11.49-12.7c-1.52-13.56-6.43-35.85-22.1-53.33Z" fill="url(#a474a384-26e0-4476-983b-8c3766acce1e)"/><path d="M891.59,2598.67l8.7,50.15s9,6.84,27,2.11l-3.87-53.9Z" fill="url(#bb0a0c47-9496-47b7-8875-5ed583955777)"/><path d="M872.5,2000.94c-39.09,222.69,2.76,551.35,17.31,615.73a10,10,0,0,0,8,7.69c6.76,1.18,17.9,2.21,28.92-.88a9.18,9.18,0,0,0,6.68-8.39c2.53-51.92,1.91-370.8,37.55-496.48a28.63,28.63,0,0,1,11.19-15.69l67.29-46.87,5.86-76.76Z" fill="url(#b6401a98-b415-4da5-a4f3-660741499527)"/><path d="M1112,1580.57c-110.74-2.89-233.24,26.86-233.24,26.86-34.85,192.32-9.73,414.77-9.73,414.77,85.53,23.3,182.6-12,182.6-12,15-80.38,83.67-306.35,83.67-306.35,54.18-6.2,98.91-21.38,135.82-41.68-27.7-32.72-40.5-74.15-46-98.62C1185.87,1575.34,1146.18,1581.46,1112,1580.57Z" fill="url(#fa746b47-5fb4-4066-957b-34ceb4931db0)"/><path d="M1440.73,1420.55c-10.75-13.24-24.58-7.16-24.58-7.16-17,68.69-103,123.7-191,150.15,5.5,24.47,18.3,65.9,46,98.62C1417.64,1581.63,1440.73,1420.55,1440.73,1420.55Z" fill="url(#ad14d13d-3bef-4dcd-be76-a41aad8bdd4e)"/><path d="M1438.06,1423.87c1.11,3.63-12.13,9-19.75-5.86-.2-7.1-4.23-37.53.07-43.27,22.87-30.56,67-68.73,67-68.73,7.32,7.37,1.16,14.48,1.16,14.48l-21.44,21.92c4.36,8.07,9.71,14.89,12.16,24.63a29.76,29.76,0,0,1-3.18,21.87c-3.79,6.68-9,15.36-13.83,22.14C1451,1423.9,1438.06,1423.87,1438.06,1423.87Z" fill="url(#b1a4ffd6-0f93-4063-abf6-1c2bb0c1089f)"/><path d="M1455.68,1356.67l-19.51,16.22-6.23,16.28,17.07,19.3s6.11-32.35,10.49-39.32S1459.68,1358.76,1455.68,1356.67Z" fill="url(#a541af82-9c8b-4ded-959d-842e8d86a5ec)"/><path d="M920.25,1715.08l-41.46-107.65s-104.12,69.3-122,158.26c19.54,1.63,55.06,7,89.71,25C854.56,1748.64,920.25,1715.08,920.25,1715.08Z" fill="url(#adea4015-8c16-4270-a556-0bcebd757ee5)"/><path d="M1009.69,1816.85s-116.78,64.54-155.43,8.11c-8-11.72-9.86-23.3-7.75-34.31-34.65-17.91-70.17-23.33-89.71-25-5.38,26.82-2.94,55.42,12.57,84.45,67.45,126.23,255.42-4.5,255.42-4.5Z" fill="url(#b51a5ace-86ac-4a35-b6e8-4331ac58b9be)"/><path d="M1000.7,1489.58l-36.21,101.58a3.67,3.67,0,0,0,1.63,4.44c9.55,5.4,44,21.08,86-5a17.32,17.32,0,0,0,8.08-12.28l12.25-88.09Z" fill="url(#a7416e70-f1f5-46a2-a32e-1cdefd459529)"/><path d="M1078.28,1395.94s38,73.21,32.76,102.59-53.18,26.81-94.83,2.51l-28.52-78.93Z" fill="url(#f5340698-4a1c-4b93-a0ba-de9922a1af5a)"/><path d="M1018.43,1462.43a3,3,0,0,0,1.35-4.38c-3.06-4.77-8.78-14.49-10.55-23,0,0-6.91-4.52,17.81-10.19s61.58-14.48,69.51-35.4c7.73-20.4-11.58-72.06-43.56-31.35a3,3,0,0,1-4.76,0c-5.12-6.79-18.6-20.91-37.59-12.61-17.76,7.77-19.88,20.71-19.7,27.25a3,3,0,0,1-3.56,3c-8.93-1.79-30.38-3.46-40.61,18.47-8.43,18-3.16,28.37,1.68,33.44a3,3,0,0,1-1.33,5c-5.9,1.74-13.54,6.65-12.91,20.43.87,19.05,22.17,17.58,28.24,16.77a3,3,0,0,1,2.66,1c5.14,5.8,28.32,30.44,53.64,33.63a3,3,0,0,0,3.21-4l-10.66-32a3,3,0,0,1,1.66-3.72Z" fill="url(#fe4e41fe-839a-4751-8fad-d35cbe9eefce)"/><path d="M1022.79,1467s-27.37-19.17-29.54-3.27,24.6,23.3,37.94,17.49Z" fill="url(#b2f57678-f97f-4afc-a480-211d9755ef36)"/><path d="M985.82,1918.84l63.62-222.15a6.49,6.49,0,0,1,5.48-4.67c11.52-1.34,44.92-5.12,83.48-8.38,46.44-3.93,100.38-7.11,132.61-4.4a6.49,6.49,0,0,1,5.32,9.35c-18.33,37.08-93.72,187.92-131.48,237.34a6.52,6.52,0,0,1-5.24,2.57L992,1927.13A6.5,6.5,0,0,1,985.82,1918.84Z" fill="url(#e28d077f-c1a7-474c-8352-566845c3f575)"/><path d="M1001.19,1865.17s-8.86-36.44-5.28-49.37,10.5-29.54,33.58-25.85,50.32,13.42,50.32,13.42-1.38,16.84-18.92,11.4l10.88,8.42s-1.56,13.48-16.38,6.28l10.12,11.16s-6.36,11.08-17.27,4S1032.11,1869.56,1001.19,1865.17Z" fill="url(#ad70b200-d8b2-45ec-ba70-8c3733dd3f2c)"/><path d="M1134.16,1750a18.67,18.67,0,1,0,18.67-18.67A18.67,18.67,0,0,0,1134.16,1750Z" fill="#91b3fa"/><path d="M1056.63,1762.27l-4.76-1.41,13-43.93a20,20,0,0,1,15.08-14c41-8.58,149.17-10.32,153.75-10.39l.08,5c-1.12,0-112.23,1.81-152.82,10.28a15.09,15.09,0,0,0-11.33,10.58Z" fill="url(#e53c0cf0-6401-4ea5-992d-2bf263117e45)"/><path d="M303.79,2384c-6.78,10-33.73,237.22-38,321.12a9.92,9.92,0,0,0,9.93,10.41h0a10,10,0,0,0,9.83-8.41l49.29-315.89Z" fill="#7d97f4"/><path d="M520.47,2384c6.78,10,33.73,237.22,37.95,321.12a9.93,9.93,0,0,1-9.94,10.41h0a9.94,9.94,0,0,1-9.82-8.41L489.37,2391.2Z" fill="#7d97f4"/><path d="M263,2366.24l0,2.48c-.17,17.82,15.19,32.44,34.41,32.77l227.85,3.87c19,.32,34.75-13.37,35.67-30.92l.12-2.26c1-18.3-14.59-33.72-34.35-34.07L298.76,2334C279.25,2333.67,263.18,2348.15,263,2366.24Z" fill="#7d97f4"/><path d="M743,2696.84c-40.5,0-58.42-3.47-66.44-6.64a15.38,15.38,0,0,0,15,11.9H834.81a7,7,0,0,0,6.72-8.8C825.2,2694.61,790.5,2696.84,743,2696.84Z" fill="#7d97f4"/><path d="M841.53,2693.3a6.94,6.94,0,0,0-1.17-2.44c-10.92-13.93-32.85-35.82-62.67-35.4-43.69.62-58.93,5.36-92.88.27l-8,26.55a15.28,15.28,0,0,0-.25,7.92c8,3.17,25.94,6.64,66.44,6.64C790.5,2696.84,825.2,2694.61,841.53,2693.3Z" fill="url(#a95f9f79-d9f1-4d1a-a653-df9868830702)"/><path d="M694.64,2627.12l-9.83,33.44s21.78,9.91,40.94,2l3.76-29Z" fill="url(#ada52c86-f4eb-4ba7-b130-5a7557dd1b01)"/><path d="M991.62,2675.78c-31.57,25.37-47.71,33.9-55.93,36.46a15.35,15.35,0,0,0,19.09-.14l111.7-89.75a6.94,6.94,0,0,0-.25-11C1054.31,2622.57,1028.66,2646,991.62,2675.78Z" fill="#7d97f4"/><path d="M1066.23,2611.32a6.73,6.73,0,0,0-2.44-1.16c-17.19-4-47.93-7.22-70.92,11.78-33.67,27.85-42.59,41.07-72.23,58.39l10.3,25.61a15.07,15.07,0,0,0,4.75,6.3c8.22-2.56,24.36-11.09,55.93-36.46C1028.66,2646,1054.31,2622.57,1066.23,2611.32Z" fill="url(#e2e6bc89-8ca7-4b81-847a-4874d684acba)"/><path d="M484.31,2246.12s242.49,19.8,292.24,43.22S736,2641,736,2641s-13.54,6.52-43.68-2.85c0,0,30.91-242.21,7.91-294.73l-262.56-42.95Z" fill="url(#bc82c5a3-b667-4b07-9798-0f97558870bd)"/><path d="M896.54,2634.22c2.25,2.06,24.1,46.11,24.1,46.11s24.31-5.26,29.27-20.65L928,2619.92Z" fill="url(#b52775b7-6fee-411a-b45f-5796303ba01b)"/><path d="M338.25,2244.09a122.92,122.92,0,0,0-7.58,44.29c.45,34.94,28.54,63.3,63.45,65l286.67,13.07a13.76,13.76,0,0,1,12.69,10.34c6.74,26.05,39.66,106.07,200.62,265.73a13,13,0,0,0,16,1.75l22.91-14.47a5.27,5.27,0,0,0,1.74-7.13l-166.91-285a64.59,64.59,0,0,0-39.25-29.1l-244.33-62.46Z" fill="url(#acad28f7-85aa-48dd-8ba1-5fc7b5ae5f26)"/><path d="M620.76,1798.85s-30.71,54.3-62,80.6l64.72,36.11s14.58-57.48,47.9-74.31Z" fill="url(#ae13af1a-acaa-44d5-991c-ea8b65117a39)"/><path d="M333.05,2246.12s77.39,18.86,151.26,0c0,0,103.36-138.95,143.35-176.77,0,0,63.79,100.65,205.76,114.92l7.92-17.69s-113-52.11-147.82-132.17-48.78-114.2-80.43-135.09c-19.72-13-31.52-21.89-37.62-26.75a10.14,10.14,0,0,0-11.6-.73C530.28,1892.31,372.2,2000.58,333.05,2246.12Z" fill="url(#e233c096-7774-4dd9-9e2b-4d1b9c2b0970)"/><path d="M623.46,2067.39a5,5,0,0,1-3.94-1.94c-24.64-32.14-38.37-67.56-38.94-69a5,5,0,1,1,9.27-3.55c.13.35,13.81,35.6,37.55,66.56a5,5,0,0,1-3.94,8Z" fill="url(#ae0d1370-9243-490c-a839-a01db8372639)"/><path d="M824.89,2157.33l16-4.26,48.52-11.23a22.5,22.5,0,0,1,17.05,2.87L948.16,2171,833,2170.77Z" fill="url(#f0b62a41-3e12-47da-b1e9-50fe10654bda)"/><path d="M669.52,1717.44s29.85,49.61,35,77S718,1839,686.83,1848.8s-60.21-2.6-78.41-28.19c0,0-28.43-39.39-25.59-57.43S669.52,1717.44,669.52,1717.44Z" fill="url(#e5ad91a7-11b8-4139-a3f1-5bc3addbdb07)"/><path d="M616.73,1799.39l4-.54s-21.13-31.93-7.3-39.85,70.18-27.36,80-49.55c9.44-21.4-4.68-45.57-21.69-50.61a2.16,2.16,0,0,0-2.6,1.37l-1,2.7a2.19,2.19,0,0,1-4.06.11h0a2.17,2.17,0,0,0-4-.08c-3,6.65-12.06,18-39.16,26.79-38.45,12.46-62.4,31.85-59.45,59.17a2.2,2.2,0,0,1-3.13,2.22c-3.14-1.39-7.91-1.61-13.44,4.44-9.62,10.53-2.08,33.55,24.2,49.84a2.18,2.18,0,0,1,.35,3.49c-3.93,3.36-9.46,10.87,8.32,17.56,18.19,6.84,28.11,4.53,31.78,3.06a2.2,2.2,0,0,0,1.35-2.46l-4.67-23.94a2.18,2.18,0,0,1,1.86-2.59Z" fill="url(#ba59a213-1150-44d6-863d-3600ce1a9bde)"/><path d="M618.38,1804.3s-13.17-32.46-27-21,12.79,36.64,25.07,36.3Z" fill="url(#acf0fd92-df8a-43bc-b4a8-e8d296cf858c)"/><path d="M780.37,2193.56l.57,0,246.13-.25a11,11,0,1,0,0-22l-246.14.24a11,11,0,0,0-.54,22Z" fill="url(#b2e57500-2f15-4447-b978-73df92abad09)"/><path d="M1122.39,1952.52c-.09.17-.17.34-.25.51l-103.56,223.29a11,11,0,1,0,19.95,9.24l103.56-223.28a11,11,0,0,0-19.7-9.76Z" fill="url(#e8fbb106-8770-437c-8d8e-101228da0688)"/><rect x="1740.93" y="2417.96" width="25.98" height="280.94" fill="#7d97f4"/><path d="M1867.69,2704.31H1640.16a16.91,16.91,0,0,1,16.91-16.91h193.71a16.91,16.91,0,0,1,16.91,16.91Z" fill="#7d97f4"/><rect x="1615.38" y="2355.01" width="286.07" height="81.13" rx="27.94" fill="#7d97f4"/><path d="M1562.14,2230.64s-38.6,6-82,35a21.64,21.64,0,0,0-9.55,20.68c5.2,41.16,26.57,174.4,97,304.54a32.79,32.79,0,0,1,3.14,22.48l-12.24,57-22.7,21.28h58.47l38.94-105.36-16.65-5.26a31.5,31.5,0,0,1-22-29.49l-1.95-113c1.66-50.35-30.88-85.09-30.88-85.09l93.38-4.55Z" fill="url(#b808a07b-d902-41b3-ad10-d2e3e1deb2c5)"/><path d="M1513,2701.87c-5.32,7,57.32,16.17,89,.92,0,0,43.87-76.33,43.87-115.63,0,0-3.48-8-29.24-6.19,0,0-14.73,90.37-30.29,100.5s-43.51,1-43.51,1S1520.84,2691.59,1513,2701.87Z" fill="url(#b72d05c5-605d-4018-b69f-e641114cc614)"/><path d="M1643.32,2355c-.5-.86-100.54-12-100.54-12s3.27,30.42-7,72.3-157.12,223.3-157.12,223.3l15.4,48.82c-47.62,16.59-94.47,19.24-140.56,8.46l95.45-57.28s89.33-304.43,144-358.73l100.28-34.7Z" fill="url(#a57f5ce4-7d52-4f25-9902-b93963cce8a2)"/><path d="M1867.69,2177.88s57.64,85.73,62.37,124.84-15.79,55-76.27,57.62-221.94,2.58-221.94,2.58l-137.8-117.77s100.42-35.83,126.53-46S1867.69,2177.88,1867.69,2177.88Z" fill="url(#be6720bd-08f9-4bfb-b5c1-5567c4e579d0)"/><path d="M1388.28,2671s16.58,16.06,5.38,33.93c0,0-131.36,23.28-167,12.72,0,0,7.4-16.9,47.56-36.14l-3,2.27a4.8,4.8,0,0,0,3.17,8.61C1300.87,2690.84,1355.64,2686,1388.28,2671Z" fill="url(#e2dae8b7-fad0-4131-8c93-6124f46184a3)"/><path d="M1618,1634.17c117.82-20,173.3,76.07,169.24,96.26a3.69,3.69,0,0,0,4.63,4.23c13.52-3.64,43.41-8.23,61.93,15,16.36,20.5,4.14,39.84-5.83,50.45a3.72,3.72,0,0,0,3.11,6.29c24.87-3.14,78.91-3.89,87.75,46.73,8.24,47.21-24.61,60.52-44.1,64.28a3.69,3.69,0,0,0-1.24,6.76c9.73,6.17,21,18.92,16.44,44.07-7.13,39.42-84.43,36.19-93.46,35.68a3.67,3.67,0,0,1-1.61-.48l-123.8-70.61a3.73,3.73,0,0,1-1.82-2.59l-25-144.35a3.69,3.69,0,0,1,1-3.21l-80.71-113.9C1555.24,1664.45,1616.62,1634.4,1618,1634.17Z" fill="url(#e42d5cfd-6430-4882-b0b5-eb6bbbdb8e21)"/><path d="M1711.8,2166.53s-67.12-63.91-100.16-106.25a89.83,89.83,0,0,1-15.21-80.84c15.08-50.82,41.89-103.45,44.34-111.65,3.74-12.55,79-12,79-12s148.1,96.12,206.29,258.94L1860.72,2135s-38.67-64.87-76.88-106.12c0,0,66.11,87.34,68.44,123.09Z" fill="url(#e8c83850-e6f7-4cbd-9f2c-796f7aed11c2)"/><path d="M1631.67,1797.61c.78,2.61,20.43,67.74,22,69.09s43.08,3.58,62.64-9.78L1667.76,1762Z" fill="url(#e16c9f81-f6d7-457d-bb4d-9951a4eff39b)"/><path d="M1552.92,1713.93s-9.5,37.31,16.77,87.49,56,50.12,72.25,34.06,36.3-43.31,31.54-91.83S1566.63,1666.48,1552.92,1713.93Z" fill="url(#a8b1633e-9fbc-4d46-9be1-cebb97b5f220)"/><path d="M1637.14,1746.29s-43.57-66.62-84.44-14.19l-.74,19.07s-47.86-5.68-39.48-49.57,49.74-71.31,103-52.3,83.79,38.5,87.22,76.68-26.93,29.8-26.93,29.8-9.9-26.88-24-29.67-10.42,18.16-10.42,18.16Z" fill="url(#b9979932-8f04-46e4-b0cc-c3ffb51e3d8c)"/><path d="M1648.3,1745.4s-22.6-34.12.56-39.21,19.57,33.25,17.07,47.42Z" fill="url(#af816daa-3ccf-46ba-adba-b17c8f945975)"/><path d="M1575.06,2171.28l49.31-47.54,68.23,28.82s67.91,10.52,106.77,0l38.87-10.52,87.83-27.34,13.79,39a23.46,23.46,0,0,1-8.57,27c-7.6,5.4-16.51,11.33-22.18,13.82-11.57,5.06-285.13-3.5-285.13-3.5Z" fill="url(#afaeb0c2-e2e9-43f6-885a-11d1ef5b32c1)"/><path d="M1761.69,2193.69H1761l-286.08-.31a12.81,12.81,0,0,1,0-25.61l286.08.31a12.81,12.81,0,0,1,.63,25.6Z" fill="url(#b6ed6934-1d3e-44c3-8bf2-06570a61a35d)"/><path d="M1217.78,1934H1456a45.42,45.42,0,0,1,41.07,26l110.14,233.55H1311.16a27.58,27.58,0,0,1-25.66-17.45L1200.09,1960A19,19,0,0,1,1217.78,1934Z" fill="url(#f23dbfcd-3307-4fa7-9d75-b96fcb499ff6)"/><path d="M1385.63,2053.69c5.16,16,1.35,31.62-8.52,34.8s-22-7.25-27.22-23.3-1.34-31.61,8.52-34.79S1380.47,2037.65,1385.63,2053.69Z" fill="#91b3fa"/><path d="M2087.84,2668.9a348.84,348.84,0,0,1,4.19,36.47,15.71,15.71,0,0,1-14.16,16.57c-29.28,2.84-95.93,8.09-138.49,1.95a7.14,7.14,0,0,1-3.92-12.29c17.55-16.35,59.93-48.16,129.68-55.11Z" fill="url(#bfbe0db7-33ec-4554-9d87-98c1feef2f38)"/><path d="M2102.4,2631.32l-14.81,36.29a12.08,12.08,0,0,1-12.41,7.5,65,65,0,0,1-12.1-2.34,15.89,15.89,0,0,1-10.56-19.76l11.17-37.37Z" fill="url(#b65741d8-cc45-4537-a838-8a00965cb169)"/><path d="M2355.51,2697.8s-29.65,24.81-41.2,56.63c-3.18,8.75,3.54,18,12.85,18h61a14.4,14.4,0,0,0,14.22-16.83C2398.5,2733.6,2387.29,2697.9,2355.51,2697.8Z" fill="url(#b6f2be79-b181-4fb9-a5bf-288662a0086a)"/><path d="M2392.23,2665.52s-6,26.51-10.59,44a5.6,5.6,0,0,1-7.32,3.82c-9.24-3.3-16.75-4.76-22.21-4a4.32,4.32,0,0,1-4.76-4.31l-.58-44Z" fill="url(#a7337773-1925-4754-a76f-9b80fa614daa)"/><path d="M2234.56,2069.11l-180.32,550.12s34.59,22.65,51.07,21.71l214.18-442.11s37.48,272.41,19.32,468l61.34,4.68s99.76-499.78,24.2-671Z" fill="url(#b24fa8f9-d793-421b-bcd0-75bc11e88360)"/><path d="M2318.33,2194.08l.22,0a1.75,1.75,0,0,0,1.51-1.95l-7-55.54a1.74,1.74,0,1,0-3.46.43l7,55.55A1.75,1.75,0,0,0,2318.33,2194.08Z" fill="#91b3fa"/><path d="M2200.76,1585s146.09,13,125.43,117.07c0,0,80.75,152,118.51,331a10.52,10.52,0,0,1-8.54,12.51l-243.3,41.66a13.1,13.1,0,0,1-14.89-9.63L2119.84,1853l-22.65,104.46-72-18.75,60.59-306.94S2094.25,1587,2200.76,1585Z" fill="url(#ff44a702-fe61-4369-955b-d2a6f830e9fe)"/><path d="M2118.6,1842.94a1.74,1.74,0,0,0,.39,0,1.81,1.81,0,0,0,1.38-2.15l-20.28-93.12a1.81,1.81,0,1,0-3.54.77l20.28,93.12A1.82,1.82,0,0,0,2118.6,1842.94Z" fill="url(#b90a7acf-2ef0-4221-a0f3-6ee439f1e724)"/><path d="M2133.29,2120a34.75,34.75,0,0,1,25.12-3.27l16.93,4.22a6.13,6.13,0,0,0,7.57-5.27l17.52-155.92c21.9,10.4,53.5,9.16,63.92,8.4L2224,2152H2083Z" fill="url(#e889792d-c2ba-40cb-9b61-0e88a8ec182c)"/><path d="M1758.42,1781.84l4.26-14.17a28,28,0,0,1,16.39-17.93l77.13-31s1.16-9.89-16.3-16.61-13.38-26.28-13.38-26.28,23.86,10.88,58.78,28.14c20,9.87,31.18,27.3,37.12,40.41l174.77,213.06-20.52,14.1a54.79,54.79,0,0,1-79.43-19.49l-94.68-181.56C1855,1784.77,1806.93,1787.51,1758.42,1781.84Z" fill="url(#b33f3643-f9fc-4d76-9d5e-3579051425c4)"/><path d="M2153.43,1485.65l44.93,125.76s-39.79,31.1-68.82,20.59l-22.65-72.09S2124.19,1471.8,2153.43,1485.65Z" fill="url(#b0d9d9ec-1439-4b54-b969-5266456e8f21)"/><path d="M2019.32,1440.48c0,1.94,43.28,122.53,43.28,122.53l68.34-26.17-24.05-120.4S2019.32,1408,2019.32,1440.48Z" fill="url(#bb007d79-52da-488c-8324-c68ec3ef67fb)"/><path d="M2094.91,1445.77l17.62,62.39a9.1,9.1,0,0,1,.34,2.44c0,5.08-1.25,22.59-19.09,20.21-16.18-2.16-31-3.89-40.39.54a9,9,0,0,0-4.67,11.25c3.93,11,13.26,35.48,24.61,55.55a9,9,0,0,0,11.62,3.72c12.83-5.84,39.55-18.91,58.59-34.46a9.07,9.07,0,0,0,3.2-8.7c-3-16-11.91-64.49-12.31-78.41-.37-13,14.28-23,20.73-26.77a8.85,8.85,0,0,0,4.19-5.62c2-8.41,3.75-27.43-20.51-31.62a9.07,9.07,0,0,1-7.36-10.79c2.05-10,1.4-24.84-17.69-30.28-19.4-5.54-31.61,6.14-37.81,15.09a9.06,9.06,0,0,1-11.23,3c-2.29-1-5.06-1.07-8,1.44a8.92,8.92,0,0,1-13-2c-5.66-8.33-15.94-16.64-33.33-11-30.87,10-29.4,45.59-18.08,64.94s44.17,6.61,59.72-6.21c11.83-9.75,29.83-3.92,37.79-.56A9,9,0,0,1,2094.91,1445.77Z" fill="url(#f190ec7c-533a-47df-9da8-113d9d92d2da)"/><path d="M2140.62,1503.08s-18.27-34.56-6.19-45.41,32.55-9.08,32,17.95C2165.75,1509.24,2140.62,1503.08,2140.62,1503.08Z" fill="url(#a38ac5b0-33e4-4df1-bc2d-dc52a8531592)"/><path d="M2250.18,1970.54a176.76,176.76,0,0,0,17.85-.84l1.3-.15,53.2-248a1.81,1.81,0,1,0-3.54-.76l-52.65,245.45c-7.92.69-50.19,3.5-72.51-12.31l46.08-215.49-9.62-18.12a1.81,1.81,0,1,0-3.2,1.69l9,17-46.3,216.47.93.7C2206.85,1968.25,2232.83,1970.54,2250.18,1970.54Z" fill="url(#a3a82012-3010-4255-827e-c7aebaa8c92e)"/><path d="M655.37,2726.74a8.58,8.58,0,0,1-3.66-.82c-4.7-2.21-6.88-8.16-4.85-13.29l194.39-493.24c2-5.13,7.47-7.5,12.18-5.3s6.87,8.16,4.85,13.29L663.89,2720.62A9.28,9.28,0,0,1,655.37,2726.74Z" fill="#91b3fa"/><path d="M874.36,2726.74a9.28,9.28,0,0,1-8.52-6.12L671.45,2227.38c-2-5.13.15-11.08,4.85-13.29s10.15.16,12.18,5.3l194.39,493.24c2,5.13-.15,11.08-4.85,13.29A8.61,8.61,0,0,1,874.36,2726.74Z" fill="#91b3fa"/><path d="M1974.66,2726.74a8.61,8.61,0,0,1-3.66-.82c-4.7-2.21-6.87-8.16-4.85-13.29l194.39-493.24c2-5.13,7.47-7.5,12.18-5.3s6.87,8.16,4.85,13.29l-194.39,493.24A9.28,9.28,0,0,1,1974.66,2726.74Z" fill="#91b3fa"/><path d="M2193.65,2726.74a9.28,9.28,0,0,1-8.52-6.12l-194.39-493.24c-2-5.13.15-11.08,4.85-13.29s10.15.16,12.18,5.3l194.39,493.24c2,5.13-.15,11.08-4.85,13.29A8.58,8.58,0,0,1,2193.65,2726.74Z" fill="#91b3fa"/><path d="M1946.45,2184.55H2228V2155.5H1946.45C1952.48,2155.5,1952.48,2184.55,1946.45,2184.55Z" fill="#bdd0fb"/><path d="M2224.66,2184.55a3.35,3.35,0,0,0,3.34-3.34v-22.37a3.35,3.35,0,0,0-3.34-3.34H1941.21a3.29,3.29,0,1,1,0-6.57h302.92a12.15,12.15,0,0,1,12.15,12.16v18.57a11.46,11.46,0,0,1-11.46,11.46H1941.21a3.29,3.29,0,1,1,0-6.57Z" fill="url(#b0a4afe0-5387-4e71-9dca-9026655aa890)"/><path d="M2268.82,2204.14c.94-3.25-.35-6.6-3.52-9.15s-7.88-4-12.87-4h-1687c-6.55,0-12.64,2.21-16.17,5.87s-4,8.26-1.26,12.21l18.28,26.24c4.19,6,13.26,9.86,23.24,9.86H2240.86c9.28,0,17.26-4.37,19-10.41Z" fill="#91b3fa"/><g opacity="0.3"><path d="M1348.09,482.91a9.88,9.88,0,0,1-7.66-11.68c2.16-10.38,3.9-21,5.18-31.58A9.87,9.87,0,0,1,1356.4,431l.19,0a9.88,9.88,0,0,1,8.63,11c-1.35,11.13-3.18,22.31-5.45,33.23a9.88,9.88,0,0,1-10.65,7.82C1348.78,483,1348.43,483,1348.09,482.91Zm.19-95.16c-.18-10.64-.82-21.38-1.89-31.93a9.87,9.87,0,0,1,19.64-2c1.14,11.09,1.81,22.4,2,33.6a9.88,9.88,0,0,1-9.71,10,11.21,11.21,0,0,1-1.17,0A9.88,9.88,0,0,1,1348.28,387.75Zm-10.76-83.11c-2.53-10.31-5.55-20.63-9-30.69a9.88,9.88,0,1,1,18.71-6.35c3.59,10.59,6.77,21.47,9.44,32.32a9.88,9.88,0,1,1-19.18,4.72ZM1308.45,226c-4.78-9.5-10-18.89-15.61-27.93a9.88,9.88,0,0,1,16.82-10.37c5.86,9.52,11.39,19.42,16.43,29.41a9.88,9.88,0,0,1-17.64,8.89Zm-45.86-70.18c-6.76-8.18-14-16.18-21.41-23.78a9.88,9.88,0,1,1,14.11-13.82c7.83,8,15.41,16.42,22.52,25a9.87,9.87,0,0,1-15.22,12.58Zm-60.25-58.28c-8.41-6.49-17.2-12.7-26.13-18.45a9.88,9.88,0,1,1,10.69-16.61c9.4,6.06,18.66,12.59,27.51,19.42a9.88,9.88,0,0,1-12.07,15.64Zm-361-64.5a9.88,9.88,0,0,1,6.2-12.52C858.12,17,869,13.82,879.89,11.16a9.88,9.88,0,0,1,4.68,19.19c-10.33,2.52-20.67,5.52-30.72,8.92a9.88,9.88,0,0,1-12.52-6.2Zm289.39,21c-9.64-4.45-19.59-8.54-29.57-12.15a9.87,9.87,0,1,1,6.72-18.57c10.51,3.8,21,8.11,31.13,12.8A9.88,9.88,0,0,1,1133.86,55,9.7,9.7,0,0,1,1130.72,54.11ZM925,12.74a9.88,9.88,0,0,1,8.84-10.81C944.93.82,956.24.17,967.43,0a9.88,9.88,0,1,1,.3,19.75c-10.64.16-21.39.78-32,1.84a10.17,10.17,0,0,1-2,0A9.87,9.87,0,0,1,925,12.74Zm126.22,15c-10.38-2.19-21-3.95-31.55-5.25a9.87,9.87,0,0,1,2.19-19.62l.21,0c11.11,1.36,22.29,3.22,33.21,5.51a9.88,9.88,0,0,1-3,19.5C1051.89,27.89,1051.54,27.84,1051.19,27.77Z" fill="#bdd0fb"/><path d="M786.28,67.78a9.9,9.9,0,0,0,5.77-1.19c4.46-2.48,9-4.89,13.61-7.2a9.87,9.87,0,0,0-8.88-17.64c-4.81,2.42-9.63,5-14.31,7.57a9.88,9.88,0,0,0,3.81,18.46Z" fill="#bdd0fb"/></g><g opacity="0.3"><path d="M601,305.1a9.87,9.87,0,0,0,10.53-7.29c1.31-4.92,2.74-9.89,4.26-14.78a9.87,9.87,0,1,0-18.86-5.86c-1.6,5.15-3.11,10.39-4.49,15.57a9.88,9.88,0,0,0,7,12.08A9.54,9.54,0,0,0,601,305.1Z" fill="#bdd0fb"/><path d="M914.24,784.37a9.88,9.88,0,1,1,3-19.53c10.27,1.55,20.76,2.69,31.31,3.4A9.88,9.88,0,1,1,947.17,788q-6.85-.47-13.64-1.15C927.08,786.15,920.59,785.33,914.24,784.37Zm76.22-5.64a9.88,9.88,0,0,1,9.18-10.52c10.44-.72,21-1.88,31.29-3.47a9.87,9.87,0,0,1,3,19.52c-10.86,1.67-22,2.9-32.94,3.65a10.44,10.44,0,0,1-1.68,0A9.89,9.89,0,0,1,990.46,778.73Zm-128.75-6C851.17,769.6,840.62,766,830.35,762a9.87,9.87,0,1,1,7.17-18.4c9.75,3.8,19.77,7.22,29.78,10.17a9.88,9.88,0,0,1-3.78,19.3A9.64,9.64,0,0,1,861.71,772.71Zm212.46-6.89a9.87,9.87,0,0,1,6.64-12.29c10-3,20-6.44,29.75-10.26a9.88,9.88,0,0,1,7.23,18.38c-10.24,4-20.79,7.66-31.34,10.81a9.84,9.84,0,0,1-12.28-6.64ZM781.71,739.07c-9.59-5.35-19.09-11.18-28.23-17.34a9.88,9.88,0,0,1,11-16.38c8.68,5.85,17.7,11.4,26.81,16.47a9.88,9.88,0,1,1-9.62,17.25ZM711,688.71c-8.21-7.34-16.2-15.1-23.76-23.08a9.87,9.87,0,0,1,14.34-13.58c7.18,7.58,14.78,15,22.58,21.93A9.88,9.88,0,0,1,711,688.71Zm-58-64.58c-6.42-9-12.53-18.27-18.17-27.7a9.88,9.88,0,0,1,17-10.14c5.35,9,11.16,17.82,17.26,26.33a9.88,9.88,0,0,1-16,11.51Zm-42.56-75.7c-4.31-10.13-8.23-20.57-11.66-31a9.88,9.88,0,1,1,18.77-6.16c3.25,9.92,7,19.83,11.07,29.46a9.88,9.88,0,1,1-18.18,7.72Zm-24.9-83.24c-2-10.81-3.49-21.85-4.53-32.81a9.87,9.87,0,0,1,19.66-1.88c1,10.42,2.44,20.9,4.3,31.17a9.87,9.87,0,1,1-19.43,3.52Zm-6-86.58c.33-8.09.9-16.28,1.72-24.32.29-2.91.62-5.81,1-8.7a9.77,9.77,0,0,1,11-8.59,9.89,9.89,0,0,1,8.6,11q-.51,4.13-.93,8.27c-.78,7.65-1.33,15.42-1.63,23.11A9.89,9.89,0,0,1,589,388.87l-.61-.05A9.87,9.87,0,0,1,579.52,378.61Z" fill="#bdd0fb"/><path d="M1160.82,739.67a9.84,9.84,0,0,0,5.82-1.22c4.66-2.61,9.35-5.38,13.95-8.22a9.88,9.88,0,1,0-10.37-16.81c-4.37,2.7-8.83,5.33-13.25,7.81a9.88,9.88,0,0,0,3.85,18.44Z" fill="#bdd0fb"/></g><path d="M1206.74,576.71a4.61,4.61,0,0,0,.88-5.28L1183,520.93a244.71,244.71,0,0,0,30.36-73.24l53.07-18.31a4.6,4.6,0,0,0,3.11-4.36V357.64a4.62,4.62,0,0,0-3.11-4.37L1213.36,335A244.83,244.83,0,0,0,1183,261.74l24.6-50.5a4.62,4.62,0,0,0-.89-5.29l-47.65-47.64a4.62,4.62,0,0,0-5.28-.89L1103.27,182A244.76,244.76,0,0,0,1030,151.67L1011.72,98.6a4.61,4.61,0,0,0-4.36-3.11H940a4.63,4.63,0,0,0-4.37,3.12l-18.29,53.07a244.78,244.78,0,0,0-73.24,30.37l-50.5-24.6a4.63,4.63,0,0,0-5.29.89L740.65,206a4.62,4.62,0,0,0-.89,5.28l24.61,50.51A244.81,244.81,0,0,0,734,335l-53.07,18.31a4.61,4.61,0,0,0-3.11,4.36v67.39a4.61,4.61,0,0,0,3.11,4.36L734,447.73A244.83,244.83,0,0,0,764.39,521l-24.6,50.51a4.62,4.62,0,0,0,.89,5.28l47.65,47.64a4.62,4.62,0,0,0,5.29.89l50.5-24.61A244.76,244.76,0,0,0,917.36,631l18.3,53.07a4.62,4.62,0,0,0,4.37,3.11h67.38a4.61,4.61,0,0,0,4.36-3.11l18.3-53.08a244.83,244.83,0,0,0,73.23-30.37l50.51,24.6a4.6,4.6,0,0,0,5.28-.89Z" fill="#bdd0fb"/><path d="M957.12,457a67.66,67.66,0,1,1,9.8,1.73A67.8,67.8,0,0,1,957.12,457Zm-10-110.26A51.94,51.94,0,1,0,986.4,341a52.5,52.5,0,0,0-7.59-1.34A51.59,51.59,0,0,0,947.07,346.76Z" fill="url(#ec94b7b6-6a47-4893-91e2-b4cb02174835)"/><path d="M955.69,555.94a169.91,169.91,0,0,0,17.09.86h0q2.72,0,5.43-.09a166.64,166.64,0,0,0,26.5-3l.36-.07,1-.2,2-.41a4,4,0,0,0,3.1-3.46,4,4,0,0,0-.07-1.24,4,4,0,0,0-4.7-3,158.85,158.85,0,0,1-167.47-70,157.67,157.67,0,0,1-24.78-85c0-5.48.28-10.93.82-16.31A158.7,158.7,0,0,1,972.75,231.61c87.52,0,158.65,71.16,158.66,158.63a159,159,0,0,1-22.48,81.47,4.08,4.08,0,0,0-.54,1.63,4,4,0,0,0,7.32,2.43,166.86,166.86,0,0,0,23.6-85.52c0-91.84-74.75-166.54-166.56-166.54A166.59,166.59,0,0,0,807.08,373.15a170.5,170.5,0,0,0-.86,17.12A166.58,166.58,0,0,0,955.69,555.94Z" fill="url(#bbd66f09-1384-4a5f-bd84-e87dcf6bbdee)"/><g opacity="0.3"><path d="M1658.2,775.93a6.09,6.09,0,0,0,6.26-3.77c2-4.8,3.79-9.72,5.45-14.63a6.1,6.1,0,0,0-11.56-3.91c-1.58,4.68-3.33,9.37-5.19,13.94a6.1,6.1,0,0,0,3.35,8A6.44,6.44,0,0,0,1658.2,775.93Z" fill="#bdd0fb"/><path d="M1671.2,730.93a6.1,6.1,0,0,1-4.75-7.2,254.1,254.1,0,0,0,3.87-25.3q.27-2.67.48-5.37a6.1,6.1,0,0,1,6.57-5.59A6.31,6.31,0,0,1,1683,694c-.16,1.88-.32,3.75-.51,5.62a267.13,267.13,0,0,1-4.06,26.53,6.1,6.1,0,0,1-6.58,4.84C1671.61,731,1671.41,731,1671.2,730.93Zm.19-68.84a254.09,254.09,0,0,0-3.19-30.81,6.1,6.1,0,0,1,12-2,264.28,264.28,0,0,1,3.35,32.29,6.11,6.11,0,0,1-5.84,6.36,6.42,6.42,0,0,1-.88,0A6.1,6.1,0,0,1,1671.39,662.09Zm-10.18-61A251.83,251.83,0,0,0,1650.54,572a6.1,6.1,0,0,1,11.17-4.9,261.39,261.39,0,0,1,11.19,30.5,6.1,6.1,0,1,1-11.69,3.48Zm-24.85-56.62a253.93,253.93,0,0,0-17.46-25.57,6.1,6.1,0,0,1,9.63-7.49,265.85,265.85,0,0,1,18.31,26.82,6.1,6.1,0,1,1-10.48,6.24Zm-37.93-48.83a255,255,0,0,0-23.14-20.58,6.1,6.1,0,1,1,7.53-9.59A266.5,266.5,0,0,1,1607.08,487a6.1,6.1,0,0,1-8.65,8.61ZM1549.8,457.5a248.8,248.8,0,0,0-27.44-14.29,6.1,6.1,0,0,1,5-11.15,261.9,261.9,0,0,1,28.78,15,6.1,6.1,0,0,1-6.3,10.45Zm-56.45-25.09a252,252,0,0,0-30.14-7.12,6.1,6.1,0,0,1,2.07-12,264.34,264.34,0,0,1,31.6,7.47,6.1,6.1,0,0,1-2.38,11.91A5.86,5.86,0,0,1,1493.35,432.41Zm-98.45-15.69a6.09,6.09,0,0,1,5.63-6.53,264.88,264.88,0,0,1,28.2-.6c1.43,0,2.85.09,4.28.16a6,6,0,0,1,5.79,6.39,6.11,6.11,0,0,1-6.39,5.8c-1.34-.07-2.68-.12-4-.16a251.44,251.44,0,0,0-26.93.57,5.56,5.56,0,0,1-1.08,0A6.1,6.1,0,0,1,1394.9,416.72Z" fill="#bdd0fb"/></g><g opacity="0.3"><path d="M1390.2,934.59a264.9,264.9,0,0,1-31.45-5.53,6.1,6.1,0,0,1,2.85-11.87,250.15,250.15,0,0,0,30,5.28,6.1,6.1,0,0,1-1.31,12.13Zm25.77-4.34a6.1,6.1,0,0,1,6.06-6.14,253.47,253.47,0,0,0,30.41-2A6.1,6.1,0,1,1,1454,934.2a267.19,267.19,0,0,1-31.87,2.11l-.66,0A6.1,6.1,0,0,1,1416,930.25Zm-87.78-10.52a264.25,264.25,0,0,1-29.18-13,6.1,6.1,0,0,1,5.62-10.83,252.94,252.94,0,0,0,27.84,12.38,6.1,6.1,0,1,1-4.28,11.42Zm149.77,4.1a6.1,6.1,0,0,1,4.41-7.42,249.12,249.12,0,0,0,29-9.29,6.1,6.1,0,0,1,4.43,11.37,263.54,263.54,0,0,1-30.44,9.75,6.12,6.12,0,0,1-7.41-4.41Zm-206.33-33.49a265,265,0,0,1-25.2-19.62,6.1,6.1,0,0,1,8.07-9.16,249.53,249.53,0,0,0,24,18.71,6.1,6.1,0,0,1-4.07,11.1A6.2,6.2,0,0,1,1271.63,890.34Zm-47.86-42.12A266.28,266.28,0,0,1,1204,823.15a6.1,6.1,0,1,1,10-7,254.79,254.79,0,0,0,18.88,23.91,6.1,6.1,0,0,1-9.11,8.12Zm-36.4-52.36a263,263,0,0,1-13.2-29.1,6.1,6.1,0,0,1,11.4-4.36,247.84,247.84,0,0,0,12.58,27.75,6.09,6.09,0,0,1-2.54,8.24,6,6,0,0,1-3.46.68A6.09,6.09,0,0,1,1187.37,795.86Z" fill="#bdd0fb"/><path d="M1541.58,905.67a6,6,0,0,0,3.5-.7c4.6-2.47,9.14-5.09,13.51-7.79a6.1,6.1,0,1,0-6.41-10.38c-4.16,2.57-8.5,5.07-12.88,7.43a6.1,6.1,0,0,0,2.28,11.44Z" fill="#bdd0fb"/></g><path d="M1576.35,794.88a3.11,3.11,0,0,0,.6-3.54l-16.47-33.79a163.91,163.91,0,0,0,20.31-49l35.52-12.25a3.09,3.09,0,0,0,2.08-2.92V648.28a3.05,3.05,0,0,0-2.08-2.91l-35.51-12.25a163.53,163.53,0,0,0-20.33-49l16.46-33.8a3.08,3.08,0,0,0-.59-3.53l-31.88-31.89a3.09,3.09,0,0,0-3.54-.59l-33.79,16.47a163.67,163.67,0,0,0-49-20.32L1445.86,475a3.08,3.08,0,0,0-2.92-2.08h-45.09a3.09,3.09,0,0,0-2.92,2.08l-12.24,35.52a163.93,163.93,0,0,0-49,20.32l-33.79-16.46a3.09,3.09,0,0,0-3.54.6l-31.88,31.88a3.09,3.09,0,0,0-.59,3.54l16.46,33.79a163.91,163.91,0,0,0-20.31,49l-35.51,12.25a3.09,3.09,0,0,0-2.09,2.92v45.09a3.08,3.08,0,0,0,2.08,2.92L1260,708.57a163.67,163.67,0,0,0,20.32,49l-16.46,33.79a3.09,3.09,0,0,0,.59,3.54l31.89,31.88a3.08,3.08,0,0,0,3.53.59l33.8-16.47a163.51,163.51,0,0,0,49,20.32L1395,866.74a3.08,3.08,0,0,0,2.92,2.08H1443a3.09,3.09,0,0,0,2.92-2.08l12.25-35.52a163.61,163.61,0,0,0,49-20.32l33.8,16.46a3.08,3.08,0,0,0,3.53-.59Z" fill="#bdd0fb"/><path d="M1409.13,715.58a45.86,45.86,0,1,1,6.73,1.19A47.47,47.47,0,0,1,1409.13,715.58Zm-21.63-53a33.93,33.93,0,0,0,24.61,41.21h0a33.94,33.94,0,1,0-24.61-41.21Z" fill="url(#bef6368d-119f-4c8a-ac1b-82e89e7a1449)"/><path d="M1408.13,784.43q5.76.57,11.67.58a115.17,115.17,0,0,0,23.29-2.36l1-.22a6.1,6.1,0,1,0-2.57-11.92,103,103,0,0,1-21.74,2.3h-1.21A101.6,101.6,0,0,1,1370,760a102.82,102.82,0,0,1-22.13-16.58l-.17-.16c-.16-.16-.33-.32-.49-.49a102,102,0,0,1-30.09-72.62,105.41,105.41,0,0,1,.53-10.55,102.71,102.71,0,0,1,204.87,10.54,100.42,100.42,0,0,1-.52,10.42,102.36,102.36,0,0,1-14,42.31,6.12,6.12,0,0,0,2.1,8.37,6.12,6.12,0,0,0,8.37-2.1,114.72,114.72,0,0,0,15.69-47.34,116.27,116.27,0,0,0,.59-11.66,114.9,114.9,0,0,0-229.2-11.79,115,115,0,0,0,102.64,126.11Z" fill="url(#e6abe196-8f36-4fdd-83ed-300f1e01f564)"/></g></g></svg>