<svg xmlns="http://www.w3.org/2000/svg" xmlns:xlink="http://www.w3.org/1999/xlink" viewBox="0 0 2913.48 2913.48"><defs><linearGradient id="a39bcf1b-50de-4505-a64c-3a387e4c6a42" x1="-3891.55" y1="689.07" x2="-3915.45" y2="1758.4" gradientTransform="matrix(-0.82, -0.23, -0.25, 0.89, -710.95, 256.31)" gradientUnits="userSpaceOnUse"><stop offset="0" stop-color="#aa80f9"/><stop offset="1" stop-color="#6165d7"/></linearGradient><linearGradient id="b254cfb8-6b08-43d5-885d-3924c00bd4e5" x1="-3968.21" y1="1354.9" x2="-4398.33" y2="596.21" gradientTransform="matrix(-0.82, -0.23, -0.25, 0.89, -710.95, 256.31)" gradientUnits="userSpaceOnUse"><stop offset="0" stop-color="#e38ddd"/><stop offset="1" stop-color="#9571f6"/></linearGradient><linearGradient id="f10c059e-03b6-4468-93ee-ef3eedbebaa2" x1="-173.7" y1="1097.49" x2="-478.74" y2="1457.24" gradientTransform="translate(1031.03 -207.22) rotate(-18.13)" gradientUnits="userSpaceOnUse"><stop offset="0" stop-color="#ffc444"/><stop offset="1" stop-color="#f36f56"/></linearGradient><linearGradient id="a424ce69-b2e9-4f9e-bc45-3dc21db04d80" x1="-211.27" y1="1065.63" x2="-516.31" y2="1425.38" xlink:href="#f10c059e-03b6-4468-93ee-ef3eedbebaa2"/><linearGradient id="a4243b33-ab49-4ab6-956e-895d90a536dc" x1="-827.65" y1="841.87" x2="-1073.87" y2="1132.24" gradientTransform="matrix(-0.95, 0.31, 0.31, 0.95, -407.07, 263.96)" xlink:href="#b254cfb8-6b08-43d5-885d-3924c00bd4e5"/><linearGradient id="f96ce089-ea78-45c2-ba24-50dfb36b44f6" x1="-32.84" y1="437.41" x2="248.66" y2="1994.47" gradientTransform="translate(1031.03 -207.22) rotate(-18.13)" xlink:href="#a39bcf1b-50de-4505-a64c-3a387e4c6a42"/><linearGradient id="b1b53a6b-1603-4b2f-a167-d28ab3027c8e" x1="-129.17" y1="440.23" x2="155.85" y2="2016.72" gradientTransform="translate(1031.03 -207.22) rotate(-18.13)" xlink:href="#a39bcf1b-50de-4505-a64c-3a387e4c6a42"/><linearGradient id="e9e08c6a-4993-46f0-99e5-a53631e24c10" x1="-1840.75" y1="656.71" x2="-2401.5" y2="1318.03" gradientTransform="matrix(-1, 0, 0, 1, -205.15, -445.13)" xlink:href="#b254cfb8-6b08-43d5-885d-3924c00bd4e5"/><linearGradient id="f2674df0-4227-4cfa-bcc2-ff9cc91ef960" x1="-1801.48" y1="979.23" x2="-2342.05" y2="993" gradientTransform="matrix(-0.95, 0.31, 0.31, 0.95, -407.07, 263.96)" gradientUnits="userSpaceOnUse"><stop offset="0" stop-color="#311944"/><stop offset="1" stop-color="#893976"/></linearGradient><clipPath id="b66ea992-be1b-485c-9bb0-88e3482983e7"><path d="M2074.16,1025.44c28.12-9.21,51.9-30.06,70.66-62C2163.91,931,2177,888.79,2183.64,838c14-106.72-1.9-237.71-44.84-368.85s-107.58-246.17-182-323.93c-35.41-37-70.91-63.29-105.51-78.18-34-14.63-65.5-17.38-93.62-8.17s-51.9,30.05-70.66,62c-19.09,32.47-32.15,74.68-38.82,125.45-14,106.72,1.9,237.71,44.84,368.85s107.58,246.17,182,323.93c35.41,37,70.91,63.29,105.51,78.18C2014.54,1031.9,2046,1034.65,2074.16,1025.44Z" fill="none"/></clipPath><linearGradient id="fc37f3ce-4a0b-42fe-97d8-b2a109da10c8" x1="344" y1="486.6" x2="527.8" y2="1503.24" xlink:href="#f10c059e-03b6-4468-93ee-ef3eedbebaa2"/><linearGradient id="ae96b424-b1e5-4180-8211-bce3466b2185" x1="449.99" y1="617.57" x2="585.6" y2="1367.69" xlink:href="#f10c059e-03b6-4468-93ee-ef3eedbebaa2"/><linearGradient id="bbdf0552-1aea-498c-9c45-c11945329c44" x1="363.65" y1="937.18" x2="780.84" y2="1305.74" gradientTransform="matrix(-0.95, 0.31, 0.31, 0.95, 2301.62, -623.01)" xlink:href="#b254cfb8-6b08-43d5-885d-3924c00bd4e5"/><linearGradient id="ae8bd389-f3ff-4248-b7ab-71757b073e61" x1="204.93" y1="711.56" x2="548.84" y2="889.81" gradientTransform="matrix(-0.95, 0.31, 0.31, 0.95, 2301.62, -623.01)" gradientUnits="userSpaceOnUse"><stop offset="0" stop-color="#ff9085"/><stop offset="1" stop-color="#fb6fbb"/></linearGradient><linearGradient id="bc6f6e1f-8712-48fc-9021-7f5b164640e1" x1="264.91" y1="890.81" x2="664.38" y2="1243.71" gradientTransform="matrix(-0.95, 0.31, 0.31, 0.95, 2301.62, -623.01)" xlink:href="#b254cfb8-6b08-43d5-885d-3924c00bd4e5"/><linearGradient id="ea2dad9a-53b3-47c4-8952-002fe4c3ae07" x1="130.12" y1="832.04" x2="509.79" y2="1028.83" xlink:href="#ae8bd389-f3ff-4248-b7ab-71757b073e61"/><linearGradient id="f17c79fa-044b-43fb-bdf0-1e90e3c80a0e" x1="334.05" y1="1030.04" x2="819.88" y2="1459.24" gradientTransform="matrix(-0.95, 0.31, 0.31, 0.95, 2301.62, -623.01)" xlink:href="#a39bcf1b-50de-4505-a64c-3a387e4c6a42"/><linearGradient id="bd8fd949-1604-4740-8914-b4a447e7f840" x1="1259.81" y1="2683.23" x2="1068.43" y2="2763.61" gradientUnits="userSpaceOnUse"><stop offset="0" stop-color="#40447e"/><stop offset="1" stop-color="#3c3b6b"/></linearGradient><linearGradient id="fe427727-9bec-494f-acb5-871d80bc36c3" x1="1004.26" y1="1839.75" x2="796.56" y2="1926.98" xlink:href="#bd8fd949-1604-4740-8914-b4a447e7f840"/><linearGradient id="a72c9254-2087-4dd8-8568-b7328815aab4" x1="109.05" y1="1886.97" x2="2033.83" y2="1886.97" xlink:href="#bd8fd949-1604-4740-8914-b4a447e7f840"/><linearGradient id="e420c220-e86b-45a5-9ac4-dc62e1f94d7a" x1="109.05" y1="2598.75" x2="2833.41" y2="2598.75" xlink:href="#bd8fd949-1604-4740-8914-b4a447e7f840"/><linearGradient id="e156d808-6e80-45a0-928d-9066c3ad0ae3" x1="376.22" y1="2576.43" x2="2372.34" y2="2576.43" xlink:href="#bd8fd949-1604-4740-8914-b4a447e7f840"/><linearGradient id="a1bd54f7-927f-4374-aba1-e5c2c134c92b" x1="1529.46" y1="894.51" x2="507.65" y2="1990.83" gradientTransform="matrix(1, 0, 0, 1, 0, 0)" xlink:href="#a39bcf1b-50de-4505-a64c-3a387e4c6a42"/><linearGradient id="e3fc8237-6abc-4b70-9655-d187db74b352" x1="266.23" y1="1368.68" x2="315.59" y2="1368.68" gradientUnits="userSpaceOnUse"><stop offset="0" stop-color="#444b8c"/><stop offset="1" stop-color="#26264f"/></linearGradient><linearGradient id="b8157b9d-f998-4101-8806-7836c290379f" x1="355.83" y1="1368.16" x2="404.74" y2="1368.16" xlink:href="#e3fc8237-6abc-4b70-9655-d187db74b352"/><linearGradient id="e41420fe-eac8-416f-a328-16701d627d7a" x1="444.61" y1="1367.65" x2="493.07" y2="1367.65" xlink:href="#e3fc8237-6abc-4b70-9655-d187db74b352"/><linearGradient id="e8363862-cc38-4742-a550-8921f9fa6159" x1="1851.5" y1="1578.77" x2="999.86" y2="3015.91" gradientUnits="userSpaceOnUse"><stop offset="0" stop-color="#ab316d"/><stop offset="1" stop-color="#792d3d"/></linearGradient><linearGradient id="b34f5fe7-fe0b-4fa2-947b-0f528ffa5ee4" x1="2181.92" y1="1584.46" x2="2208.45" y2="1539.35" xlink:href="#e8363862-cc38-4742-a550-8921f9fa6159"/><linearGradient id="a10038a4-1ee8-424b-af5c-07ee501507e0" x1="2768.12" y1="1090.32" x2="2736.28" y2="1366.32" xlink:href="#e8363862-cc38-4742-a550-8921f9fa6159"/><linearGradient id="a544b9ec-5243-43c7-9ab7-e32cc286c428" x1="2782.74" y1="1340.1" x2="2846.44" y2="873.02" xlink:href="#e8363862-cc38-4742-a550-8921f9fa6159"/><linearGradient id="f345985d-3320-467f-a825-6d44a3ab03f1" x1="1722.99" y1="1644.63" x2="1412.48" y2="2215.22" gradientTransform="matrix(1, 0, 0, 1, 0, 0)" xlink:href="#ae8bd389-f3ff-4248-b7ab-71757b073e61"/><linearGradient id="e80ac13e-0f82-44d5-acab-d249150d88bd" x1="760.32" y1="2162" x2="181.53" y2="3055.79" gradientTransform="matrix(1, 0, 0, 1, 0, 0)" xlink:href="#ae8bd389-f3ff-4248-b7ab-71757b073e61"/><linearGradient id="a56cdada-4b47-4b46-822e-16761419666d" x1="1489.44" y1="2140.73" x2="275.28" y2="2355.69" gradientTransform="matrix(1, 0, 0, 1, 0, 0)" xlink:href="#ae8bd389-f3ff-4248-b7ab-71757b073e61"/><linearGradient id="e032e36e-50df-4ec1-801d-931531526d96" x1="2022.86" y1="1552.88" x2="1998.98" y2="1786.42" gradientTransform="matrix(1, 0, 0, 1, 0, 0)" xlink:href="#ae8bd389-f3ff-4248-b7ab-71757b073e61"/><linearGradient id="e4e6c1f5-8c38-42d6-89cd-33cc8d4342b9" x1="2337.22" y1="1595.11" x2="2836.15" y2="960.83" gradientTransform="matrix(1, 0, 0, 1, 0, 0)" xlink:href="#ae8bd389-f3ff-4248-b7ab-71757b073e61"/><linearGradient id="a237f2fc-2ac3-4113-a661-b084ff4ec913" x1="1699.14" y1="1631.66" x2="1388.64" y2="2202.24" gradientTransform="matrix(1, 0, 0, 1, 0, 0)" xlink:href="#ae8bd389-f3ff-4248-b7ab-71757b073e61"/><linearGradient id="bc510e9c-7bf3-4fa8-85f2-00d3f7eedbf7" x1="2077.85" y1="1584.97" x2="1990.96" y2="1744.66" gradientTransform="matrix(1, 0, 0, 1, 0, 0)" xlink:href="#ae8bd389-f3ff-4248-b7ab-71757b073e61"/><linearGradient id="a273b792-00e2-4916-b3e7-c36e53986106" x1="735.78" y1="2146.11" x2="156.98" y2="3039.9" gradientTransform="matrix(1, 0, 0, 1, 0, 0)" xlink:href="#ae8bd389-f3ff-4248-b7ab-71757b073e61"/><linearGradient id="b06d5881-db9b-4443-a33d-7e6a895b71c0" x1="-656.81" y1="1937.14" x2="-464.5" y2="1937.14" gradientTransform="matrix(-1, 0, 0, 1, 612.07, 0)" xlink:href="#f10c059e-03b6-4468-93ee-ef3eedbebaa2"/><linearGradient id="bad487e5-9242-4666-91ae-a80678596704" x1="13.59" y1="2298.22" x2="386.53" y2="2298.22" gradientTransform="matrix(-1, 0, 0, 1, 1613.66, 0)" xlink:href="#a39bcf1b-50de-4505-a64c-3a387e4c6a42"/><linearGradient id="fbc69335-f105-4587-b37b-415d01a92463" x1="2281.77" y1="2434.74" x2="2297.89" y2="2724.9" gradientTransform="matrix(0.96, 0.29, -0.29, 0.96, -192.4, -283.73)" xlink:href="#b254cfb8-6b08-43d5-885d-3924c00bd4e5"/><linearGradient id="bdc0d4e3-355e-4e19-9202-935ffba3ab78" x1="188.9" y1="2312.25" x2="561.83" y2="2312.25" gradientTransform="matrix(-1, 0, 0, 1, 1613.66, 0)" xlink:href="#a39bcf1b-50de-4505-a64c-3a387e4c6a42"/><linearGradient id="b10d7893-af16-440f-b7bb-45f1b1c16bab" x1="4291.48" y1="2799.36" x2="4315.73" y2="2799.36" gradientTransform="matrix(-1, 0, 0, 1, 5550.63, 0)" gradientUnits="userSpaceOnUse"><stop offset="0" stop-color="#311944"/><stop offset="1" stop-color="#a03976"/></linearGradient><linearGradient id="fcba446d-e563-4a0c-8d1d-6f5c1c5b7ce0" x1="212.73" y1="2066.67" x2="547.11" y2="2472.96" gradientTransform="matrix(-1, 0, 0, 1, 1613.66, 0)" xlink:href="#a39bcf1b-50de-4505-a64c-3a387e4c6a42"/><linearGradient id="b857337f-fa34-450b-975d-f92f6927ed67" x1="1142.8" y1="1562.74" x2="700.55" y2="1933.08" gradientTransform="matrix(-1, -0.05, -0.05, 1, 1688.9, 4.88)" xlink:href="#e3fc8237-6abc-4b70-9655-d187db74b352"/><linearGradient id="ed9f91c7-08e1-4488-8014-4ec92bc60666" x1="-1750.23" y1="2078.71" x2="-1391.07" y2="1755.8" gradientTransform="translate(2574.76)" xlink:href="#f10c059e-03b6-4468-93ee-ef3eedbebaa2"/><linearGradient id="b655e26e-4353-4553-8fae-1012fbae8486" x1="4496.51" y1="1708.04" x2="4623.14" y2="1708.04" xlink:href="#b10d7893-af16-440f-b7bb-45f1b1c16bab"/><linearGradient id="e738e44c-eed5-4f30-986c-59ac6325b70a" x1="4512.55" y1="2036.26" x2="4509.81" y2="1786.35" xlink:href="#b10d7893-af16-440f-b7bb-45f1b1c16bab"/><linearGradient id="facc5981-e12e-4375-9edd-3f1906e75478" x1="-1738.43" y1="2091.83" x2="-1379.27" y2="1768.92" gradientTransform="translate(2574.76)" xlink:href="#f10c059e-03b6-4468-93ee-ef3eedbebaa2"/><linearGradient id="b7f70a60-607e-400e-b382-bd3338f5c96f" x1="-1620.07" y1="2143.1" x2="-1293.4" y2="2143.1" gradientTransform="translate(2574.76)" xlink:href="#e3fc8237-6abc-4b70-9655-d187db74b352"/><linearGradient id="ed5f240f-39cc-4bb8-9fe7-27cb7aa454eb" x1="-1464.74" y1="2057.3" x2="-1016.37" y2="2057.3" gradientTransform="translate(2574.76)" xlink:href="#e3fc8237-6abc-4b70-9655-d187db74b352"/><linearGradient id="e0218e07-de6b-487f-aa12-e16cf90317f8" x1="2003.12" y1="1938.35" x2="2217.29" y2="2150.81" gradientTransform="matrix(-1, 0, 0, 1, 3456.89, 0)" xlink:href="#e3fc8237-6abc-4b70-9655-d187db74b352"/><linearGradient id="bd27f0c4-bfa5-4552-8f8f-f0fa82e2c1de" x1="-1601.4" y1="2076.3" x2="-1875.67" y2="1806.41" gradientTransform="translate(2574.76)" xlink:href="#f10c059e-03b6-4468-93ee-ef3eedbebaa2"/><linearGradient id="bae8e39e-5ec6-47de-ac51-f369b2286e05" x1="966.15" y1="2043.53" x2="1054.85" y2="2105.62" gradientTransform="matrix(1, 0, 0, 1, 0, 0)" xlink:href="#b10d7893-af16-440f-b7bb-45f1b1c16bab"/></defs><title>img-panel-noticias</title><g style="isolation:isolate"><g id="bd215539-2200-480e-8818-31f8cd930962" data-name="Capa 2"><g id="b503970e-ce14-421c-81df-a58781798cfd" data-name="Illustration"><circle cx="1456.74" cy="1456.74" r="1456.74" fill="#f4f7fa"/><path d="M1980.86,2453c-39.29-25.85,55.89-258.33,141.71-412.06,70.48-126.25,153.41-233,177.36-220.66,18.33,9.44-4.64,85.18,12,91.22,22.28,8.09,69.14-125.83,114.68-121.34,28.06,2.78,52.31,57.77,53.21,108.31,1.64,91.19-73,151.58-235.32,310C2036.45,2411.36,2001.08,2466.26,1980.86,2453Z" fill="url(#a39bcf1b-50de-4505-a64c-3a387e4c6a42)"/><path d="M2047.84,2302.72c21.88-65.58,20-107.42,59.8-149.82,34.77-37,56.24-26.46,97.24-69.27,46.44-48.49,30.2-73.87,69.11-111.43,54-52.14,106-23.15,151.78-70,14.47-14.81,29.4-38.31,36.69-77.69,10.2,20.66,16.88,47.87,17.34,73.93,1.64,91.19-73,151.58-235.32,310-208,203-243.4,257.87-263.62,244.56-3.08-2-5.32-5.31-6.82-9.72C2013.46,2389.61,2035.1,2340.89,2047.84,2302.72Z" fill="#fff" opacity="0.3" style="mix-blend-mode:soft-light"/><path d="M1905.69,2571.92c83.93-187.56,179-321.66,250.43-409,160.59-196.56,238.76-202.76,273.06-200.14,45.7,3.49,104.39,29.58,113.41,73.36,16.89,81.91-147.54,189.51-129.59,220.44,9.29,16,54.72-10.4,73.06,10.56,25.08,28.65-23.56,119.53-36.65,141.44C2348.28,2577.91,2013.59,2575.78,1905.69,2571.92Z" fill="url(#b254cfb8-6b08-43d5-885d-3924c00bd4e5)"/><path d="M2067.52,2428.55c75.29-48.27,97.78-43.44,138.21-88.1,74.54-82.35,47.24-153.15,116.32-205.93,49.25-37.63,77.89-12.92,147-52.7a291.64,291.64,0,0,0,70-56.94,58.77,58.77,0,0,1,3.55,11.24c16.89,81.91-147.54,189.51-129.59,220.44,9.29,16,54.72-10.4,73.06,10.56,25.08,28.65-23.56,119.53-36.65,141.44-101.13,169.35-435.82,167.22-543.72,163.36,1.53-3.42,3.07-6.79,4.61-10.17C1970.46,2496.66,2026,2455.17,2067.52,2428.55Z" fill="#fff" opacity="0.5" style="mix-blend-mode:soft-light"/><path d="M1330.94,1426.43c-38.22,9.86-81.33-2.28-108.5-33.83L839.32,947.73c-34.88-40.51-30.24-100.8,10.54-135,41.06-34.43,122.07-36.24,157.62,4.6L1398,1266c36.82,42.3,31,103.63-12.79,136.68C1374.39,1410.79,1343.55,1423.18,1330.94,1426.43Z" fill="url(#f10c059e-03b6-4468-93ee-ef3eedbebaa2)"/><path d="M849.86,812.73c41.06-34.43,122.07-36.24,157.62,4.6l357,410.22c-36.49,2.37-76.09,16.2-125.33-4.82-82-35-74.08-116.81-145.43-164-32.61-21.59-85.35-38.28-175.28-19l-79.16-91.93C804.44,907.22,809.08,846.93,849.86,812.73Z" opacity="0.3" fill="url(#a424ce69-b2e9-4f9e-bc45-3dc21db04d80)" style="mix-blend-mode:multiply"/><path d="M687.29,752.79a43.85,43.85,0,0,1,5.61-1.41L825,706.52,937.85,1051.2l-128.58,40.16a42.62,42.62,0,0,1-9.62,4.56c-45.43,14.88-107.42-49.87-138.44-144.63S641.86,767.67,687.29,752.79Z" fill="url(#a4243b33-ab49-4ab6-956e-895d90a536dc)"/><path d="M825,706.52C812.36,837.73,849.81,952.1,937.85,1051.2l1089.89-5.86L1721.14,74.6Z" fill="url(#f96ce089-ea78-45c2-ba24-50dfb36b44f6)"/><path d="M1668.43,848.14c-105.38-4.82-179-131.3-289.4-100.23-86.59,24.38-85.16,115.73-171.78,134.19C1118.59,901,1074,813.35,967.37,812.21c-48.47-.52-93.2,17.16-133.4,44.17q24.75,105.74,103.88,194.82l1089.89-5.86L1861.85,736C1783.19,824.53,1719.53,850.48,1668.43,848.14Z" opacity="0.3" fill="url(#b1b53a6b-1603-4b2f-a167-d28ab3027c8e)" style="mix-blend-mode:multiply"/><ellipse cx="1915.91" cy="542.16" rx="252.39" ry="526.39" transform="translate(-73.59 623.14) rotate(-18.13)" fill="url(#e9e08c6a-4993-46f0-99e5-a53631e24c10)"/><path d="M2074.16,1025.44c28.12-9.21,51.9-30.06,70.66-62C2163.91,931,2177,888.79,2183.64,838c14-106.72-1.9-237.71-44.84-368.85s-107.58-246.17-182-323.93c-35.41-37-70.91-63.29-105.51-78.18-34-14.63-65.5-17.38-93.62-8.17s-51.9,30.05-70.66,62c-19.09,32.47-32.15,74.68-38.82,125.45-5.86,44.62-6.49,93.49-2.1,144.84,6.12,71.45,73.91,125.93,98.9,202.23,26.57,81.14,9.48,177.89,49.85,241.68,24.87,39.32,51.82,74.38,80.2,104,35.41,37,70.91,63.29,105.51,78.18C2014.54,1031.9,2046,1034.65,2074.16,1025.44Z" fill="url(#f2674df0-4227-4cfa-bcc2-ff9cc91ef960)"/><g clip-path="url(#b66ea992-be1b-485c-9bb0-88e3482983e7)"><path d="M1937.8,542.26C1979.3,669,1928.33,797.11,1825.43,828c-101.31,30.37-215-45.23-255.35-168.44s7-250.18,107.18-284C1779,341.07,1896.3,415.52,1937.8,542.26Z" fill="url(#fc37f3ce-4a0b-42fe-97d8-b2a109da10c8)"/><path d="M1921,545.48c30.82,94.11,14.4,182.23-36,196.61-49.57,14.15-113.49-48.7-143.45-140.2s-15.3-179.06,33.43-195.81C1824.51,389.06,1890.18,451.36,1921,545.48Z" opacity="0.3" fill="url(#ae96b424-b1e5-4180-8211-bce3466b2185)" style="mix-blend-mode:multiply"/></g><path d="M1995.28,527l313.54-88.65c25.57-7.22,52,3.4,58.68,23.82h0c6.69,20.43-9,42.48-34.77,49.18L2017,593.42c-21,5.46-42.66-4.86-48.59-23h0C1962.51,552.32,1974.41,532.9,1995.28,527Z" opacity="0.3" fill="url(#bbdf0552-1aea-498c-9c45-c11945329c44)"/><path d="M1922.12,346l357-123.49c29.91-10.36,61.59,2.5,70.23,28.88h0c8.64,26.39-9.27,55.58-39.48,65L1949.4,429.31c-23.35,7.31-48-5.22-55.43-27.88h0C1886.55,378.77,1899,354,1922.12,346Z" fill="url(#ae8bd389-f3ff-4248-b7ab-71757b073e61)"/><path d="M2087.58,446.5l295.87-87c24.05-7.07,49.07,3.21,55.57,23.05h0c6.5,19.84-8.12,41.32-32.35,47.89l-297.91,80.75c-19.88,5.39-40.5-4.61-46.28-22.27h0C2056.7,471.28,2067.83,452.31,2087.58,446.5Z" fill="url(#bc6f6e1f-8712-48fc-9021-7f5b164640e1)"/><path d="M2363.15,246.28c8.67,26.5,39.23,40.64,68.75,31.43,30.11-9.4,47.67-39.41,38.68-66.86s-40.86-41.16-70.66-30.8C2370.71,190.21,2354.47,219.79,2363.15,246.28Z" fill="url(#ea2dad9a-53b3-47c4-8952-002fe4c3ae07)"/><path d="M2000.55,620.56l378.91-92.48c31.82-7.76,65.18,7.56,74,34.37h0c8.78,26.8-10.6,54.18-42.72,61L2028.2,705c-24.72,5.27-50.57-9.14-58.09-32.11h0C1962.59,649.93,1976.05,626.54,2000.55,620.56Z" fill="url(#f17c79fa-044b-43fb-bdf0-1e90e3c80a0e)"/><path d="M2353.19,585.75c6.58,20.11,31.46,32.19,55.89,26.9,24.79-5.37,39.68-26.53,32.91-47.19s-32.47-32.54-57.08-26.63C2360.66,544.66,2346.6,565.63,2353.19,585.75Z" fill="#f4f7fa" style="mix-blend-mode:soft-light"/><path d="M2833.41,2578.51,109.05,2554.78V2625c0,19.06,11.88,35.26,28,38.15l770.37,138.24a105.85,105.85,0,0,0,27.64,1.3L2803.8,2645.05c16.68-1.41,29.61-17.66,29.61-37.24Z" fill="url(#bd8fd949-1604-4740-8914-b4a447e7f840)"/><path d="M1956.4,2464.7,139,2593.13c-32.52,2.3-59-22.12-59-54.55V1239.38a58.87,58.87,0,0,1,59-58.72H1956.4c26.79,0,48.45,23.76,48.45,53.08V2408.2C2004.85,2437.51,1983.19,2462.81,1956.4,2464.7Z" fill="url(#fe427727-9bec-494f-acb5-871d80bc36c3)"/><path d="M1985.38,2464.7,168,2593.13c-32.52,2.3-59-22.12-59-54.55V1239.38a58.87,58.87,0,0,1,59-58.72H1985.38c26.79,0,48.45,23.76,48.45,53.08V2408.2C2033.83,2437.51,2012.17,2462.81,1985.38,2464.7Z" fill="url(#a72c9254-2087-4dd8-8568-b7328815aab4)"/><path d="M1928.76,2381.9,236.07,2493.46c-26.46,1.74-48-18.3-48-44.77V1311.23a48.21,48.21,0,0,1,48-48.13l1692.69-7c22.1-.09,40,19.38,40,43.5v1036C1968.74,2359.72,1950.86,2380.44,1928.76,2381.9Z" fill="#fff"/><path d="M1140.88,1216.2c0,12.07-9.36,21.88-20.91,21.92s-21-9.75-21-21.85,9.39-21.91,21-21.92S1140.88,1204.12,1140.88,1216.2Z" fill="#fff"/><path d="M1940,2458.87l-1831,135.19,798.34,143.27a106.28,106.28,0,0,0,27.64,1.3l1898.38-160.12-864.25-118.72A139.84,139.84,0,0,0,1940,2458.87Z" fill="url(#e420c220-e86b-45a5-9ac4-dc62e1f94d7a)"/><polygon points="376.22 2597.46 1900.57 2483.24 2372.34 2547.52 861.12 2669.62 376.22 2597.46" opacity="0.3" fill="url(#e156d808-6e80-45a0-928d-9066c3ad0ae3)" style="mix-blend-mode:multiply"/><path d="M1969,1476,187.89,1498.15V1296.94a40.85,40.85,0,0,1,40.85-40.85H1928.1a40.85,40.85,0,0,1,40.85,40.85Z" fill="url(#a1bd54f7-927f-4374-aba1-e5c2c134c92b)"/><polygon points="1304.51 2015.05 297.54 2056.65 297.54 1580.99 1304.51 1564.1 1304.51 2015.05" fill="#d8dee8"/><polygon points="1877.45 1991.37 1363.9 2012.59 1363.9 1563.11 1877.45 1554.49 1877.45 1991.37" fill="#d8dee8"/><polygon points="1877.45 2315.66 297.54 2409.72 297.54 2118.77 1877.45 2048.42 1877.45 2315.66" fill="#d8dee8"/><path d="M315.59,1368.54c0,12.66-11,23-24.65,23.1s-24.71-10.12-24.71-22.81,11.07-23,24.71-23.11S315.59,1355.87,315.59,1368.54Z" fill="url(#e3fc8237-6abc-4b70-9655-d187db74b352)"/><path d="M404.74,1368c0,12.38-10.93,22.49-24.42,22.58s-24.49-9.89-24.49-22.3,11-22.52,24.49-22.58S404.74,1355.64,404.74,1368Z" fill="url(#b8157b9d-f998-4101-8806-7836c290379f)"/><path d="M493.07,1367.51c0,12.32-10.83,22.38-24.2,22.48s-24.26-9.85-24.26-22.2,10.87-22.42,24.26-22.48S493.07,1355.19,493.07,1367.51Z" fill="url(#e41420fe-eac8-416f-a328-16701d627d7a)"/><path d="M1547.51,2108.37c-140.1-75.38-250.26,20.14-356.58-74.1-64.45-57.14-32.81-99.75-112.12-185.13-87.84-94.57-145-62.78-233.31-147.9-111.62-107.62-55.8-191.35-152-268.61-116.64-93.74-242.43-7-353.47-96.88-47.89-38.77-74.17-95.14-87.89-155.09H143.55a34.49,34.49,0,0,0-34.5,34.47V2561.86c0,19,15.46,33.37,34.5,32l1852.19-131.47c9.09-.65,17.15-6,22.32-13.65-135.58-4.94-218.88-50.39-272.12-97.38C1641.77,2259.46,1659.84,2168.81,1547.51,2108.37Z" fill="#fff" opacity="0.48" style="mix-blend-mode:soft-light"/><path d="M2704.05,1438.38l-202.73,331.68-618.45-7-274.29,530.66-708.13,24.78L533,2884.74a38.89,38.89,0,0,1-29.36,17.58l-48,4c-21.78,3.43-68.3-3.2-61.2-24.07l248.88-563.06L848,2227.66l688.45-26.33,260.5-521.7,632.62-7,212-322.08Z" fill="url(#e8363862-cc38-4742-a550-8921f9fa6159)"/><polygon points="2326.93 1460.68 2213.26 1408.42 2339.95 1382.62 2326.93 1460.68" fill="url(#b34f5fe7-fe0b-4fa2-947b-0f528ffa5ee4)"/><polygon points="2759.99 1350.57 2819.46 1438.38 2687.5 1438.38 2642.9 1382.62 2759.99 1350.57" fill="url(#a10038a4-1ee8-424b-af5c-07ee501507e0)"/><polygon points="2833.41 1046.18 2778.28 1005.33 2754.41 1336.16 2778.28 1378.68 2819.46 1438.38 2833.41 1046.18" fill="url(#a544b9ec-5243-43c7-9ab7-e32cc286c428)"/><polygon points="1284.1 2163.09 1569.64 2241.11 1843.93 1710.45 1558.39 1632.42 1284.1 2163.09" fill="url(#f345985d-3320-467f-a825-6d44a3ab03f1)"/><path d="M189.51,2844.77l213.75,58.41a53.85,53.85,0,0,0,59.36-22.63l398.89-614.66-285.54-78L174.77,2806.1A25.62,25.62,0,0,0,189.51,2844.77Z" fill="url(#e80ac13e-0f82-44d5-acab-d249150d88bd)"/><polygon points="575.97 2187.87 861.5 2265.89 1569.64 2241.11 1284.1 2163.09 575.97 2187.87" fill="url(#a56cdada-4b47-4b46-822e-16761419666d)"/><polygon points="1558.39 1632.42 1843.93 1710.45 2462.38 1717.42 2176.84 1639.4 1558.39 1632.42" fill="url(#e032e36e-50df-4ec1-801d-931531526d96)"/><polygon points="2213.26 1408.42 2321.5 1402.72 2176.84 1639.4 2462.38 1717.42 2665.8 1384.6 2778.28 1378.68 2778.28 1005.33 2213.26 1408.42" fill="url(#e4e6c1f5-8c38-42d6-89cd-33cc8d4342b9)"/><g opacity="0.3" style="mix-blend-mode:multiply"><path d="M1383.76,2143.85c82.06-65.87,156.51-25.79,209-79.62,44.88-46-1.57-83.53,49.76-197,41.8-92.44,103.09-135,115.44-143.31a294.32,294.32,0,0,1,44.78-24.68l-244.34-66.76L1284.1,2163.09l63.69,17.4A220.69,220.69,0,0,1,1383.76,2143.85Z" fill="url(#a237f2fc-2ac3-4113-a661-b084ff4ec913)"/></g><path d="M1879.37,1646.24c-52.22,3.57-61.59,5.54-61.7,8-.34,7.32,83.51,21.65,169.18,23.88,76.24,2,89.56-7.29,171.18-2,53.11,3.45,88.7,10.05,89.57,6,1.05-4.89-48.34-22.93-101.51-33.84C2073.67,1633.39,2007.92,1637.47,1879.37,1646.24Z" opacity="0.3" fill="url(#bc510e9c-7bf3-4fa8-85f2-00d3f7eedbf7)" style="mix-blend-mode:multiply"/><path d="M428.35,2579.75c44.17-72,60.46-145.46,137.34-181.13,58.88-27.31,98.94-7.27,151.27-41.8,40.75-26.88,62.83-69.63,75.36-109.83L576,2187.87l-385.3,593.72C323.69,2717.09,391.12,2640.49,428.35,2579.75Z" opacity="0.3" fill="url(#a273b792-00e2-4916-b3e7-c36e53986106)" style="mix-blend-mode:multiply"/><path d="M1108.7,1737.56c24.21-7.07,56.58,37.39,83.48,74.35,40.25,55.29,87.27,119.9,74.6,197.48-12.46,76.32-77.9,135.76-96.54,127.26-16-7.27,14.71-58.61-8.78-127.26-19-55.4-50.37-55.42-71.43-109.74C1063.89,1832.24,1078.91,1746.26,1108.7,1737.56Z" fill="url(#b06d5881-db9b-4443-a33d-7e6a895b71c0)"/><path d="M1120.68,2089.11c124.71,30.28,206.86,78.88,254.83,113.26,26,18.64,38,30.26,44.5,47.19,36.94,96.53-152.86,242.48-173.09,257.76l-26.5-61.8c19.61-107.65,52.26-141.42,79.59-151.46,7.64-2.81,20.47-5.82,20.22-9.44-.59-8.55-72.68,3.64-141.57-21.57-68.7-25.14-137.72-88.74-125.39-130.79C1055.52,2124.59,1064.94,2102.4,1120.68,2089.11Z" fill="url(#bad487e5-9242-4666-91ae-a80678596704)"/><path d="M1241.61,2794.66S1230,2798.79,1230,2808s11.76,49.63,24.58,64,14-7.07,13.17-20.88-4.15-44.72-7.32-50.7S1241.61,2794.66,1241.61,2794.66Z" fill="url(#fbc69335-f105-4587-b37b-415d01a92463)"/><path d="M1278.89,2230.24c22.65-.45,75.75-4.67,89.88,21.57,11.8,21.9-8.86,55.09-21.57,75.51-34.54,55.5-68.07,61.18-91.69,95.28-9.14,13.2-17.42,31.63-20.06,58l-15-35.06c19.61-107.65,52.26-141.42,79.59-151.46,7.64-2.81,20.47-5.82,20.22-9.44-.59-8.55-72.68,3.64-141.57-21.57-62.62-22.92-125.3-77.75-126.6-119.12C1151.22,2215.05,1225.86,2231.28,1278.89,2230.24Z" opacity="0.3" fill="url(#bdc0d4e3-355e-4e19-9202-935ffba3ab78)" style="mix-blend-mode:multiply"/><path d="M1234.9,2755.65c.69,14.15,1.89,26,3,34.76,2.4,19.43,4.6,27.12,7.62,34.12,2.63,6.11,9.2,19.42,12.34,18.5s-.09-15.69-2.57-56.71c-.37-6-1.46-24.91-1.46-24.91h0Z" fill="url(#b10d7893-af16-440f-b7bb-45f1b1c16bab)"/><path d="M1048.77,2097.21a560.43,560.43,0,0,1,145.62,125.84c32,39.27,80.71,99,98.34,188.06,9.4,47.47,4.77,90.06-4.86,173.29a1742.84,1742.84,0,0,1-34,195.92l-16.57,6.66c-14.8-27.19-34.16-70.24-41.1-125.28-11.36-90.06,22.33-118.67,6.16-182.54-14-55.32-54.59-89.25-135.77-157.09-66.69-55.74-128.19-88.82-151-158.35-3.87-11.8-7.17-26.29-.85-39.55C928.33,2095.59,980.44,2085.62,1048.77,2097.21Z" fill="url(#fcba446d-e563-4a0c-8d1d-6f5c1c5b7ce0)"/><path d="M991.41,1742.71c18.66-4,49.33-3.21,78.57-26.24,8.8-6.93,40-31.49,36.2-66.63-3.33-30.93-32.65-47.56-36.25-49.54-20.76-11.42-41.45-8.88-64.39-5.74-29.76,4.07-39.65,12.19-60.32,17.77-51.16,13.79-68.46-15-120-12.56-65.83,3.1-71.52,51.72-126.91,52.93-62.17,1.36-74.09-59.49-135.47-69.8-85.21-14.31-214.13,77.42-211.54,183.16,1.5,61.07,47,131.06,105.07,152.08,33.86,12.24,70.39,8.35,80.82,30.37,7.42,15.67-9.26,27.74-7.69,55,2,35.2,32.33,59.9,37.23,63.89,45.42,37,147.26,18.32,216.81-34.07C909,1938.89,890,1764.53,991.41,1742.71Z" fill="url(#b857337f-fa34-450b-975d-f92f6927ed67)"/><path d="M847.36,1730.16a1331.69,1331.69,0,0,1,145.1-9.9c114.4-1.56,130.77,13,135,23.69,7.82,20-5.57,30,2,65,4.55,20.87.25,30.38,9,52.8,8.56,21.85,1.84,33.6-5.73,84.84-9.68,65.53-14.14,98.83,4.19,125.24,12.74,18.36,27,19.91,25.64,28.63-2.9,18.57-67.12,8.33-148.42,44-23.54,10.32-45.21,23-63.38,33.7-42.54,25-50.41,34.53-70.11,45.85-62.3,35.78-155.89,39.23-204.94-4-18.29-16.13-31.62-39.85-25.62-48.54,8.17-11.82,44.69,15,78.2-1.35,22.2-10.85,18-28.4,43.65-49.09,30.89-24.89,52.37-11.85,73.4-28,32.8-25.27,17.88-85.76,8.67-187.19A1693.5,1693.5,0,0,1,847.36,1730.16Z" fill="url(#ed9f91c7-08e1-4488-8014-4ec92bc60666)"/><path d="M971.16,1706.59c-15.6,9.68-40.82,22.33-43.6,25.77s76.41,17,125.68-7.88c0,0,7.64-4.24-22.07-10.18-6.32-1.27-5.09-13.58-4.24-26.31l-5.94-11S986.76,1696.91,971.16,1706.59Z" fill="url(#b655e26e-4353-4553-8fae-1012fbae8486)"/><path d="M1010.52,1669.46s-6.12,26,16.75,38.8c20.47,11.49,55.11-35.62,48.64-53.12-2.15-5.84-9.86-13.35-17.92-15.87-5.67-1.77-27.11-1.09-36.3,17-2.4-5.28-6.71-8-9.6-7.18-3.68,1.09-4.22,7.78-4.34,9.29A18.7,18.7,0,0,0,1010.52,1669.46Z" fill="url(#e738e44c-eed5-4f30-986c-59ac6325b70a)"/><path d="M1046,2085.68c-23.56,9.76-26.74,30.86-59.31,42.83-31.07,11.42-41.5-2.89-72.49,6.59-46.55,14.24-64.35,59.16-71.39,54.92-6.46-3.88-.27-46.85,29.65-74.69,34.36-32,71.37-17.33,93.36-50.52,8.56-12.91,15.15-33.55,7.69-49.42-10.11-21.52-36.53-14.06-50.52-31.86-25.15-32,33.7-89.64,17.57-138.39-6.44-19.45-26.93-43.84-93-60.16.9,48.87,3.71,89.7,6.53,120.71,9.21,101.43,24.13,161.92-8.67,187.19-21,16.19-42.51,3.15-73.4,28-25.66,20.69-21.45,38.24-43.65,49.09-33.51,16.38-70-10.47-78.2,1.35-6,8.69,7.33,32.4,25.62,48.54,49,43.28,142.64,39.83,204.94,4,19.7-11.32,27.57-20.87,70.11-45.85,18.17-10.66,39.84-23.38,63.38-33.7,57.06-25,105.67-27.45,130.61-33.09C1095.26,2078.3,1065.1,2077.75,1046,2085.68Z" opacity="0.3" fill="url(#facc5981-e12e-4375-9edd-3f1906e75478)" style="mix-blend-mode:multiply"/><path d="M1273.35,2118.82l-298.87,14.54a12.57,12.57,0,0,0-10,5.9l-8.27,13.27a9.72,9.72,0,0,0,8.61,14.84l316.57-12.06Z" fill="url(#b7f70a60-607e-400e-b382-bd3338f5c96f)"/><path d="M1547.72,1953.71l-308.77,6a25.89,25.89,0,0,0-22,13.1L1110,2160.9l326.1-13a26.53,26.53,0,0,0,21.71-12.89l99.07-165.5A10.45,10.45,0,0,0,1547.72,1953.71Z" fill="url(#ed5f240f-39cc-4bb8-9fe7-27cb7aa454eb)"/><path d="M1216.93,1972.79a25.92,25.92,0,0,1,22-13.1l6.77-.13c1,10,4.07,19.08,10.16,26.44,19,23,50.68,8.81,74.25,33.13,25.9,26.71,2,58.52,25.13,83.38,24.37,26.17,63.78,4.86,109.09,21.61l-6.53,10.9a26.53,26.53,0,0,1-21.71,12.89l-326.1,13Z" opacity="0.3" fill="url(#e0218e07-de6b-487f-aa12-e16cf90317f8)" style="mix-blend-mode:multiply"/><path d="M1023.44,2119l10.11-26.69c-37.22-10.2-88.7-25.28-141.5-44.14-13-4.67-17.83-10.69-21.31-15.32-27.08-35.9,41.82-99.24,40.58-181.43-.85-57-35.39-122.13-65.82-122.87-61.87-1.5-198.26,261-83.38,373C819.13,2157.15,925.66,2163.6,1023.44,2119Z" fill="url(#bd27f0c4-bfa5-4552-8f8f-f0fa82e2c1de)"/><path d="M1033.55,2092.29c23.36-12.41,51.33.32,53.14,1.17a69.86,69.86,0,0,1,20.15,14.45c.86,1.17,11,15.21,7.3,19.71-3,3.61-14.42.62-28.2-7.95a107.39,107.39,0,0,0-24.67-.61c-18.91,1.75-27.57,7.72-34.44,2.57-5-3.78-6.74-11.76-4.93-17.7C1023.84,2097.56,1029.59,2094.4,1033.55,2092.29Z" fill="url(#bae8e39e-5ec6-47de-ac51-f369b2286e05)"/></g></g></g></svg>