<?xml version="1.0" encoding="utf-8"?>
<!-- Generator: Adobe Illustrator 27.0.0, SVG Export Plug-In . SVG Version: 6.00 Build 0)  -->
<svg version="1.1" id="Capa_1" xmlns="http://www.w3.org/2000/svg" xmlns:xlink="http://www.w3.org/1999/xlink" x="0px" y="0px"
	 viewBox="0 0 190 54" style="enable-background:new 0 0 190 54;" xml:space="preserve">
<style type="text/css">
	.st0{fill:#ffffff;}
	.st1{fill:#FF1212;}
</style>
<g>
	<polygon class="st0" points="61.06,22.03 60.54,25.93 62.12,25.93 62.13,26.1 59.47,45.23 64.31,45.23 67.54,22.03 	"/>
	<path class="st0" d="M141.09,29.2c0.17,0.65,0.25,1.2,0.25,1.74c0,0.5-0.06,1.01-0.21,1.76l-1.99,7.71L137,28.59l-4.25,0.65
		l0.57,2.59l-4.56,8.83l0.06-0.66c0.09-1.09,0.14-2.22,0.14-3.46c0-2.65-0.22-5.2-0.71-8.02l-4.44,0.69
		c0.63,4.5,1.06,8.98,1.09,16.09h5.28l4.31-7.93L136,45.3h5.46l3.44-10.2c0.68-1.74,0.97-3.01,0.97-4.23c0-0.83-0.13-1.61-0.32-2.52
		L141.09,29.2z"/>
	<path class="st0" d="M178.73,29.78c-0.65-0.77-1.7-1.15-3.2-1.15c-1.6,0-3.23,0.48-4.87,1.44l-0.24,0.14l1.42-8.17l-0.25,0.02
		l0.01-0.03h-6.11l-0.52,3.9h1.58l-3.28,18.6c2.06,0.48,4.43,0.77,6.38,0.77c7.24,0,8.33-2.99,9.01-6.91l0.68-3.87
		C179.72,32.27,179.53,30.72,178.73,29.78z M174.79,33.95l-0.78,4.53c-0.3,1.58-0.79,2.99-3.47,2.99c-0.69,0-1.32-0.03-1.93-0.11
		l-0.14-0.02l1.3-7.5l0.05-0.03c1.06-0.66,2.81-1.34,3.89-1.34c0.44,0,0.75,0.11,0.93,0.32C174.85,33.04,174.9,33.4,174.79,33.95z"
		/>
	<path class="st0" d="M148.57,32.9c-0.89,1.98-1.04,4.22-1.1,5.18c-0.17,2.56,0.29,4.45,1.38,5.62c1.28,1.38,3.23,1.56,4.96,1.56
		c2.65,0,5.68-0.91,6.24-1.09l-0.05-3.08c-0.57,0.12-2.64,0.51-5.6,0.64c-0.07,0-0.13,0-0.2,0c-0.89,0-1.58-0.27-2.04-0.79
		c-0.78-0.89-0.62-2.21-0.61-2.26l0.01-0.11l0.11,0c0.04,0,3.68-0.09,6.5-0.61c2.67-0.49,3.89-2.04,4.11-5.18
		c0.11-1.25-0.13-2.18-0.73-2.84c-1.1-1.2-3.31-1.37-5.54-1.37C152.3,28.57,149.87,29.99,148.57,32.9z M158.12,32.21
		c0.2,0.24,0.25,0.58,0.16,1.01c-0.24,1.11-0.48,2.26-2.15,2.45c-1.54,0.17-3.96,0.4-3.99,0.41l-0.16,0.02l0.02-0.16
		c0-0.04,0.43-4.18,3.49-4.18h1.09C157.16,31.75,157.79,31.81,158.12,32.21z"/>
	<path class="st0" d="M80.68,28.64c-4.54,0-7.29,2.59-7.32,2.61l-0.2,0.2l-0.17-2.82h-3.43l-2.17,16.6h4.39l1.42-10.19l0.04-0.03
		c0.98-0.78,3.45-2.6,5.07-2.6c0.47,0,0.79,0.11,1,0.34c0.33,0.36,0.34,0.97,0.25,1.9c-0.12,1.24-1.34,9.36-1.52,10.58h4.65
		c0.14-1.09,1.28-9.69,1.49-11.46c0.23-1.88-0.04-3.26-0.8-4.12C82.79,28.98,81.88,28.64,80.68,28.64z"/>
	<path class="st0" d="M90.79,36.25l0.23-0.4c0.01-0.01,0.71-1.27,1.03-3.67c0.23-1.7,1.22-9.01,1.37-10.15h-6.13l-0.52,3.9h1.61
		l-2.59,19.3h4.52l0.68-5.8l0.07-0.03c0.02-0.01,1.81-0.69,2.9-1.27l0.13-0.07l3.1,7.17h4.86c-0.51-1.08-3.05-6.49-3.39-7.29
		c-0.43-1-1.22-1.53-1.23-1.53l-0.17-0.11l0.18-0.11c0.05-0.03,4.48-2.81,5.41-7.55h-4.52c-0.14,0.68-1.11,4.18-7.14,7.4
		L90.79,36.25z"/>
	<path class="st0" d="M104.4,35.28c-0.04,0.33-0.09,0.68-0.14,1.02c-0.38,2.73-0.81,5.83,0.63,7.49c0.75,0.86,1.92,1.28,3.59,1.28
		c1.92,0,4.68-0.98,6.17-3.14l0.24-0.34v3h3.56l2.07-14.98c-0.72-0.16-4.59-0.97-8.42-0.97C107.75,28.64,104.95,31.06,104.4,35.28z
		 M108.35,38.76c0.35-3.59,0.83-5.51,1.53-6.06c0.96-0.74,2.12-0.85,3.23-0.85h2.64L115.73,32c0,0.04-0.51,4.25-0.76,5.54
		c-0.26,1.35-2.22,3.86-5.05,3.86c-0.44,0-0.94-0.05-1.25-0.39C108.33,40.63,108.24,39.96,108.35,38.76z"/>
	<g>
		<path class="st1" d="M11,51.7l6.42-20.79l0.1-0.02l16.79-4.39l-0.79,5.48l-0.14,0.01c-0.61,0.03-1.2,0.12-1.77,0.27
			c-4.82,1.23-7.74,6.15-6.51,10.97c0.75,2.94,2.9,5.29,5.76,6.29l0.13,0.05l-0.81,2.15H11z"/>
		<polygon class="st1" points="18.63,27.11 17.43,23.46 43.78,16.23 45.39,20.11 		"/>
		<path class="st1" d="M35.14,46.13c-0.43,0.11-0.87,0.17-1.31,0.17c-2.42,0-4.54-1.64-5.14-4c-0.35-1.37-0.14-2.8,0.58-4.02
			c0.72-1.22,1.88-2.08,3.25-2.43c0.43-0.11,0.87-0.17,1.31-0.17c2.42,0,4.54,1.64,5.14,4c0.35,1.37,0.14,2.8-0.58,4.02
			S36.52,45.78,35.14,46.13z"/>
		<path class="st1" d="M46.03,38.5l-1.19,10.62h-7.06l0.55-0.32c1.34-0.77,2.46-1.88,3.26-3.21c1.23-2.07,1.58-4.5,0.99-6.83
			c-0.7-2.73-2.67-5.01-5.27-6.1l-0.12-0.05l1.03-7.14l8.68-2.27l1.35,4.83l-5.33-0.01l-0.01,3.71l5.36,0.01l2.88,6.75H46.03z"/>
		<polygon class="st1" points="20.92,19.24 22.05,15.35 38.21,10.53 34.96,2.72 37.74,1.73 42.62,13.26 		"/>
	</g>
</g>
</svg>
