<svg width="452" height="222" viewBox="0 0 452 222" fill="none" xmlns="http://www.w3.org/2000/svg">
<path fill-rule="evenodd" clip-rule="evenodd" d="M225.775 13.9648C198.756 13.9648 172.002 19.2867 147.039 29.6265C122.076 39.9663 99.395 55.1216 80.2895 74.227C61.1841 93.3325 46.0288 116.014 35.689 140.977C25.3492 165.939 20.0273 192.694 20.0273 219.713H431.523C431.523 192.694 426.202 165.939 415.862 140.977C405.522 116.014 390.367 93.3325 371.261 74.227C352.156 55.1216 329.474 39.9663 304.512 29.6265C279.549 19.2867 252.795 13.9648 225.775 13.9648Z" fill="#8181CD" fill-opacity="0.149533"/>
<path fill-rule="evenodd" clip-rule="evenodd" d="M2.33594 219.713H449.215Z" fill="#4B5420"/>
<path d="M2.33594 219.713H449.215" stroke="#346288" stroke-width="4" stroke-linecap="round" stroke-linejoin="round"/>
<path fill-rule="evenodd" clip-rule="evenodd" d="M89.7645 134.362C89.7645 134.362 90.0901 137.895 91.2503 139.055C92.4105 140.215 95.943 140.541 95.943 140.541C95.943 140.541 92.4105 140.867 91.2503 142.027C90.0901 143.187 89.7645 146.719 89.7645 146.719C89.7645 146.719 89.4388 143.187 88.2786 142.027C87.1184 140.867 83.5859 140.541 83.5859 140.541C83.5859 140.541 87.1184 140.215 88.2786 139.055C89.4388 137.895 89.7645 134.362 89.7645 134.362Z" fill="white"/>
<path fill-rule="evenodd" clip-rule="evenodd" d="M369.74 154.303C369.74 154.303 370.023 157.369 371.03 158.376C372.037 159.383 375.103 159.666 375.103 159.666C375.103 159.666 372.037 159.948 371.03 160.955C370.023 161.962 369.74 165.029 369.74 165.029C369.74 165.029 369.457 161.962 368.45 160.955C367.443 159.948 364.377 159.666 364.377 159.666C364.377 159.666 367.443 159.383 368.45 158.376C369.457 157.369 369.74 154.303 369.74 154.303Z" fill="white"/>
<path fill-rule="evenodd" clip-rule="evenodd" d="M178.671 44.5967C178.671 44.5967 178.921 47.3131 179.814 48.2053C180.706 49.0974 183.422 49.3478 183.422 49.3478C183.422 49.3478 180.706 49.5982 179.814 50.4904C178.921 51.3826 178.671 54.099 178.671 54.099C178.671 54.099 178.421 51.3826 177.529 50.4904C176.636 49.5982 173.92 49.3478 173.92 49.3478C173.92 49.3478 176.636 49.0974 177.529 48.2053C178.421 47.3131 178.671 44.5967 178.671 44.5967Z" fill="white"/>
<path fill-rule="evenodd" clip-rule="evenodd" d="M48.3696 194.271C48.3696 194.271 48.7167 198.036 49.9535 199.273C51.1903 200.51 54.956 200.857 54.956 200.857C54.956 200.857 51.1903 201.204 49.9535 202.441C48.7167 203.678 48.3696 207.443 48.3696 207.443C48.3696 207.443 48.0224 203.678 46.7857 202.441C45.5489 201.204 41.7832 200.857 41.7832 200.857C41.7832 200.857 45.5489 200.51 46.7857 199.273C48.0224 198.036 48.3696 194.271 48.3696 194.271Z" fill="white"/>
<path d="M378.916 132.341C379.704 132.341 380.343 131.702 380.343 130.914C380.343 130.125 379.704 129.486 378.916 129.486C378.127 129.486 377.488 130.125 377.488 130.914C377.488 131.702 378.127 132.341 378.916 132.341Z" fill="white"/>
<path d="M213.541 48.9398C214.329 48.9398 214.968 48.3007 214.968 47.5124C214.968 46.724 214.329 46.085 213.541 46.085C212.752 46.085 212.113 46.724 212.113 47.5124C212.113 48.3007 212.752 48.9398 213.541 48.9398Z" fill="white"/>
<path d="M80.9958 194.943C81.7841 194.943 82.4232 194.304 82.4232 193.515C82.4232 192.727 81.7841 192.088 80.9958 192.088C80.2074 192.088 79.5684 192.727 79.5684 193.515C79.5684 194.304 80.2074 194.943 80.9958 194.943Z" fill="white"/>
<path d="M48.777 171.288C49.5654 171.288 50.2044 170.649 50.2044 169.861C50.2044 169.073 49.5654 168.434 48.777 168.434C47.9887 168.434 47.3496 169.073 47.3496 169.861C47.3496 170.649 47.9887 171.288 48.777 171.288Z" fill="white"/>
<path d="M98.5329 95.432C99.3212 95.432 99.9603 94.7929 99.9603 94.0046C99.9603 93.2162 99.3212 92.5771 98.5329 92.5771C97.7445 92.5771 97.1055 93.2162 97.1055 94.0046C97.1055 94.7929 97.7445 95.432 98.5329 95.432Z" fill="white"/>
<path d="M355.058 189.641C355.847 189.641 356.486 189.002 356.486 188.214C356.486 187.425 355.847 186.786 355.058 186.786C354.27 186.786 353.631 187.425 353.631 188.214C353.631 189.002 354.27 189.641 355.058 189.641Z" fill="white"/>
<path d="M362.806 102.366C363.595 102.366 364.234 101.726 364.234 100.938C364.234 100.15 363.595 99.5107 362.806 99.5107C362.018 99.5107 361.379 100.15 361.379 100.938C361.379 101.726 362.018 102.366 362.806 102.366Z" fill="white"/>
<path d="M412.97 206.77C413.759 206.77 414.398 206.131 414.398 205.342C414.398 204.554 413.759 203.915 412.97 203.915C412.182 203.915 411.543 204.554 411.543 205.342C411.543 206.131 412.182 206.77 412.97 206.77Z" fill="white"/>
<path d="M282.056 38.7435C282.845 38.7435 283.484 38.1044 283.484 37.3161C283.484 36.5277 282.845 35.8887 282.056 35.8887C281.268 35.8887 280.629 36.5277 280.629 37.3161C280.629 38.1044 281.268 38.7435 282.056 38.7435Z" fill="white"/>
<path fill-rule="evenodd" clip-rule="evenodd" d="M70.3918 44.7998C70.3918 44.7998 70.6422 47.5162 71.5344 48.4084C72.4265 49.3005 75.1429 49.551 75.1429 49.551C75.1429 49.551 72.4265 49.8014 71.5344 50.6935C70.6422 51.5857 70.3918 54.3021 70.3918 54.3021C70.3918 54.3021 70.1414 51.5857 69.2492 50.6935C68.357 49.8014 65.6406 49.551 65.6406 49.551C65.6406 49.551 68.357 49.3005 69.2492 48.4084C70.1414 47.5162 70.3918 44.7998 70.3918 44.7998Z" fill="white"/>
<path fill-rule="evenodd" clip-rule="evenodd" d="M437.644 140.845C437.644 140.845 438.088 145.66 439.67 147.241C441.251 148.822 446.066 149.266 446.066 149.266C446.066 149.266 441.251 149.71 439.67 151.292C438.088 152.873 437.644 157.688 437.644 157.688C437.644 157.688 437.2 152.873 435.619 151.292C434.038 149.71 429.223 149.266 429.223 149.266C429.223 149.266 434.038 148.822 435.619 147.241C437.2 145.66 437.644 140.845 437.644 140.845Z" fill="white"/>
<path fill-rule="evenodd" clip-rule="evenodd" d="M10.6451 122.084C10.6451 122.084 11.1535 127.598 12.9646 129.41C14.7758 131.221 20.2902 131.729 20.2902 131.729C20.2902 131.729 14.7758 132.237 12.9646 134.049C11.1535 135.86 10.6451 141.374 10.6451 141.374C10.6451 141.374 10.1368 135.86 8.32561 134.049C6.51445 132.237 1 131.729 1 131.729C1 131.729 6.51445 131.221 8.32561 129.41C10.1368 127.598 10.6451 122.084 10.6451 122.084Z" fill="white"/>
<path fill-rule="evenodd" clip-rule="evenodd" d="M344.658 28.0791C344.658 28.0791 344.919 30.9121 345.85 31.8426C346.78 32.773 349.613 33.0342 349.613 33.0342C349.613 33.0342 346.78 33.2953 345.85 34.2258C344.919 35.1562 344.658 37.9892 344.658 37.9892C344.658 37.9892 344.397 35.1562 343.467 34.2258C342.536 33.2953 339.703 33.0342 339.703 33.0342C339.703 33.0342 342.536 32.773 343.467 31.8426C344.397 30.9121 344.658 28.0791 344.658 28.0791Z" fill="white"/>
<path d="M179.691 2.85481C180.479 2.85481 181.118 2.21574 181.118 1.42741C181.118 0.639072 180.479 0 179.691 0C178.903 0 178.264 0.639072 178.264 1.42741C178.264 2.21574 178.903 2.85481 179.691 2.85481Z" fill="white"/>
<path d="M340 68H112V217.442H340V68Z" fill="white"/>
<path d="M340 68H112V75.879H340V68Z" fill="#EDEDED"/>
<path d="M115.94 73.2988C116.691 73.2988 117.3 72.69 117.3 71.9389C117.3 71.1879 116.691 70.5791 115.94 70.5791C115.189 70.5791 114.58 71.1879 114.58 71.9389C114.58 72.69 115.189 73.2988 115.94 73.2988Z" fill="#62D5E9"/>
<path d="M124.098 73.2988C124.849 73.2988 125.458 72.69 125.458 71.9389C125.458 71.1879 124.849 70.5791 124.098 70.5791C123.347 70.5791 122.738 71.1879 122.738 71.9389C122.738 72.69 123.347 73.2988 124.098 73.2988Z" fill="#FF8D72"/>
<path d="M120.016 73.2988C120.767 73.2988 121.376 72.69 121.376 71.9389C121.376 71.1879 120.767 70.5791 120.016 70.5791C119.265 70.5791 118.656 71.1879 118.656 71.9389C118.656 72.69 119.265 73.2988 120.016 73.2988Z" fill="#58F9A2"/>
<path d="M267.674 93.3623C268.19 93.3623 268.705 93.5582 269.097 93.9499C269.851 94.704 269.879 95.9161 269.181 96.7046L269.382 96.9055L269.433 96.8548C269.474 96.814 269.539 96.814 269.58 96.8548L271.597 98.8713C271.637 98.9121 271.637 98.9778 271.597 99.0186L271.32 99.2948C271.28 99.3356 271.214 99.3356 271.173 99.2948L269.157 97.2784C269.116 97.2376 269.116 97.1719 269.157 97.1311L269.207 97.0804L269.006 96.8795C268.218 97.577 267.006 97.549 266.252 96.795C265.468 96.0115 265.468 94.7334 266.252 93.9499C266.643 93.5582 267.159 93.3623 267.674 93.3623ZM267.674 93.8799C267.293 93.8799 266.912 94.026 266.62 94.3182C266.035 94.9027 266.035 95.8423 266.62 96.4267C267.204 97.0112 268.144 97.0112 268.728 96.4267C269.313 95.8422 269.313 94.9026 268.728 94.3182C268.436 94.026 268.055 93.8799 267.674 93.8799Z" fill="#58F9A2"/>
<path d="M263.337 93.4346H180.746V99.3285H263.337V93.4346Z" fill="white" stroke="#62D5E9" stroke-width="1.544" stroke-linecap="round"/>
<path d="M271.625 110.074H180.373V127.716H271.625V110.074Z" fill="#EDEDED"/>
<path fill-rule="evenodd" clip-rule="evenodd" d="M185.117 113.078V115.496H234.433V113.078H185.117Z" fill="#62D5E9"/>
<path fill-rule="evenodd" clip-rule="evenodd" d="M185.117 118.992V120.847H240.251V118.992H185.117Z" fill="#58F9A2"/>
<path fill-rule="evenodd" clip-rule="evenodd" d="M185.117 122.86V124.715H202.651V122.86H185.117Z" fill="#FF8D72"/>
<path d="M271.625 134.486H180.373V152.128H271.625V134.486Z" fill="#EDEDED"/>
<path fill-rule="evenodd" clip-rule="evenodd" d="M184.688 137.489V139.907H235.377V137.489H184.688Z" fill="#62D5E9"/>
<path fill-rule="evenodd" clip-rule="evenodd" d="M184.688 143.408V145.263H219.423V143.408H184.688Z" fill="#58F9A2"/>
<path fill-rule="evenodd" clip-rule="evenodd" d="M184.688 147.276V149.131H222.145V147.276H184.688Z" fill="#FF8D72"/>
<path d="M271.625 158.902H180.373V176.544H271.625V158.902Z" fill="#EDEDED"/>
<path fill-rule="evenodd" clip-rule="evenodd" d="M184.688 161.9V164.318H203.847V161.9H184.688Z" fill="#62D5E9"/>
<path fill-rule="evenodd" clip-rule="evenodd" d="M184.688 167.819V169.674H239.879V167.819H184.688Z" fill="#58F9A2"/>
<path d="M271.625 183.313H180.373V200.956H271.625V183.313Z" fill="#EDEDED"/>
<path fill-rule="evenodd" clip-rule="evenodd" d="M184.688 186.316V188.734H214.169V186.316H184.688Z" fill="#62D5E9"/>
<path fill-rule="evenodd" clip-rule="evenodd" d="M184.688 192.23V194.085H225.617V192.23H184.688Z" fill="#58F9A2"/>
<path fill-rule="evenodd" clip-rule="evenodd" d="M184.688 196.1V197.954H231.153V196.1H184.688Z" fill="#FF8D72"/>
<path fill-rule="evenodd" clip-rule="evenodd" d="M184.537 172.454V174.309H229.689V172.454H184.537Z" fill="#FF8D72"/>
</svg>
