<svg width="452" height="196" viewBox="0 0 452 196" fill="none" xmlns="http://www.w3.org/2000/svg">
<path d="M152.681 54.1162C153.928 54.1162 154.939 52.968 154.939 51.5515C154.939 50.1351 153.928 48.9868 152.681 48.9868C151.435 48.9868 150.424 50.1351 150.424 51.5515C150.424 52.968 151.435 54.1162 152.681 54.1162Z" fill="white"/>
<path d="M214.64 22.4854C215.887 22.4854 216.898 21.3371 216.898 19.9207C216.898 18.5042 215.887 17.356 214.64 17.356C213.394 17.356 212.383 18.5042 212.383 19.9207C212.383 21.3371 213.394 22.4854 214.64 22.4854Z" fill="white"/>
<path d="M381.707 127.353C382.4 127.353 382.962 126.715 382.962 125.928C382.962 125.141 382.4 124.503 381.707 124.503C381.015 124.503 380.453 125.141 380.453 125.928C380.453 126.715 381.015 127.353 381.707 127.353Z" fill="white"/>
<path d="M286.385 27.0445C287.078 27.0445 287.639 26.4066 287.639 25.6197C287.639 24.8327 287.078 24.1948 286.385 24.1948C285.692 24.1948 285.131 24.8327 285.131 25.6197C285.131 26.4066 285.692 27.0445 286.385 27.0445Z" fill="white"/>
<path d="M158.452 7.09675C159.144 7.09675 159.706 6.45883 159.706 5.67191C159.706 4.88499 159.144 4.24707 158.452 4.24707C157.759 4.24707 157.197 4.88499 157.197 5.67191C157.197 6.45883 157.759 7.09675 158.452 7.09675Z" fill="white"/>
<path d="M64.6332 149.011C65.3259 149.011 65.8874 148.373 65.8874 147.586C65.8874 146.799 65.3259 146.161 64.6332 146.161C63.9405 146.161 63.3789 146.799 63.3789 147.586C63.3789 148.373 63.9405 149.011 64.6332 149.011Z" fill="white"/>
<path d="M379.2 29.8941C379.892 29.8941 380.454 29.2562 380.454 28.4693C380.454 27.6824 379.892 27.0444 379.2 27.0444C378.507 27.0444 377.945 27.6824 377.945 28.4693C377.945 29.2562 378.507 29.8941 379.2 29.8941Z" fill="white"/>
<path d="M163.969 107.976C164.662 107.976 165.223 107.338 165.223 106.551C165.223 105.764 164.662 105.126 163.969 105.126C163.276 105.126 162.715 105.764 162.715 106.551C162.715 107.338 163.276 107.976 163.969 107.976Z" fill="white"/>
<path d="M102.825 13.6456C103.517 13.6456 104.079 13.0077 104.079 12.2207C104.079 11.4338 103.517 10.7959 102.825 10.7959C102.132 10.7959 101.57 11.4338 101.57 12.2207C101.57 13.0077 102.132 13.6456 102.825 13.6456Z" fill="white"/>
<path fill-rule="evenodd" clip-rule="evenodd" d="M115.061 40.0781L113.772 49.5593L121.661 52.9848L113.315 51.5212L110.299 60.4823L111.588 51.0011L103.699 47.5757L112.045 49.0392L115.061 40.0781Z" fill="white"/>
<path fill-rule="evenodd" clip-rule="evenodd" d="M394.705 51.3763L393.613 58.3935L398.667 62.6139L392.49 61.3738L388.775 67.1154L389.867 60.0983L384.813 55.8778L390.99 57.118L394.705 51.3763Z" fill="white"/>
<path fill-rule="evenodd" clip-rule="evenodd" d="M245.306 3.33743L244.147 7.5918L247.049 10.586L243.304 9.26919L240.668 12.5659L241.827 8.31156L238.925 5.31738L242.67 6.63416L245.306 3.33743Z" fill="white"/>
<path fill-rule="evenodd" clip-rule="evenodd" d="M51.4263 170.697L45.48 174.14L47.1919 181.468L44.1611 174.713L37.7102 176.657L43.6566 173.214L41.9447 165.886L44.9754 172.641L51.4263 170.697Z" fill="white"/>
<path fill-rule="evenodd" clip-rule="evenodd" d="M396.72 145.551L394.177 148.986L395.925 153.01L392.902 150.121L389.359 152.108L391.902 148.673L390.153 144.648L393.177 147.537L396.72 145.551Z" fill="white"/>
<path fill-rule="evenodd" clip-rule="evenodd" d="M2 193.71H450Z" fill="#F6F7FC"/>
<path d="M2 193.71H450" stroke="#252F71" stroke-width="4" stroke-linecap="round" stroke-linejoin="round"/>
<path d="M126.237 81.2715H77.8419C75.7276 81.2715 74.0137 83.2186 74.0137 85.6204V189.361C74.0137 191.763 75.7276 193.71 77.8419 193.71H126.237C128.351 193.71 130.065 191.763 130.065 189.361V85.6204C130.065 83.2186 128.351 81.2715 126.237 81.2715Z" fill="#ABABD2"/>
<path d="M352.582 41.7515H184.035C180.793 41.7515 178.164 44.7376 178.164 48.4212V178.581C178.164 182.265 180.793 185.251 184.035 185.251H352.582C355.824 185.251 358.453 182.265 358.453 178.581V48.4212C358.453 44.7376 355.824 41.7515 352.582 41.7515Z" fill="#ABABD2" stroke="#252F71" stroke-width="4"/>
<path fill-rule="evenodd" clip-rule="evenodd" d="M158.617 176.146C158.617 176.146 159.158 180.984 161.972 186.254C165.727 193.284 171.162 193.71 171.162 193.71H268.308H365.454C365.454 193.71 370.888 193.284 374.643 186.254C377.457 180.984 377.998 176.146 377.998 176.146H268.308H158.617Z" fill="#ABABD2"/>
<path fill-rule="evenodd" clip-rule="evenodd" d="M242.316 176.146C242.316 179.651 244.801 182.473 247.886 182.473H288.73C291.816 182.473 294.3 179.651 294.3 176.146H242.316Z" fill="#C0D2E8"/>
<path fill-rule="evenodd" clip-rule="evenodd" d="M158.617 176.146C158.617 176.146 159.158 180.984 161.972 186.254C165.727 193.284 171.162 193.71 171.162 193.71H268.308H365.454C365.454 193.71 370.888 193.284 374.643 186.254C377.457 180.984 377.998 176.146 377.998 176.146H268.308H158.617Z" stroke="#252F71" stroke-width="4" stroke-linecap="round" stroke-linejoin="round"/>
<path d="M350.238 49.21H186.381C185.469 49.21 184.73 50.0493 184.73 51.0847V162.17C184.73 163.205 185.469 164.045 186.381 164.045H350.238C351.149 164.045 351.888 163.205 351.888 162.17V51.0847C351.888 50.0493 351.149 49.21 350.238 49.21Z" fill="#E0E3F6" stroke="#252F71" stroke-width="4"/>
<path d="M289.671 72.9829H211.695C210.214 72.9829 209.014 74.3468 209.014 76.0293V147.503C209.014 149.186 210.214 150.55 211.695 150.55H289.671C291.152 150.55 292.352 149.186 292.352 147.503V76.0293C292.352 74.3468 291.152 72.9829 289.671 72.9829Z" fill="#F6F7FC"/>
<path fill-rule="evenodd" clip-rule="evenodd" d="M211.695 72.9834C210.21 72.9834 209.014 74.3419 209.014 76.0297V79.0038H292.353V76.0297C292.353 74.3419 291.156 72.9834 289.67 72.9834H211.695Z" fill="#ABABD2"/>
<path d="M291.198 75.9934C291.198 75.0551 290.529 74.2944 289.703 74.2944C288.877 74.2944 288.207 75.0551 288.207 75.9934C288.207 76.9317 288.877 77.6924 289.703 77.6924C290.529 77.6924 291.198 76.9317 291.198 75.9934Z" fill="#E0E3F6"/>
<path d="M286.712 75.9934C286.712 75.0551 286.042 74.2944 285.216 74.2944C284.39 74.2944 283.721 75.0551 283.721 75.9934C283.721 76.9317 284.39 77.6924 285.216 77.6924C286.042 77.6924 286.712 76.9317 286.712 75.9934Z" fill="#C0D2E8"/>
<path d="M289.671 72.9829H211.695C210.214 72.9829 209.014 74.3468 209.014 76.0293V147.503C209.014 149.186 210.214 150.55 211.695 150.55H289.671C291.152 150.55 292.352 149.186 292.352 147.503V76.0293C292.352 74.3468 291.152 72.9829 289.671 72.9829Z" stroke="#ABABD2" stroke-width="2"/>
<path d="M217.678 127.353L230.88 113.931L244.082 123.045L257.284 104.983L270.486 107.303L283.689 93.5493" stroke="#ABABD2" stroke-width="2" stroke-linecap="round" stroke-linejoin="round"/>
<path d="M230.88 116.04C231.905 116.04 232.737 115.096 232.737 113.931C232.737 112.766 231.905 111.822 230.88 111.822C229.855 111.822 229.023 112.766 229.023 113.931C229.023 115.096 229.855 116.04 230.88 116.04Z" fill="#ABABD2"/>
<path d="M244.081 125.154C245.107 125.154 245.938 124.21 245.938 123.045C245.938 121.88 245.107 120.936 244.081 120.936C243.056 120.936 242.225 121.88 242.225 123.045C242.225 124.21 243.056 125.154 244.081 125.154Z" fill="#ABABD2"/>
<path d="M257.282 107.092C258.308 107.092 259.139 106.148 259.139 104.983C259.139 103.818 258.308 102.874 257.282 102.874C256.257 102.874 255.426 103.818 255.426 104.983C255.426 106.148 256.257 107.092 257.282 107.092Z" fill="#ABABD2"/>
<path d="M217.677 129.462C218.702 129.462 219.533 128.518 219.533 127.353C219.533 126.188 218.702 125.244 217.677 125.244C216.652 125.244 215.82 126.188 215.82 127.353C215.82 128.518 216.652 129.462 217.677 129.462Z" fill="#ABABD2"/>
<path d="M270.485 109.412C271.511 109.412 272.342 108.468 272.342 107.303C272.342 106.138 271.511 105.194 270.485 105.194C269.46 105.194 268.629 106.138 268.629 107.303C268.629 108.468 269.46 109.412 270.485 109.412Z" fill="#ABABD2"/>
<path d="M283.689 95.6586C284.714 95.6586 285.545 94.7143 285.545 93.5495C285.545 92.3847 284.714 91.4404 283.689 91.4404C282.663 91.4404 281.832 92.3847 281.832 93.5495C281.832 94.7143 282.663 95.6586 283.689 95.6586Z" fill="#ABABD2"/>
<path d="M219.5 134.347H215.854C215.552 134.347 215.307 134.625 215.307 134.968V143.75C215.307 144.094 215.552 144.372 215.854 144.372H219.5C219.802 144.372 220.047 144.094 220.047 143.75V134.968C220.047 134.625 219.802 134.347 219.5 134.347Z" fill="#ABABD2" stroke="#C0D2E8" stroke-width="2"/>
<path d="M232.195 127.109H229.563C229.047 127.109 228.629 127.585 228.629 128.171V143.174C228.629 143.76 229.047 144.235 229.563 144.235H232.195C232.711 144.235 233.129 143.76 233.129 143.174V128.171C233.129 127.585 232.711 127.109 232.195 127.109Z" fill="#ABABD2" stroke="#C0D2E8" stroke-width="2.54693"/>
<path d="M245.582 129.797H242.581C242.145 129.797 241.791 130.199 241.791 130.695V143.383C241.791 143.879 242.145 144.281 242.581 144.281H245.582C246.018 144.281 246.372 143.879 246.372 143.383V130.695C246.372 130.199 246.018 129.797 245.582 129.797Z" fill="#ABABD2" stroke="#C0D2E8" stroke-width="2.36314"/>
<path d="M258.627 127.517H255.94C255.436 127.517 255.027 127.981 255.027 128.553V143.205C255.027 143.777 255.436 144.242 255.94 144.242H258.627C259.131 144.242 259.539 143.777 259.539 143.205V128.553C259.539 127.981 259.131 127.517 258.627 127.517Z" fill="#ABABD2" stroke="#C0D2E8" stroke-width="2.52022"/>
<path d="M271.089 116.322H269.882C269.045 116.322 268.367 117.093 268.367 118.043V142.365C268.367 143.315 269.045 144.085 269.882 144.085H271.089C271.926 144.085 272.604 143.315 272.604 142.365V118.043C272.604 117.093 271.926 116.322 271.089 116.322Z" fill="#ABABD2" stroke="#C0D2E8" stroke-width="3.1465"/>
<path d="M283.82 108.948H283.553C282.497 108.948 281.641 109.921 281.641 111.121V141.831C281.641 143.031 282.497 144.004 283.553 144.004H283.82C284.877 144.004 285.733 143.031 285.733 141.831V111.121C285.733 109.921 284.877 108.948 283.82 108.948Z" fill="#ABABD2" stroke="#C0D2E8" stroke-width="3.47495"/>
<path fill-rule="evenodd" clip-rule="evenodd" d="M223.623 86.3882C219 86.3886 215.252 90.6471 215.252 95.8998C215.252 101.153 219 105.411 223.623 105.411C226.574 105.407 229.304 103.638 230.81 100.756L223.623 95.8998V86.3882Z" fill="#E0E3F6" stroke="#C0D2E8" stroke-width="2" stroke-linecap="round" stroke-linejoin="round"/>
<path fill-rule="evenodd" clip-rule="evenodd" d="M225.375 85.1772V94.6889L232.562 99.5447C233.334 98.0765 233.743 96.399 233.747 94.6889C233.747 93.4398 233.53 92.2029 233.11 91.0489C232.689 89.8949 232.072 88.8464 231.295 87.9631C230.517 87.0799 229.595 86.3793 228.579 85.9013C227.563 85.4233 226.474 85.1772 225.375 85.1772Z" fill="#E0E3F6" stroke="#C0D2E8" stroke-width="2" stroke-linecap="round" stroke-linejoin="round"/>
<path d="M345.144 54.001H304.609C303.213 54.001 302.082 55.2862 302.082 56.8717V67.0655C302.082 68.6509 303.213 69.9362 304.609 69.9362H345.144C346.539 69.9362 347.671 68.6509 347.671 67.0655V56.8717C347.671 55.2862 346.539 54.001 345.144 54.001Z" fill="#F6F7FC" stroke="#C0D2E8"/>
<path d="M306.161 56.9377C306.161 55.9994 305.491 55.2388 304.665 55.2388C303.84 55.2388 303.17 55.9994 303.17 56.9377C303.17 57.876 303.84 58.6367 304.665 58.6367C305.491 58.6367 306.161 57.876 306.161 56.9377Z" fill="#C0D2E8"/>
<path fill-rule="evenodd" clip-rule="evenodd" d="M309.922 61.9688H342.586Z" fill="#F6F7FC"/>
<path d="M309.922 61.9688H342.586" stroke="#C0D2E8" stroke-width="3" stroke-linecap="round" stroke-linejoin="round"/>
<path fill-rule="evenodd" clip-rule="evenodd" d="M309.922 58.1807H340.863Z" fill="#F6F7FC"/>
<path d="M309.922 58.1807H340.863" stroke="#C0D2E8" stroke-width="3" stroke-linecap="round" stroke-linejoin="round"/>
<path fill-rule="evenodd" clip-rule="evenodd" d="M309.922 65.7568H329.739Z" fill="#F6F7FC"/>
<path d="M309.922 65.7568H329.739" stroke="#C0D2E8" stroke-width="3" stroke-linecap="round" stroke-linejoin="round"/>
<path d="M130.065 87.2817H74.0137V184.878H130.065V87.2817Z" fill="#E0E3F6"/>
<path fill-rule="evenodd" clip-rule="evenodd" d="M74.0137 87.2817H130.065Z" fill="#E0E3F6"/>
<path d="M74.0137 87.2817H130.065" stroke="#252F71" stroke-width="4" stroke-linecap="round" stroke-linejoin="round"/>
<path d="M104.81 83.0171H99.2668C98.6545 83.0171 98.1582 83.5809 98.1582 84.2765C98.1582 84.972 98.6545 85.5359 99.2668 85.5359H104.81C105.422 85.5359 105.918 84.972 105.918 84.2765C105.918 83.5809 105.422 83.0171 104.81 83.0171Z" fill="#252F71"/>
<path d="M94.8332 85.5359C95.4455 85.5359 95.9418 84.972 95.9418 84.2765C95.9418 83.5809 95.4455 83.0171 94.8332 83.0171C94.2209 83.0171 93.7246 83.5809 93.7246 84.2765C93.7246 84.972 94.2209 85.5359 94.8332 85.5359Z" fill="#252F71"/>
<path d="M106.109 187.095H97.9692C97.4889 187.095 97.0996 187.537 97.0996 188.083V190.505C97.0996 191.051 97.4889 191.493 97.9692 191.493H106.109C106.589 191.493 106.978 191.051 106.978 190.505V188.083C106.978 187.537 106.589 187.095 106.109 187.095Z" fill="#252F71"/>
<path d="M126.237 81.2715H77.8419C75.7276 81.2715 74.0137 83.2186 74.0137 85.6204V189.361C74.0137 191.763 75.7276 193.71 77.8419 193.71H126.237C128.351 193.71 130.065 191.763 130.065 189.361V85.6204C130.065 83.2186 128.351 81.2715 126.237 81.2715Z" stroke="#252F71" stroke-width="4"/>
<path d="M268.309 47.0448C269.069 47.0448 269.685 46.3445 269.685 45.4807C269.685 44.6168 269.069 43.9165 268.309 43.9165C267.548 43.9165 266.932 44.6168 266.932 45.4807C266.932 46.3445 267.548 47.0448 268.309 47.0448Z" fill="#252F71"/>
<path d="M124.744 91.6147H79.335C78.5513 91.6147 77.916 92.3365 77.916 93.2268V127.482C77.916 128.372 78.5513 129.094 79.335 129.094H124.744C125.527 129.094 126.163 128.372 126.163 127.482V93.2268C126.163 92.3365 125.527 91.6147 124.744 91.6147Z" fill="#F6F7FC"/>
<path d="M125.499 133.125H78.5798C78.2132 133.125 77.916 133.462 77.916 133.879V149.901C77.916 150.318 78.2132 150.655 78.5798 150.655H125.499C125.866 150.655 126.163 150.318 126.163 149.901V133.879C126.163 133.462 125.866 133.125 125.499 133.125Z" fill="#F6F7FC"/>
<path d="M125.499 154.685H78.5798C78.2132 154.685 77.916 155.023 77.916 155.439V171.462C77.916 171.878 78.2132 172.216 78.5798 172.216H125.499C125.866 172.216 126.163 171.878 126.163 171.462V155.439C126.163 155.023 125.866 154.685 125.499 154.685Z" fill="#F6F7FC"/>
<path d="M80.5681 93.6299H79.6895V127.079H80.5681V93.6299Z" fill="#E0E3F6"/>
<path d="M93.0158 113.522H89.8117C89.6417 113.522 89.5039 113.679 89.5039 113.872V126.23C89.5039 126.424 89.6417 126.58 89.8117 126.58H93.0158C93.1858 126.58 93.3236 126.424 93.3236 126.23V113.872C93.3236 113.679 93.1858 113.522 93.0158 113.522Z" fill="#ABABD2"/>
<path d="M85.5902 111.456H82.4834C82.2865 111.456 82.127 111.637 82.127 111.861V126.175C82.127 126.399 82.2865 126.58 82.4834 126.58H85.5902C85.7871 126.58 85.9466 126.399 85.9466 126.175V111.861C85.9466 111.637 85.7871 111.456 85.5902 111.456Z" fill="#ABABD2"/>
<path d="M100.06 108.749H97.0804C96.8483 108.749 96.6602 108.963 96.6602 109.226V126.103C96.6602 126.367 96.8483 126.58 97.0804 126.58H100.06C100.292 126.58 100.48 126.367 100.48 126.103V109.226C100.48 108.963 100.292 108.749 100.06 108.749Z" fill="#ABABD2"/>
<path d="M107.738 112.168H104.597C104.41 112.168 104.258 112.341 104.258 112.554V126.194C104.258 126.407 104.41 126.58 104.597 126.58H107.738C107.925 126.58 108.078 126.407 108.078 126.194V112.554C108.078 112.341 107.925 112.168 107.738 112.168Z" fill="#ABABD2"/>
<path d="M115.032 108.734H112.053C111.821 108.734 111.633 108.948 111.633 109.212V126.102C111.633 126.366 111.821 126.58 112.053 126.58H115.032C115.264 126.58 115.453 126.366 115.453 126.102V109.212C115.453 108.948 115.264 108.734 115.032 108.734Z" fill="#ABABD2"/>
<path d="M122.255 102.186H119.585C119.267 102.186 119.01 102.478 119.01 102.839V125.927C119.01 126.288 119.267 126.58 119.585 126.58H122.255C122.572 126.58 122.829 126.288 122.829 125.927V102.839C122.829 102.478 122.572 102.186 122.255 102.186Z" fill="#ABABD2"/>
<path d="M124.389 127.079V126.081H79.6896V127.079H124.389Z" fill="#E0E3F6"/>
<path d="M81.3438 141.89H121.919" stroke="#E0E3F6" stroke-width="3" stroke-linejoin="round"/>
<path d="M81.4688 138.007H122.734" stroke="#E0E3F6" stroke-width="3" stroke-linejoin="round"/>
<path d="M81.3438 145.772C81.7827 145.772 100.471 145.772 100.471 145.772" stroke="#E0E3F6" stroke-width="3" stroke-linejoin="round"/>
<path d="M81.3438 163.451H105.334" stroke="#E0E3F6" stroke-width="3" stroke-linejoin="round"/>
<path d="M81.4707 159.568H116.439" stroke="#E0E3F6" stroke-width="3" stroke-linejoin="round"/>
<path d="M81.3438 167.333H111.114" stroke="#E0E3F6" stroke-width="3" stroke-linejoin="round"/>
<path fill-rule="evenodd" clip-rule="evenodd" d="M78.5802 176.246C78.2125 176.246 77.916 176.582 77.916 177V184.878H126.163V177C126.163 176.582 125.867 176.246 125.499 176.246H78.5802Z" fill="#F6F7FC"/>
<path fill-rule="evenodd" clip-rule="evenodd" d="M74.0137 184.878H130.065Z" fill="#E0E3F6"/>
<path d="M74.0137 184.878H130.065" stroke="#252F71" stroke-width="4" stroke-linecap="round" stroke-linejoin="round"/>
<path d="M81.4707 181.128H116.439" stroke="#E0E3F6" stroke-width="3" stroke-linejoin="round"/>
</svg>
