<svg width="452" height="222" viewBox="0 0 452 222" fill="none" xmlns="http://www.w3.org/2000/svg">
<path d="M302.965 61H134.418C131.175 61 128.547 63.9862 128.547 67.6697V197.83C128.547 201.514 131.175 204.5 134.418 204.5H302.965C306.207 204.5 308.836 201.514 308.836 197.83V67.6697C308.836 63.9862 306.207 61 302.965 61Z" fill="#ABABD2" stroke="#252F71" stroke-width="4"/>
<path d="M300.621 68.459H136.764C135.852 68.459 135.113 69.2983 135.113 70.3337V181.419C135.113 182.455 135.852 183.294 136.764 183.294H300.621C301.532 183.294 302.271 182.455 302.271 181.419V70.3337C302.271 69.2983 301.532 68.459 300.621 68.459Z" fill="#E0E3F6" stroke="#252F71" stroke-width="4"/>
<path fill-rule="evenodd" clip-rule="evenodd" d="M2.33594 219.713H449.215Z" fill="#4B5420"/>
<path d="M2.33594 219.713H449.215" stroke="#346288" stroke-width="4" stroke-linecap="round" stroke-linejoin="round"/>
<path fill-rule="evenodd" clip-rule="evenodd" d="M89.7645 134.362C89.7645 134.362 90.0901 137.895 91.2503 139.055C92.4105 140.215 95.943 140.541 95.943 140.541C95.943 140.541 92.4105 140.867 91.2503 142.027C90.0901 143.187 89.7645 146.719 89.7645 146.719C89.7645 146.719 89.4388 143.187 88.2786 142.027C87.1184 140.867 83.5859 140.541 83.5859 140.541C83.5859 140.541 87.1184 140.215 88.2786 139.055C89.4388 137.895 89.7645 134.362 89.7645 134.362Z" fill="white"/>
<path fill-rule="evenodd" clip-rule="evenodd" d="M369.74 154.303C369.74 154.303 370.023 157.369 371.03 158.376C372.037 159.383 375.103 159.666 375.103 159.666C375.103 159.666 372.037 159.948 371.03 160.955C370.023 161.962 369.74 165.029 369.74 165.029C369.74 165.029 369.457 161.962 368.45 160.955C367.443 159.948 364.377 159.666 364.377 159.666C364.377 159.666 367.443 159.383 368.45 158.376C369.457 157.369 369.74 154.303 369.74 154.303Z" fill="white"/>
<path fill-rule="evenodd" clip-rule="evenodd" d="M178.671 44.5967C178.671 44.5967 178.921 47.3131 179.814 48.2053C180.706 49.0974 183.422 49.3478 183.422 49.3478C183.422 49.3478 180.706 49.5982 179.814 50.4904C178.921 51.3826 178.671 54.099 178.671 54.099C178.671 54.099 178.421 51.3826 177.529 50.4904C176.636 49.5982 173.92 49.3478 173.92 49.3478C173.92 49.3478 176.636 49.0974 177.529 48.2053C178.421 47.3131 178.671 44.5967 178.671 44.5967Z" fill="white"/>
<path fill-rule="evenodd" clip-rule="evenodd" d="M48.3696 194.271C48.3696 194.271 48.7167 198.036 49.9535 199.273C51.1903 200.51 54.956 200.857 54.956 200.857C54.956 200.857 51.1903 201.204 49.9535 202.441C48.7167 203.678 48.3696 207.443 48.3696 207.443C48.3696 207.443 48.0224 203.678 46.7857 202.441C45.5489 201.204 41.7832 200.857 41.7832 200.857C41.7832 200.857 45.5489 200.51 46.7857 199.273C48.0224 198.036 48.3696 194.271 48.3696 194.271Z" fill="white"/>
<path d="M378.916 132.341C379.704 132.341 380.343 131.702 380.343 130.914C380.343 130.125 379.704 129.486 378.916 129.486C378.127 129.486 377.488 130.125 377.488 130.914C377.488 131.702 378.127 132.341 378.916 132.341Z" fill="white"/>
<path d="M213.541 48.9398C214.329 48.9398 214.968 48.3007 214.968 47.5124C214.968 46.724 214.329 46.085 213.541 46.085C212.752 46.085 212.113 46.724 212.113 47.5124C212.113 48.3007 212.752 48.9398 213.541 48.9398Z" fill="white"/>
<path d="M80.9958 194.943C81.7841 194.943 82.4232 194.304 82.4232 193.515C82.4232 192.727 81.7841 192.088 80.9958 192.088C80.2074 192.088 79.5684 192.727 79.5684 193.515C79.5684 194.304 80.2074 194.943 80.9958 194.943Z" fill="white"/>
<path d="M48.777 171.288C49.5654 171.288 50.2044 170.649 50.2044 169.861C50.2044 169.073 49.5654 168.434 48.777 168.434C47.9887 168.434 47.3496 169.073 47.3496 169.861C47.3496 170.649 47.9887 171.288 48.777 171.288Z" fill="white"/>
<path d="M98.5329 95.432C99.3212 95.432 99.9603 94.7929 99.9603 94.0046C99.9603 93.2162 99.3212 92.5771 98.5329 92.5771C97.7445 92.5771 97.1055 93.2162 97.1055 94.0046C97.1055 94.7929 97.7445 95.432 98.5329 95.432Z" fill="white"/>
<path d="M355.058 189.641C355.847 189.641 356.486 189.002 356.486 188.214C356.486 187.425 355.847 186.786 355.058 186.786C354.27 186.786 353.631 187.425 353.631 188.214C353.631 189.002 354.27 189.641 355.058 189.641Z" fill="white"/>
<path d="M362.806 102.366C363.595 102.366 364.234 101.726 364.234 100.938C364.234 100.15 363.595 99.5107 362.806 99.5107C362.018 99.5107 361.379 100.15 361.379 100.938C361.379 101.726 362.018 102.366 362.806 102.366Z" fill="white"/>
<path d="M412.97 206.77C413.759 206.77 414.398 206.131 414.398 205.342C414.398 204.554 413.759 203.915 412.97 203.915C412.182 203.915 411.543 204.554 411.543 205.342C411.543 206.131 412.182 206.77 412.97 206.77Z" fill="white"/>
<path d="M282.056 38.7435C282.845 38.7435 283.484 38.1044 283.484 37.3161C283.484 36.5277 282.845 35.8887 282.056 35.8887C281.268 35.8887 280.629 36.5277 280.629 37.3161C280.629 38.1044 281.268 38.7435 282.056 38.7435Z" fill="white"/>
<path fill-rule="evenodd" clip-rule="evenodd" d="M70.3918 44.7998C70.3918 44.7998 70.6422 47.5162 71.5344 48.4084C72.4265 49.3005 75.1429 49.551 75.1429 49.551C75.1429 49.551 72.4265 49.8014 71.5344 50.6935C70.6422 51.5857 70.3918 54.3021 70.3918 54.3021C70.3918 54.3021 70.1414 51.5857 69.2492 50.6935C68.357 49.8014 65.6406 49.551 65.6406 49.551C65.6406 49.551 68.357 49.3005 69.2492 48.4084C70.1414 47.5162 70.3918 44.7998 70.3918 44.7998Z" fill="white"/>
<path fill-rule="evenodd" clip-rule="evenodd" d="M437.644 140.845C437.644 140.845 438.088 145.66 439.67 147.241C441.251 148.822 446.066 149.266 446.066 149.266C446.066 149.266 441.251 149.71 439.67 151.292C438.088 152.873 437.644 157.688 437.644 157.688C437.644 157.688 437.2 152.873 435.619 151.292C434.038 149.71 429.223 149.266 429.223 149.266C429.223 149.266 434.038 148.822 435.619 147.241C437.2 145.66 437.644 140.845 437.644 140.845Z" fill="white"/>
<path fill-rule="evenodd" clip-rule="evenodd" d="M10.6451 122.084C10.6451 122.084 11.1535 127.598 12.9646 129.41C14.7758 131.221 20.2902 131.729 20.2902 131.729C20.2902 131.729 14.7758 132.237 12.9646 134.049C11.1535 135.86 10.6451 141.374 10.6451 141.374C10.6451 141.374 10.1368 135.86 8.32561 134.049C6.51445 132.237 1 131.729 1 131.729C1 131.729 6.51445 131.221 8.32561 129.41C10.1368 127.598 10.6451 122.084 10.6451 122.084Z" fill="white"/>
<path fill-rule="evenodd" clip-rule="evenodd" d="M344.658 28.0791C344.658 28.0791 344.919 30.9121 345.85 31.8426C346.78 32.773 349.613 33.0342 349.613 33.0342C349.613 33.0342 346.78 33.2953 345.85 34.2258C344.919 35.1562 344.658 37.9892 344.658 37.9892C344.658 37.9892 344.397 35.1562 343.467 34.2258C342.536 33.2953 339.703 33.0342 339.703 33.0342C339.703 33.0342 342.536 32.773 343.467 31.8426C344.397 30.9121 344.658 28.0791 344.658 28.0791Z" fill="white"/>
<path d="M179.691 2.85481C180.479 2.85481 181.118 2.21574 181.118 1.42741C181.118 0.639072 180.479 0 179.691 0C178.903 0 178.264 0.639072 178.264 1.42741C178.264 2.21574 178.903 2.85481 179.691 2.85481Z" fill="white"/>
<path d="M300 71H138V180.703H300V71Z" fill="white"/>
<path d="M300 71H138V76.7839H300V71Z" fill="#EDEDED"/>
<path d="M140.8 74.89C141.334 74.89 141.766 74.4431 141.766 73.8918C141.766 73.3405 141.334 72.8936 140.8 72.8936C140.267 72.8936 139.834 73.3405 139.834 73.8918C139.834 74.4431 140.267 74.89 140.8 74.89Z" fill="#62D5E9"/>
<path d="M146.597 74.89C147.131 74.89 147.563 74.4431 147.563 73.8918C147.563 73.3405 147.131 72.8936 146.597 72.8936C146.063 72.8936 145.631 73.3405 145.631 73.8918C145.631 74.4431 146.063 74.89 146.597 74.89Z" fill="#FF8D72"/>
<path d="M143.695 74.89C144.228 74.89 144.661 74.4431 144.661 73.8918C144.661 73.3405 144.228 72.8936 143.695 72.8936C143.161 72.8936 142.729 73.3405 142.729 73.8918C142.729 74.4431 143.161 74.89 143.695 74.89Z" fill="#58F9A2"/>
<path d="M248.61 89.6182C248.976 89.6182 249.342 89.762 249.621 90.0495C250.156 90.6031 250.176 91.4928 249.681 92.0717L249.823 92.2192L249.859 92.182C249.888 92.152 249.935 92.152 249.964 92.182L251.397 93.6622C251.426 93.6922 251.426 93.7404 251.397 93.7704L251.201 93.9731C251.172 94.0031 251.125 94.0031 251.096 93.9731L249.663 92.4929C249.634 92.4629 249.634 92.4147 249.663 92.3848L249.699 92.3476L249.556 92.2001C248.996 92.7121 248.135 92.6916 247.599 92.138C247.042 91.5629 247.042 90.6247 247.599 90.0495C247.877 89.7619 248.244 89.6182 248.61 89.6182ZM248.61 89.9981C248.339 89.9981 248.068 90.1054 247.861 90.3199C247.446 90.7489 247.446 91.4387 247.861 91.8677C248.276 92.2967 248.944 92.2967 249.359 91.8677C249.774 91.4387 249.774 90.7489 249.359 90.3199C249.151 90.1054 248.881 89.9981 248.61 89.9981Z" fill="#58F9A2"/>
<path d="M245.529 89.6709H186.846V93.9975H245.529V89.6709Z" fill="white" stroke="#62D5E9" stroke-width="1.544" stroke-linecap="round"/>
<path d="M251.417 101.886H186.58V114.837H251.417V101.886Z" fill="#EDEDED"/>
<path fill-rule="evenodd" clip-rule="evenodd" d="M189.951 104.092V105.867H224.991V104.092H189.951Z" fill="#62D5E9"/>
<path fill-rule="evenodd" clip-rule="evenodd" d="M189.951 108.433V109.794H229.125V108.433H189.951Z" fill="#58F9A2"/>
<path fill-rule="evenodd" clip-rule="evenodd" d="M189.951 111.272V112.634H202.409V111.272H189.951Z" fill="#FF8D72"/>
<path d="M251.417 119.808H186.58V132.758H251.417V119.808Z" fill="#EDEDED"/>
<path fill-rule="evenodd" clip-rule="evenodd" d="M189.646 122.011V123.786H225.663V122.011H189.646Z" fill="#62D5E9"/>
<path fill-rule="evenodd" clip-rule="evenodd" d="M189.646 126.356V127.718H214.327V126.356H189.646Z" fill="#58F9A2"/>
<path fill-rule="evenodd" clip-rule="evenodd" d="M189.646 129.195V130.557H216.261V129.195H189.646Z" fill="#FF8D72"/>
<path d="M251.417 137.73H186.58V150.681H251.417V137.73Z" fill="#EDEDED"/>
<path fill-rule="evenodd" clip-rule="evenodd" d="M189.646 139.931V141.706H203.26V139.931H189.646Z" fill="#62D5E9"/>
<path fill-rule="evenodd" clip-rule="evenodd" d="M189.646 144.275V145.637H228.861V144.275H189.646Z" fill="#58F9A2"/>
<path d="M251.417 155.649H186.58V168.6H251.417V155.649Z" fill="#EDEDED"/>
<path fill-rule="evenodd" clip-rule="evenodd" d="M189.646 157.855V159.63H210.594V157.855H189.646Z" fill="#62D5E9"/>
<path fill-rule="evenodd" clip-rule="evenodd" d="M189.646 162.196V163.558H218.728V162.196H189.646Z" fill="#58F9A2"/>
<path fill-rule="evenodd" clip-rule="evenodd" d="M189.646 165.036V166.398H222.662V165.036H189.646Z" fill="#FF8D72"/>
<path fill-rule="evenodd" clip-rule="evenodd" d="M189.539 147.679V149.04H221.621V147.679H189.539Z" fill="#FF8D72"/>
<path fill-rule="evenodd" clip-rule="evenodd" d="M109 198C109 198 109.541 202.838 112.355 208.108C116.11 215.138 121.545 215.564 121.545 215.564H218.69H315.836C315.836 215.564 321.271 215.138 325.026 208.108C327.84 202.838 328.381 198 328.381 198H218.69H109Z" fill="#ABABD2"/>
<path fill-rule="evenodd" clip-rule="evenodd" d="M192.699 198C192.699 201.505 195.184 204.327 198.269 204.327H239.113C242.198 204.327 244.683 201.505 244.683 198H192.699Z" fill="#C0D2E8"/>
<path fill-rule="evenodd" clip-rule="evenodd" d="M109 198C109 198 109.541 202.838 112.355 208.108C116.11 215.138 121.545 215.564 121.545 215.564H218.69H315.836C315.836 215.564 321.271 215.138 325.026 208.108C327.84 202.838 328.381 198 328.381 198H218.69H109Z" stroke="#252F71" stroke-width="4" stroke-linecap="round" stroke-linejoin="round"/>
</svg>
