<svg width="452" height="222" viewBox="0 0 452 222" fill="none" xmlns="http://www.w3.org/2000/svg">
<path d="M329.63 65.7031H121.919C120.106 65.7031 118.637 67.1728 118.637 68.9858V211.928C118.637 213.741 120.106 215.211 121.919 215.211H329.63C331.443 215.211 332.913 213.741 332.913 211.928V68.9858C332.913 67.1728 331.443 65.7031 329.63 65.7031Z" fill="white" stroke="#346288" stroke-width="4"/>
<path d="M357.674 206.348H93.8784C92.0654 206.348 90.5957 207.817 90.5957 209.63V216.431C90.5957 218.244 92.0654 219.713 93.8784 219.713H357.674C359.487 219.713 360.957 218.244 360.957 216.431V209.63C360.957 207.817 359.487 206.348 357.674 206.348Z" fill="white" stroke="#346288" stroke-width="4"/>
<path d="M325.53 73.0723H126.021V198.978H325.53V73.0723Z" fill="#75D4FF" stroke="#346288" stroke-width="4"/>
<path fill-rule="evenodd" clip-rule="evenodd" d="M196.24 206.348C196.24 208.59 198.048 210.394 200.294 210.394H251.256C253.502 210.394 255.311 208.59 255.311 206.348H196.24Z" fill="#346288"/>
<path fill-rule="evenodd" clip-rule="evenodd" d="M2.33594 219.713H449.215Z" fill="#4B5420"/>
<path d="M2.33594 219.713H449.215" stroke="#346288" stroke-width="4" stroke-linecap="round" stroke-linejoin="round"/>
<path fill-rule="evenodd" clip-rule="evenodd" d="M142.486 98.314C141.378 98.314 140.486 99.206 140.486 100.314V104.567L164.889 107.484L189.291 104.567V100.314C189.291 99.206 188.399 98.314 187.291 98.314H142.486Z" fill="#F0F0F0"/>
<path fill-rule="evenodd" clip-rule="evenodd" d="M140.486 104.566V176.018C140.486 177.126 141.378 178.018 142.486 178.018H187.291C188.399 178.018 189.291 177.126 189.291 176.018V104.566H140.486Z" fill="white"/>
<path d="M143.612 103.224C144.598 103.224 145.397 102.425 145.397 101.44C145.397 100.454 144.598 99.6553 143.612 99.6553C142.627 99.6553 141.828 100.454 141.828 101.44C141.828 102.425 142.627 103.224 143.612 103.224Z" fill="#D4D4D4"/>
<path d="M143.612 103.224C144.598 103.224 145.397 102.425 145.397 101.44C145.397 100.454 144.598 99.6553 143.612 99.6553C142.627 99.6553 141.828 100.454 141.828 101.44C141.828 102.425 142.627 103.224 143.612 103.224Z" fill="#75D4FF"/>
<path d="M148.966 103.224C149.951 103.224 150.75 102.425 150.75 101.44C150.75 100.454 149.951 99.6553 148.966 99.6553C147.98 99.6553 147.182 100.454 147.182 101.44C147.182 102.425 147.98 103.224 148.966 103.224Z" fill="#D4D4D4"/>
<path d="M184.375 107.484H145.406C144.302 107.484 143.406 108.379 143.406 109.484V120.227C143.406 121.332 144.302 122.227 145.406 122.227H184.375C185.479 122.227 186.375 121.332 186.375 120.227V109.484C186.375 108.379 185.479 107.484 184.375 107.484Z" fill="#F0F0F0"/>
<path fill-rule="evenodd" clip-rule="evenodd" d="M146.743 109.82C146.61 109.819 146.479 109.843 146.356 109.892C146.233 109.942 146.121 110.015 146.026 110.108C145.932 110.201 145.857 110.312 145.806 110.434C145.755 110.557 145.729 110.688 145.729 110.82C145.729 110.953 145.755 111.084 145.806 111.206C145.857 111.329 145.932 111.44 146.026 111.533C146.121 111.626 146.233 111.699 146.356 111.748C146.479 111.798 146.61 111.822 146.743 111.82H182.227C182.36 111.822 182.491 111.798 182.614 111.748C182.737 111.699 182.849 111.626 182.943 111.533C183.038 111.44 183.113 111.329 183.164 111.206C183.215 111.084 183.241 110.953 183.241 110.82C183.241 110.688 183.215 110.557 183.164 110.434C183.113 110.312 183.038 110.201 182.943 110.108C182.849 110.015 182.737 109.942 182.614 109.892C182.491 109.843 182.36 109.819 182.227 109.82H146.743Z" fill="#D4D4D4"/>
<path fill-rule="evenodd" clip-rule="evenodd" d="M146.743 113.852C146.61 113.85 146.479 113.875 146.356 113.924C146.233 113.974 146.121 114.047 146.026 114.14C145.932 114.233 145.857 114.344 145.806 114.466C145.755 114.588 145.729 114.72 145.729 114.852C145.729 114.985 145.755 115.116 145.806 115.238C145.857 115.36 145.932 115.471 146.026 115.564C146.121 115.657 146.233 115.731 146.356 115.78C146.479 115.83 146.61 115.854 146.743 115.852H162.821C162.953 115.854 163.085 115.83 163.208 115.78C163.331 115.731 163.443 115.657 163.537 115.564C163.632 115.471 163.706 115.36 163.758 115.238C163.809 115.116 163.835 114.985 163.835 114.852C163.835 114.72 163.809 114.588 163.758 114.466C163.706 114.344 163.632 114.233 163.537 114.14C163.443 114.047 163.331 113.974 163.208 113.924C163.085 113.875 162.953 113.85 162.821 113.852H146.743Z" fill="#D4D4D4"/>
<path fill-rule="evenodd" clip-rule="evenodd" d="M146.743 117.891C146.61 117.889 146.479 117.913 146.356 117.963C146.233 118.012 146.121 118.086 146.026 118.179C145.932 118.272 145.857 118.382 145.806 118.505C145.755 118.627 145.729 118.758 145.729 118.891C145.729 119.023 145.755 119.154 145.806 119.277C145.857 119.399 145.932 119.51 146.026 119.603C146.121 119.696 146.233 119.769 146.356 119.819C146.479 119.868 146.61 119.893 146.743 119.891H179.258C179.391 119.893 179.522 119.868 179.645 119.819C179.768 119.769 179.88 119.696 179.975 119.603C180.069 119.51 180.144 119.399 180.195 119.277C180.246 119.154 180.273 119.023 180.273 118.891C180.273 118.758 180.246 118.627 180.195 118.505C180.144 118.382 180.069 118.272 179.975 118.179C179.88 118.086 179.768 118.012 179.645 117.963C179.522 117.913 179.391 117.889 179.258 117.891H146.743Z" fill="#D4D4D4"/>
<path d="M184.375 125.108H145.406C144.302 125.108 143.406 126.004 143.406 127.108V137.852C143.406 138.956 144.302 139.852 145.406 139.852H184.375C185.479 139.852 186.375 138.956 186.375 137.852V127.108C186.375 126.004 185.479 125.108 184.375 125.108Z" fill="#F0F0F0"/>
<path fill-rule="evenodd" clip-rule="evenodd" d="M146.743 127.444C145.39 127.425 145.39 129.464 146.743 129.444H172.337C173.69 129.464 173.69 127.425 172.337 127.444H146.743Z" fill="#D4D4D4"/>
<path fill-rule="evenodd" clip-rule="evenodd" d="M146.743 131.476C145.39 131.457 145.39 133.495 146.743 133.476H165.574C166.926 133.495 166.926 131.457 165.574 131.476H146.743Z" fill="#D4D4D4"/>
<path fill-rule="evenodd" clip-rule="evenodd" d="M146.743 135.515C145.39 135.496 145.39 137.534 146.743 137.515H161.722C163.074 137.534 163.074 135.496 161.722 135.515H146.743Z" fill="#D4D4D4"/>
<path d="M184.375 142.732H145.406C144.302 142.732 143.406 143.628 143.406 144.732V155.476C143.406 156.58 144.302 157.476 145.406 157.476H184.375C185.479 157.476 186.375 156.58 186.375 155.476V144.732C186.375 143.628 185.479 142.732 184.375 142.732Z" fill="#F0F0F0"/>
<path fill-rule="evenodd" clip-rule="evenodd" d="M146.743 145.069C145.39 145.05 145.39 147.088 146.743 147.069H175.294C176.646 147.088 176.646 145.05 175.294 145.069H146.743Z" fill="#D4D4D4"/>
<path fill-rule="evenodd" clip-rule="evenodd" d="M146.743 149.101C145.39 149.082 145.39 151.12 146.743 151.101H153.033C154.385 151.12 154.385 149.082 153.033 149.101H146.743Z" fill="#D4D4D4"/>
<path fill-rule="evenodd" clip-rule="evenodd" d="M146.743 153.14C145.39 153.121 145.39 155.159 146.743 155.14H164.882C166.235 155.159 166.235 153.121 164.882 153.14H146.743Z" fill="#D4D4D4"/>
<path d="M184.375 160.357H145.406C144.302 160.357 143.406 161.252 143.406 162.357V173.1C143.406 174.205 144.302 175.1 145.406 175.1H184.375C185.479 175.1 186.375 174.205 186.375 173.1V162.357C186.375 161.252 185.479 160.357 184.375 160.357Z" fill="#F0F0F0"/>
<path fill-rule="evenodd" clip-rule="evenodd" d="M146.743 162.693C145.39 162.674 145.39 164.713 146.743 164.693H179.066C180.419 164.713 180.419 162.674 179.066 162.693H146.743Z" fill="#D4D4D4"/>
<path fill-rule="evenodd" clip-rule="evenodd" d="M146.743 166.725C145.39 166.706 145.39 168.744 146.743 168.725H175.464C176.816 168.744 176.816 166.706 175.464 166.725H146.743Z" fill="#D4D4D4"/>
<path fill-rule="evenodd" clip-rule="evenodd" d="M146.743 170.764C145.39 170.745 145.39 172.783 146.743 172.764H161.62C162.972 172.783 162.972 170.745 161.62 170.764H146.743Z" fill="#D4D4D4"/>
<path fill-rule="evenodd" clip-rule="evenodd" d="M213.365 93.3037C212.257 93.3037 211.365 94.1957 211.365 95.3037V99.5557L263.602 102.006L315.839 99.5557V95.3037C315.839 94.1957 314.947 93.3037 313.839 93.3037H213.365Z" fill="#F0F0F0"/>
<path d="M214.491 98.214C215.477 98.214 216.276 97.4152 216.276 96.4298C216.276 95.4443 215.477 94.6455 214.491 94.6455C213.506 94.6455 212.707 95.4443 212.707 96.4298C212.707 97.4152 213.506 98.214 214.491 98.214Z" fill="#75D4FF"/>
<path d="M219.845 98.214C220.83 98.214 221.629 97.4152 221.629 96.4298C221.629 95.4443 220.83 94.6455 219.845 94.6455C218.859 94.6455 218.061 95.4443 218.061 96.4298C218.061 97.4152 218.859 98.214 219.845 98.214Z" fill="#D4D4D4"/>
<path fill-rule="evenodd" clip-rule="evenodd" d="M211.365 99.5552V171.008C211.365 172.116 212.257 173.008 213.365 173.008H313.838C314.946 173.008 315.838 172.116 315.838 171.008V99.5552H211.365Z" fill="white"/>
<path d="M218.592 165.783L233.595 158.799L248.599 138.051L263.603 144.794L278.606 142.448L293.61 134.935L308.613 113.995" stroke="#75D4FF" stroke-width="2" stroke-linecap="round" stroke-linejoin="round"/>
<path d="M217.579 169.897C219.296 169.897 220.687 168.506 220.687 166.789C220.687 165.072 219.296 163.681 217.579 163.681C215.862 163.681 214.471 165.072 214.471 166.789C214.471 168.506 215.862 169.897 217.579 169.897Z" fill="#75D4FF"/>
<path d="M233.595 161.907C235.311 161.907 236.703 160.515 236.703 158.799C236.703 157.082 235.311 155.69 233.595 155.69C231.878 155.69 230.486 157.082 230.486 158.799C230.486 160.515 231.878 161.907 233.595 161.907Z" fill="#75D4FF"/>
<path d="M248.599 141.159C250.315 141.159 251.707 139.767 251.707 138.051C251.707 136.334 250.315 134.942 248.599 134.942C246.882 134.942 245.49 136.334 245.49 138.051C245.49 139.767 246.882 141.159 248.599 141.159Z" fill="#75D4FF"/>
<path d="M263.602 147.903C265.319 147.903 266.711 146.511 266.711 144.794C266.711 143.078 265.319 141.686 263.602 141.686C261.886 141.686 260.494 143.078 260.494 144.794C260.494 146.511 261.886 147.903 263.602 147.903Z" fill="#75D4FF"/>
<path d="M279.597 145.06C281.313 145.06 282.705 143.668 282.705 141.952C282.705 140.235 281.313 138.843 279.597 138.843C277.88 138.843 276.488 140.235 276.488 141.952C276.488 143.668 277.88 145.06 279.597 145.06Z" fill="#75D4FF"/>
<path d="M293.608 138.043C295.325 138.043 296.717 136.651 296.717 134.934C296.717 133.218 295.325 131.826 293.608 131.826C291.892 131.826 290.5 133.218 290.5 134.934C290.5 136.651 291.892 138.043 293.608 138.043Z" fill="#75D4FF"/>
<path d="M308.612 117.103C310.329 117.103 311.72 115.711 311.72 113.994C311.72 112.278 310.329 110.886 308.612 110.886C306.896 110.886 305.504 112.278 305.504 113.994C305.504 115.711 306.896 117.103 308.612 117.103Z" fill="#75D4FF"/>
<path d="M218.592 153.752L233.595 144.982L248.599 152.733L263.603 134.207L278.606 132.252L293.61 145.131L308.613 134.182" stroke="#D4D4D4" stroke-width="2" stroke-linecap="round" stroke-linejoin="round"/>
<path d="M218.591 156.86C220.307 156.86 221.699 155.468 221.699 153.752C221.699 152.035 220.307 150.644 218.591 150.644C216.874 150.644 215.482 152.035 215.482 153.752C215.482 155.468 216.874 156.86 218.591 156.86Z" fill="#D4D4D4"/>
<path d="M233.595 148.09C235.311 148.09 236.703 146.698 236.703 144.982C236.703 143.265 235.311 141.874 233.595 141.874C231.878 141.874 230.486 143.265 230.486 144.982C230.486 146.698 231.878 148.09 233.595 148.09Z" fill="#D4D4D4"/>
<path d="M248.599 155.841C250.315 155.841 251.707 154.449 251.707 152.732C251.707 151.016 250.315 149.624 248.599 149.624C246.882 149.624 245.49 151.016 245.49 152.732C245.49 154.449 246.882 155.841 248.599 155.841Z" fill="#D4D4D4"/>
<path d="M263.602 137.315C265.319 137.315 266.711 135.924 266.711 134.207C266.711 132.49 265.319 131.099 263.602 131.099C261.886 131.099 260.494 132.49 260.494 134.207C260.494 135.924 261.886 137.315 263.602 137.315Z" fill="#D4D4D4"/>
<path d="M278.606 135.361C280.323 135.361 281.715 133.969 281.715 132.252C281.715 130.536 280.323 129.144 278.606 129.144C276.89 129.144 275.498 130.536 275.498 132.252C275.498 133.969 276.89 135.361 278.606 135.361Z" fill="#D4D4D4"/>
<path d="M293.608 148.239C295.325 148.239 296.717 146.847 296.717 145.13C296.717 143.414 295.325 142.022 293.608 142.022C291.892 142.022 290.5 143.414 290.5 145.13C290.5 146.847 291.892 148.239 293.608 148.239Z" fill="#D4D4D4"/>
<path d="M308.612 137.29C310.329 137.29 311.72 135.899 311.72 134.182C311.72 132.465 310.329 131.074 308.612 131.074C306.896 131.074 305.504 132.465 305.504 134.182C305.504 135.899 306.896 137.29 308.612 137.29Z" fill="#D4D4D4"/>
<path fill-rule="evenodd" clip-rule="evenodd" d="M89.7645 134.362C89.7645 134.362 90.0901 137.895 91.2503 139.055C92.4105 140.215 95.943 140.541 95.943 140.541C95.943 140.541 92.4105 140.867 91.2503 142.027C90.0901 143.187 89.7645 146.719 89.7645 146.719C89.7645 146.719 89.4388 143.187 88.2786 142.027C87.1184 140.867 83.5859 140.541 83.5859 140.541C83.5859 140.541 87.1184 140.215 88.2786 139.055C89.4388 137.895 89.7645 134.362 89.7645 134.362Z" fill="white"/>
<path fill-rule="evenodd" clip-rule="evenodd" d="M369.74 154.303C369.74 154.303 370.023 157.369 371.03 158.376C372.037 159.383 375.103 159.666 375.103 159.666C375.103 159.666 372.037 159.948 371.03 160.955C370.023 161.962 369.74 165.029 369.74 165.029C369.74 165.029 369.457 161.962 368.45 160.955C367.443 159.948 364.377 159.666 364.377 159.666C364.377 159.666 367.443 159.383 368.45 158.376C369.457 157.369 369.74 154.303 369.74 154.303Z" fill="white"/>
<path fill-rule="evenodd" clip-rule="evenodd" d="M178.671 44.5962C178.671 44.5962 178.921 47.3126 179.814 48.2048C180.706 49.0969 183.422 49.3473 183.422 49.3473C183.422 49.3473 180.706 49.5978 179.814 50.4899C178.921 51.3821 178.671 54.0985 178.671 54.0985C178.671 54.0985 178.421 51.3821 177.529 50.4899C176.636 49.5978 173.92 49.3473 173.92 49.3473C173.92 49.3473 176.636 49.0969 177.529 48.2048C178.421 47.3126 178.671 44.5962 178.671 44.5962Z" fill="white"/>
<path fill-rule="evenodd" clip-rule="evenodd" d="M48.3696 194.27C48.3696 194.27 48.7167 198.036 49.9535 199.272C51.1903 200.509 54.956 200.856 54.956 200.856C54.956 200.856 51.1903 201.204 49.9535 202.44C48.7167 203.677 48.3696 207.443 48.3696 207.443C48.3696 207.443 48.0224 203.677 46.7857 202.44C45.5489 201.204 41.7832 200.856 41.7832 200.856C41.7832 200.856 45.5489 200.509 46.7857 199.272C48.0224 198.036 48.3696 194.27 48.3696 194.27Z" fill="white"/>
<path d="M378.916 132.341C379.704 132.341 380.343 131.702 380.343 130.914C380.343 130.125 379.704 129.486 378.916 129.486C378.127 129.486 377.488 130.125 377.488 130.914C377.488 131.702 378.127 132.341 378.916 132.341Z" fill="white"/>
<path d="M213.541 48.9398C214.329 48.9398 214.968 48.3007 214.968 47.5124C214.968 46.724 214.329 46.085 213.541 46.085C212.752 46.085 212.113 46.724 212.113 47.5124C212.113 48.3007 212.752 48.9398 213.541 48.9398Z" fill="white"/>
<path d="M80.9958 194.943C81.7841 194.943 82.4232 194.304 82.4232 193.515C82.4232 192.727 81.7841 192.088 80.9958 192.088C80.2074 192.088 79.5684 192.727 79.5684 193.515C79.5684 194.304 80.2074 194.943 80.9958 194.943Z" fill="white"/>
<path d="M48.777 171.289C49.5654 171.289 50.2044 170.65 50.2044 169.861C50.2044 169.073 49.5654 168.434 48.777 168.434C47.9887 168.434 47.3496 169.073 47.3496 169.861C47.3496 170.65 47.9887 171.289 48.777 171.289Z" fill="white"/>
<path d="M98.5329 95.4324C99.3212 95.4324 99.9603 94.7934 99.9603 94.0051C99.9603 93.2167 99.3212 92.5776 98.5329 92.5776C97.7445 92.5776 97.1055 93.2167 97.1055 94.0051C97.1055 94.7934 97.7445 95.4324 98.5329 95.4324Z" fill="white"/>
<path d="M355.058 189.641C355.847 189.641 356.486 189.002 356.486 188.214C356.486 187.425 355.847 186.786 355.058 186.786C354.27 186.786 353.631 187.425 353.631 188.214C353.631 189.002 354.27 189.641 355.058 189.641Z" fill="white"/>
<path d="M362.806 102.366C363.595 102.366 364.234 101.726 364.234 100.938C364.234 100.15 363.595 99.5107 362.806 99.5107C362.018 99.5107 361.379 100.15 361.379 100.938C361.379 101.726 362.018 102.366 362.806 102.366Z" fill="white"/>
<path d="M412.97 206.77C413.759 206.77 414.398 206.131 414.398 205.342C414.398 204.554 413.759 203.915 412.97 203.915C412.182 203.915 411.543 204.554 411.543 205.342C411.543 206.131 412.182 206.77 412.97 206.77Z" fill="white"/>
<path d="M282.056 38.744C282.845 38.744 283.484 38.1049 283.484 37.3166C283.484 36.5282 282.845 35.8892 282.056 35.8892C281.268 35.8892 280.629 36.5282 280.629 37.3166C280.629 38.1049 281.268 38.744 282.056 38.744Z" fill="white"/>
<path fill-rule="evenodd" clip-rule="evenodd" d="M70.3918 44.8003C70.3918 44.8003 70.6422 47.5167 71.5344 48.4089C72.4265 49.301 75.1429 49.5514 75.1429 49.5514C75.1429 49.5514 72.4265 49.8019 71.5344 50.694C70.6422 51.5862 70.3918 54.3026 70.3918 54.3026C70.3918 54.3026 70.1414 51.5862 69.2492 50.694C68.357 49.8019 65.6406 49.5514 65.6406 49.5514C65.6406 49.5514 68.357 49.301 69.2492 48.4089C70.1414 47.5167 70.3918 44.8003 70.3918 44.8003Z" fill="white"/>
<path fill-rule="evenodd" clip-rule="evenodd" d="M437.644 140.844C437.644 140.844 438.088 145.659 439.67 147.241C441.251 148.822 446.066 149.266 446.066 149.266C446.066 149.266 441.251 149.71 439.67 151.291C438.088 152.873 437.644 157.687 437.644 157.687C437.644 157.687 437.2 152.873 435.619 151.291C434.038 149.71 429.223 149.266 429.223 149.266C429.223 149.266 434.038 148.822 435.619 147.241C437.2 145.659 437.644 140.844 437.644 140.844Z" fill="white"/>
<path fill-rule="evenodd" clip-rule="evenodd" d="M10.6451 122.084C10.6451 122.084 11.1535 127.598 12.9646 129.41C14.7758 131.221 20.2902 131.729 20.2902 131.729C20.2902 131.729 14.7758 132.237 12.9646 134.049C11.1535 135.86 10.6451 141.374 10.6451 141.374C10.6451 141.374 10.1368 135.86 8.32561 134.049C6.51445 132.237 1 131.729 1 131.729C1 131.729 6.51445 131.221 8.32561 129.41C10.1368 127.598 10.6451 122.084 10.6451 122.084Z" fill="white"/>
<path fill-rule="evenodd" clip-rule="evenodd" d="M344.658 28.0791C344.658 28.0791 344.919 30.9121 345.85 31.8426C346.78 32.773 349.613 33.0342 349.613 33.0342C349.613 33.0342 346.78 33.2953 345.85 34.2258C344.919 35.1562 344.658 37.9892 344.658 37.9892C344.658 37.9892 344.397 35.1562 343.467 34.2258C342.536 33.2953 339.703 33.0342 339.703 33.0342C339.703 33.0342 342.536 32.773 343.467 31.8426C344.397 30.9121 344.658 28.0791 344.658 28.0791Z" fill="white"/>
<path d="M179.691 2.85481C180.479 2.85481 181.118 2.21574 181.118 1.42741C181.118 0.639072 180.479 0 179.691 0C178.903 0 178.264 0.639072 178.264 1.42741C178.264 2.21574 178.903 2.85481 179.691 2.85481Z" fill="white"/>
</svg>
