<svg width="24" height="24" fill="none" xmlns="http://www.w3.org/2000/svg"><path fill-rule="evenodd" clip-rule="evenodd" d="M20 3h-5.357c-.55 0-.999.45-.999 1v2.568c0 .06.04.1.1.1h3.488c.06 0 .1.04.1.1v3.478c0 .06.04.1.1.1h2.569c.55 0 .999-.45.999-1V4c0-.55-.45-1-1-1z" fill="url(#paint0_linear_17969_19804)"/><path d="M20 3.2c.44 0 .8.36.8.8v5.346c0 .44-.36.8-.8.8h-2.468V6.768c0-.17-.13-.3-.3-.3h-3.388V4c0-.44.36-.8.8-.8H20zm0-.2h-5.357c-.55 0-.999.45-.999 1v2.568c0 .06.04.1.1.1h3.488c.06 0 .1.04.1.1v3.478c0 .06.04.1.1.1h2.569c.55 0 .999-.45.999-1V4c0-.55-.45-1-1-1z" fill="url(#paint1_linear_17969_19804)"/><path fill-rule="evenodd" clip-rule="evenodd" d="M20 3h-5.357c-.55 0-.999.45-.999 1v2.568c0 .06.04.1.1.1h3.488c.06 0 .1.04.1.1v3.478c0 .06.04.1.1.1h2.569c.55 0 .999-.45.999-1V4c0-.55-.45-1-1-1z" fill="url(#paint2_linear_17969_19804)"/><path fill-rule="evenodd" clip-rule="evenodd" d="M17.322 16.632c-5.497 0-9.954-4.457-9.954-9.954H4.009c-.55 0-.999.45-.999 1 0-.06.02-.11.03-.16.42 7.256 6.227 13.052 13.492 13.442-.07.01-.13.04-.2.04.55 0 1-.45 1-1v-3.368h-.02.01z" fill="url(#paint3_linear_17969_19804)"/><path d="M7.168 6.878c.1 5.447 4.507 9.854 9.974 9.954v3.169c0 .36-.23.66-.56.76h-.03A14.078 14.078 0 013.25 7.497v-.04c.09-.34.4-.58.77-.58h3.158m.2-.2H4.019c-.55 0-.999.45-.999 1 0-.06.02-.11.03-.16.42 7.256 6.227 13.052 13.492 13.442-.07.01-.13.04-.2.04.55 0 1-.45 1-1v-3.368h-.02c-5.497 0-9.954-4.457-9.954-9.954h.01z" fill="url(#paint4_linear_17969_19804)"/><path fill-rule="evenodd" clip-rule="evenodd" d="M17.322 16.632c-5.497 0-9.954-4.457-9.954-9.954H4.009c-.55 0-.999.45-.999 1 0-.06.02-.11.03-.16.42 7.256 6.227 13.052 13.492 13.442-.07.01-.13.04-.2.04.55 0 1-.45 1-1v-3.368h-.02.01z" fill="url(#paint5_linear_17969_19804)"/><path fill-rule="evenodd" clip-rule="evenodd" d="M16.822 20.85C9.816 19.71 4.29 14.204 3.14 7.198c-.08.14-.14.3-.14.48 0-.06.02-.11.03-.16.42 7.256 6.227 13.052 13.493 13.442-.07.01-.13.04-.2.04.18 0 .34-.06.49-.14l.01-.01z" fill="#000" opacity=".5"/><path fill-rule="evenodd" clip-rule="evenodd" d="M3.04 7.507c0 .06-.03.11-.03.16v12.324c0 .55.45.999 1 .999h12.333c.07 0 .13-.03.2-.04C9.277 20.55 3.47 14.763 3.05 7.507h-.01z" fill="url(#paint6_linear_17969_19804)"/><path d="M3.21 10.036A14.498 14.498 0 0014.004 20.8H4.009c-.44 0-.8-.36-.8-.8v-9.964zm-.17-2.529c0 .06-.03.11-.03.16v12.324c0 .55.45.999 1 .999h12.333c.07 0 .13-.03.2-.04C9.277 20.55 3.47 14.763 3.05 7.507h-.01z" fill="url(#paint7_linear_17969_19804)"/><path fill-rule="evenodd" clip-rule="evenodd" d="M3.04 7.507c0 .06-.03.11-.03.16v12.324c0 .55.45.999 1 .999h12.333c.07 0 .13-.03.2-.04C9.277 20.55 3.47 14.763 3.05 7.507h-.01z" fill="url(#paint8_linear_17969_19804)"/><defs><linearGradient id="paint0_linear_17969_19804" x1="16.5" y1="8" x2="21" y2="3" gradientUnits="userSpaceOnUse"><stop stop-color="#BF25A6"/><stop offset="1" stop-color="#CB32D9"/></linearGradient><linearGradient id="paint1_linear_17969_19804" x1="17" y1="7" x2="21" y2="3.5" gradientUnits="userSpaceOnUse"><stop stop-color="#fff" stop-opacity=".3"/><stop offset="1"/></linearGradient><linearGradient id="paint2_linear_17969_19804" x1="16.5" y1="8" x2="21" y2="3" gradientUnits="userSpaceOnUse"><stop stop-color="#BF25A6"/><stop offset="1" stop-color="#CB32D9"/></linearGradient><linearGradient id="paint3_linear_17969_19804" x1="3.5" y1="21" x2="11.5" y2="13" gradientUnits="userSpaceOnUse"><stop offset=".583" stop-color="#5C04B0"/><stop offset=".938" stop-color="#BF25A6"/></linearGradient><linearGradient id="paint4_linear_17969_19804" x1="12" y1="15" x2="8.5" y2="17.5" gradientUnits="userSpaceOnUse"><stop stop-color="#fff" stop-opacity=".3"/><stop offset="1"/></linearGradient><linearGradient id="paint5_linear_17969_19804" x1="3.5" y1="21" x2="11.5" y2="13" gradientUnits="userSpaceOnUse"><stop offset=".583" stop-color="#5C04B0"/><stop offset=".938" stop-color="#BF25A6"/></linearGradient><linearGradient id="paint6_linear_17969_19804" x1="2.5" y1="21.5" x2="8.5" y2="17" gradientUnits="userSpaceOnUse"><stop offset=".285" stop-color="#3C057C"/><stop offset=".956" stop-color="#5B03B0"/></linearGradient><linearGradient id="paint7_linear_17969_19804" x1="4" y1="20.5" x2="7.5" y2="17" gradientUnits="userSpaceOnUse"><stop stop-color="#fff" stop-opacity=".3"/><stop offset="1"/></linearGradient><linearGradient id="paint8_linear_17969_19804" x1="2.5" y1="21.5" x2="8.5" y2="17" gradientUnits="userSpaceOnUse"><stop offset=".285" stop-color="#3C057C"/><stop offset=".956" stop-color="#5B03B0"/></linearGradient></defs></svg>