<svg width="24" height="24" fill="none" xmlns="http://www.w3.org/2000/svg"><path d="M23.006 1.463A.9.9 0 0022.234.1h-7.268a.9.9 0 00-.772.437L1.904 21.022c-.76 1.267.152 2.878 1.628 2.878h3.803a3.9 3.9 0 003.345-1.893L23.006 1.462z" fill="url(#paint0_linear_2_11044)" stroke="url(#paint1_linear_2_11044)" stroke-width=".2"/><path d="M23.091 1.514A1 1 0 0022.234 0h-7.268a1 1 0 00-.857.486L1.817 20.97c-.8 1.333.16 3.029 1.715 3.029h3.803a4 4 0 003.43-1.942L23.091 1.514z" fill="url(#paint2_linear_2_11044)"/><path fill-rule="evenodd" clip-rule="evenodd" d="M8.388 23.872L7.296 11.998l-.095.156v11.854h.15a4.03 4.03 0 001.037-.136z" fill="#000" fill-opacity=".5"/><path d="M.1 1A.9.9 0 011 .1h5.2a.9.9 0 01.9.9v22.9H1a.9.9 0 01-.9-.9V1z" fill="url(#paint3_linear_2_11044)" stroke="url(#paint4_linear_2_11044)" stroke-width=".2"/><path d="M0 1a1 1 0 011-1h5.2a1 1 0 011 1v23H1a1 1 0 01-1-1V1z" fill="url(#paint5_linear_2_11044)"/><path fill-rule="evenodd" clip-rule="evenodd" d="M7.2 12L0 1.714V1a1 1 0 011-1h5.2a1 1 0 011 1v11z" fill="#000" fill-opacity=".4"/><path d="M.54.706A.4.4 0 01.883.1h6.452a3.9 3.9 0 013.345 1.893l12.326 20.544a.9.9 0 01-.772 1.363h-7.268a.9.9 0 01-.772-.437L.54.706z" fill="url(#paint6_linear_2_11044)" stroke="url(#paint7_linear_2_11044)" stroke-width=".2"/><path d="M.454.757A.5.5 0 01.884 0h6.451a4 4 0 013.43 1.942l12.326 20.543A1 1 0 0122.234 24h-7.268a1 1 0 01-.857-.485L.454.757z" fill="url(#paint8_linear_2_11044)"/><defs><linearGradient id="paint0_linear_2_11044" x1=".6" y1="24" x2="18.6" y2="-.6" gradientUnits="userSpaceOnUse"><stop stop-color="#36D0EB"/><stop offset="1" stop-color="#507DF8"/></linearGradient><linearGradient id="paint1_linear_2_11044" x1="22.8" y1="0" x2="6.6" y2="24" gradientUnits="userSpaceOnUse"><stop stop-color="#4F81F8"/><stop offset="1" stop-color="#B6E3F3"/></linearGradient><linearGradient id="paint2_linear_2_11044" x1=".6" y1="24" x2="18.6" y2="-.6" gradientUnits="userSpaceOnUse"><stop stop-color="#36D0EB"/><stop offset="1" stop-color="#507DF8"/></linearGradient><linearGradient id="paint3_linear_2_11044" x1="3.6" y1="0" x2="3.6" y2="24" gradientUnits="userSpaceOnUse"><stop stop-color="#D25AB5"/><stop offset="1" stop-color="#8969F1"/></linearGradient><linearGradient id="paint4_linear_2_11044" x1="3.6" y1="0" x2="3.6" y2="24" gradientUnits="userSpaceOnUse"><stop stop-color="#EDC2E8"/><stop offset="1" stop-color="#8A69F0"/></linearGradient><linearGradient id="paint5_linear_2_11044" x1="3.6" y1="0" x2="3.6" y2="24" gradientUnits="userSpaceOnUse"><stop stop-color="#D25AB5"/><stop offset="1" stop-color="#8969F1"/></linearGradient><linearGradient id="paint6_linear_2_11044" x1="1.8" y1="0" x2="16.8" y2="24" gradientUnits="userSpaceOnUse"><stop stop-color="#CF56BB"/><stop offset="1" stop-color="#F08657"/></linearGradient><linearGradient id="paint7_linear_2_11044" x1="0" y1="0" x2="21.6" y2="24" gradientUnits="userSpaceOnUse"><stop stop-color="#DE95CF"/><stop offset="1" stop-color="#EE8659"/></linearGradient><linearGradient id="paint8_linear_2_11044" x1="1.8" y1="0" x2="16.8" y2="24" gradientUnits="userSpaceOnUse"><stop stop-color="#CF56BB"/><stop offset="1" stop-color="#F08657"/></linearGradient></defs></svg>