<svg width="47" height="40" fill="none" xmlns="http://www.w3.org/2000/svg"><path d="M8.893 27.406a.836.836 0 01.635 0l7.577 3.112c.242.1.242.442 0 .542l-7.577 3.112a.835.835 0 01-.635 0L1.317 31.06a.293.293 0 010-.542l7.576-3.112z" fill="#fff" stroke="#333" stroke-width=".5"/><path d="M8.893 24.692a.836.836 0 01.635 0l7.577 3.112c.242.1.242.443 0 .542l-7.577 3.112a.835.835 0 01-.635 0l-7.576-3.112a.293.293 0 010-.542l7.576-3.111z" fill="#FAFAFA" stroke="#333" stroke-width=".5"/><path d="M8.893 21.979a.836.836 0 01.635 0l7.577 3.112a.292.292 0 010 .541l-7.577 3.112a.835.835 0 01-.635 0l-7.576-3.112a.293.293 0 010-.541l7.576-3.112z" fill="#F1F1F1" stroke="#333" stroke-width=".5"/><path d="M8.893 19.28a.836.836 0 01.635 0l7.577 3.113c.242.1.242.442 0 .541l-7.577 3.112a.836.836 0 01-.635 0l-7.576-3.112a.293.293 0 010-.541l7.576-3.112z" fill="#0098FF" stroke="#333" stroke-width=".5"/><mask id="a" fill="#fff"><path fill-rule="evenodd" clip-rule="evenodd" d="M31.67 23.9l-2.553 3.972 13.9 8.937a1.18 1.18 0 001.631-.355l1.277-1.985a1.18 1.18 0 00-.355-1.632l-13.9-8.936zm12.375 10.764a.885.885 0 10-1.489-.958.885.885 0 001.49.958z"/></mask><path fill-rule="evenodd" clip-rule="evenodd" d="M31.67 23.9l-2.553 3.972 13.9 8.937a1.18 1.18 0 001.631-.355l1.277-1.985a1.18 1.18 0 00-.355-1.632l-13.9-8.936zm12.375 10.764a.885.885 0 10-1.489-.958.885.885 0 001.49.958z" fill="#F5F5F5"/><path d="M29.117 27.872l-.42-.27-.27.42.42.27.27-.42zm2.554-3.971l.27-.42-.42-.271-.271.42.42.27zm11.346 12.908l-.27.42.27-.42zm1.631-.355l.42.27-.42-.27zm1.277-1.985l.42.27-.42-.27zm-.355-1.632l.27-.42-.27.42zm-1.79.603l-.271.42.27-.42zm.265 1.224l-.42-.27.42.27zm-1.49-.958l.422.27-.421-.27zm.267 1.223l.27-.42-.27.42zm-13.284-6.787l2.553-3.97-.841-.542-2.553 3.972.84.54zm13.75 8.246l-13.9-8.936-.541.84 13.9 8.937.54-.84zm.94-.204a.68.68 0 01-.94.204l-.541.841a1.68 1.68 0 002.322-.504l-.841-.541zm1.276-1.986l-1.276 1.986.84.54 1.277-1.985-.84-.54zm-.204-.94a.68.68 0 01.204.94l.841.541a1.68 1.68 0 00-.504-2.322l-.541.841zm-13.9-8.937l13.9 8.937.54-.841-13.899-8.937-.54.841zm12.109 9.54c.179.115.23.353.116.532l.84.541c.414-.643.228-1.5-.415-1.914l-.541.84zm-.532.116a.385.385 0 01.532-.116l.54-.841a1.385 1.385 0 00-1.914.416l.842.54zm.115.532a.385.385 0 01-.115-.532l-.842-.541c-.413.643-.227 1.5.416 1.914l.541-.841zm.533-.116a.385.385 0 01-.533.116l-.54.841c.643.414 1.5.228 1.914-.416l-.841-.54z" fill="#333" mask="url(#a)"/><path d="M28.895 8.03c6.601 4.244 8.512 13.035 4.268 19.636-4.244 6.601-13.036 8.512-19.637 4.268-6.6-4.244-8.511-13.036-4.267-19.637 4.244-6.6 13.035-8.511 19.636-4.267z" fill="#FAFAFA" stroke="#333" stroke-width=".5"/><g clip-path="url(#clip0_1395_3089)"><path d="M12.575 29.26a1.525 1.525 0 011.159 0l11.176 4.59a.724.724 0 010 1.34l-11.176 4.59a1.525 1.525 0 01-1.159 0L1.398 35.19a.724.724 0 010-1.34l11.177-4.59z" fill="#fff" stroke="#9F9F9F" stroke-width=".154"/><path d="M12.64 25.416a1.352 1.352 0 011.028 0l11.177 4.59a.55.55 0 010 1.02l-11.177 4.59a1.352 1.352 0 01-1.027 0l-11.177-4.59a.55.55 0 010-1.02l11.177-4.59z" fill="#FAFAFA" stroke="#333" stroke-width=".5"/><path d="M12.64 21.413a1.35 1.35 0 011.028 0l11.177 4.59a.55.55 0 010 1.02l-11.177 4.59a1.352 1.352 0 01-1.027 0l-11.177-4.59a.55.55 0 010-1.02l11.177-4.59z" fill="#F1F1F1" stroke="#333" stroke-width=".5"/><path d="M12.546 17.201a1.6 1.6 0 011.217 0l11.177 4.591a.8.8 0 010 1.481l-11.177 4.591c-.39.16-.827.16-1.217 0l-11.177-4.59a.8.8 0 010-1.482l11.177-4.59z" fill="#0098FF"/></g><rect x="10.72" y="9.204" width="21.31" height="21.31" rx="10.655" stroke="#333" stroke-width=".5"/><defs><clipPath id="clip0_1395_3089"><rect x="10.47" y="8.954" width="21.81" height="21.81" rx="10.905" fill="#fff"/></clipPath></defs></svg>